<?xml version="1.0" encoding="UTF-8"?>
<svg width="98px" height="139px" viewBox="0 0 98 139" version="1.1" xmlns="http://www.w3.org/2000/svg" xmlns:xlink="http://www.w3.org/1999/xlink">
    <!-- Generator: Sketch 45.2 (43514) - http://www.bohemiancoding.com/sketch -->
    <title>Group 41</title>
    <desc>Created with Sketch.</desc>
    <defs>
        <radialGradient cx="12.4114636%" cy="0%" fx="12.4114636%" fy="0%" r="125.985053%" gradientTransform="translate(0.124115,0.000000),scale(1.000000,0.710145),rotate(55.515994),translate(-0.124115,-0.000000)" id="radialGradient-1">
            <stop stop-color="#D72169" offset="0%"></stop>
            <stop stop-color="#983D78" offset="100%"></stop>
        </radialGradient>
        <path d="M40.2805197,121 L58,121 C58.0903305,121 58.1792622,121.005988 58.26642,121.01759 L61.3908524,114 L37.1639184,114 L40.2805197,121 L40.2805197,121 Z M39.2505173,121.14517 L36.0692827,114 L36,114 C25,95 0,72.5962242 0,49 C0,21.9380473 21.9380473,0 49,0 C76.0619527,0 98,21.9380473 98,49 C98,72.565533 76.4036828,94.5924412 63.236651,112.31286 L59.1931442,121.394727 C59.6828202,121.759281 60,122.3426 60,123 L60,136 C60,137.104569 59.1045695,138 58,138 L40,138 C38.8954305,138 38,137.104569 38,136 L38,123 C38,122.160458 38.5172857,121.441735 39.2505173,121.14517 L39.2505173,121.14517 Z" id="path-2"></path>
    </defs>
    <g id="Page-1" stroke="none" stroke-width="1" fill="none" fill-rule="evenodd">
        <g id="Desktop-HD-Copy-16" transform="translate(-334.000000, -3107.000000)">
            <g id="Group-20" transform="translate(160.000000, 2998.000000)">
                <g id="Group-18" transform="translate(0.000000, 61.000000)">
                    <g id="Group-13" transform="translate(173.000000, 48.500000)">
                        <g id="Group-11" transform="translate(1.000000, 0.000000)">
                            <g id="Group-41">
                                <mask id="mask-3" fill="white">
                                    <use xlink:href="#path-2"></use>
                                </mask>
                                <use id="Mask" fill="url(#radialGradient-1)" xlink:href="#path-2"></use>
                                <path d="M45,-6.10622664e-16 C39.6666667,23.4536021 37,40.7869354 37,52 C37,63.2130646 40.3333333,83.8797313 47,114 L43,114 C25,90.3333333 16,69.6666667 16,52 C16,34.7690322 26.6820264,16.5967786 40,-8.60672644e-13 C40.2245038,-0.279775249 41.8911704,-0.279775249 45,-6.10622664e-16 Z" id="Rectangle-11" fill-opacity="0.0626415308" fill="#000000" mask="url(#mask-3)"></path>
                                <path d="M55,0.0957508087 C60.3333333,23.5493529 63,40.8826862 63,52.0957508 C63,63.3088154 59.6666667,83.9754821 53,114.095751 L57,114.095751 C75,90.4290841 84,69.7624175 84,52.0957508 C84,34.864783 73.3179736,16.6925294 60,0.0957508087 C59.7754962,-0.184024441 58.1088296,-0.184024441 55,0.0957508087 Z" id="Rectangle-11" fill-opacity="0.0899999961" fill="#000000" mask="url(#mask-3)"></path>
                            </g>
                        </g>
                    </g>
                </g>
            </g>
        </g>
    </g>
</svg>