<?xml version="1.0" encoding="UTF-8"?>
<svg width="333px" height="204px" viewBox="0 0 333 204" version="1.1" xmlns="http://www.w3.org/2000/svg" xmlns:xlink="http://www.w3.org/1999/xlink">
    <!-- Generator: Sketch 45.2 (43514) - http://www.bohemiancoding.com/sketch -->
    <title>Oval 3</title>
    <desc>Created with Sketch.</desc>
    <defs>
        <linearGradient x1="50%" y1="100%" x2="50%" y2="10.0608366%" id="linearGradient-1">
            <stop stop-color="#E2E2E2" offset="0%"></stop>
            <stop stop-color="#FFFFFF" offset="100%"></stop>
        </linearGradient>
    </defs>
    <g id="Page-1" stroke="none" stroke-width="1" fill="none" fill-rule="evenodd">
        <g id="Desktop-HD-Copy-16" transform="translate(0.000000, -1757.000000)" fill="url(#linearGradient-1)">
            <path d="M-18.1065607,1962.90921 C-3.02204589,1962.06065 17.8412644,1956.96074 44.4833703,1947.60948 C67.7952129,1952.95306 85.4456081,1954.9569 97.4345557,1953.621 C109.423503,1952.28511 127.943286,1947.11849 152.993903,1938.12113 C179.971777,1937.72689 199.083969,1936.54802 210.330479,1934.58452 C221.071618,1932.70925 261.434829,1924.63423 331.420113,1910.35945 L331.420113,1910.35945 C332.502398,1910.13869 333.200809,1909.08237 332.980057,1908.00009 C332.817347,1907.20236 332.187318,1906.58289 331.386961,1906.43367 C294.673041,1899.58889 272.732478,1894.86855 265.565274,1892.27266 C253.861777,1888.03377 233.309296,1879.47891 222.319427,1875.47123 C214.992848,1872.79944 203.669953,1872.1315 188.350742,1873.46739 C185.686531,1866.11998 181.690215,1860.72384 176.361794,1857.27897 C171.033373,1853.8341 162.374689,1852.2168 150.385741,1852.42707 C149.529388,1837.21843 143.86794,1826.53129 133.401399,1820.36562 C122.934857,1814.19996 106.616567,1811.52817 84.4465291,1812.35026 C83.7804764,1786.30034 72.1245551,1769.2677 49.4787651,1761.25233 C26.8329752,1753.23697 4.5202115,1756.91068 -17.4595258,1772.27346 C-53.4263687,1749.56327 -85.0638695,1744.21969 -112.372028,1756.24273 C-139.680186,1768.26578 -152.335187,1797.32146 -150.337029,1843.40979 C-163.658082,1844.07773 -172.982819,1848.41939 -178.31124,1856.43475 C-183.639661,1864.45011 -184.305714,1875.47123 -180.309398,1889.49811 C-200.290977,1895.50963 -208.616635,1904.52692 -205.286372,1916.54996 C-200.290977,1934.58452 -168.974457,1934.92935 -154.333345,1945.60564 C-144.307283,1952.91664 -120.662414,1953.58459 -83.3987378,1947.60948 C-54.9551345,1958.65787 -33.1910755,1963.75778 -18.1065607,1962.90921 Z" id="Oval-3"></path>
        </g>
    </g>
</svg>