<?xml version="1.0" encoding="UTF-8"?>
<svg width="477px" height="213px" viewBox="0 0 477 213" version="1.1" xmlns="http://www.w3.org/2000/svg" xmlns:xlink="http://www.w3.org/1999/xlink">
    <!-- Generator: Sketch 45.2 (43514) - http://www.bohemiancoding.com/sketch -->
    <title>Oval 3</title>
    <desc>Created with Sketch.</desc>
    <defs>
        <linearGradient x1="50%" y1="100%" x2="50%" y2="10.0608366%" id="linearGradient-1">
            <stop stop-color="#E2E2E2" offset="0%"></stop>
            <stop stop-color="#FFFFFF" offset="100%"></stop>
        </linearGradient>
    </defs>
    <g id="Page-1" stroke="none" stroke-width="1" fill="none" fill-rule="evenodd">
        <g id="Desktop-HD-Copy-16" transform="translate(-963.000000, -1612.000000)" fill="url(#linearGradient-1)">
            <path d="M1150.89344,1824.90921 C1165.97795,1824.06065 1186.84126,1818.96074 1213.48337,1809.60948 C1236.79521,1814.95306 1254.44561,1816.9569 1266.43456,1815.621 C1278.4235,1814.28511 1296.94329,1809.11849 1321.9939,1800.12113 C1348.97178,1799.72689 1368.08397,1798.54802 1379.33048,1796.58452 C1390.07162,1794.70925 1430.43483,1786.63423 1500.42011,1772.35945 L1500.42011,1772.35945 C1501.5024,1772.13869 1502.20081,1771.08237 1501.98006,1770.00009 C1501.81735,1769.20236 1501.18732,1768.58289 1500.38696,1768.43367 C1463.67304,1761.58889 1441.73248,1756.86855 1434.56527,1754.27266 C1422.86178,1750.03377 1402.3093,1741.47891 1391.31943,1737.47123 C1383.99285,1734.79944 1372.66995,1734.1315 1357.35074,1735.46739 C1354.68653,1728.11998 1350.69022,1722.72384 1345.36179,1719.27897 C1340.03337,1715.8341 1331.37469,1714.2168 1319.38574,1714.42707 C1318.52939,1699.21843 1312.86794,1688.53129 1302.4014,1682.36562 C1291.93486,1676.19996 1275.61657,1673.52817 1253.44653,1674.35026 C1252.78048,1648.30034 1241.12456,1631.2677 1218.47877,1623.25233 C1195.83298,1615.23697 1173.52021,1618.91068 1151.54047,1634.27346 C1115.57363,1611.56327 1083.93613,1606.21969 1056.62797,1618.24273 C1029.31981,1630.26578 1016.66481,1659.32146 1018.66297,1705.40979 C1005.34192,1706.07773 996.017181,1710.41939 990.68876,1718.43475 C985.360339,1726.45011 984.694286,1737.47123 988.690602,1751.49811 C968.709023,1757.50963 960.383365,1766.52692 963.713628,1778.54996 C968.709023,1796.58452 1000.02554,1796.92935 1014.66666,1807.60564 C1024.69272,1814.91664 1048.33759,1815.58459 1085.60126,1809.60948 C1114.04487,1820.65787 1135.80892,1825.75778 1150.89344,1824.90921 Z" id="Oval-3"></path>
        </g>
    </g>
</svg>