<?xml version="1.0" encoding="UTF-8"?>
<svg width="539px" height="213px" viewBox="0 0 539 213" version="1.1" xmlns="http://www.w3.org/2000/svg" xmlns:xlink="http://www.w3.org/1999/xlink">
    <!-- Generator: Sketch 45.2 (43514) - http://www.bohemiancoding.com/sketch -->
    <title>Oval 3</title>
    <desc>Created with Sketch.</desc>
    <defs>
        <linearGradient x1="50%" y1="100%" x2="50%" y2="10.0608366%" id="linearGradient-1">
            <stop stop-color="#E2E2E2" offset="0%"></stop>
            <stop stop-color="#FFFFFF" offset="100%"></stop>
        </linearGradient>
    </defs>
    <g id="Page-1" stroke="none" stroke-width="1" fill="none" fill-rule="evenodd">
        <path d="M187.893439,212.909213 C202.977954,212.060648 223.841264,206.960738 250.48337,197.609483 C273.795213,202.953057 291.445608,204.956898 303.434556,203.621004 C315.423503,202.28511 333.943286,197.118486 358.993903,188.12113 C385.971777,187.72689 405.083969,186.54802 416.330479,184.584521 C427.071618,182.709253 467.434829,174.634229 537.420113,160.359447 L537.420113,160.359447 C538.502398,160.138695 539.200809,159.082374 538.980057,158.000088 C538.817347,157.202365 538.187318,156.582888 537.386961,156.433673 C500.673041,149.588891 478.732478,144.868554 471.565274,142.272662 C459.861777,138.033769 439.309296,129.478912 428.319427,125.471232 C420.992848,122.799445 409.669953,122.131498 394.350742,123.467392 C391.686531,116.119977 387.690215,110.723837 382.361794,107.27897 C377.033373,103.834104 368.374689,102.216803 356.385741,102.427068 C355.529388,87.2184341 349.86794,76.5312857 339.401399,70.3656232 C328.934857,64.1999607 312.616567,61.5281737 290.446529,62.350262 C289.780476,36.300338 278.124555,19.2676953 255.478765,11.2523341 C232.832975,3.23697281 210.520212,6.91068005 188.540474,22.2734558 C152.573631,-0.436734427 120.936131,-5.78030859 93.627972,6.24273328 C66.3198135,18.2657751 53.6648132,47.3214597 55.6629712,93.4097868 C42.3419182,94.0777336 33.0171812,98.4193876 27.68876,106.434749 C22.3603388,114.45011 21.6942862,125.471232 25.6906021,139.498114 C5.70902268,145.509635 -2.6166354,154.526916 0.713627836,166.549958 C5.70902268,184.584521 37.0255432,184.929351 51.6666553,195.605643 C61.6927166,202.916642 85.3375855,203.584589 122.601262,197.609483 C151.044865,208.657868 172.808925,213.757777 187.893439,212.909213 Z" id="Oval-3" fill="url(#linearGradient-1)"></path>
    </g>
</svg>