<?xml version="1.0" encoding="UTF-8"?>
<svg width="1440px" height="489px" viewBox="0 0 1440 489" version="1.1" xmlns="http://www.w3.org/2000/svg" xmlns:xlink="http://www.w3.org/1999/xlink">
    <!-- Generator: Sketch 45.2 (43514) - http://www.bohemiancoding.com/sketch -->
    <title>earthBottom</title>
    <desc>Created with Sketch.</desc>
    <defs>
        <rect id="path-1" x="0" y="0" width="1440" height="489"></rect>
        <linearGradient x1="31.4900343%" y1="21.713156%" x2="22.1824841%" y2="8.43586967%" id="linearGradient-3">
            <stop stop-color="#5E9FC7" offset="0%"></stop>
            <stop stop-color="#3B79AA" offset="100%"></stop>
        </linearGradient>
        <path d="M1350.84106,209.700078 C1350.84106,209.700078 1550.97124,147.159806 1582.18315,141.175066 C1608.13692,136.198548 1927.36878,26.9407265 1980.01278,75.700078 C1991.43841,86.2826048 2012.19549,226.443431 2022.09596,367.325096 C2030.12073,481.515961 2248.59655,281.001468 2231.60571,327.521143 C2193.65261,431.433929 1927.81176,480.960757 1919.80958,352.960757 C1916.85886,305.762095 1899.87503,425.755563 1915.9953,382.700078 C1932.11558,339.644593 1934.21654,251.586347 1929.99913,252.700078 C1876.98466,266.700078 1893.9893,219.700078 1850.97756,219.700078 C1807.96582,219.700078 1779.10803,259.733832 1782.959,277.700078 C1788.96063,305.700078 1737.36247,332.977375 1736.94644,360.700078 C1736.75002,373.788547 1728.94425,412.219842 1728.94425,457.700078 C1728.94425,505.700078 1668.6212,615.036076 1613.91286,601.700078 C1559.20451,588.36408 1540.89293,553.700078 1532.89075,520.700078 C1523.45234,481.777299 1537.07053,428.186738 1509.88447,413.700078 C1452.27816,383.003358 1367.59727,519.85145 1321.83314,439.700078 C1300.04869,401.546752 1383.30617,341.644879 1408.85689,288.700078 C1434.40762,235.755277 1350.84106,209.700078 1350.84106,209.700078 Z" id="path-4"></path>
        <filter x="-0.5%" y="-0.9%" width="102.2%" height="103.7%" filterUnits="objectBoundingBox" id="filter-5">
            <feOffset dx="10" dy="10" in="SourceAlpha" result="shadowOffsetOuter1"></feOffset>
            <feColorMatrix values="0 0 0 0 0   0 0 0 0 0   0 0 0 0 0  0 0 0 0.36645154 0" type="matrix" in="shadowOffsetOuter1"></feColorMatrix>
        </filter>
        <path d="M642.88913,744.671551 C672.67378,754.124415 684.390001,749.918188 696.903872,773.671551 C709.417744,797.424914 743.556249,818.026319 725.9778,847.558301 C712.931625,869.476015 685.582843,821.730288 647.632394,815.558301 C609.681945,809.386314 499.303702,813.865902 514.854186,781.643048 C529.267398,751.776785 581.113162,721.140322 606.879302,711.671551 C632.645443,702.20278 615.420052,735.953589 642.88913,744.671551 Z" id="path-6"></path>
        <filter x="-2.3%" y="-3.5%" width="109.2%" height="114.0%" filterUnits="objectBoundingBox" id="filter-7">
            <feOffset dx="10" dy="10" in="SourceAlpha" result="shadowOffsetOuter1"></feOffset>
            <feColorMatrix values="0 0 0 0 0   0 0 0 0 0   0 0 0 0 0  0 0 0 0.36645154 0" type="matrix" in="shadowOffsetOuter1"></feColorMatrix>
        </filter>
        <path d="M408.033831,1059.41604 C429.928777,1066.14464 427.503567,1118.90884 484.224531,1087.24641 C504.456354,1075.95273 533.829439,988.689816 573.10339,955.645044 C612.377342,922.600272 726.884799,884.36856 746.928896,900.938085 C767.590107,918.01775 737.68247,954.252171 753.931238,983.400148 C770.180006,1012.54812 843.144783,1045.39042 823.819755,1087.57913 C790.015552,1161.3775 745.546441,1259.03694 750.658033,1273.47662 C754.821336,1285.2375 576.469477,1341.6069 598.104371,1369.3795 C619.739266,1397.15209 605.239494,1464.38071 559.511649,1475.22445 C539.702257,1479.92198 508.812846,1450.39686 456.043654,1437.94132 C445.172693,1435.37536 434.108653,1433.54418 423.324966,1431.98447 C381.763099,1425.97314 344.365708,1423.99429 338.237258,1399.52247 C333.229896,1379.52732 318.472795,1313.58612 313.67154,1244.57846 C308.870286,1175.5708 315.786264,1127.5411 311.637867,1105.7326 C302.418661,1057.26642 347.250293,1040.73646 408.033831,1059.41604 Z" id="path-8"></path>
        <filter x="-1.0%" y="-0.9%" width="103.9%" height="103.5%" filterUnits="objectBoundingBox" id="filter-9">
            <feOffset dx="10" dy="10" in="SourceAlpha" result="shadowOffsetOuter1"></feOffset>
            <feColorMatrix values="0 0 0 0 0   0 0 0 0 0   0 0 0 0 0  0 0 0 0.36645154 0" type="matrix" in="shadowOffsetOuter1"></feColorMatrix>
        </filter>
        <path d="M917.679422,527.503935 C891.141956,568.059611 989.699377,595.490155 1040.8046,488.900963 C1091.90983,382.311772 1091.58013,367.893336 1133.35688,338.640937 C1159.72434,320.178244 1225.76368,292.073392 1219.87971,278.057006 C1216.44108,269.865749 1077.87578,326.110663 944.804472,411.007512 C811.733163,495.90436 701.899387,588.969734 709.683234,603.552208 C712.72265,609.246334 782.015787,608.326089 808.89195,574.379153 C858.7744,511.37327 933.19664,503.789868 917.679422,527.503935 Z" id="path-10"></path>
        <filter x="-1.0%" y="-1.5%" width="103.9%" height="106.1%" filterUnits="objectBoundingBox" id="filter-11">
            <feOffset dx="10" dy="10" in="SourceAlpha" result="shadowOffsetOuter1"></feOffset>
            <feColorMatrix values="0 0 0 0 0   0 0 0 0 0   0 0 0 0 0  0 0 0 0.36645154 0" type="matrix" in="shadowOffsetOuter1"></feColorMatrix>
        </filter>
    </defs>
    <g id="Page-1" stroke="none" stroke-width="1" fill="none" fill-rule="evenodd">
        <g id="Artboard-4" transform="translate(-3535.000000, -1672.000000)">
            <g id="earthBottom" transform="translate(3535.000000, 1672.000000)">
                <mask id="mask-2" fill="white">
                    <use xlink:href="#path-1"></use>
                </mask>
                <use id="Mask" fill-opacity="0" fill="#D8D8D8" xlink:href="#path-1"></use>
                <g id="earth" mask="url(#mask-2)">
                    <g transform="translate(696.267321, 1687.231926) rotate(35.000000) translate(-696.267321, -1687.231926) translate(-1245.732679, -262.768074)">
                        <path d="M1942.03007,3789.46813 C2953.81573,3789.46813 3774.03007,2969.47765 3774.03007,1957.96813 C3774.03007,946.458609 2953.81573,126.468129 1942.03007,126.468129 C1572.25808,126.468129 1228.07321,235.989732 940.16149,424.355294 C440.277059,751.403498 110.03007,1316.12968 110.03007,1957.96813 C110.03007,2969.47765 930.244408,3789.46813 1942.03007,3789.46813 Z" id="Oval" fill="url(#linearGradient-3)" fill-rule="evenodd"></path>
                        <g id="Rectangle-20" fill="none">
                            <use fill="black" fill-opacity="1" filter="url(#filter-5)" xlink:href="#path-4"></use>
                            <use fill="#58A294" fill-rule="evenodd" xlink:href="#path-4"></use>
                        </g>
                        <g id="Rectangle-20" fill="none" transform="translate(622.134849, 781.643048) rotate(-14.000000) translate(-622.134849, -781.643048) ">
                            <use fill="black" fill-opacity="1" filter="url(#filter-7)" xlink:href="#path-6"></use>
                            <use fill="#58A294" fill-rule="evenodd" xlink:href="#path-6"></use>
                        </g>
                        <g id="Rectangle-20" fill="none" transform="translate(568.742850, 1186.334207) rotate(33.000000) translate(-568.742850, -1186.334207) ">
                            <use fill="black" fill-opacity="1" filter="url(#filter-9)" xlink:href="#path-8"></use>
                            <use fill="#58A294" fill-rule="evenodd" xlink:href="#path-8"></use>
                        </g>
                        <g id="Path-7" fill="none" transform="translate(964.771076, 441.733359) rotate(-1.000000) translate(-964.771076, -441.733359) ">
                            <use fill="black" fill-opacity="1" filter="url(#filter-11)" xlink:href="#path-10"></use>
                            <use fill="#58A294" fill-rule="evenodd" xlink:href="#path-10"></use>
                        </g>
                    </g>
                </g>
            </g>
        </g>
    </g>
</svg>