<?xml version="1.0" encoding="UTF-8"?>
<svg width="1792px" height="1408px" viewBox="0 0 1792 1408" version="1.1" xmlns="http://www.w3.org/2000/svg" xmlns:xlink="http://www.w3.org/1999/xlink">
    <!-- Generator: Sketch 45.2 (43514) - http://www.bohemiancoding.com/sketch -->
    <title>envelope</title>
    <desc>Created with Sketch.</desc>
    <defs></defs>
    <g id="Page-1" stroke="none" stroke-width="1" fill="none" fill-rule="evenodd">
        <g id="envelope" fill-rule="nonzero" fill="#484646">
            <path d="M1792,454 L1792,1248 C1792,1292 1776.33333,1329.66667 1745,1361 C1713.66667,1392.33333 1676,1408 1632,1408 L160,1408 C116,1408 78.3333333,1392.33333 47,1361 C15.6666667,1329.66667 0,1292 0,1248 L0,454 C29.3333333,486.666667 63,515.666667 101,541 C342.333333,705 508,820 598,886 C636,914 666.833333,935.833333 690.5,951.5 C714.166667,967.166667 745.666667,983.166667 785,999.5 C824.333333,1015.83333 861,1024 895,1024 L897,1024 C931,1024 967.666667,1015.83333 1007,999.5 C1046.33333,983.166667 1077.83333,967.166667 1101.5,951.5 C1125.16667,935.833333 1156,914 1194,886 C1307.33333,804 1473.33333,689 1692,541 C1730,515 1763.33333,486 1792,454 Z M1792,160 C1792,212.666667 1775.66667,263 1743,311 C1710.33333,359 1669.66667,400 1621,434 C1370.33333,608 1214.33333,716.333333 1153,759 C1146.33333,763.666667 1132.16667,773.833333 1110.5,789.5 C1088.83333,805.166667 1070.83333,817.833333 1056.5,827.5 C1042.16667,837.166667 1024.83333,848 1004.5,860 C984.166667,872 965,881 947,887 C929,893 912.333333,896 897,896 L895,896 C879.666667,896 863,893 845,887 C827,881 807.833333,872 787.5,860 C767.166667,848 749.833333,837.166667 735.5,827.5 C721.166667,817.833333 703.166667,805.166667 681.5,789.5 C659.833333,773.833333 645.666667,763.666667 639,759 C578.333333,716.333333 491,655.5 377,576.5 C263,497.5 194.666667,450 172,434 C130.666667,406 91.6666667,367.5 55,318.5 C18.3333333,269.5 0,224 0,182 C0,130 13.8333333,86.6666667 41.5,52 C69.1666667,17.3333333 108.666667,0 160,0 L1632,0 C1675.33333,0 1712.83333,15.6666667 1744.5,47 C1776.16667,78.3333333 1792,116 1792,160 Z" id="Shape"></path>
        </g>
    </g>
</svg>