<?xml version="1.0" encoding="UTF-8"?>
<svg width="172px" height="112px" viewBox="0 0 172 112" version="1.1" xmlns="http://www.w3.org/2000/svg" xmlns:xlink="http://www.w3.org/1999/xlink">
    <!-- Generator: Sketch 45.2 (43514) - http://www.bohemiancoding.com/sketch -->
    <title>food truck</title>
    <desc>Created with Sketch.</desc>
    <defs></defs>
    <g id="Page-1" stroke="none" stroke-width="1" fill="none" fill-rule="evenodd">
        <g id="Desktop-HD-Copy-16" transform="translate(-1164.000000, -9586.000000)">
            <g id="food-truck" transform="translate(1164.000000, 9586.000000)">
                <rect id="Rectangle-82" fill="#49535F" x="5" y="21.2857143" width="151" height="77.1428571"></rect>
                <polygon id="Rectangle-82" fill="#2D333B" points="156 21.5714286 171.443182 1 171.443182 79.8571429 156 98.7142857"></polygon>
                <polygon id="Rectangle-82" fill="#626F80" points="20.4431818 0.714285714 171.443182 1.42857143 156 22 5 21.2857143"></polygon>
                <ellipse id="Oval-24" fill="#2B2B2B" cx="34.8693182" cy="98.8571429" rx="12.8693182" ry="12.8571429"></ellipse>
                <ellipse id="Oval-24" fill="#2B2B2B" cx="125.869318" cy="98.8571429" rx="12.8693182" ry="12.8571429"></ellipse>
                <ellipse id="Oval-24" fill="#FFFFFF" cx="126.005682" cy="99" rx="6.00568182" ry="6"></ellipse>
                <ellipse id="Oval-24" fill="#FFFFFF" cx="35.0056818" cy="99" rx="6.00568182" ry="6"></ellipse>
                <polygon id="Rectangle-85" fill="#F8CA23" points="5 50 156 66.2608696 156 84 5 67.7391304"></polygon>
                <rect id="Rectangle-10" fill="#8CC0FD" x="109" y="43" width="30" height="20"></rect>
                <rect id="Rectangle-10" fill="#8CC0FD" x="20" y="43" width="30" height="20"></rect>
                <g id="Group-22" transform="translate(0.000000, 1.000000)">
                    <path d="M0.014434876,37.4545455 C0.247245725,41.1086897 3.2671217,44 6.95827401,44 C10.5059237,44 13.4334775,41.3291332 13.8624466,37.8771529 C14.2914157,41.3291332 17.2189695,44 20.7666192,44 C24.3142689,44 27.2418227,41.3291332 27.6707918,37.8771529 C28.0997609,41.3291332 31.0273147,44 34.5749644,44 C38.1226141,44 41.0501679,41.3291332 41.479137,37.8771529 C41.9081061,41.3291332 44.8356599,44 48.3833096,44 C51.9309593,44 54.8585131,41.3291332 55.2874822,37.8771529 C55.7164513,41.3291332 58.6440051,44 62.1916548,44 C65.7393045,44 68.6668583,41.3291332 69.0958274,37.8771529 C69.5247965,41.3291332 72.4523503,44 76,44 C79.5476497,44 82.4752035,41.3291332 82.9041726,37.8771529 C83.3331417,41.3291332 86.2606955,44 89.8083452,44 C93.3559949,44 96.2835487,41.3291332 96.7125178,37.8771529 C97.1414869,41.3291332 100.069041,44 103.61669,44 C107.16434,44 110.091894,41.3291332 110.520863,37.8771529 C110.949832,41.3291332 113.877386,44 117.425036,44 C120.972685,44 123.900239,41.3291332 124.329208,37.8771529 C124.758177,41.3291332 127.685731,44 131.233381,44 C134.78103,44 137.708584,41.3291332 138.137553,37.8771529 C138.566522,41.3291332 141.494076,44 145.041726,44 C148.732878,44 151.752754,41.1086897 151.985565,37.4545455 L152,37.4545455 L152,26 L0,26 L0,37.4545455 L0.014434876,37.4545455 Z" id="Combined-Shape" fill="#D6AE1E"></path>
                    <polygon id="Rectangle-82" fill="#F8CA23" points="20.2840909 0 172 0 151.715909 26 0 26"></polygon>
                </g>
                <polygon id="Rectangle-85" fill="#BD9A1A" points="171.5 47 156 66.2608696 156 84 171.5 64.7391304"></polygon>
            </g>
        </g>
    </g>
</svg>