<?xml version="1.0" encoding="UTF-8"?>
<svg width="589px" height="105px" viewBox="0 0 589 105" version="1.1" xmlns="http://www.w3.org/2000/svg" xmlns:xlink="http://www.w3.org/1999/xlink">
    <!-- Generator: Sketch 44.1 (41455) - http://www.bohemiancoding.com/sketch -->
    <title>Artboard 7</title>
    <desc>Created with Sketch.</desc>
    <defs></defs>
    <g id="Page-1" stroke="none" stroke-width="1" fill="none" fill-rule="evenodd">
        <g id="Artboard-7" fill-rule="nonzero" fill="#FFFFFF">
            <g id="logo-copy" transform="translate(297.137604, 60.283370) rotate(10.000000) translate(-297.137604, -60.283370) translate(8.637604, -26.216630)">
                <path d="M119.278129,127.745819 C120.539271,134.908843 120.242532,138.423341 114.97541,139.361534 L113.80329,139.570021 C108.521332,140.508213 105.153341,137.634068 103.892199,130.471045 L97.2452402,92.7050812 L77.957189,96.1153358 L84.6338221,133.866407 C87.9573017,152.749389 97.8980665,161.282471 117.008074,157.902001 L118.180194,157.693513 C137.290202,154.313043 142.779878,143.039843 139.471235,124.156861 L132.839113,86.40579 L112.646007,89.9351801 L119.278129,127.745819 Z" id="Shape"></path>
                <path d="M422.293414,85.9888156 C419.077042,86.6230456 415.746211,86.3021837 412.708736,85.0655153 C409.7662,83.955439 407.212695,82.0034418 405.36444,79.4512534 C403.378345,76.7377564 402.066025,73.5877491 401.536503,70.2629255 C400.679991,65.9102561 401.764245,61.3993699 404.503896,57.9175061 C407.221698,54.2678642 411.261903,51.8390382 415.750313,51.1565647 C418.200055,50.7103855 420.706086,50.6701405 423.168795,51.0374292 C425.53249,51.439648 427.804385,52.2670184 429.875102,53.4797076 L438.050268,36.860301 C434.225592,34.7899405 430.066751,33.4136475 425.765263,32.794801 C421.356403,32.1491168 416.872764,32.2195118 412.486182,33.0032882 C407.320381,33.8723404 402.35702,35.6843458 397.8421,38.3494951 C393.675798,40.8002385 390.042941,44.0667325 387.159487,47.9547973 C384.364452,51.8836042 382.395658,56.3424713 381.373071,61.0597057 C380.346373,66.1658068 380.346373,71.4263318 381.373071,76.5324328 C382.408981,82.5112722 385.033448,88.0986403 388.969596,92.7050812 C393.100016,97.4695796 398.436598,101.025048 404.414874,102.995413 C411.121782,105.17353 418.272234,105.593894 425.186622,104.216552 C431.36657,103.033389 437.242325,100.601419 442.456846,97.06842 C444.830683,95.5270801 446.89018,93.5458714 448.525164,91.230779 L434.637767,78.7960079 C431.590766,82.6897905 427.173196,85.2638208 422.293414,85.9888156 L422.293414,85.9888156 Z" id="Shape"></path>
                <path d="M569.802495,41.2385317 C566.341839,38.8019012 562.272074,37.3835521 558.051621,37.1432479 C553.996184,36.9248327 549.955585,36.6319579 545.929822,36.2646233 C542.260147,35.9270726 540.217592,34.566942 539.802157,32.1842314 C539.337265,29.5334658 541.458951,27.7911087 546.167214,26.95716 C550.117262,26.2642204 554.184739,26.9140742 557.725207,28.8037607 L567.131842,15.4010134 C564.745945,13.9070264 562.19709,12.6928337 559.535317,11.7822717 C556.783057,10.8088596 553.931794,10.1445957 551.033737,9.80164347 C548.287176,9.54073474 545.518288,9.64589168 542.799223,10.1143742 C538.375523,10.8485033 534.137038,12.4419279 530.321338,14.8053358 C526.831392,16.9567936 524.018064,20.0541458 522.205519,23.7405006 C520.361839,27.7147511 519.841621,32.1790967 520.721823,36.4731105 C521.809867,42.6780861 524.065085,47.021569 527.487478,49.5035592 C530.969421,52.0204459 535.077751,53.5203887 539.357048,53.8371142 C544.876398,54.2938004 548.897215,54.5916392 551.419498,54.7306306 C554.990261,55.0383974 556.968522,56.1453651 557.354283,58.0515336 C557.997218,61.6950952 555.227652,64.0629139 549.045584,65.1549896 C543.397776,66.2865027 537.535427,65.0136878 532.858458,61.6404915 L524.801988,77.4259493 C527.844198,79.0169508 531.028288,80.3182411 534.312481,81.312746 C537.233839,82.1972852 540.26716,82.6537185 543.318517,82.6679127 C546.801338,82.7139324 550.280175,82.4146414 553.704391,81.7743962 C558.185042,80.9852842 562.459986,79.2932865 566.271298,76.8004878 C570.020807,74.5270179 573.039113,71.2183597 574.965758,67.2696453 C576.889134,63.2621496 577.456955,58.7341151 576.582987,54.3732241 C575.435595,48.0590409 573.175431,43.6808101 569.802495,41.2385317 Z" id="Shape"></path>
                <path d="M207.09811,79.9129035 C202.954092,77.2839187 198.345189,75.4790276 193.52229,74.5964805 C188.614104,73.7323499 183.593513,73.7323499 178.685327,74.5964805 C175.018848,75.1973006 171.456639,76.3205706 168.106573,77.9322753 L171.830651,99.1681838 C172.691194,98.4384786 173.15114,97.7981252 173.892988,97.1875556 C178.659482,93.2320208 185.153806,92.0993729 190.970332,94.2091673 C193.847613,95.2102058 196.425349,96.9265251 198.462998,99.1979676 C200.492231,101.399962 201.837937,104.147923 202.335445,107.105589 C203.175581,111.64915 202.053774,116.337058 199.249357,120.00201 C193.684521,127.877194 182.844339,129.795694 174.931576,124.305781 C171.049232,121.828846 168.400274,117.810904 167.646627,113.25596 L157.260753,54.2391966 L156.93434,54.1200611 L156.93434,54.1200611 L134.827266,58.0962094 L145.287325,117.663975 C146.444608,124.261105 150.153848,129.756231 154.545589,134.476977 C159.124082,139.277575 164.872882,142.794052 171.222335,144.677957 C177.607279,146.738713 184.398787,147.19384 191.000006,146.003339 C195.963094,145.1489 200.72339,143.371064 205.035773,140.761376 C209.290391,138.286011 213.024504,135.003394 216.029962,131.096506 C219.012042,127.249745 221.201027,122.845428 222.469203,118.140517 C224.901219,108.422958 223.076092,98.1253504 217.45431,89.8458284 C214.716203,85.8581051 211.191319,82.4772891 207.09811,79.9129035 Z" id="Shape"></path>
                <polygon id="Shape" points="235.777959 135.981063 254.027423 132.615484 248.86416 103.218792 237.795786 40.1812039 219.531485 43.4872149"></polygon>
                <path d="M260.793077,59.9428101 C257.158322,60.5990524 253.651878,61.8358833 250.407204,63.6062277 C249.754377,64.0083101 248.077801,64.6337717 248.122312,64.9613944 L251.089704,82.072235 C250.971008,81.4318816 254.249977,80.4936893 256.074923,80.1809585 C259.353892,79.6001728 263.493405,79.8980116 265.61509,81.580801 C268.479726,83.5152161 270.505537,86.4693822 271.28281,89.8458284 L278.063302,128.445741 L299.22081,124.633404 L292.202927,84.6634328 C288.775589,65.0805299 277.514334,56.9942057 260.793077,59.9428101 Z" id="Shape"></path>
                <polygon id="Shape" points="455.246308 98.0363962 478.332621 93.9560043 472.457184 60.4640281 472.42751 60.2704328 470.958651 51.9905134 470.943814 51.8267021 461.937778 0.583531746 438.866301 4.73838339"></polygon>
                <polygon id="Shape" points="509.712797 19.7196764 485.395015 24.0234475 474.252457 42.4596709 479.029958 69.6672479 499.757195 90.1734512 525.632858 85.5867332 490.736322 52.5564072"></polygon>
                <path d="M45.6274478,73.7923156 L56.0133215,133.136702 L56.0133215,133.136702 C56.777428,137.621541 55.6487003,142.223315 52.8975594,145.839528 C47.3373605,153.71975 36.496375,155.645031 28.5797779,150.158191 C24.7044201,147.665759 22.0668258,143.637862 21.3245032,139.078587 C20.7809873,136.13064 21.1058251,133.087585 22.2592319,130.322125 C23.3989646,127.489629 25.2368709,124.994137 27.6005384,123.06975 C29.9421284,121.108096 32.7562246,119.798544 35.7608677,119.272305 C38.626792,118.754458 41.5796039,119.043102 44.2921211,120.106253 C45.2861976,120.46366 46.6363612,120.835958 46.7550569,121.46142 L43.0013054,100.091484 C40.9092937,99.4660226 35.8498895,99.8532131 32.1406489,100.508458 C27.2797404,101.366453 22.6083329,103.080607 18.3422738,105.571719 C14.1342917,108.065531 10.4463934,111.352439 7.48161724,115.25148 C4.51725416,119.05948 2.36574317,123.439278 1.16107123,128.118118 C-1.2750578,137.825766 0.521663483,148.115317 6.10177974,156.412806 C8.87136221,160.39204 12.4018085,163.778641 16.4876535,166.375515 C20.624519,169.018681 25.2362688,170.824687 30.0634741,171.691938 C41.6139861,173.943356 53.5701805,171.070838 62.8531612,163.814101 C68.0797039,159.86996 72.1745575,154.609125 74.7227312,148.564753 C77.2921756,142.635525 78.0562052,136.075757 76.9186016,129.711556 L66.4585431,70.14379 L45.6274478,73.7923156 Z" id="Shape"></path>
                <path d="M369.503501,62.7871709 C366.801452,58.8367741 363.328757,55.4778661 359.295671,52.9138138 C355.177817,50.2739971 350.578265,48.4820289 345.764362,47.6420665 C340.858342,46.7532988 335.833418,46.7532988 330.927399,47.6420665 C326.002792,48.5017529 321.27926,50.2689121 316.995491,52.854246 C312.770207,55.2725613 309.063866,58.5067493 306.090324,62.3701966 C303.128902,66.1661987 300.959167,70.5217484 299.71043,75.1772662 C296.815301,86.528835 299.785216,98.5811488 307.618531,107.2694 C316.691455,116.772829 329.869699,121.140944 342.796969,118.92979 C346.461699,118.289437 352.455832,116.725783 353.182843,115.608887 L349.518113,94.7601691 C348.954308,97.2322314 343.375611,99.4362387 339.428979,100.13616 C335.002714,100.974825 330.427921,99.9400652 326.787887,97.2769072 C322.96109,94.7893916 320.375165,90.7796319 319.680982,86.2568706 C319.170093,83.2769285 319.520202,80.2124631 320.689895,77.4259493 C321.845704,74.5863336 323.698455,72.0863539 326.075712,70.1586819 C330.884201,66.2828397 337.339207,65.1580264 343.167893,67.1802937 C346.050523,68.1790944 348.633591,69.8955654 350.675396,72.169094 C352.503535,74.4948684 353.617152,77.3047512 353.88018,80.2554182 C353.88018,80.2554182 353.88018,80.2554182 353.88018,80.3298779 L359.814965,113.985665 L380.275136,110.560519 L374.829971,76.5324328 C374.091202,71.6111234 372.271841,66.9161557 369.503501,62.7871709 L369.503501,62.7871709 Z" id="Shape"></path>
            </g>
        </g>
    </g>
</svg>