<svg xmlns="http://www.w3.org/2000/svg" viewBox="0 0 389 116"><defs><style>.a{fill:#ec1873;}</style></defs><title>logo-nocircle</title><text></text><path class="a" d="M80.35,85.8c.85,4.81.65,7.17-2.9,7.8l-.79.14c-3.56.63-5.83-1.3-6.68-6.11L65.5,62.28l-13,2.29L57,89.92c2.24,12.68,8.94,18.41,21.82,16.14l.79-.14C92.49,103.65,96.2,96.08,94,83.4L89.49,58l-13.62,2.4Z"/><path class="a" d="M284.58,57.77a11.36,11.36,0,0,1-6.46-.62,10.83,10.83,0,0,1-4.95-3.77,14.21,14.21,0,0,1-2.58-6.17,10.19,10.19,0,0,1,2-8.29,11.64,11.64,0,0,1,7.58-4.54,15.36,15.36,0,0,1,5-.08,13.42,13.42,0,0,1,4.52,1.64l5.51-11.16A24.88,24.88,0,0,0,287,22.05a28,28,0,0,0-8.95.14,28.89,28.89,0,0,0-9.87,3.59,24.28,24.28,0,0,0-7.2,6.45,23.88,23.88,0,0,0-3.9,8.8A26.26,26.26,0,0,0,257,51.42a22.64,22.64,0,0,0,5.12,10.86,23.53,23.53,0,0,0,10.41,6.91,27.86,27.86,0,0,0,14,.82,31.28,31.28,0,0,0,11.64-4.8,15,15,0,0,0,4.09-3.92l-9.36-8.35A13,13,0,0,1,284.58,57.77Z"/><path class="a" d="M384,27.72A15.3,15.3,0,0,0,376,25q-4.1-.22-8.17-.59-3.71-.34-4.13-2.74Q363.26,19,368,18.13a12.14,12.14,0,0,1,7.79,1.24l6.34-9A24.77,24.77,0,0,0,377,7.93a26.62,26.62,0,0,0-5.73-1.33,21.07,21.07,0,0,0-5.55.21A23.23,23.23,0,0,0,357.34,10a14.65,14.65,0,0,0-5.47,6,13.71,13.71,0,0,0-1,8.55q1.1,6.25,4.56,8.75a15.66,15.66,0,0,0,8,2.91q5.58.46,8.13.6,3.61.31,4,2.23.65,3.67-5.6,4.77a14,14,0,0,1-10.87-2.36L353.67,52a37,37,0,0,0,6.41,2.61,21.36,21.36,0,0,0,6.07.91,35.66,35.66,0,0,0,7-.6,22.7,22.7,0,0,0,8.47-3.34,15.38,15.38,0,0,0,5.86-6.4,13.72,13.72,0,0,0,1.09-8.66Q387.41,30.17,384,27.72Z"/><path class="a" d="M139.54,53.69a25.78,25.78,0,0,0-9.15-3.57,28.94,28.94,0,0,0-10,0,26.3,26.3,0,0,0-7.13,2.24l2.51,14.26c.58-.49.89-.92,1.39-1.33a11.78,11.78,0,0,1,11.51-2,12.15,12.15,0,0,1,5.05,3.35,10.36,10.36,0,0,1,2.61,5.31,10.94,10.94,0,0,1-2.08,8.66,11.84,11.84,0,0,1-16.39,2.89,10.91,10.91,0,0,1-4.91-7.42l-7-39.63-.22-.08h0L90.82,39l7.05,40c.78,4.43,3.28,8.12,6.24,11.29a25.61,25.61,0,0,0,11.24,6.85,27.6,27.6,0,0,0,13.33.89,27.24,27.24,0,0,0,9.46-3.52,25.55,25.55,0,0,0,7.41-6.49,24.65,24.65,0,0,0,4.34-8.7,23.55,23.55,0,0,0-3.38-19A23.75,23.75,0,0,0,139.54,53.69Z"/><polygon class="a" points="158.87 91.34 171.17 89.08 167.69 69.34 160.23 27.01 147.92 29.22 158.87 91.34"/><path class="a" d="M175.73,40.27a23.29,23.29,0,0,0-7,2.46c-.44.27-1.57.69-1.54.91l2,11.49c-.08-.43,2.13-1.06,3.36-1.27,2.21-.39,5-.19,6.43.94a9.18,9.18,0,0,1,3.82,5.55l4.57,25.92,14.26-2.56-4.73-26.84C194.59,43.72,187,38.3,175.73,40.27Z"/><polygon class="a" points="306.79 65.86 322.35 63.12 318.39 40.63 318.37 40.5 317.38 34.93 317.37 34.82 311.3 0.41 295.75 3.2 306.79 65.86"/><polygon class="a" points="343.5 13.26 327.11 16.15 319.6 28.53 322.82 46.81 336.79 60.57 354.23 57.49 330.71 35.31 343.5 13.26"/><path class="a" d="M30.71,49.58l7,39.85h0A11,11,0,0,1,35.64,98a11.5,11.5,0,0,1-7.58,4.81,11.54,11.54,0,0,1-8.81-1.91,10.93,10.93,0,0,1-4.91-7.42A10.35,10.35,0,0,1,15,87.55a12.11,12.11,0,0,1,3.6-4.87,11.73,11.73,0,0,1,5.5-2.55,10.63,10.63,0,0,1,5.75.56c.67.24,1.58.49,1.66.91L28.95,67.26c-1.41-.42-4.82-.16-7.32.28a28.21,28.21,0,0,0-9.3,3.4A25.55,25.55,0,0,0,5,77.41,23.64,23.64,0,0,0,.74,86a22.51,22.51,0,0,0-.37,9.85,22.69,22.69,0,0,0,3.7,9.17,24.58,24.58,0,0,0,7,6.69,25.36,25.36,0,0,0,9.15,3.57A27.45,27.45,0,0,0,42.36,110a25,25,0,0,0,8-10.24,22,22,0,0,0,1.48-12.66l-7.05-40Z"/><path class="a" d="M249,42.18a23.78,23.78,0,0,0-6.88-6.63A24.85,24.85,0,0,0,233,32a28.15,28.15,0,0,0-10,0,27.3,27.3,0,0,0-9.39,3.5,24.83,24.83,0,0,0-7.35,6.39,24.12,24.12,0,0,0-4.3,8.6A23.45,23.45,0,0,0,207.32,72,26.64,26.64,0,0,0,231,79.88c2.47-.43,6.51-1.48,7-2.23l-2.47-14c-.38,1.66-4.14,3.14-6.8,3.61a11,11,0,0,1-8.52-1.92,10.77,10.77,0,0,1-4.79-7.4,10.63,10.63,0,0,1,.68-5.93,12.21,12.21,0,0,1,3.63-4.88,12.09,12.09,0,0,1,11.52-2,12.15,12.15,0,0,1,5.06,3.35,10.24,10.24,0,0,1,2.16,5.43s0,0,0,.05l4,22.6,13.79-2.3-3.68-22.83A22.55,22.55,0,0,0,249,42.18Z"/></svg>