<?xml version="1.0" encoding="UTF-8"?>
<svg width="455px" height="455px" viewBox="0 0 455 455" version="1.1" xmlns="http://www.w3.org/2000/svg" xmlns:xlink="http://www.w3.org/1999/xlink">
    <!-- Generator: Sketch 47.1 (45422) - http://www.bohemiancoding.com/sketch -->
    <title>logo-circle</title>
    <desc>Created with Sketch.</desc>
    <defs></defs>
    <g id="Page-1" stroke="none" stroke-width="1" fill="none" fill-rule="evenodd">
        <g id="logo-circle" transform="translate(-1.000000, 0.000000)" fill-rule="nonzero" fill="#FFFFFF">
            <path d="M228.14,454.29 C127.14,454.29 34.66,386.29 8.24,283.98 C-23.08,162.75 50.07,38.64 171.31,7.31 C260.23928,-15.6718388 354.25564,17.1824258 409.5149,90.5513293 C464.774159,163.920233 470.392567,263.353186 423.75,342.48 C382.910327,411.71767 308.53489,454.232586 228.15,454.29 L228.14,454.29 Z M228.48,9.76 C210.014264,9.77279773 191.624535,12.1248553 173.75,16.76 C88.6475157,38.7483997 25.168685,109.833829 12.9109979,196.872163 C0.653310711,283.910498 42.0304467,369.762888 117.75,414.4 C193.475765,459.034895 288.632456,453.65885 358.848936,400.778691 C429.065416,347.898533 460.51386,257.928021 438.53,172.82 C413.73401,77.051425 327.45611,10.0627986 228.53,9.77 L228.48,9.76 Z" id="Shape"></path>
            <path d="M114.35,254.39 C115.2,259.2 115,261.56 111.45,262.19 L110.66,262.33 C107.1,262.96 104.83,261.03 103.98,256.22 L99.5,230.86 L86.5,233.15 L91,258.5 C93.24,271.18 99.94,276.91 112.82,274.64 L113.61,274.5 C126.49,272.23 130.19,264.66 127.96,251.98 L123.49,226.63 L109.88,229 L114.35,254.39 Z" id="Shape"></path>
            <path d="M318.58,226.35 C316.41219,226.775888 314.167235,226.560428 312.12,225.73 C310.136753,224.984579 308.41571,223.673805 307.17,221.96 C305.831387,220.137876 304.946893,218.022633 304.59,215.79 C304.012717,212.867165 304.743496,209.838086 306.59,207.5 C308.421778,205.04925 311.144846,203.418284 314.17,202.96 C315.821107,202.660389 317.510153,202.633364 319.17,202.88 C320.763113,203.150092 322.294353,203.705674 323.69,204.52 L329.2,193.36 C326.622197,191.969744 323.81917,191.045558 320.92,190.63 C317.948462,190.19642 314.926523,190.243691 311.97,190.77 C308.48829,191.353572 305.143022,192.570341 302.1,194.36 C299.291945,196.005684 296.843426,198.199148 294.9,200.81 C293.016168,203.44821 291.689216,206.442358 291,209.61 C290.308013,213.038768 290.308013,216.571232 291,220 C291.698195,224.014815 293.467066,227.766756 296.12,230.86 C298.903872,234.05938 302.500687,236.446892 306.53,237.77 C311.050405,239.232615 315.869755,239.514891 320.53,238.59 C324.695238,237.795502 328.655452,236.162424 332.17,233.79 C333.769948,232.754984 335.158034,231.424594 336.26,229.87 L326.9,221.52 C324.846345,224.134691 321.868936,225.863163 318.58,226.35 L318.58,226.35 Z" id="Shape"></path>
            <path d="M418,196.3 C415.667544,194.663793 412.924554,193.711365 410.08,193.55 C407.346667,193.403333 404.623333,193.206667 401.91,192.96 C399.436667,192.733333 398.06,191.82 397.78,190.22 C397.466667,188.44 398.896667,187.27 402.07,186.71 C404.732303,186.244688 407.473751,186.681068 409.86,187.95 L416.2,178.95 C414.591924,177.946782 412.874015,177.131446 411.08,176.52 C409.224998,175.86635 407.303268,175.420294 405.35,175.19 C403.498838,175.014799 401.632629,175.085412 399.8,175.4 C396.81846,175.892971 393.961753,176.962962 391.39,178.55 C389.037803,179.994713 387.141642,182.074598 385.92,184.55 C384.677373,187.218726 384.32675,190.216552 384.92,193.1 C385.653333,197.266667 387.173333,200.183333 389.48,201.85 C391.826803,203.5401 394.595787,204.547318 397.48,204.76 C401.2,205.066667 403.91,205.266667 405.61,205.36 C408.016667,205.566667 409.35,206.31 409.61,207.59 C410.043333,210.036667 408.176667,211.626667 404.01,212.36 C400.20342,213.119816 396.252241,212.265115 393.1,210 L387.67,220.6 C389.720426,221.668364 391.866479,222.542186 394.08,223.21 C396.048973,223.803972 398.093409,224.110469 400.15,224.12 C402.497395,224.150902 404.842105,223.949927 407.15,223.52 C410.169925,222.990108 413.051205,221.853925 415.62,220.18 C418.147141,218.653356 420.181456,216.431578 421.48,213.78 C422.776341,211.08895 423.159048,208.048356 422.57,205.12 C421.796667,200.88 420.273333,197.94 418,196.3 Z" id="Shape"></path>
            <path d="M173.54,222.27 C170.746963,220.504626 167.640598,219.292634 164.39,218.7 C161.08192,218.119733 157.69808,218.119733 154.39,218.7 C151.918821,219.103453 149.517919,219.857734 147.26,220.94 L149.77,235.2 C150.35,234.71 150.66,234.28 151.16,233.87 C154.372581,231.213842 158.749705,230.453264 162.67,231.87 C164.609266,232.542201 166.34664,233.694717 167.72,235.22 C169.087687,236.698648 169.994683,238.543916 170.33,240.53 C170.896245,243.58102 170.140156,246.72897 168.25,249.19 C164.499343,254.478219 157.193143,255.7665 151.86,252.08 C149.24333,250.416728 147.457952,247.718663 146.95,244.66 L139.95,205.03 L139.73,204.95 L139.73,204.95 L124.83,207.62 L131.88,247.62 C132.66,252.05 135.16,255.74 138.12,258.91 C141.205869,262.133622 145.080517,264.49495 149.36,265.76 C153.663404,267.143806 158.240829,267.449426 162.69,266.65 C166.035083,266.076241 169.243487,264.882416 172.15,263.13 C175.017581,261.467782 177.534344,259.263491 179.56,256.64 C181.569899,254.056884 183.045258,251.099367 183.9,247.94 C185.53916,241.414619 184.309038,234.499733 180.52,228.94 C178.674537,226.262227 176.298792,223.991995 173.54,222.27 Z" id="Shape"></path>
            <polygon id="Shape" points="192.87 259.92 205.17 257.66 201.69 237.92 194.23 195.59 181.92 197.81"></polygon>
            <path d="M209.73,208.86 C207.280202,209.300669 204.916886,210.131206 202.73,211.32 C202.29,211.59 201.16,212.01 201.19,212.23 L203.19,223.72 C203.11,223.29 205.32,222.66 206.55,222.45 C208.76,222.06 211.55,222.26 212.98,223.39 C214.910743,224.688968 216.276124,226.672702 216.8,228.94 L221.37,254.86 L235.63,252.3 L230.9,225.46 C228.59,212.31 221,206.88 209.73,208.86 Z" id="Shape"></path>
            <polygon id="Shape" points="340.79 234.44 356.35 231.7 352.39 209.21 352.37 209.08 351.38 203.52 351.37 203.41 345.3 169 329.75 171.79"></polygon>
            <polygon id="Shape" points="377.5 181.85 361.11 184.74 353.6 197.12 356.82 215.39 370.79 229.16 388.23 226.08 364.71 203.9"></polygon>
            <path d="M64.71,218.16 L71.71,258.01 L71.71,258.01 C72.225002,261.021588 71.4642481,264.111698 69.61,266.54 C65.8624682,271.831602 58.5557263,273.124436 53.22,269.44 C50.6080383,267.766322 48.8303198,265.061572 48.33,262 C47.9636744,260.020441 48.1826126,257.977018 48.96,256.12 C49.7281712,254.217967 50.9669061,252.542234 52.56,251.25 C54.1382139,249.932742 56.0348934,249.053372 58.06,248.7 C59.9916112,248.352264 61.981784,248.546089 63.81,249.26 C64.48,249.5 65.39,249.75 65.47,250.17 L62.94,235.82 C61.53,235.4 58.12,235.66 55.62,236.1 C52.3437846,236.676147 49.1952915,237.827209 46.32,239.5 C43.4838521,241.174605 40.9982366,243.381778 39,246 C37.0020418,248.557087 35.5519397,251.49814 34.74,254.64 C33.0980675,261.158726 34.309044,268.068201 38.07,273.64 C39.9366775,276.312072 42.3161715,278.586188 45.07,280.33 C47.858216,282.104897 50.9665003,283.317637 54.22,283.9 C62.0049573,285.411836 70.0633415,283.482929 76.32,278.61 C79.8426501,275.961493 82.6025503,272.42882 84.32,268.37 C86.051786,264.388499 86.5667362,259.983587 85.8,255.71 L78.75,215.71 L64.71,218.16 Z" id="Shape"></path>
            <path d="M283,210.77 C281.178839,208.117292 278.838269,205.861772 276.12,204.14 C273.344597,202.367352 270.244534,201.164038 267,200.6 C263.69338,200.003189 260.30662,200.003189 257,200.6 C253.680853,201.177283 250.497228,202.363938 247.61,204.1 C244.762191,205.723909 242.264145,207.895679 240.26,210.49 C238.264024,213.039031 236.801639,215.963801 235.96,219.09 C234.008705,226.712625 236.010405,234.805804 241.29,240.64 C247.405082,247.021592 256.287118,249.954799 265,248.47 C267.47,248.04 271.51,246.99 272,246.24 L269.53,232.24 C269.15,233.9 265.39,235.38 262.73,235.85 C259.746731,236.413167 256.663356,235.718322 254.21,233.93 C251.630768,232.259623 249.887875,229.567053 249.42,226.53 C249.075665,224.528957 249.311636,222.471155 250.1,220.6 C250.879007,218.693186 252.127747,217.01444 253.73,215.72 C256.970885,213.117356 261.32151,212.362039 265.25,213.72 C267.192871,214.390699 268.933839,215.543316 270.31,217.07 C271.542152,218.631767 272.292721,220.518615 272.47,222.5 C272.47,222.5 272.47,222.5 272.47,222.55 L276.47,245.15 L290.26,242.85 L286.59,220 C286.092075,216.69532 284.86584,213.54263 283,210.77 L283,210.77 Z" id="Shape"></path>
        </g>
    </g>
</svg>