<?xml version="1.0" encoding="UTF-8"?>
<svg width="1792px" height="1516px" viewBox="0 0 1792 1516" version="1.1" xmlns="http://www.w3.org/2000/svg" xmlns:xlink="http://www.w3.org/1999/xlink">
    <!-- Generator: Sketch 47 (45396) - http://www.bohemiancoding.com/sketch -->
    <title>medium</title>
    <desc>Created with Sketch.</desc>
    <defs></defs>
    <g id="Page-1" stroke="none" stroke-width="1" fill="none" fill-rule="evenodd">
        <g id="medium" fill-rule="nonzero" fill="#484646">
            <path d="M597,283 L597,1456 C597,1472.66667 592.833333,1486.83333 584.5,1498.5 C576.166667,1510.16667 564,1516 548,1516 C536.666667,1516 525.666667,1513.33333 515,1508 L50,1275 C36,1268.33333 24.1666667,1257.16667 14.5,1241.5 C4.83333333,1225.83333 0,1210.33333 0,1195 L0,55 C0,41.6666667 3.33333333,30.3333333 10,21 C16.6666667,11.6666667 26.3333333,7 39,7 C48.3333333,7 63,12 83,22 L594,278 C596,280 597,281.666667 597,283 Z M661,384 L1195,1250 L661,984 L661,384 Z M1792,402 L1792,1456 C1792,1472.66667 1787.33333,1486.16667 1778,1496.5 C1768.66667,1506.83333 1756,1512 1740,1512 C1724,1512 1708.33333,1507.66667 1693,1499 L1252,1279 L1792,402 Z M1789,282 C1789,284 1703.5,423.833333 1532.5,701.5 C1361.5,979.166667 1261.33333,1141.66667 1232,1189 L842,555 L1166,28 C1177.33333,9.33333333 1194.66667,0 1218,0 C1227.33333,0 1236,2 1244,6 L1785,276 C1787.66667,277.333333 1789,279.333333 1789,282 Z" id="Shape"></path>
        </g>
    </g>
</svg>