<?xml version="1.0" encoding="UTF-8"?>
<svg width="144px" height="252px" viewBox="0 0 144 252" version="1.1" xmlns="http://www.w3.org/2000/svg" xmlns:xlink="http://www.w3.org/1999/xlink">
    <!-- Generator: Sketch 45.2 (43514) - http://www.bohemiancoding.com/sketch -->
    <title>white (1)</title>
    <desc>Created with Sketch.</desc>
    <defs></defs>
    <g id="Page-1" stroke="none" stroke-width="1" fill="none" fill-rule="evenodd">
        <g id="Desktop-HD" transform="translate(-1018.000000, -9.000000)" fill-rule="nonzero">
            <g id="white-(1)" transform="translate(1018.000000, 9.000000)">
                <g id="Group">
                    <path d="M8.04060914,98.2763425 C8.04060914,97.3253991 10.0873096,96.9230769 11.4395939,96.9230769 L132.88934,96.9230769 C134.241624,96.9230769 134.53401,97.3253991 134.53401,98.2763425 L134.53401,227.860668 C134.53401,228.811611 133.949239,229.945428 132.743147,230.384325 L74.6314721,251.670827 C73.4253807,252.109724 71.5614213,252.109724 70.3553299,251.670827 L10.635533,230.384325 C9.42944162,229.945428 8.04060914,228.811611 8.04060914,227.860668 L8.04060914,98.2763425 Z" id="Shape" fill="#F7F7F7"></path>
                    <polygon id="Shape" fill="#E0E0E0" opacity="0.42" points="130.148223 146.920755 130.148223 132.034833 12.6091371 132.034833"></polygon>
                    <g transform="translate(0.000000, 80.464441)" id="Shape">
                        <path d="M137.896447,45.1698113 C137.896447,45.1698113 79.4923858,64.4812772 5.81116751,45.1698113 L5.81116751,7.57097242 C73.7908629,25.2731495 137.896447,7.57097242 137.896447,7.57097242 L137.896447,45.1698113 Z" fill="#FFFFFF"></path>
                        <path d="M137.896447,7.57097242 L137.896447,45.1698113 C137.896447,45.1698113 111.947208,53.7648766 72.8040609,53.7648766 C53.2507614,53.7648766 30.3715736,51.6069666 5.81116751,45.1698113 L5.81116751,7.57097242 C28.471066,13.4595065 50.6923858,15.4345428 70.2456853,15.4345428 C109.388832,15.4345428 137.896447,7.57097242 137.896447,7.57097242 L137.896447,7.57097242 Z M143.59797,0.109724238 L136.39797,2.08476052 C136.105584,2.15791001 108.073096,9.76545718 70.2822335,9.76545718 C48.0609137,9.76545718 26.8629442,7.16865022 7.27309645,2.08476052 L0.146192893,0.219448476 L0.146192893,7.60754717 L0.146192893,45.2063861 L0.146192893,49.5953556 L4.3857868,50.692598 C26.5705584,56.5079826 49.5959391,59.470537 72.8040609,59.470537 C112.385787,59.470537 138.590863,50.9486212 139.68731,50.5828737 L143.59797,49.3027576 L143.59797,45.1698113 L143.59797,7.57097242 L143.59797,0.109724238 L143.59797,0.109724238 Z" fill="#F7F7F7"></path>
                    </g>
                    <path d="M143.671066,80.5375907 L136.39797,76.9166909 L136.39797,0.18287373 L6.7248731,0.18287373 L6.7248731,77.5384615 L0.0365482234,80.8301887 L6.7248731,85.4751814 L6.7248731,85.5849057 L6.87106599,85.5849057 L7.27309645,85.8775036 L7.30964467,85.5849057 L9.57563452,85.5849057 L9.57563452,85.5849057 C9.57563452,85.5849057 71.8538071,104.311176 135.484264,85.8775036 L136.434518,85.8775036 L136.434518,85.5849057 C136.434518,85.5849057 136.471066,85.5849057 136.471066,85.5849057 L143.671066,80.5375907 Z" id="Shape" fill="#F7F7F7"></path>
                </g>
                <g id="Group" transform="translate(15.715736, 100.214804)" fill="#6B7373">
                    <path d="M11.5857868,21.1036284 C6.94416244,20.298984 4.64162437,19.8235123 0.0730964467,18.7994194 C0.0730964467,17.2267054 0.0730964467,16.422061 0.0730964467,14.8493469 C3.72791878,15.6539913 5.59187817,16.0563135 9.24670051,16.7146589 C9.24670051,15.3248186 9.24670051,14.6298984 9.24670051,13.2034833 C6.50558376,12.6914369 5.11675127,12.4354136 2.37563452,11.8502177 C1.75431472,11.7039187 1.20609137,11.4113208 0.730964467,10.9358491 C0.255837563,10.4603774 0.0365482234,9.91175617 0.0365482234,9.36313498 C0.0365482234,6.4371553 1.42108547e-14,4.97416546 1.42108547e-14,2.08476052 C1.42108547e-14,1.53613933 0.21928934,1.13381713 0.694416244,0.841219158 C1.16954315,0.54862119 1.7177665,0.475471698 2.33908629,0.621770682 C6.94416244,1.60928882 9.24670051,2.04818578 13.8517766,2.81625544 C13.8517766,4.38896952 13.8517766,5.19361393 13.8517766,6.76632801 C10.1604061,6.14455733 8.33299492,5.81538462 4.67817259,5.04731495 C4.67817259,6.36400581 4.67817259,7.02235123 4.67817259,8.33904209 C7.41928934,8.88766328 8.80812183,9.1436865 11.5492386,9.65573295 C12.1705584,9.76545718 12.7187817,10.0580552 13.1573604,10.4969521 C13.5959391,10.9724238 13.8517766,11.4844702 13.8517766,12.0330914 C13.8517766,15.0322206 13.8517766,16.4952104 13.8883249,19.4943396 C13.8883249,20.0795356 13.6690355,20.5184325 13.2304569,20.8110305 C12.7553299,21.1036284 12.2071066,21.2133527 11.5857868,21.1036284 Z" id="Shape"></path>
                    <path d="M22.0751269,8.11959361 C22.0751269,9.47285922 22.0751269,10.1677794 22.0751269,11.521045 C24.3411168,11.813643 25.4741117,11.9599419 27.7401015,12.2159652 C27.7401015,13.7886792 27.7401015,14.5567489 27.7401015,16.129463 C25.4741117,15.8734398 24.3411168,15.7271408 22.0751269,15.4345428 C22.0751269,16.7878084 22.0751269,17.4461538 22.0751269,18.7994194 C26.1685279,19.3480406 28.2517766,19.5674891 32.3451777,19.9698113 C32.3451777,21.5425254 32.3451777,22.3105951 32.3451777,23.8833091 C26.3878173,23.334688 23.4274112,22.9689405 17.506599,22.0911466 C17.5431472,14.6298984 17.5431472,10.8992743 17.506599,3.47460087 C23.4274112,4.38896952 26.4243655,4.71814224 32.3817259,5.30333817 C32.3817259,6.912627 32.3817259,7.71727141 32.3817259,9.28998549 C28.2517766,8.88766328 26.2050761,8.6682148 22.0751269,8.11959361 Z" id="Shape"></path>
                    <path d="M49.413198,24.907402 C48.7918782,23.1518142 48.4994924,22.2374456 47.8781726,20.4818578 C44.9177665,20.3721335 43.4558376,20.3355588 40.4954315,20.1526851 C39.8741117,21.8716981 39.5451777,22.7129173 38.9238579,24.4319303 C36.986802,24.2856313 36.0365482,24.2124819 34.0994924,24.0661829 C36.6944162,16.8609579 37.9736041,13.2400581 40.5685279,5.9616836 C43.4192893,6.14455733 44.8446701,6.21770682 47.7319797,6.29085631 C49.8883249,12.5085631 52.0812183,18.7628447 54.2375635,24.9805515 C52.3005076,24.9805515 51.3137056,24.9439768 49.413198,24.907402 Z M44.1502538,10.0580552 C43.2365482,12.5085631 42.7979695,13.7521045 41.884264,16.2026125 C43.6751269,16.3123367 44.5888325,16.3489115 46.3796954,16.422061 C45.5025381,13.8618287 45.0639594,12.6182874 44.1502538,10.0580552 Z" id="Shape"></path>
                    <path d="M67.906599,24.7245283 C63.2284264,24.9439768 60.8893401,24.9805515 56.2111675,25.0171263 C56.2111675,23.4444122 56.2111675,22.6397678 56.2111675,21.0670537 C59.9390863,21.0670537 61.8030457,21.030479 65.5309645,20.88418 C65.5309645,19.4943396 65.5309645,18.7994194 65.5309645,17.4095791 C62.7532995,17.5193033 61.364467,17.5558781 58.5502538,17.5924528 C57.928934,17.5924528 57.3441624,17.4095791 56.9055838,17.0438316 C56.4304569,16.6780842 56.2111675,16.2026125 56.2111675,15.6174165 C56.2111675,12.6914369 56.2111675,11.2650218 56.2111675,8.33904209 C56.2111675,7.7904209 56.4304569,7.35152395 56.9055838,6.94920174 C57.3807107,6.54687954 57.928934,6.36400581 58.586802,6.36400581 C63.2649746,6.32743106 65.6040609,6.25428157 70.2456853,5.99825835 C70.2456853,7.57097242 70.2456853,8.37561684 70.2456853,9.94833091 C66.5177665,10.1677794 64.6903553,10.2409289 60.9624365,10.3140784 C60.9624365,11.6307692 60.9624365,12.2891147 60.9624365,13.6058055 C63.7401015,13.5692308 65.128934,13.4960813 67.9431472,13.386357 C68.564467,13.3497823 69.1126904,13.532656 69.5878173,13.8618287 C70.0263959,14.2275762 70.2822335,14.6664731 70.2822335,15.2516691 C70.2822335,18.2507983 70.2822335,19.7137881 70.2822335,22.7129173 C70.2822335,23.2981132 70.0629442,23.7735849 69.5878173,24.1759071 C69.0761421,24.4685051 68.564467,24.6879536 67.906599,24.7245283 Z" id="Shape"></path>
                    <path d="M88.0081218,22.9689405 C83.4761421,23.5541364 81.2101523,23.7735849 76.6781726,24.1393324 C76.0568528,24.1759071 75.5086294,24.0661829 75.0335025,23.7004354 C74.5949239,23.3712627 74.3390863,22.895791 74.3390863,22.3471698 C74.3390863,16.4586357 74.3390863,13.532656 74.3756345,7.64412192 C74.3756345,7.09550073 74.5949239,6.62002903 75.0700508,6.21770682 C75.5086294,5.81538462 76.0568528,5.55936139 76.7147208,5.52278665 C81.2467005,5.15703919 83.5126904,4.93759071 88.0446701,4.35239478 C88.6659898,4.27924528 89.2142132,4.38896952 89.6893401,4.71814224 C90.1279188,5.04731495 90.3837563,5.4862119 90.3472081,5.99825835 C90.3472081,11.8867925 90.3106599,14.8127721 90.3106599,20.7013062 C90.3106599,21.2865022 90.0913706,21.7619739 89.6162437,22.2008708 C89.177665,22.6397678 88.6294416,22.895791 88.0081218,22.9689405 Z M79.0538071,19.9698113 C81.7218274,19.7137881 83.0375635,19.6040639 85.6690355,19.2748911 C85.6690355,14.9956459 85.6690355,12.8743106 85.7055838,8.59506531 C83.0741117,8.88766328 81.7218274,9.03396226 79.0903553,9.28998549 C79.0538071,13.5692308 79.0538071,15.7271408 79.0538071,19.9698113 Z" id="Shape"></path>
                    <path d="M111.947208,18.7994194 C110.339086,19.1651669 109.535025,19.3480406 107.926904,19.6772134 C104.418274,15.3613933 102.700508,13.1669086 99.1553299,8.7413643 C99.1553299,13.7886792 99.1187817,16.3123367 99.1187817,21.3596517 C97.2913706,21.6888244 96.377665,21.8351234 94.5137056,22.0911466 C94.5502538,14.6298984 94.5502538,10.9358491 94.586802,3.47460087 C97.2548223,3.07227866 98.5705584,2.85283019 101.20203,2.37735849 C103.68731,5.52278665 104.893401,7.05892598 107.37868,10.1312046 C107.37868,6.54687954 107.415228,4.75471698 107.415228,1.17039187 C109.279188,0.804644412 110.192893,0.585195936 112.020305,0.18287373 C111.983756,7.64412192 111.983756,11.3381713 111.947208,18.7994194 Z" id="Shape"></path>
                </g>
                <g id="Group" transform="translate(24.487310, 23.042090)">
                    <g transform="translate(0.000000, 34.746009)" id="Shape" fill="#353535">
                        <path d="M5.08020305,0.18287373 C5.18984772,0.219448476 5.26294416,0.292597968 5.33604061,0.36574746 C5.40913706,0.438896952 5.4822335,0.512046444 5.51878173,0.621770682 C5.55532995,0.73149492 5.59187817,0.841219158 5.59187817,0.950943396 L5.59187817,4.97416546 C5.59187817,5.0107402 5.59187817,5.04731495 5.55532995,5.0838897 C5.51878173,5.12046444 5.4822335,5.12046444 5.44568528,5.12046444 L4.45888325,5.12046444 C4.42233503,5.12046444 4.3857868,5.12046444 4.34923858,5.0838897 C4.31269036,5.04731495 4.31269036,5.0107402 4.31269036,4.97416546 L4.31269036,1.3532656 L3.50862944,1.3532656 L3.50862944,4.97416546 C3.50862944,5.0107402 3.50862944,5.04731495 3.47208122,5.0838897 C3.43553299,5.12046444 3.43553299,5.12046444 3.36243655,5.12046444 L2.48527919,5.12046444 C2.44873096,5.12046444 2.41218274,5.12046444 2.37563452,5.0838897 C2.33908629,5.04731495 2.33908629,5.0107402 2.33908629,4.97416546 L2.33908629,1.3532656 L1.53502538,1.3532656 L1.53502538,4.97416546 C1.53502538,5.04731495 1.49847716,5.12046444 1.38883249,5.12046444 L0.402030457,5.12046444 C0.32893401,5.12046444 0.255837563,5.0838897 0.255837563,4.97416546 L0.255837563,0.256023222 C0.255837563,0.18287373 0.292385787,0.109724238 0.402030457,0.109724238 L4.75126904,0.109724238 C4.86091371,0.109724238 4.97055838,0.146298984 5.08020305,0.18287373 Z"></path>
                        <path d="M10.0507614,0.109724238 C10.1604061,0.109724238 10.2700508,0.146298984 10.3796954,0.18287373 C10.4893401,0.219448476 10.5624365,0.292597968 10.635533,0.36574746 C10.7086294,0.438896952 10.7817259,0.512046444 10.8182741,0.621770682 C10.8548223,0.73149492 10.8913706,0.841219158 10.8913706,0.950943396 L10.8913706,4.97416546 C10.8913706,5.0107402 10.8913706,5.04731495 10.8548223,5.0838897 C10.8182741,5.12046444 10.7817259,5.12046444 10.7451777,5.12046444 L9.75837563,5.12046444 C9.72182741,5.12046444 9.68527919,5.12046444 9.64873096,5.0838897 C9.61218274,5.04731495 9.61218274,5.0107402 9.61218274,4.97416546 L9.61218274,3.69404935 C9.61218274,3.6574746 9.61218274,3.62089985 9.57563452,3.58432511 C9.53908629,3.54775036 9.50253807,3.54775036 9.46598985,3.54775036 L8.07715736,3.54775036 C8.04060914,3.54775036 8.00406091,3.54775036 7.96751269,3.58432511 C7.93096447,3.62089985 7.93096447,3.6574746 7.93096447,3.69404935 L7.93096447,4.97416546 C7.93096447,5.04731495 7.89441624,5.12046444 7.78477157,5.12046444 L6.79796954,5.12046444 C6.7248731,5.12046444 6.65177665,5.0838897 6.65177665,4.97416546 L6.65177665,0.950943396 C6.65177665,0.841219158 6.68832487,0.73149492 6.7248731,0.621770682 C6.76142132,0.512046444 6.83451777,0.438896952 6.90761421,0.36574746 C6.98071066,0.292597968 7.05380711,0.219448476 7.16345178,0.18287373 C7.27309645,0.146298984 7.38274112,0.109724238 7.49238579,0.109724238 L10.0507614,0.109724238 Z M9.61218274,2.48708273 L9.61218274,1.24354136 L7.93096447,1.24354136 L7.93096447,2.48708273 L9.61218274,2.48708273 Z"></path>
                        <path d="M15.3502538,0.146298984 C15.386802,0.18287373 15.386802,0.219448476 15.386802,0.256023222 L15.386802,4.27924528 C15.386802,4.38896952 15.3502538,4.49869376 15.3137056,4.608418 C15.2771574,4.71814224 15.2040609,4.79129173 15.1309645,4.86444122 C15.057868,4.93759071 14.9847716,5.0107402 14.8751269,5.04731495 C14.7654822,5.0838897 14.6558376,5.12046444 14.5461929,5.12046444 L12.4263959,5.12046444 C12.3167513,5.12046444 12.2071066,5.0838897 12.0974619,5.04731495 C11.9878173,5.0107402 11.9147208,4.93759071 11.8416244,4.86444122 C11.7685279,4.79129173 11.6954315,4.71814224 11.6588832,4.608418 C11.622335,4.49869376 11.5857868,4.38896952 11.5857868,4.27924528 L11.5857868,2.74310595 C11.5857868,2.66995646 11.622335,2.59680697 11.7319797,2.59680697 L12.7187817,2.59680697 C12.7918782,2.59680697 12.8649746,2.63338171 12.8649746,2.74310595 L12.8649746,3.76719884 C12.8649746,3.80377358 12.8649746,3.84034833 12.9015228,3.87692308 C12.9380711,3.91349782 12.9746193,3.91349782 13.0111675,3.91349782 L14.0345178,3.91349782 C14.071066,3.91349782 14.1076142,3.91349782 14.1441624,3.87692308 C14.1807107,3.84034833 14.1807107,3.84034833 14.1807107,3.76719884 L14.1807107,0.256023222 C14.1807107,0.219448476 14.1807107,0.18287373 14.2172589,0.146298984 C14.2538071,0.109724238 14.2538071,0.109724238 14.3269036,0.109724238 L15.3137056,0.109724238 C15.2771574,0.109724238 15.3137056,0.146298984 15.3502538,0.146298984 Z"></path>
                        <path d="M19.8091371,0.109724238 C19.9187817,0.109724238 20.0284264,0.146298984 20.1380711,0.18287373 C20.2477157,0.219448476 20.3208122,0.292597968 20.3939086,0.36574746 C20.4670051,0.438896952 20.5401015,0.512046444 20.5766497,0.621770682 C20.613198,0.73149492 20.6497462,0.841219158 20.6497462,0.950943396 L20.6497462,4.27924528 C20.6497462,4.38896952 20.613198,4.49869376 20.5766497,4.608418 C20.5401015,4.71814224 20.4670051,4.79129173 20.3939086,4.86444122 C20.3208122,4.93759071 20.2477157,5.0107402 20.1380711,5.04731495 C20.0284264,5.0838897 19.9187817,5.12046444 19.8091371,5.12046444 L17.2873096,5.12046444 C17.177665,5.12046444 17.0680203,5.0838897 16.9583756,5.04731495 C16.848731,5.0107402 16.7756345,4.93759071 16.7025381,4.86444122 C16.6294416,4.79129173 16.5563452,4.71814224 16.519797,4.608418 C16.4832487,4.49869376 16.4467005,4.38896952 16.4467005,4.27924528 L16.4467005,0.950943396 C16.4467005,0.841219158 16.4832487,0.73149492 16.519797,0.621770682 C16.5563452,0.512046444 16.6294416,0.438896952 16.7025381,0.36574746 C16.7756345,0.292597968 16.8852792,0.219448476 16.9583756,0.18287373 C17.0680203,0.146298984 17.177665,0.109724238 17.2873096,0.109724238 L19.8091371,0.109724238 Z M19.4071066,1.31669086 L17.7258883,1.31669086 L17.7258883,3.87692308 L19.4071066,3.87692308 L19.4071066,1.31669086 Z"></path>
                        <path d="M26.0954315,4.97416546 C26.1319797,5.0107402 26.1319797,5.04731495 26.0954315,5.04731495 C26.0954315,5.0838897 26.0588832,5.0838897 26.022335,5.0838897 L24.8893401,5.0838897 C24.8527919,5.0838897 24.8162437,5.0838897 24.7796954,5.04731495 C24.7431472,5.0107402 24.706599,5.0107402 24.706599,4.97416546 L23.9390863,3.62089985 C23.9390863,3.58432511 23.9025381,3.58432511 23.9025381,3.58432511 L23.0619289,3.58432511 C23.0253807,3.58432511 23.0253807,3.58432511 23.0253807,3.62089985 L23.0253807,4.93759071 C23.0253807,5.0107402 22.9888325,5.0838897 22.8791878,5.0838897 L21.8923858,5.0838897 C21.8192893,5.0838897 21.7461929,5.04731495 21.7461929,4.93759071 L21.7461929,0.219448476 C21.7461929,0.146298984 21.7827411,0.073149492 21.8923858,0.073149492 L25.1086294,0.073149492 C25.2182741,0.073149492 25.3279188,0.109724238 25.4375635,0.146298984 C25.5472081,0.18287373 25.6203046,0.256023222 25.693401,0.329172714 C25.7664975,0.402322206 25.8395939,0.475471698 25.8761421,0.585195936 C25.9126904,0.694920174 25.9492386,0.804644412 25.9492386,0.91436865 L25.9492386,2.7796807 C25.9492386,2.96255443 25.9126904,3.10885341 25.8030457,3.25515239 C25.693401,3.40145138 25.5472081,3.51117562 25.4010152,3.54775036 L25.364467,3.54775036 C25.3279188,3.54775036 25.3279188,3.58432511 25.3279188,3.58432511 L25.3279188,3.58432511 L26.0954315,4.97416546 Z M24.6700508,1.28011611 L22.9522843,1.28011611 L22.9522843,2.48708273 L24.6700508,2.48708273 L24.6700508,1.28011611 Z"></path>
                        <path d="M32.7837563,3.87692308 C32.8203046,3.87692308 32.8568528,3.87692308 32.893401,3.91349782 C32.9299492,3.95007257 32.9299492,3.98664731 32.9299492,4.02322206 L32.9299492,4.97416546 C32.9299492,5.0107402 32.9299492,5.04731495 32.893401,5.0838897 C32.8568528,5.12046444 32.8203046,5.12046444 32.7837563,5.12046444 L29.7137056,5.12046444 C29.6406091,5.12046444 29.5675127,5.0838897 29.5675127,4.97416546 L29.5675127,0.256023222 C29.5675127,0.18287373 29.6040609,0.109724238 29.7137056,0.109724238 L30.7005076,0.109724238 C30.7736041,0.109724238 30.8467005,0.146298984 30.8467005,0.256023222 L30.8467005,3.76719884 C30.8467005,3.80377358 30.8467005,3.84034833 30.8832487,3.87692308 C30.919797,3.91349782 30.9563452,3.91349782 30.9928934,3.91349782 L32.7837563,3.91349782 L32.7837563,3.87692308 Z"></path>
                        <path d="M37.3888325,0.146298984 C37.4253807,0.18287373 37.4253807,0.219448476 37.4253807,0.256023222 L37.4253807,0.658345428 L37.4253807,0.877793904 L37.4253807,1.17039187 C37.4253807,1.20696662 37.4253807,1.24354136 37.3888325,1.28011611 C37.3522843,1.31669086 37.315736,1.31669086 37.2791878,1.31669086 L36.7675127,1.31669086 L35.3055838,1.31669086 L34.9035533,1.31669086 C34.8670051,1.31669086 34.8670051,1.31669086 34.8670051,1.3532656 L34.8670051,2.12133527 C34.8670051,2.15791001 34.8670051,2.15791001 34.9035533,2.15791001 L36.9502538,2.15791001 C36.986802,2.15791001 37.0233503,2.15791001 37.0598985,2.19448476 C37.0964467,2.23105951 37.0964467,2.26763425 37.0964467,2.304209 L37.0964467,2.99912917 C37.0964467,3.03570392 37.0964467,3.07227866 37.0598985,3.10885341 C37.0233503,3.14542816 37.0233503,3.14542816 36.9502538,3.14542816 L34.9035533,3.14542816 C34.8670051,3.14542816 34.8670051,3.14542816 34.8670051,3.1820029 L34.8670051,3.54775036 L34.8670051,3.54775036 L34.8670051,3.95007257 C34.8670051,3.98664731 34.8670051,3.98664731 34.9035533,3.98664731 L35.1959391,3.98664731 L36.8040609,3.98664731 L37.2791878,3.98664731 C37.315736,3.98664731 37.3522843,3.98664731 37.3888325,4.02322206 C37.4253807,4.05979681 37.4253807,4.09637155 37.4253807,4.1329463 L37.4253807,4.42554427 L37.4253807,4.79129173 L37.4253807,5.0107402 C37.4253807,5.04731495 37.4253807,5.0838897 37.3888325,5.12046444 C37.3522843,5.15703919 37.315736,5.15703919 37.2791878,5.15703919 L36.8771574,5.15703919 L34.1725888,5.15703919 L33.7340102,5.15703919 C33.6609137,5.15703919 33.5878173,5.12046444 33.5878173,5.0107402 L33.5878173,4.75471698 L33.5878173,0.621770682 L33.5878173,0.292597968 C33.5878173,0.256023222 33.5878173,0.219448476 33.6243655,0.18287373 C33.6609137,0.146298984 33.6974619,0.146298984 33.7340102,0.146298984 L34.2456853,0.146298984 L37.0233503,0.146298984 L37.2426396,0.146298984 C37.315736,0.109724238 37.3522843,0.146298984 37.3888325,0.146298984 Z"></path>
                        <path d="M41.884264,0.109724238 C41.9939086,0.109724238 42.1035533,0.146298984 42.213198,0.18287373 C42.3228426,0.219448476 42.3959391,0.292597968 42.4690355,0.36574746 C42.542132,0.438896952 42.6152284,0.512046444 42.6517766,0.621770682 C42.6883249,0.73149492 42.7248731,0.841219158 42.7248731,0.950943396 L42.7248731,4.97416546 C42.7248731,5.0107402 42.7248731,5.04731495 42.6883249,5.0838897 C42.6517766,5.12046444 42.6152284,5.12046444 42.5786802,5.12046444 L41.5918782,5.12046444 C41.5553299,5.12046444 41.5187817,5.12046444 41.4822335,5.0838897 C41.4456853,5.04731495 41.4456853,5.0107402 41.4456853,4.97416546 L41.4456853,3.69404935 C41.4456853,3.6574746 41.4456853,3.62089985 41.4091371,3.58432511 C41.3725888,3.54775036 41.3360406,3.54775036 41.2994924,3.54775036 L39.9106599,3.54775036 C39.8741117,3.54775036 39.8375635,3.54775036 39.8010152,3.58432511 C39.764467,3.62089985 39.764467,3.6574746 39.764467,3.69404935 L39.764467,4.97416546 C39.764467,5.04731495 39.7279188,5.12046444 39.6182741,5.12046444 L38.6314721,5.12046444 C38.5583756,5.12046444 38.4852792,5.0838897 38.4852792,4.97416546 L38.4852792,0.950943396 C38.4852792,0.841219158 38.5218274,0.73149492 38.5583756,0.621770682 C38.5949239,0.512046444 38.6680203,0.438896952 38.7411168,0.36574746 C38.8142132,0.292597968 38.8873096,0.219448476 38.9969543,0.18287373 C39.106599,0.146298984 39.2162437,0.109724238 39.3258883,0.109724238 L41.884264,0.109724238 Z M41.4456853,2.48708273 L41.4456853,1.24354136 L39.764467,1.24354136 L39.764467,2.48708273 L41.4456853,2.48708273 Z"></path>
                        <path d="M47.951269,2.41393324 C47.9878173,2.45050798 47.9878173,2.48708273 47.9878173,2.52365747 L47.9878173,4.27924528 C47.9878173,4.38896952 47.951269,4.49869376 47.9147208,4.608418 C47.8781726,4.71814224 47.8050761,4.79129173 47.7319797,4.86444122 C47.6588832,4.93759071 47.5857868,5.0107402 47.4761421,5.04731495 C47.3664975,5.0838897 47.2568528,5.12046444 47.1472081,5.12046444 L44.6253807,5.12046444 C44.515736,5.12046444 44.4060914,5.0838897 44.2964467,5.04731495 C44.186802,5.0107402 44.1137056,4.93759071 44.0406091,4.86444122 C43.9675127,4.79129173 43.8944162,4.71814224 43.857868,4.608418 C43.8213198,4.49869376 43.7847716,4.38896952 43.7847716,4.27924528 L43.7847716,0.950943396 C43.7847716,0.841219158 43.8213198,0.73149492 43.857868,0.621770682 C43.8944162,0.512046444 43.9675127,0.438896952 44.0406091,0.36574746 C44.1137056,0.292597968 44.2233503,0.219448476 44.2964467,0.18287373 C44.4060914,0.146298984 44.515736,0.109724238 44.6253807,0.109724238 L47.5492386,0.109724238 C47.5857868,0.109724238 47.622335,0.109724238 47.6588832,0.146298984 C47.6954315,0.18287373 47.6954315,0.219448476 47.6954315,0.256023222 L47.6954315,1.20696662 C47.6954315,1.24354136 47.6954315,1.28011611 47.6588832,1.31669086 C47.622335,1.3532656 47.5857868,1.3532656 47.5492386,1.3532656 L45.1736041,1.3532656 C45.1370558,1.3532656 45.1005076,1.3532656 45.0639594,1.38984035 C45.0274112,1.42641509 45.0274112,1.42641509 45.0274112,1.49956459 L45.0274112,3.80377358 C45.0274112,3.84034833 45.0274112,3.87692308 45.0639594,3.91349782 C45.1005076,3.95007257 45.1370558,3.95007257 45.1736041,3.95007257 L46.5624365,3.95007257 C46.5989848,3.95007257 46.635533,3.95007257 46.6720812,3.91349782 C46.7086294,3.87692308 46.7086294,3.87692308 46.7086294,3.80377358 L46.7086294,2.56023222 C46.7086294,2.52365747 46.7086294,2.48708273 46.7451777,2.45050798 C46.7817259,2.41393324 46.8182741,2.41393324 46.8548223,2.41393324 L47.8416244,2.41393324 C47.8781726,2.37735849 47.9147208,2.37735849 47.951269,2.41393324 Z"></path>
                        <path d="M53.177665,0.146298984 C53.2142132,0.18287373 53.2142132,0.219448476 53.2142132,0.256023222 L53.2142132,4.27924528 C53.2142132,4.38896952 53.177665,4.49869376 53.1411168,4.608418 C53.1045685,4.71814224 53.0314721,4.79129173 52.9583756,4.86444122 C52.8852792,4.93759071 52.8121827,5.0107402 52.7025381,5.04731495 C52.5928934,5.0838897 52.4832487,5.12046444 52.3736041,5.12046444 L49.8517766,5.12046444 C49.742132,5.12046444 49.6324873,5.0838897 49.5228426,5.04731495 C49.413198,5.0107402 49.3401015,4.93759071 49.2670051,4.86444122 C49.1939086,4.79129173 49.1208122,4.71814224 49.084264,4.608418 C49.0477157,4.49869376 49.0111675,4.38896952 49.0111675,4.27924528 L49.0111675,0.256023222 C49.0111675,0.18287373 49.0477157,0.109724238 49.1573604,0.109724238 L50.1441624,0.109724238 C50.2172589,0.109724238 50.2903553,0.146298984 50.2903553,0.256023222 L50.2903553,3.76719884 C50.2903553,3.80377358 50.2903553,3.84034833 50.3269036,3.87692308 C50.3634518,3.91349782 50.4,3.91349782 50.4365482,3.91349782 L51.8253807,3.91349782 C51.8619289,3.91349782 51.8984772,3.91349782 51.9350254,3.87692308 C51.9715736,3.84034833 51.9715736,3.84034833 51.9715736,3.76719884 L51.9715736,0.256023222 C51.9715736,0.219448476 51.9715736,0.18287373 52.0081218,0.146298984 C52.0446701,0.109724238 52.0812183,0.109724238 52.1177665,0.109724238 L53.1045685,0.109724238 C53.1411168,0.109724238 53.177665,0.146298984 53.177665,0.146298984 Z"></path>
                        <path d="M58.1116751,0.146298984 C58.1482234,0.18287373 58.1482234,0.219448476 58.1482234,0.256023222 L58.1482234,0.658345428 L58.1482234,0.877793904 L58.1482234,1.17039187 C58.1482234,1.20696662 58.1482234,1.24354136 58.1116751,1.28011611 C58.0751269,1.31669086 58.0385787,1.31669086 58.0020305,1.31669086 L57.4903553,1.31669086 L56.0284264,1.31669086 L55.6263959,1.31669086 C55.5898477,1.31669086 55.5898477,1.31669086 55.5898477,1.3532656 L55.5898477,2.12133527 C55.5898477,2.15791001 55.5898477,2.15791001 55.6263959,2.15791001 L57.6730964,2.15791001 C57.7096447,2.15791001 57.7461929,2.15791001 57.7827411,2.19448476 C57.8192893,2.23105951 57.8192893,2.26763425 57.8192893,2.304209 L57.8192893,2.99912917 C57.8192893,3.03570392 57.8192893,3.07227866 57.7827411,3.10885341 C57.7461929,3.14542816 57.7461929,3.14542816 57.6730964,3.14542816 L55.6263959,3.14542816 C55.5898477,3.14542816 55.5898477,3.14542816 55.5898477,3.1820029 L55.5898477,3.54775036 L55.5898477,3.54775036 L55.5898477,3.95007257 C55.5898477,3.98664731 55.5898477,3.98664731 55.6263959,3.98664731 L55.9187817,3.98664731 L57.5269036,3.98664731 L58.0020305,3.98664731 C58.0385787,3.98664731 58.0751269,3.98664731 58.1116751,4.02322206 C58.1482234,4.05979681 58.1482234,4.09637155 58.1482234,4.1329463 L58.1482234,4.42554427 L58.1482234,4.79129173 L58.1482234,5.0107402 C58.1482234,5.04731495 58.1482234,5.0838897 58.1116751,5.12046444 C58.0751269,5.15703919 58.0385787,5.15703919 58.0020305,5.15703919 L57.6,5.15703919 L54.8954315,5.15703919 L54.4568528,5.15703919 C54.3837563,5.15703919 54.3106599,5.12046444 54.3106599,5.0107402 L54.3106599,4.75471698 L54.3106599,0.621770682 L54.3106599,0.292597968 C54.3106599,0.256023222 54.3106599,0.219448476 54.3472081,0.18287373 C54.3837563,0.146298984 54.4203046,0.146298984 54.4568528,0.146298984 L54.9685279,0.146298984 L57.7461929,0.146298984 L57.9654822,0.146298984 C58.0385787,0.109724238 58.0751269,0.146298984 58.1116751,0.146298984 Z"></path>
                        <path d="M65.7137056,0.109724238 C65.7502538,0.109724238 65.786802,0.109724238 65.8233503,0.146298984 C65.8598985,0.18287373 65.8598985,0.219448476 65.8598985,0.256023222 L65.8598985,4.97416546 C65.8598985,5.0107402 65.8598985,5.04731495 65.8233503,5.0838897 C65.786802,5.12046444 65.7502538,5.12046444 65.7137056,5.12046444 L64.7269036,5.12046444 C64.6903553,5.12046444 64.6538071,5.12046444 64.6172589,5.0838897 C64.5807107,5.04731495 64.5807107,5.0107402 64.5807107,4.97416546 L64.5807107,3.32830189 C64.5807107,3.29172714 64.5807107,3.25515239 64.5441624,3.21857765 C64.5076142,3.1820029 64.5076142,3.1820029 64.4345178,3.1820029 L63.0456853,3.1820029 C63.0091371,3.1820029 62.9725888,3.1820029 62.9360406,3.21857765 C62.8994924,3.25515239 62.8994924,3.25515239 62.8994924,3.32830189 L62.8994924,4.97416546 C62.8994924,5.04731495 62.8629442,5.12046444 62.7532995,5.12046444 L61.7664975,5.12046444 C61.693401,5.12046444 61.6203046,5.0838897 61.6203046,4.97416546 L61.6203046,0.256023222 C61.6203046,0.18287373 61.6568528,0.109724238 61.7664975,0.109724238 L62.7532995,0.109724238 C62.8263959,0.109724238 62.8994924,0.146298984 62.8994924,0.256023222 L62.8994924,1.86531205 C62.8994924,1.93846154 62.9360406,2.01161103 63.0456853,2.01161103 L64.4345178,2.01161103 C64.471066,2.01161103 64.5076142,2.01161103 64.5441624,1.97503628 C64.5807107,1.93846154 64.5807107,1.90188679 64.5807107,1.86531205 L64.5807107,0.256023222 C64.5807107,0.219448476 64.5807107,0.18287373 64.6172589,0.146298984 C64.6538071,0.109724238 64.6903553,0.109724238 64.7269036,0.109724238 L65.7137056,0.109724238 Z"></path>
                        <path d="M70.3187817,0.109724238 C70.4284264,0.109724238 70.5380711,0.146298984 70.6477157,0.18287373 C70.7573604,0.219448476 70.8304569,0.292597968 70.9035533,0.36574746 C70.9766497,0.438896952 71.0497462,0.512046444 71.0862944,0.621770682 C71.1228426,0.73149492 71.1593909,0.841219158 71.1593909,0.950943396 L71.1593909,4.97416546 C71.1593909,5.0107402 71.1593909,5.04731495 71.1228426,5.0838897 C71.0862944,5.12046444 71.0497462,5.12046444 71.013198,5.12046444 L70.0263959,5.12046444 C69.9898477,5.12046444 69.9532995,5.12046444 69.9167513,5.0838897 C69.880203,5.04731495 69.880203,5.0107402 69.880203,4.97416546 L69.880203,3.69404935 C69.880203,3.6574746 69.880203,3.62089985 69.8436548,3.58432511 C69.8071066,3.54775036 69.7705584,3.54775036 69.7340102,3.54775036 L68.3451777,3.54775036 C68.3086294,3.54775036 68.2720812,3.54775036 68.235533,3.58432511 C68.1989848,3.62089985 68.1989848,3.6574746 68.1989848,3.69404935 L68.1989848,4.97416546 C68.1989848,5.04731495 68.1624365,5.12046444 68.0527919,5.12046444 L67.0659898,5.12046444 C66.9928934,5.12046444 66.919797,5.0838897 66.919797,4.97416546 L66.919797,0.950943396 C66.919797,0.841219158 66.9563452,0.73149492 66.9928934,0.621770682 C67.0294416,0.512046444 67.1025381,0.438896952 67.1756345,0.36574746 C67.248731,0.292597968 67.3218274,0.219448476 67.4314721,0.18287373 C67.5411168,0.146298984 67.6507614,0.109724238 67.7604061,0.109724238 L70.3187817,0.109724238 Z M69.9167513,2.48708273 L69.9167513,1.24354136 L68.235533,1.24354136 L68.235533,2.48708273 L69.9167513,2.48708273 Z"></path>
                        <path d="M73.5350254,1.3532656 C73.4984772,1.38984035 73.4984772,1.38984035 73.4984772,1.46298984 L73.4984772,3.76719884 C73.4984772,3.80377358 73.4984772,3.84034833 73.5350254,3.87692308 C73.5715736,3.91349782 73.6081218,3.91349782 73.6446701,3.91349782 L75.9106599,3.91349782 C75.9472081,3.91349782 75.9837563,3.91349782 76.0203046,3.95007257 C76.0568528,3.98664731 76.0568528,4.02322206 76.0568528,4.05979681 L76.0568528,5.0107402 C76.0568528,5.04731495 76.0568528,5.0838897 76.0203046,5.12046444 C75.9837563,5.15703919 75.9472081,5.15703919 75.9106599,5.15703919 L74.4121827,5.15703919 L73.2060914,5.15703919 L73.0964467,5.15703919 C72.986802,5.15703919 72.8771574,5.12046444 72.7675127,5.0838897 C72.657868,5.04731495 72.5847716,4.97416546 72.5116751,4.90101597 C72.4385787,4.82786647 72.3654822,4.75471698 72.328934,4.64499274 C72.2923858,4.53526851 72.2558376,4.42554427 72.2558376,4.31582003 L72.2558376,4.16952104 L72.2558376,3.6574746 L72.2558376,2.01161103 L72.2558376,1.53613933 L72.2558376,0.987518142 C72.2558376,0.877793904 72.2923858,0.768069666 72.328934,0.658345428 C72.3654822,0.54862119 72.4385787,0.475471698 72.5116751,0.402322206 C72.5847716,0.329172714 72.6944162,0.256023222 72.7675127,0.219448476 C72.8771574,0.18287373 72.986802,0.146298984 73.0964467,0.146298984 L73.2060914,0.146298984 L75.9106599,0.146298984 C75.9472081,0.146298984 75.9837563,0.146298984 76.0203046,0.18287373 C76.0568528,0.219448476 76.0568528,0.256023222 76.0568528,0.292597968 L76.0568528,1.24354136 C76.0568528,1.28011611 76.0568528,1.31669086 76.0203046,1.3532656 C75.9837563,1.38984035 75.9472081,1.38984035 75.9106599,1.38984035 L73.6446701,1.38984035 C73.6081218,1.31669086 73.5715736,1.3532656 73.5350254,1.3532656 Z"></path>
                        <path d="M80.0040609,2.19448476 C80.0040609,2.19448476 80.0040609,2.23105951 80.0040609,2.23105951 L81.648731,4.93759071 C81.6852792,4.97416546 81.6852792,5.0107402 81.648731,5.0107402 C81.648731,5.04731495 81.6121827,5.04731495 81.5756345,5.04731495 L80.4060914,5.04731495 C80.3695431,5.04731495 80.3329949,5.04731495 80.2964467,5.0107402 C80.2598985,4.97416546 80.2233503,4.97416546 80.2233503,4.93759071 L79.1634518,2.99912917 C79.1634518,2.96255443 79.1269036,2.96255443 79.1269036,2.99912917 L78.542132,3.6574746 C78.5055838,3.69404935 78.5055838,3.73062409 78.4690355,3.76719884 C78.4690355,3.80377358 78.4324873,3.84034833 78.4324873,3.87692308 L78.4324873,4.93759071 C78.4324873,5.0107402 78.3959391,5.0838897 78.2862944,5.0838897 L77.2994924,5.0838897 C77.2263959,5.0838897 77.1532995,5.04731495 77.1532995,4.93759071 L77.1532995,0.219448476 C77.1532995,0.146298984 77.1898477,0.073149492 77.2994924,0.073149492 L78.2862944,0.073149492 C78.3593909,0.073149492 78.4324873,0.109724238 78.4324873,0.219448476 L78.4324873,2.34078374 L80.2598985,0.18287373 C80.2964467,0.146298984 80.3329949,0.146298984 80.3695431,0.109724238 C80.4060914,0.073149492 80.4426396,0.073149492 80.4791878,0.073149492 L81.648731,0.073149492 C81.6852792,0.073149492 81.7218274,0.073149492 81.7218274,0.109724238 C81.7218274,0.146298984 81.7218274,0.146298984 81.6852792,0.18287373 L80.0040609,2.19448476 Z"></path>
                        <path d="M83.8416244,4.93759071 C83.8416244,5.0107402 83.8050761,5.0838897 83.6954315,5.0838897 L82.7086294,5.0838897 C82.635533,5.0838897 82.5624365,5.04731495 82.5624365,4.93759071 L82.5624365,0.219448476 C82.5624365,0.146298984 82.5989848,0.073149492 82.7086294,0.073149492 L83.6954315,0.073149492 C83.7685279,0.073149492 83.8416244,0.109724238 83.8416244,0.219448476 L83.8416244,4.93759071 Z"></path>
                        <path d="M88.6294416,0.18287373 C88.7390863,0.219448476 88.8121827,0.292597968 88.8852792,0.36574746 C88.9583756,0.438896952 89.0314721,0.512046444 89.0680203,0.621770682 C89.1045685,0.73149492 89.1411168,0.841219158 89.1411168,0.950943396 L89.1411168,4.97416546 C89.1411168,5.0107402 89.1411168,5.04731495 89.1045685,5.0838897 C89.0680203,5.12046444 89.0314721,5.12046444 88.9949239,5.12046444 L88.0081218,5.12046444 C87.9715736,5.12046444 87.9350254,5.12046444 87.8984772,5.0838897 C87.8619289,5.04731495 87.8619289,5.0107402 87.8619289,4.97416546 L87.8619289,1.46298984 C87.8619289,1.42641509 87.8619289,1.38984035 87.8253807,1.3532656 C87.7888325,1.31669086 87.7522843,1.31669086 87.715736,1.31669086 L86.3269036,1.31669086 C86.2903553,1.31669086 86.2538071,1.31669086 86.2172589,1.3532656 C86.1807107,1.38984035 86.1807107,1.38984035 86.1807107,1.46298984 L86.1807107,4.97416546 C86.1807107,5.04731495 86.1441624,5.12046444 86.0345178,5.12046444 L85.0477157,5.12046444 C84.9746193,5.12046444 84.9015228,5.0838897 84.9015228,4.97416546 L84.9015228,0.256023222 C84.9015228,0.18287373 84.9380711,0.109724238 85.0477157,0.109724238 L88.2639594,0.109724238 C88.4101523,0.109724238 88.519797,0.146298984 88.6294416,0.18287373 Z"></path>
                        <path d="M94.3675127,2.41393324 C94.4040609,2.45050798 94.4040609,2.48708273 94.4040609,2.52365747 L94.4040609,4.27924528 C94.4040609,4.38896952 94.3675127,4.49869376 94.3309645,4.608418 C94.2944162,4.71814224 94.2213198,4.79129173 94.1482234,4.86444122 C94.0751269,4.93759071 94.0020305,5.0107402 93.8923858,5.04731495 C93.7827411,5.0838897 93.6730964,5.12046444 93.5634518,5.12046444 L91.0416244,5.12046444 C90.9319797,5.12046444 90.822335,5.0838897 90.7126904,5.04731495 C90.6030457,5.0107402 90.5299492,4.93759071 90.4568528,4.86444122 C90.3837563,4.79129173 90.3106599,4.71814224 90.2741117,4.608418 C90.2375635,4.49869376 90.2010152,4.38896952 90.2010152,4.27924528 L90.2010152,0.950943396 C90.2010152,0.841219158 90.2375635,0.73149492 90.2741117,0.621770682 C90.3106599,0.512046444 90.3837563,0.438896952 90.4568528,0.36574746 C90.5299492,0.292597968 90.6395939,0.219448476 90.7126904,0.18287373 C90.822335,0.146298984 90.9319797,0.109724238 91.0416244,0.109724238 L93.9654822,0.109724238 C94.0020305,0.109724238 94.0385787,0.109724238 94.0751269,0.146298984 C94.1116751,0.18287373 94.1116751,0.219448476 94.1116751,0.256023222 L94.1116751,1.20696662 C94.1116751,1.24354136 94.1116751,1.28011611 94.0751269,1.31669086 C94.0385787,1.3532656 94.0020305,1.3532656 93.9654822,1.3532656 L91.5898477,1.3532656 C91.5532995,1.3532656 91.5167513,1.3532656 91.480203,1.38984035 C91.4436548,1.42641509 91.4436548,1.42641509 91.4436548,1.49956459 L91.4436548,3.80377358 C91.4436548,3.84034833 91.4436548,3.87692308 91.480203,3.91349782 C91.5167513,3.95007257 91.5532995,3.95007257 91.5898477,3.95007257 L92.9786802,3.95007257 C93.0152284,3.95007257 93.0517766,3.95007257 93.0883249,3.91349782 C93.1248731,3.87692308 93.1248731,3.87692308 93.1248731,3.80377358 L93.1248731,2.56023222 C93.1248731,2.52365747 93.1248731,2.48708273 93.1614213,2.45050798 C93.1979695,2.41393324 93.2345178,2.41393324 93.271066,2.41393324 L94.257868,2.41393324 C94.2944162,2.37735849 94.3309645,2.37735849 94.3675127,2.41393324 Z"></path>
                    </g>
                    <g id="Shape">
                        <path d="M30.2619289,0.621770682 C30.919797,0.91436865 31.4680203,1.28011611 31.906599,1.75558781 C32.3817259,2.23105951 32.7472081,2.7796807 33.0395939,3.40145138 C33.3319797,4.05979681 33.4781726,4.71814224 33.4781726,5.44963716 L33.4781726,31.5274311 C33.4781726,31.7834543 33.4050761,31.966328 33.222335,32.1492017 C33.0395939,32.2955007 32.8568528,32.405225 32.6010152,32.405225 L26.351269,32.405225 C26.0954315,32.405225 25.9126904,32.3320755 25.7664975,32.1492017 C25.6203046,32.0029028 25.5472081,31.7834543 25.5472081,31.5274311 L25.5472081,7.82699565 L20.5401015,7.82699565 L20.5401015,31.5274311 C20.5401015,31.7834543 20.4670051,31.966328 20.3208122,32.1492017 C20.1746193,32.2955007 19.9918782,32.405225 19.7360406,32.405225 L14.071066,32.405225 C13.8152284,32.405225 13.6324873,32.3320755 13.4497462,32.1492017 C13.2670051,32.0029028 13.1939086,31.7834543 13.1939086,31.5274311 L13.1939086,7.82699565 L8.22335025,7.82699565 L8.22335025,31.5274311 C8.22335025,32.112627 7.93096447,32.3686502 7.38274112,32.3686502 L1.16954315,32.3686502 C0.584771574,32.3686502 0.32893401,32.0760522 0.32893401,31.5274311 L0.32893401,1.06066763 C0.32893401,0.475471698 0.621319797,0.219448476 1.16954315,0.219448476 L28.2152284,0.219448476 C28.9461929,0.219448476 29.6406091,0.329172714 30.2619289,0.621770682 Z" fill="#C53C02"></path>
                        <path d="M30.2619289,0.621770682 C30.919797,0.91436865 31.4680203,1.28011611 31.906599,1.75558781 C32.3817259,2.23105951 32.7472081,2.7796807 33.0395939,3.40145138 C33.3319797,4.05979681 33.4781726,4.71814224 33.4781726,5.44963716 L33.4781726,7.7904209 L25.5837563,7.82699565 L20.5766497,7.82699565 L13.2670051,7.82699565 L8.22335025,7.82699565 L0.32893401,7.7904209 L0.32893401,1.06066763 C0.32893401,0.475471698 0.621319797,0.219448476 1.16954315,0.219448476 L28.2152284,0.219448476 C28.9461929,0.219448476 29.6406091,0.329172714 30.2619289,0.621770682 Z" fill="#751B00"></path>
                    </g>
                    <g transform="translate(38.375635, 0.000000)" id="Shape">
                        <path d="M22.2944162,24.5782293 C22.5502538,24.5782293 22.7695431,24.6513788 22.915736,24.8342525 C23.0619289,25.0171263 23.1715736,25.2 23.1715736,25.4560232 L23.1715736,31.5274311 C23.1715736,31.7834543 23.0984772,31.966328 22.915736,32.1492017 C22.7695431,32.3320755 22.5502538,32.405225 22.2944162,32.405225 L0.950253807,32.405225 C0.365482234,32.405225 0.0365482234,32.112627 0.0365482234,31.5274311 L0.0365482234,1.06066763 C0.0365482234,0.475471698 0.32893401,0.18287373 0.950253807,0.18287373 L7.49238579,0.18287373 C8.07715736,0.18287373 8.40609137,0.475471698 8.40609137,1.06066763 L8.40609137,23.7370102 C8.40609137,23.9930334 8.47918782,24.1759071 8.66192893,24.3222061 C8.84467005,24.4685051 9.06395939,24.5416546 9.31979695,24.5416546 L22.2944162,24.5416546 L22.2944162,24.5782293 Z" fill="#265A8F"></path>
                        <path d="M8.33299492,32.405225 L0.950253807,32.405225 C0.365482234,32.405225 0.0365482234,32.112627 0.0365482234,31.5274311 L0.0365482234,1.06066763 C0.0365482234,0.475471698 0.32893401,0.18287373 0.950253807,0.18287373 L7.49238579,0.18287373 C8.07715736,0.18287373 8.40609137,0.475471698 8.40609137,1.06066763 L8.40609137,23.7370102 C8.36954315,23.9930334 8.33299492,32.405225 8.33299492,32.405225 Z" fill="#162F51"></path>
                    </g>
                    <g transform="translate(66.152284, 0.000000)" id="Shape">
                        <path d="M27.3380711,0.219448476 C27.5939086,0.219448476 27.813198,0.292597968 27.9959391,0.475471698 C28.1786802,0.658345428 28.2517766,0.841219158 28.2517766,1.09724238 L28.2517766,31.6371553 C28.2517766,31.8931785 28.1786802,32.0760522 27.9959391,32.258926 C27.813198,32.4417997 27.5939086,32.5149492 27.3380711,32.5149492 L20.6862944,32.5149492 C20.4304569,32.5149492 20.2111675,32.4417997 20.0284264,32.258926 C19.8456853,32.0760522 19.7725888,31.8931785 19.7725888,31.6371553 L19.7725888,20.9939042 C19.7725888,20.737881 19.6994924,20.5550073 19.5167513,20.4087083 C19.3705584,20.2624093 19.151269,20.1892598 18.8954315,20.1892598 L9.57563452,20.1892598 C9.31979695,20.1892598 9.10050761,20.2624093 8.9177665,20.4087083 C8.73502538,20.5550073 8.66192893,20.7744557 8.66192893,20.9939042 L8.66192893,31.6371553 C8.66192893,32.2223512 8.36954315,32.5149492 7.74822335,32.5149492 L1.16954315,32.5149492 C0.54822335,32.5149492 0.255837563,32.2223512 0.255837563,31.6371553 L0.255837563,1.09724238 C0.255837563,0.512046444 0.54822335,0.219448476 1.16954315,0.219448476 L7.74822335,0.219448476 C8.36954315,0.219448476 8.66192893,0.512046444 8.66192893,1.09724238 L8.66192893,11.4113208 C8.66192893,11.9965167 8.95431472,12.2891147 9.57563452,12.2891147 L18.8954315,12.2891147 C19.151269,12.2891147 19.3705584,12.2159652 19.5167513,12.0330914 C19.6629442,11.8502177 19.7725888,11.667344 19.7725888,11.4113208 L19.7725888,1.09724238 C19.7725888,0.841219158 19.8456853,0.658345428 20.0284264,0.475471698 C20.2111675,0.292597968 20.4304569,0.219448476 20.6862944,0.219448476 L27.3380711,0.219448476 Z" fill="#FDEE00"></path>
                        <path d="M8.69847716,20.9573295 L8.69847716,31.6005806 C8.69847716,32.1857765 8.40609137,32.4783745 7.78477157,32.4783745 L1.20609137,32.4783745 C0.584771574,32.4783745 0.292385787,32.1857765 0.292385787,31.6005806 L0.292385787,1.09724238 C0.292385787,0.512046444 0.584771574,0.219448476 1.20609137,0.219448476 L7.78477157,0.219448476 C8.40609137,0.219448476 8.69847716,0.512046444 8.69847716,1.09724238 L8.69847716,11.4113208 C8.69847716,11.9965167 8.69847716,20.7013062 8.69847716,20.9573295 Z" fill="#ECC700"></path>
                        <path d="M27.3380711,0.219448476 C27.5939086,0.219448476 27.813198,0.292597968 27.9959391,0.475471698 C28.1786802,0.658345428 28.2517766,0.841219158 28.2517766,1.09724238 L28.2517766,31.6371553 C28.2517766,31.8931785 28.1786802,32.0760522 27.9959391,32.258926 C27.813198,32.4417997 27.5939086,32.5149492 27.3380711,32.5149492 L20.6862944,32.5149492 C20.4304569,32.5149492 20.2111675,32.4417997 20.0284264,32.258926 C19.8456853,32.0760522 19.7725888,31.8931785 19.7725888,31.6371553 L19.7725888,20.9939042 C19.7725888,20.737881 19.7725888,11.7039187 19.7725888,11.4478955 L19.7725888,1.09724238 C19.7725888,0.841219158 19.8456853,0.658345428 20.0284264,0.475471698 C20.2111675,0.292597968 20.4304569,0.219448476 20.6862944,0.219448476 L27.3380711,0.219448476 Z" fill="#ECC700"></path>
                    </g>
                </g>
                <g id="Group" transform="translate(30.335025, 151.785196)" fill="#6B7373">
                    <path d="M22.5137056,2.01161103 L22.5137056,60.0923077 C22.5137056,61.1895501 21.9654822,61.774746 20.8324873,61.774746 L8.73502538,61.774746 C7.63857868,61.774746 7.05380711,61.2261248 7.05380711,60.0923077 L7.05380711,16.7512337 C7.05380711,16.5317852 6.90761421,16.422061 6.65177665,16.4586357 C6.39593909,16.4952104 6.06700508,16.6415094 5.73807107,16.9341074 L1.46192893,20.2624093 C1.0964467,20.5550073 0.804060914,20.6281567 0.54822335,20.4818578 C0.292385787,20.3355588 0.146192893,20.0429608 0.146192893,19.5674891 L0.146192893,7.27837446 C0.146192893,6.80290276 0.292385787,6.32743106 0.54822335,5.81538462 C0.804060914,5.30333817 1.13299492,4.93759071 1.46192893,4.64499274 L5.77461929,1.31669086 C6.14010152,1.02409289 6.5786802,0.804644412 7.16345178,0.621770682 C7.74822335,0.438896952 8.25989848,0.36574746 8.73502538,0.36574746 L10.7451777,0.36574746 L20.8324873,0.36574746 C21.928934,0.329172714 22.5137056,0.91436865 22.5137056,2.01161103 Z" id="Shape"></path>
                    <path d="M79.1269036,28.4917271 C78.8345178,28.7843251 78.542132,29.1500726 78.2497462,29.5889695 C77.9573604,30.0278665 77.8111675,30.4667634 77.8111675,30.9422351 C77.884264,31.4177068 78.0304569,31.8931785 78.3228426,32.3320755 C78.6152284,32.8075472 78.9076142,33.2098694 79.2,33.5756168 L80.0040609,34.4534107 L80.6984772,35.4043541 L81.8314721,36.6478955 C82.1238579,37.013643 82.3796954,37.4525399 82.5624365,38.0011611 C82.7817259,38.5497823 82.8548223,39.0618287 82.8548223,39.5373004 L82.8548223,47.6934688 L82.8548223,51.4606676 C82.8548223,51.7532656 82.8548223,52.0458636 82.8182741,52.3018868 C82.7817259,52.55791 82.7451777,52.850508 82.6720812,53.143106 C82.6720812,53.3259797 82.635533,53.4722787 82.5989848,53.5820029 C82.5258883,54.0574746 82.3796954,54.5329463 82.1604061,55.0815675 C82.0873096,55.2644412 82.0142132,55.4473149 81.9045685,55.7033382 C81.7218274,56.1056604 81.5390863,56.5079826 81.2832487,56.9468795 C81.1736041,57.0566038 81.1005076,57.166328 81.1005076,57.312627 C81.0274112,57.3857765 80.9908629,57.3857765 80.9543147,57.3857765 C80.9177665,57.3857765 80.8812183,57.4223512 80.8081218,57.458926 C80.6984772,57.6783745 80.5888325,57.8612482 80.4426396,57.9709724 C80.3695431,58.1538462 80.2598985,58.2635704 80.0771574,58.3367199 C80.0040609,58.4464441 79.8944162,58.5927431 79.7116751,58.7756168 L79.3461929,59.1413643 C79.2365482,59.2145138 79.1269036,59.2876633 78.9807107,59.3973875 C78.871066,59.5071118 78.7614213,59.5802612 78.7248731,59.616836 C78.6517766,59.6534107 78.5786802,59.7265602 78.4690355,59.8362845 C78.3959391,59.909434 78.3593909,59.909434 78.3228426,59.909434 C78.2862944,59.909434 78.2497462,59.9460087 78.1766497,59.9825835 L77.8111675,60.1654572 C77.3360406,60.4580552 76.8243655,60.7506531 76.2761421,61.0066763 C75.7279188,61.2626996 75.106599,61.4455733 74.4852792,61.5918723 L74.0467005,61.5918723 C73.7543147,61.6650218 73.4984772,61.7015965 73.2426396,61.7381713 C73.0233503,61.774746 72.7309645,61.774746 72.4385787,61.774746 L45.977665,61.774746 C45.5025381,61.774746 45.1736041,61.7381713 44.9177665,61.7015965 C43.6385787,61.5918723 42.4324873,61.2261248 41.3360406,60.6409289 C40.2395939,60.0557329 39.2527919,59.324238 38.4121827,58.4098694 C37.5715736,57.4955007 36.9137056,56.4714078 36.4385787,55.301016 C35.9634518,54.1306241 35.7441624,52.8870827 35.7441624,51.5338171 L35.7441624,47.7666183 L35.7441624,39.6104499 C35.7441624,39.1349782 35.8538071,38.6229318 36.0365482,38.0743106 C36.2558376,37.5256894 36.4751269,37.0502177 36.7675127,36.721045 L37.8274112,35.4775036 L38.6314721,34.5265602 L39.435533,33.6487663 C39.7279188,33.2830189 40.0203046,32.8806967 40.3126904,32.405225 C40.6050761,31.9297533 40.751269,31.4542816 40.751269,31.0153846 C40.8243655,30.5399129 40.6781726,30.101016 40.3857868,29.662119 C40.093401,29.2232221 39.8010152,28.8574746 39.5086294,28.5648766 L38.6314721,27.4310595 L36.6944162,24.9805515 C36.4020305,24.6148041 36.1827411,24.1759071 36,23.6272859 C35.8172589,23.0786647 35.7441624,22.5666183 35.7441624,22.0911466 L35.7441624,10.6066763 C35.7441624,9.21683599 36,7.86357039 36.5482234,6.62002903 C37.0598985,5.37648766 37.7908629,4.27924528 38.7411168,3.36487663 C39.6913706,2.45050798 40.7878173,1.71901306 42.0304569,1.17039187 C43.2730964,0.621770682 44.6253807,0.329172714 46.0142132,0.329172714 L55.480203,0.329172714 L58.915736,0.329172714 L65.4213198,0.329172714 L72.5116751,0.329172714 C73.9005076,0.329172714 75.2527919,0.621770682 76.4954315,1.17039187 C77.7380711,1.71901306 78.8345178,2.45050798 79.7482234,3.36487663 C80.6619289,4.27924528 81.3928934,5.33991292 81.9411168,6.62002903 C82.4893401,7.86357039 82.7817259,9.21683599 82.7817259,10.6066763 L82.7817259,22.0179971 C82.7817259,22.4934688 82.6720812,23.0055152 82.4893401,23.5541364 C82.2700508,24.1027576 82.0507614,24.5782293 81.7583756,24.907402 L79.9309645,27.35791 L79.1269036,28.4917271 Z M68.2720812,13.678955 L50.4730964,13.678955 L50.4730964,15.9465893 L50.4730964,22.9689405 L50.4730964,24.6513788 L52.1543147,24.6513788 L59.8659898,24.6513788 L66.7005076,24.6513788 L68.2720812,24.6513788 L68.2720812,22.9689405 L68.2720812,15.9465893 L68.2720812,13.678955 Z M68.2720812,36.3187228 L50.4730964,36.3187228 L50.4730964,37.4525399 L50.4730964,47.7300435 L50.4730964,48.3518142 L68.2720812,48.3518142 L68.2720812,47.7300435 L68.2720812,37.4525399 L68.2720812,36.3187228 Z" id="Shape"></path>
                </g>
            </g>
        </g>
    </g>
</svg>