<?xml version="1.0" encoding="UTF-8"?>
<svg width="826px" height="182px" viewBox="0 0 826 182" version="1.1" xmlns="http://www.w3.org/2000/svg" xmlns:xlink="http://www.w3.org/1999/xlink">
    <!-- Generator: Sketch 45.2 (43514) - http://www.bohemiancoding.com/sketch -->
    <title>plane</title>
    <desc>Created with Sketch.</desc>
    <defs>
        <path d="M9,1 C19,4.33333333 30,15.8392756 42,35.5178268 L116,33 L116,38 C128.318218,35.0679967 136.984885,33.7346634 142,34 C143.050265,34.0555667 144.882345,34.2281757 147.496242,34.5178268 L147.496242,39 L174,35.5178268 L205.592823,38 L224,43 C228.666667,48.8903509 231,54.2236842 231,59 C231,63.7763158 229.333333,68.7763158 226,74 L205.592823,80.6035442 C163.318096,80.8678481 132.787155,81 114,81 C77.5919376,81 40.9252709,76.3333333 4,67 C-2.66666667,19.6666667 -1,-2.33333333 9,1 Z" id="path-1"></path>
        <path d="M9,1 C19,4.33333333 30,15.8392756 42,35.5178268 L116,33 L116,38 C128.318218,35.0679967 136.984885,33.7346634 142,34 C143.050265,34.0555667 144.882345,34.2281757 147.496242,34.5178268 L147.496242,39 L174,35.5178268 L205.592823,38 L224,43 C228.666667,48.8903509 231,54.2236842 231,59 C231,63.7763158 229.333333,68.7763158 226,74 L205.592823,80.6035442 C163.318096,80.8678481 132.787155,81 114,81 C77.5919376,81 40.9252709,76.3333333 4,67 C-2.66666667,19.6666667 -1,-2.33333333 9,1 Z" id="path-3"></path>
    </defs>
    <g id="Page-1" stroke="none" stroke-width="1" fill="none" fill-rule="evenodd">
        <g id="plane" transform="translate(0.000000, -23.000000)">
            <g id="Group-24" transform="translate(277.153712, 129.751553) rotate(-7.000000) translate(-277.153712, -129.751553) translate(3.653712, 88.251553)">
                <polygon id="Rectangle-13" fill="#F4F5F7" fill-rule="nonzero" points="-3.35376171e-12 0.67160774 459.322786 0.67160774 459.322786 82.9550059 2.99096541e-12 82.9550059"></polygon>
                <path d="M546.5,39.2363636 L461,10.5636364" id="Line-2" stroke="#3E3E3E" stroke-width="3" stroke-linecap="square"></path>
                <path d="M546.551709,40.7454545 L461,40.7454545" id="Line-3" stroke="#3E3E3E" stroke-width="3" stroke-linecap="square"></path>
                <path d="M546.5,40.6752643 L461,76.1915433" id="Line-4" stroke="#3E3E3E" stroke-width="3" stroke-linecap="square"></path>
            </g>
            <g id="Group" transform="translate(682.055965, 79.481090) rotate(-7.000000) translate(-682.055965, -79.481090) translate(543.555965, 16.481090)">
                <g id="wing1" transform="translate(102.000000, 30.000000)" fill-rule="nonzero">
                    <path d="M3.0034929,-6.31088724e-30 L81.5500786,-6.31088724e-30 L81.5500786,-3.77475828e-14 C81.8483583,-3.78023759e-14 82.1449703,0.044484031 82.4301272,0.13198425 L172.876556,27.8854089 L172.876556,27.8854089 C174.460517,28.3714464 175.35056,30.049512 174.864523,31.6334733 C174.477927,32.8933624 173.314376,33.7534247 171.996507,33.7534247 L93.449921,33.7534247 L93.449921,33.7534247 C93.151642,33.7534247 92.85503,33.7089406 92.569873,33.6214404 L2.1234442,5.86801575 L2.1234442,5.86801575 C0.5394828,5.38197829 -0.3505604,3.70391269 0.1354771,2.11995133 C0.5220732,0.860062232 1.6856245,1.48970324e-14 3.0034929,1.46549439e-14 L3.0034929,-6.31088724e-30 Z" id="Rectangle-87" fill="#525E9B"></path>
                    <rect id="Rectangle-88" fill="#C7D0DA" x="1" y="3.61643836" width="3" height="55.4520548" rx="1"></rect>
                    <rect id="Rectangle-88" fill="#C7D0DA" x="84" y="5.61643836" width="3" height="55.4520548" rx="1"></rect>
                    <rect id="Rectangle-88" fill="#C7D0DA" x="98" y="30.1369863" width="3" height="55.4520548" rx="1"></rect>
                    <rect id="Rectangle-88" fill="#C7D0DA" x="50" y="18.0821918" width="3" height="55.4520548" rx="1"></rect>
                    <rect id="Rectangle-88" fill="#C7D0DA" x="125" y="18.0821918" width="3" height="55.4520548" rx="1"></rect>
                    <rect id="Rectangle-88" fill="#C7D0DA" x="163" y="30.1369863" width="3" height="55.4520548" rx="1"></rect>
                    <path d="M3.0034929,54.2465753 L81.5500786,54.2465753 L81.5500786,54.2465753 C81.8483583,54.2465753 82.1449703,54.2910594 82.4301272,54.3785596 L172.876556,82.1319843 L172.876556,82.1319843 C174.460517,82.6180217 175.35056,84.2960873 174.864523,85.8800487 C174.477927,87.1399378 173.314376,88 171.996507,88 L93.449921,88 L93.449921,88 C93.151642,88 92.85503,87.955516 92.569873,87.8680157 L2.1234442,60.1145911 L2.1234442,60.1145911 C0.5394828,59.6285536 -0.3505604,57.950488 0.1354771,56.3665267 C0.5220732,55.1066376 1.6856245,54.2465753 3.0034929,54.2465753 Z" id="Rectangle-87" fill="#525E9B"></path>
                </g>
                <g id="wheel" transform="translate(191.664207, 98.490161)" fill-rule="nonzero">
                    <rect id="Rectangle-91" fill="#404040" transform="translate(4.810738, 6.091378) rotate(-25.000000) translate(-4.810738, -6.091378) " x="3.31073791" y="0.0913777207" width="3" height="12"></rect>
                    <rect id="Rectangle-91" fill="#404040" transform="translate(13.810738, 6.091378) scale(-1, 1) rotate(-25.000000) translate(-13.810738, -6.091378) " x="12.3107381" y="0.0913777376" width="3" height="12"></rect>
                    <circle id="Oval-27" fill="#2B2B2B" cx="9.5" cy="15.5" r="5.5"></circle>
                    <circle id="Oval-27" fill="#D8D8D8" cx="9.5" cy="15.5" r="2.5"></circle>
                </g>
                <g id="Rectangle-21" transform="translate(0.000000, 21.000000)">
                    <polygon id="Rectangle-91" fill="#404040" fill-rule="nonzero" transform="translate(39.902700, 75.038725) scale(-1, 1) rotate(-25.000000) translate(-39.902700, -75.038725) " points="38.6667544 71.0766921 40.5281968 71.7240548 41.1386454 79.000758 38.9719787 79.000758"></polygon>
                    <g id="Mask" fill-rule="nonzero" fill="#6776C2">
                        <path d="M9,1 C19,4.33333333 30,15.8392756 42,35.5178268 L116,33 L116,38 C128.318218,35.0679967 136.984885,33.7346634 142,34 C143.050265,34.0555667 144.882345,34.2281757 147.496242,34.5178268 L147.496242,39 L174,35.5178268 L205.592823,38 L224,43 C228.666667,48.8903509 231,54.2236842 231,59 C231,63.7763158 229.333333,68.7763158 226,74 L205.592823,80.6035442 C163.318096,80.8678481 132.787155,81 114,81 C77.5919376,81 40.9252709,76.3333333 4,67 C-2.66666667,19.6666667 -1,-2.33333333 9,1 Z" id="path-1"></path>
                    </g>
                    <g id="Clipped">
                        <mask id="mask-2" fill="white">
                            <use xlink:href="#path-1"></use>
                        </mask>
                        <g id="path-1"></g>
                        <rect id="Rectangle-path" fill-opacity="0.173148777" fill="#FFFFFF" fill-rule="nonzero" mask="url(#mask-2)" transform="translate(21.013571, 20.990374) rotate(1.000000) translate(-21.013571, -20.990374) " x="-2.98682569" y="15.4903738" width="48.0007928" height="11"></rect>
                    </g>
                    <g id="Clipped">
                        <mask id="mask-4" fill="white">
                            <use xlink:href="#path-3"></use>
                        </mask>
                        <g id="path-1"></g>
                        <rect id="Rectangle-path" fill-opacity="0.173148777" fill="#FFFFFF" fill-rule="nonzero" mask="url(#mask-4)" transform="translate(112.438842, 54.047353) rotate(1.000000) translate(-112.438842, -54.047353) " x="-3.06115763" y="52.0079707" width="231" height="4.07876429"></rect>
                    </g>
                </g>
                <g id="wing1" transform="translate(4.000000, 0.000000)" fill-rule="nonzero">
                    <path d="M3.8648268,-3.15544362e-30 L82.5469379,-3.15544362e-30 L82.5469379,-3.15544362e-30 C82.8472765,-5.51713012e-17 83.1459125,0.0451002124 83.4328567,0.133792077 L174.021092,28.1337921 L174.021092,28.1337921 C175.604055,28.6230715 176.490661,30.3029559 176.001381,31.8859188 C175.612876,33.1428457 174.450772,34 173.135173,34 L94.453062,34 L94.453062,34 C94.152724,34 93.854088,33.9548998 93.567143,33.8662079 L2.978908,5.86620792 L2.978908,5.86620792 C1.3959451,5.37692847 0.5093394,3.69704411 0.9986189,2.11408119 C1.3871235,0.85715431 2.5492277,-1.82462943e-14 3.8648268,-1.73194792e-14 L3.8648268,-3.15544362e-30 Z" id="Rectangle-87" fill="#525E9B"></path>
                    <rect id="Rectangle-88" fill="#C7D0DA" x="8" y="4" width="3" height="55" rx="1"></rect>
                    <rect id="Rectangle-88" fill="#C7D0DA" x="77" y="4" width="3" height="55" rx="1"></rect>
                    <rect id="Rectangle-88" fill="#C7D0DA" x="99" y="30" width="3" height="55" rx="1"></rect>
                    <rect id="Rectangle-88" fill="#C7D0DA" x="51" y="18" width="3" height="55" rx="1"></rect>
                    <rect id="Rectangle-88" fill="#C7D0DA" x="128" y="18" width="3" height="55" rx="1"></rect>
                    <rect id="Rectangle-88" fill="#C7D0DA" x="166" y="31" width="3" height="55" rx="1"></rect>
                    <path d="M3.8648268,54 L82.5469379,54 L82.5469379,54 C82.8472765,54 83.1459125,54.0451002 83.4328567,54.1337921 L174.021092,82.1337921 L174.021092,82.1337921 C175.604055,82.6230715 176.490661,84.3029559 176.001381,85.8859188 C175.612876,87.1428457 174.450772,88 173.135173,88 L94.453062,88 L94.453062,88 C94.152724,88 93.854088,87.9548998 93.567143,87.8662079 L2.978908,59.8662079 L2.978908,59.8662079 C1.3959451,59.3769285 0.5093394,57.6970441 0.9986189,56.1140812 C1.3871235,54.8571543 2.5492277,54 3.8648268,54 Z" id="Rectangle-87" fill="#525E9B"></path>
                </g>
                <ellipse id="Oval-26" fill="#373A3E" fill-rule="nonzero" transform="translate(224.801614, 79.545305) rotate(-3.000000) translate(-224.801614, -79.545305) " cx="224.801614" cy="79.5453048" rx="7" ry="15.5"></ellipse>
                <path d="M228.498631,86.9477358 C230.431628,86.9477358 232.997261,83.4183497 232.997261,79.0000717 C232.997261,74.5817937 230.431628,70.9477358 228.498631,70.9477358 C226.565635,70.9477358 225.997261,74.5817937 225.997261,79.0000717 C225.997261,83.4183497 226.565635,86.9477358 228.498631,86.9477358 Z" id="Oval-26" fill="#CEDAE8" fill-rule="nonzero" transform="translate(229.497261, 78.947736) rotate(-3.000000) translate(-229.497261, -78.947736) "></path>
                <path d="M215.987271,26.6981416 L215.987271,26.6981416 L215.987271,26.6981416 C217.048804,26.6981416 217.909347,27.5586845 217.909347,28.6202181 C217.909347,28.645674 217.908841,28.6711274 217.90783,28.6965633 L216.05369,75.3397737 L213.987271,75.6981416 L213.987271,28.6981416 L213.987271,28.6981416 C213.987271,27.5935721 214.882701,26.6981416 215.987271,26.6981416 Z" id="Rectangle-90" fill="#CEDAE8" fill-rule="nonzero" transform="translate(215.948309, 51.198142) rotate(-30.000000) translate(-215.948309, -51.198142) "></path>
                <path d="M242.987271,78.698142 L242.987271,78.698142 L242.987271,78.698142 C244.048804,78.698142 244.909347,79.5586849 244.909347,80.6202185 C244.909347,80.6456744 244.908841,80.6711278 244.90783,80.6965637 L243.05369,127.339774 L240.987271,127.698142 L240.987271,80.698142 L240.987271,80.698142 C240.987271,79.5935725 241.882701,78.698142 242.987271,78.698142 Z" id="Rectangle-90" fill="#CEDAE8" fill-rule="nonzero" transform="translate(242.948309, 103.198142) rotate(150.000000) translate(-242.948309, -103.198142) "></path>
                <g id="wheel" transform="translate(173.517293, 94.542338)" fill-rule="nonzero">
                    <polygon id="Rectangle-91" fill="#404040" transform="translate(4.810738, 6.591378) rotate(-25.000000) translate(-4.810738, -6.591378) " points="3.09942878 1.04453161 5.67681052 1.9508394 6.52204705 12.1382238 3.52204705 12.1382238"></polygon>
                    <polygon id="Rectangle-91" fill="#404040" transform="translate(13.810738, 6.591378) scale(-1, 1) rotate(-25.000000) translate(-13.810738, -6.591378) " points="12.0994289 1.04453161 14.6768107 1.9508394 15.5220472 12.1382238 12.5220472 12.1382238"></polygon>
                    <circle id="Oval-27" fill="#2B2B2B" cx="9.5" cy="15.5" r="5.5"></circle>
                    <circle id="Oval-27" fill="#D8D8D8" cx="9.5" cy="15.5" r="2.5"></circle>
                </g>
                <g id="wheel" transform="translate(34.568389, 98.881858) rotate(7.000000) translate(-34.568389, -98.881858) translate(29.068389, 90.881858)" fill-rule="nonzero">
                    <polygon id="Rectangle-91" fill="#404040" transform="translate(3.474422, 4.708127) rotate(-25.000000) translate(-3.474422, -4.708127) " points="2.23847642 0.746094043 4.09991878 1.39345675 4.71036738 8.67015991 2.54370072 8.67015991"></polygon>
                    <ellipse id="Oval-27" fill="#2B2B2B" cx="6.86111111" cy="11.0714286" rx="3.97222222" ry="3.92857143"></ellipse>
                    <ellipse id="Oval-27" fill="#D8D8D8" cx="6.86111111" cy="11.0714286" rx="1.80555556" ry="1.78571429"></ellipse>
                </g>
            </g>
            <g id="sponsor@dubhacks.co" transform="translate(231.937026, 132.935142) rotate(-7.000000) translate(-231.937026, -132.935142) translate(48.937026, 110.935142)" fill="#404649">
                <path d="M1.1943049,33.539453 C3.0303049,35.231453 5.9463049,36.239453 8.9703049,36.239453 C13.7943049,36.239453 16.4943049,33.827453 16.4943049,30.659453 C16.4943049,26.303453 12.4983049,25.475453 9.5103049,24.899453 C7.5663049,24.503453 6.1983049,24.215453 6.1983049,23.207453 C6.1983049,22.235453 7.2783049,21.479453 8.9343049,21.479453 C11.0583049,21.479453 13.0383049,22.379453 14.0823049,23.495453 L15.9183049,20.363453 C14.1903049,18.995453 11.8503049,17.987453 8.8983049,17.987453 C4.3263049,17.987453 1.7703049,20.543453 1.7703049,23.459453 C1.7703049,27.635453 5.6223049,28.391453 8.6103049,28.967453 C10.5183049,29.327453 12.1023049,29.651453 12.1023049,30.839453 C12.1023049,31.919453 11.1663049,32.711453 9.1863049,32.711453 C7.0263049,32.711453 4.4343049,31.523453 3.1743049,30.335453 L1.1943049,33.539453 Z M24.4503049,42.431453 L19.8783049,42.431453 L19.8783049,18.419453 L24.4503049,18.419453 L24.4503049,20.615453 C25.7823049,18.923453 27.6903049,17.987453 29.8143049,17.987453 C34.2783049,17.987453 37.5183049,21.299453 37.5183049,27.095453 C37.5183049,32.891453 34.2783049,36.239453 29.8143049,36.239453 C27.7623049,36.239453 25.8543049,35.375453 24.4503049,33.575453 L24.4503049,42.431453 Z M32.7663049,27.095453 C32.7663049,24.107453 31.0023049,22.055453 28.3743049,22.055453 C26.8983049,22.055453 25.2063049,22.919453 24.4503049,24.035453 L24.4503049,30.191453 C25.2063049,31.271453 26.8983049,32.171453 28.3743049,32.171453 C31.0023049,32.171453 32.7663049,30.119453 32.7663049,27.095453 Z M49.0023049,36.239453 C43.2783049,36.239453 39.8223049,32.063453 39.8223049,27.095453 C39.8223049,22.163453 43.2783049,17.987453 49.0023049,17.987453 C54.7623049,17.987453 58.2183049,22.163453 58.2183049,27.095453 C58.2183049,32.063453 54.7623049,36.239453 49.0023049,36.239453 Z M49.0023049,32.171453 C51.8463049,32.171453 53.4663049,29.831453 53.4663049,27.095453 C53.4663049,24.395453 51.8463049,22.055453 49.0023049,22.055453 C46.1583049,22.055453 44.5743049,24.395453 44.5743049,27.095453 C44.5743049,29.831453 46.1583049,32.171453 49.0023049,32.171453 Z M73.3383049,35.807453 L77.9103049,35.807453 L77.9103049,23.531453 C77.9103049,20.147453 76.0743049,17.987453 72.2583049,17.987453 C69.4143049,17.987453 67.2903049,19.355453 66.1743049,20.687453 L66.1743049,18.419453 L61.6023049,18.419453 L61.6023049,35.807453 L66.1743049,35.807453 L66.1743049,24.107453 C66.9303049,23.063453 68.3343049,22.055453 70.1343049,22.055453 C72.0783049,22.055453 73.3383049,22.883453 73.3383049,25.295453 L73.3383049,35.807453 Z M80.9343049,33.539453 C82.7703049,35.231453 85.6863049,36.239453 88.7103049,36.239453 C93.5343049,36.239453 96.2343049,33.827453 96.2343049,30.659453 C96.2343049,26.303453 92.2383049,25.475453 89.2503049,24.899453 C87.3063049,24.503453 85.9383049,24.215453 85.9383049,23.207453 C85.9383049,22.235453 87.0183049,21.479453 88.6743049,21.479453 C90.7983049,21.479453 92.7783049,22.379453 93.8223049,23.495453 L95.6583049,20.363453 C93.9303049,18.995453 91.5903049,17.987453 88.6383049,17.987453 C84.0663049,17.987453 81.5103049,20.543453 81.5103049,23.459453 C81.5103049,27.635453 85.3623049,28.391453 88.3503049,28.967453 C90.2583049,29.327453 91.8423049,29.651453 91.8423049,30.839453 C91.8423049,31.919453 90.9063049,32.711453 88.9263049,32.711453 C86.7663049,32.711453 84.1743049,31.523453 82.9143049,30.335453 L80.9343049,33.539453 Z M107.682305,36.239453 C101.958305,36.239453 98.5023049,32.063453 98.5023049,27.095453 C98.5023049,22.163453 101.958305,17.987453 107.682305,17.987453 C113.442305,17.987453 116.898305,22.163453 116.898305,27.095453 C116.898305,32.063453 113.442305,36.239453 107.682305,36.239453 Z M107.682305,32.171453 C110.526305,32.171453 112.146305,29.831453 112.146305,27.095453 C112.146305,24.395453 110.526305,22.055453 107.682305,22.055453 C104.838305,22.055453 103.254305,24.395453 103.254305,27.095453 C103.254305,29.831453 104.838305,32.171453 107.682305,32.171453 Z M120.282305,35.807453 L124.854305,35.807453 L124.854305,24.323453 C125.610305,23.207453 127.626305,22.343453 129.138305,22.343453 C129.642305,22.343453 130.074305,22.415453 130.398305,22.487453 L130.398305,18.023453 C128.238305,18.023453 126.078305,19.247453 124.854305,20.795453 L124.854305,18.419453 L120.282305,18.419453 L120.282305,35.807453 Z M132.234305,27.023453 C132.234305,19.355453 139.038305,12.839453 146.526305,12.839453 C153.402305,12.839453 157.866305,17.879453 157.866305,23.855453 C157.866305,29.903453 153.870305,32.747453 150.738305,32.747453 C148.578305,32.747453 147.462305,31.451453 147.246305,30.083453 L147.210305,29.867453 C145.950305,31.631453 143.970305,32.747453 142.026305,32.747453 C138.534305,32.747453 136.446305,30.191453 136.446305,26.699453 C136.446305,21.875453 140.406305,17.879453 144.582305,17.879453 C146.742305,17.879453 148.326305,18.923453 149.082305,20.291453 L149.478305,18.383453 L153.546305,18.383453 L151.710305,27.167453 C151.674305,27.383453 151.602305,27.815453 151.602305,28.031453 C151.602305,29.147453 152.178305,29.651453 152.934305,29.651453 C154.338305,29.651453 156.318305,27.959453 156.318305,23.855453 C156.318305,18.167453 152.430305,14.243453 146.382305,14.243453 C139.578305,14.243453 133.638305,20.219453 133.638305,26.951453 C133.638305,32.603453 137.958305,36.959453 143.790305,36.959453 C146.238305,36.959453 148.434305,36.203453 150.378305,34.979453 L151.134305,36.059453 C148.902305,37.499453 146.310305,38.327453 143.646305,38.327453 C137.094305,38.327453 132.234305,33.395453 132.234305,27.023453 Z M147.606305,27.167453 L148.506305,22.955453 C148.110305,22.163453 147.174305,21.119453 145.590305,21.119453 C142.710305,21.119453 140.622305,23.711453 140.622305,26.339453 C140.622305,28.211453 141.774305,29.507453 143.610305,29.507453 C145.518305,29.507453 146.814305,28.247453 147.606305,27.167453 Z M173.382305,35.807453 L173.382305,33.575453 C172.014305,35.303453 170.106305,36.239453 168.018305,36.239453 C163.626305,36.239453 160.314305,32.927453 160.314305,27.131453 C160.314305,21.443453 163.590305,17.987453 168.018305,17.987453 C170.070305,17.987453 172.014305,18.887453 173.382305,20.651453 L173.382305,11.795453 L177.990305,11.795453 L177.990305,35.807453 L173.382305,35.807453 Z M173.382305,30.191453 L173.382305,24.035453 C172.626305,22.883453 170.970305,22.055453 169.422305,22.055453 C166.830305,22.055453 165.030305,24.107453 165.030305,27.131453 C165.030305,30.119453 166.830305,32.171453 169.422305,32.171453 C170.970305,32.171453 172.626305,31.343453 173.382305,30.191453 Z M194.262305,35.807453 L198.834305,35.807453 L198.834305,18.419453 L194.262305,18.419453 L194.262305,30.191453 C193.470305,31.199453 192.066305,32.171453 190.302305,32.171453 C188.358305,32.171453 187.098305,31.379453 187.098305,28.967453 L187.098305,18.419453 L182.526305,18.419453 L182.526305,30.767453 C182.526305,34.151453 184.326305,36.239453 188.142305,36.239453 C190.986305,36.239453 193.074305,34.943453 194.262305,33.611453 L194.262305,35.807453 Z M203.370305,35.807453 L203.370305,11.795453 L207.942305,11.795453 L207.942305,20.651453 C209.310305,18.887453 211.254305,17.987453 213.306305,17.987453 C217.734305,17.987453 221.010305,21.443453 221.010305,27.131453 C221.010305,32.927453 217.698305,36.239453 213.306305,36.239453 C211.218305,36.239453 209.310305,35.303453 207.942305,33.575453 L207.942305,35.807453 L203.370305,35.807453 Z M207.942305,30.227453 C208.698305,31.343453 210.390305,32.171453 211.866305,32.171453 C214.530305,32.171453 216.294305,30.155453 216.294305,27.131453 C216.294305,24.107453 214.530305,22.055453 211.866305,22.055453 C210.390305,22.055453 208.698305,22.919453 207.942305,24.071453 L207.942305,30.227453 Z M236.238305,35.807453 L240.810305,35.807453 L240.810305,23.459453 C240.810305,20.075453 238.974305,17.987453 235.158305,17.987453 C232.314305,17.987453 230.154305,19.355453 229.038305,20.687453 L229.038305,11.795453 L224.466305,11.795453 L224.466305,35.807453 L229.038305,35.807453 L229.038305,24.107453 C229.830305,23.063453 231.234305,22.055453 232.998305,22.055453 C234.978305,22.055453 236.238305,22.811453 236.238305,25.223453 L236.238305,35.807453 Z M255.786305,35.807453 L255.786305,34.007453 C254.598305,35.411453 252.546305,36.239453 250.278305,36.239453 C247.506305,36.239453 244.230305,34.367453 244.230305,30.479453 C244.230305,26.411453 247.506305,24.935453 250.278305,24.935453 C252.582305,24.935453 254.634305,25.655453 255.786305,27.059453 L255.786305,24.647453 C255.786305,22.883453 254.274305,21.731453 251.970305,21.731453 C250.098305,21.731453 248.370305,22.415453 246.894305,23.783453 L245.166305,20.723453 C247.290305,18.851453 250.026305,17.987453 252.762305,17.987453 C256.722305,17.987453 260.358305,19.571453 260.358305,24.575453 L260.358305,35.807453 L255.786305,35.807453 Z M255.786305,31.631453 L255.786305,29.471453 C255.030305,28.463453 253.590305,27.959453 252.114305,27.959453 C250.314305,27.959453 248.838305,28.895453 248.838305,30.587453 C248.838305,32.207453 250.314305,33.143453 252.114305,33.143453 C253.590305,33.143453 255.030305,32.639453 255.786305,31.631453 Z M263.778305,27.095453 C263.778305,32.459453 267.630305,36.239453 272.994305,36.239453 C276.558305,36.239453 278.718305,34.691453 279.870305,33.071453 L276.882305,30.299453 C276.054305,31.451453 274.794305,32.171453 273.210305,32.171453 C270.438305,32.171453 268.494305,30.119453 268.494305,27.095453 C268.494305,24.071453 270.438305,22.055453 273.210305,22.055453 C274.794305,22.055453 276.054305,22.703453 276.882305,23.927453 L279.870305,21.119453 C278.718305,19.535453 276.558305,17.987453 272.994305,17.987453 C267.630305,17.987453 263.778305,21.767453 263.778305,27.095453 Z M294.126305,35.807453 L299.850305,35.807453 L292.758305,26.303453 L299.634305,18.419453 L294.018305,18.419453 L287.430305,26.159453 L287.430305,11.795453 L282.858305,11.795453 L282.858305,35.807453 L287.430305,35.807453 L287.430305,31.343453 L289.518305,29.111453 L294.126305,35.807453 Z M300.606305,33.539453 C302.442305,35.231453 305.358305,36.239453 308.382305,36.239453 C313.206305,36.239453 315.906305,33.827453 315.906305,30.659453 C315.906305,26.303453 311.910305,25.475453 308.922305,24.899453 C306.978305,24.503453 305.610305,24.215453 305.610305,23.207453 C305.610305,22.235453 306.690305,21.479453 308.346305,21.479453 C310.470305,21.479453 312.450305,22.379453 313.494305,23.495453 L315.330305,20.363453 C313.602305,18.995453 311.262305,17.987453 308.310305,17.987453 C303.738305,17.987453 301.182305,20.543453 301.182305,23.459453 C301.182305,27.635453 305.034305,28.391453 308.022305,28.967453 C309.930305,29.327453 311.514305,29.651453 311.514305,30.839453 C311.514305,31.919453 310.578305,32.711453 308.598305,32.711453 C306.438305,32.711453 303.846305,31.523453 302.586305,30.335453 L300.606305,33.539453 Z M318.714305,33.287453 C318.714305,34.871453 320.046305,36.203453 321.630305,36.203453 C323.214305,36.203453 324.546305,34.871453 324.546305,33.287453 C324.546305,31.703453 323.214305,30.371453 321.630305,30.371453 C320.046305,30.371453 318.714305,31.703453 318.714305,33.287453 Z M327.246305,27.095453 C327.246305,32.459453 331.098305,36.239453 336.462305,36.239453 C340.026305,36.239453 342.186305,34.691453 343.338305,33.071453 L340.350305,30.299453 C339.522305,31.451453 338.262305,32.171453 336.678305,32.171453 C333.906305,32.171453 331.962305,30.119453 331.962305,27.095453 C331.962305,24.071453 333.906305,22.055453 336.678305,22.055453 C338.262305,22.055453 339.522305,22.703453 340.350305,23.927453 L343.338305,21.119453 C342.186305,19.535453 340.026305,17.987453 336.462305,17.987453 C331.098305,17.987453 327.246305,21.767453 327.246305,27.095453 Z M354.390305,36.239453 C348.666305,36.239453 345.210305,32.063453 345.210305,27.095453 C345.210305,22.163453 348.666305,17.987453 354.390305,17.987453 C360.150305,17.987453 363.606305,22.163453 363.606305,27.095453 C363.606305,32.063453 360.150305,36.239453 354.390305,36.239453 Z M354.390305,32.171453 C357.234305,32.171453 358.854305,29.831453 358.854305,27.095453 C358.854305,24.395453 357.234305,22.055453 354.390305,22.055453 C351.546305,22.055453 349.962305,24.395453 349.962305,27.095453 C349.962305,29.831453 351.546305,32.171453 354.390305,32.171453 Z"></path>
            </g>
        </g>
    </g>
</svg>