<?xml version="1.0" encoding="UTF-8"?>
<svg width="296px" height="408px" viewBox="0 0 296 408" version="1.1" xmlns="http://www.w3.org/2000/svg" xmlns:xlink="http://www.w3.org/1999/xlink">
    <!-- Generator: Sketch 45.2 (43514) - http://www.bohemiancoding.com/sketch -->
    <title>sailboat</title>
    <desc>Created with Sketch.</desc>
    <defs>
        <radialGradient cx="100%" cy="100%" fx="100%" fy="100%" r="141.421356%" gradientTransform="translate(1.000000,1.000000),scale(0.203144,1.000000),rotate(-168.516968),translate(-1.000000,-1.000000)" id="radialGradient-1">
            <stop stop-color="#E68060" offset="0%"></stop>
            <stop stop-color="#F8CA23" offset="100%"></stop>
        </radialGradient>
        <radialGradient cx="0%" cy="0%" fx="0%" fy="0%" r="141.421356%" gradientTransform="translate(0.000000,0.000000),scale(1.000000,0.456309),rotate(65.472381),translate(-0.000000,-0.000000)" id="radialGradient-2">
            <stop stop-color="#FFFFFF" offset="0%"></stop>
            <stop stop-color="#F0F0F0" offset="100%"></stop>
        </radialGradient>
        <radialGradient cx="0%" cy="0%" fx="0%" fy="0%" r="141.421356%" gradientTransform="translate(0.000000,0.000000),scale(1.000000,0.684463),rotate(55.609810),translate(-0.000000,-0.000000)" id="radialGradient-3">
            <stop stop-color="#FFFFFF" offset="0%"></stop>
            <stop stop-color="#F0F0F0" offset="100%"></stop>
        </radialGradient>
    </defs>
    <g id="Page-1" stroke="none" stroke-width="1" fill="none" fill-rule="evenodd">
        <g id="Desktop-HD-Copy-16" transform="translate(-539.000000, -3547.000000)">
            <g id="sailboat" transform="translate(539.871018, 3546.792146)">
                <path d="M1.66200553,348.312565 L293.337995,348.312565 L293.337995,348.312565 C293.917894,348.312565 294.387995,348.782666 294.387995,349.362565 C294.387995,349.638652 294.279256,349.90363 294.08532,350.100132 L261.817757,382.794596 L261.817757,382.794596 C261.68507,382.929039 261.518572,383.025198 261.33581,383.07294 L165.944193,407.991368 L33.7073286,383.060775 L33.7073286,383.060775 C33.4974222,383.021202 33.304578,382.91855 33.1545328,382.766519 L0.914680413,350.100132 L0.914680413,350.100132 C0.507333373,349.687396 0.511702203,349.022587 0.924438468,348.61524 C1.12094019,348.421304 1.38591845,348.312565 1.66200553,348.312565 Z" id="Rectangle-80" fill="url(#radialGradient-1)"></path>
                <path d="M138.412322,36.1256485 L138.412322,339.456198 L0,339.456198 C30.020176,292.234907 56.8076775,242.814064 80.3625046,191.19367 C103.917332,139.573276 123.267271,87.8839352 138.412322,36.1256485 Z" id="Rectangle-80-Copy" fill="url(#radialGradient-2)"></path>
                <rect id="Rectangle-23" fill="#F8CA23" x="144.004739" y="24.3171599" width="2.79620853" height="323.995405"></rect>
                <path d="M152.393365,137.235832 L152.393365,339.456198 L290.805687,339.456198 C277.133491,309.262989 257.783552,275.883666 232.75587,239.318228 C207.728187,202.752791 180.940686,168.725326 152.393365,137.235832 Z" id="Rectangle-80-Copy-2" fill="url(#radialGradient-3)"></path>
                <g id="Group-26" transform="translate(132.470379, 12.414052) scale(-1, -1) translate(-132.470379, -12.414052) translate(118.139810, 0.510944)">
                    <path d="M0,1.28826065e-16 C6.3541534,1.58381356e-16 10.2536279,1.15439334e-16 11.6984234,0 C13.8656168,-1.08574182e-16 13.453187,1.86449819 15.7928717,1.86449819 C17.3526614,1.86449819 21.6420834,1.86449819 28.6611374,1.86449819 L28.6611374,23.6169771 C21.2521359,23.6169771 16.962714,23.6169771 15.7928717,23.6169771 C14.0381081,23.6169771 13.8656168,21.7524789 11.6984234,21.7524789 C10.2536279,21.7524789 6.3541534,21.7524789 0,21.7524789 L0,1.28826065e-16 Z" id="Rectangle-9" fill="#FFFFFF"></path>
                    <g id="Group-10" transform="translate(8.188896, 6.214994)" stroke="#D72169" stroke-width="0.663157895">
                        <ellipse id="Oval-4" fill="#FFFFFF" cx="5.26429055" cy="5.59349458" rx="5.26429055" ry="5.59349458"></ellipse>
                        <path d="M2.63214528,6.52574368 L8.481357,4.66124548" id="Line" stroke-linecap="round"></path>
                    </g>
                </g>
            </g>
        </g>
    </g>
</svg>