<?xml version="1.0" encoding="UTF-8"?>
<svg width="1439px" height="781px" viewBox="0 0 1439 781" version="1.1" xmlns="http://www.w3.org/2000/svg" xmlns:xlink="http://www.w3.org/1999/xlink">
    <!-- Generator: Sketch 45.2 (43514) - http://www.bohemiancoding.com/sketch -->
    <title>Group 27</title>
    <desc>Created with Sketch.</desc>
    <defs>
        <ellipse id="path-1" cx="127.612782" cy="11.5485564" rx="127.612782" ry="11.5485564"></ellipse>
        <polygon id="path-3" points="34 75.7477204 1474 0 1474 135.957447 34 213"></polygon>
        <filter x="-0.7%" y="-4.7%" width="101.4%" height="118.8%" filterUnits="objectBoundingBox" id="filter-4">
            <feOffset dx="0" dy="20" in="SourceAlpha" result="shadowOffsetOuter1"></feOffset>
            <feColorMatrix values="0 0 0 0 0.3496   0 0 0 0 0.37088   0 0 0 0 0.38  0 0 0 1 0" type="matrix" in="shadowOffsetOuter1"></feColorMatrix>
        </filter>
        <filter x="-0.7%" y="-4.7%" width="101.4%" height="118.8%" filterUnits="objectBoundingBox" id="filter-5">
            <feOffset dx="0" dy="20" in="SourceAlpha" result="shadowOffsetInner1"></feOffset>
            <feComposite in="shadowOffsetInner1" in2="SourceAlpha" operator="arithmetic" k2="-1" k3="1" result="shadowInnerInner1"></feComposite>
            <feColorMatrix values="0 0 0 0 0.349019608   0 0 0 0 0.37254902   0 0 0 0 0.380392157  0 0 0 1 0" type="matrix" in="shadowInnerInner1"></feColorMatrix>
        </filter>
    </defs>
    <g id="Page-1" stroke="none" stroke-width="1" fill="none" fill-rule="evenodd">
        <g id="Desktop-HD-Copy-17" transform="translate(-1.000000, -7587.000000)">
            <g id="Group-27" transform="translate(0.000000, 7587.000000)">
                <g transform="translate(-33.000000, 0.000000)">
                    <g id="columbia-tower" transform="translate(478.000000, 198.000000)">
                        <polygon id="Rectangle-57" fill="#4A5458" points="16.1254613 0 126.199262 0 169.667897 10.4966887 169.667897 30.790287 16.1254613 30.790287"></polygon>
                        <polygon id="Rectangle-57" fill-opacity="0.135331748" fill="#000000" points="126.199262 0 169.667897 10.4966887 169.667897 30.790287 126.199262 30.790287"></polygon>
                        <polygon id="Rectangle-56" fill="#394043" points="0 6.99779249 132.509225 6.99779249 177.380074 17.4944812 190 30.0905077 190 634 0 634"></polygon>
                        <polygon id="Rectangle-18" fill-opacity="0.0855978261" fill="#000000" points="132.509225 6.99779249 177.380074 17.4944812 177.380074 634 132.509225 634"></polygon>
                        <polygon id="Rectangle-18" fill-opacity="0.18138587" fill="#000000" points="177.380074 17.4944812 190 30.0905077 190 634 177.380074 634"></polygon>
                        <g id="Group-28" transform="translate(9.815498, 16.794702)" fill="#000000" fill-opacity="0.14">
                            <rect id="Rectangle-54" x="0" y="0" width="114.98155" height="3.49889625"></rect>
                            <rect id="Rectangle-54-Copy" x="0" y="9.09713024" width="114.98155" height="3.49889625"></rect>
                            <rect id="Rectangle-54" x="0" y="18.8940397" width="114.98155" height="3.49889625"></rect>
                            <rect id="Rectangle-54-Copy" x="0" y="27.99117" width="114.98155" height="3.49889625"></rect>
                            <rect id="Rectangle-54" x="0" y="37.0883002" width="114.98155" height="3.49889625"></rect>
                            <rect id="Rectangle-54-Copy" x="0" y="46.1854305" width="114.98155" height="3.49889625"></rect>
                            <rect id="Rectangle-54" x="0" y="55.98234" width="114.98155" height="3.49889625"></rect>
                            <rect id="Rectangle-54-Copy" x="0" y="65.0794702" width="114.98155" height="3.49889625"></rect>
                            <rect id="Rectangle-54" x="0" y="74.1766004" width="114.98155" height="3.49889625"></rect>
                            <rect id="Rectangle-54-Copy" x="0" y="83.2737307" width="114.98155" height="3.49889625"></rect>
                            <rect id="Rectangle-54" x="0" y="93.0706402" width="114.98155" height="3.49889625"></rect>
                            <rect id="Rectangle-54-Copy" x="0" y="102.16777" width="114.98155" height="3.49889625"></rect>
                            <rect id="Rectangle-54" x="0" y="111.264901" width="114.98155" height="3.49889625"></rect>
                            <rect id="Rectangle-54-Copy" x="0" y="120.362031" width="114.98155" height="3.49889625"></rect>
                            <rect id="Rectangle-54" x="0" y="130.15894" width="114.98155" height="3.49889625"></rect>
                            <rect id="Rectangle-54-Copy" x="0" y="139.256071" width="114.98155" height="3.49889625"></rect>
                            <rect id="Rectangle-54" x="0" y="148.353201" width="114.98155" height="3.49889625"></rect>
                            <rect id="Rectangle-54-Copy" x="0" y="157.450331" width="114.98155" height="3.49889625"></rect>
                            <rect id="Rectangle-54" x="0" y="167.247241" width="114.98155" height="3.49889625"></rect>
                            <rect id="Rectangle-54-Copy" x="0" y="176.344371" width="114.98155" height="3.49889625"></rect>
                            <rect id="Rectangle-54" x="0" y="185.441501" width="114.98155" height="3.49889625"></rect>
                            <rect id="Rectangle-54-Copy" x="0" y="194.538631" width="114.98155" height="3.49889625"></rect>
                            <rect id="Rectangle-54" x="0" y="204.335541" width="114.98155" height="3.49889625"></rect>
                            <rect id="Rectangle-54-Copy" x="0" y="213.432671" width="114.98155" height="3.49889625"></rect>
                            <rect id="Rectangle-54" x="0" y="222.529801" width="114.98155" height="3.49889625"></rect>
                            <rect id="Rectangle-54-Copy" x="0" y="231.626932" width="114.98155" height="3.49889625"></rect>
                            <rect id="Rectangle-54" x="0" y="241.423841" width="114.98155" height="3.49889625"></rect>
                            <rect id="Rectangle-54-Copy" x="0" y="250.520971" width="114.98155" height="3.49889625"></rect>
                            <rect id="Rectangle-54" x="0" y="259.618102" width="114.98155" height="3.49889625"></rect>
                            <rect id="Rectangle-54-Copy" x="0" y="268.715232" width="114.98155" height="3.49889625"></rect>
                            <rect id="Rectangle-54" x="0" y="278.512141" width="114.98155" height="3.49889625"></rect>
                            <rect id="Rectangle-54-Copy" x="0" y="287.609272" width="114.98155" height="3.49889625"></rect>
                            <rect id="Rectangle-54" x="0" y="0" width="114.98155" height="3.49889625"></rect>
                            <rect id="Rectangle-54-Copy" x="0" y="9.09713024" width="114.98155" height="3.49889625"></rect>
                            <rect id="Rectangle-54" x="0" y="18.8940397" width="114.98155" height="3.49889625"></rect>
                            <rect id="Rectangle-54-Copy" x="0" y="27.99117" width="114.98155" height="3.49889625"></rect>
                            <rect id="Rectangle-54" x="0" y="37.0883002" width="114.98155" height="3.49889625"></rect>
                            <rect id="Rectangle-54-Copy" x="0" y="46.1854305" width="114.98155" height="3.49889625"></rect>
                            <rect id="Rectangle-54" x="0" y="55.98234" width="114.98155" height="3.49889625"></rect>
                            <rect id="Rectangle-54-Copy" x="0" y="65.0794702" width="114.98155" height="3.49889625"></rect>
                            <rect id="Rectangle-54" x="0" y="74.1766004" width="114.98155" height="3.49889625"></rect>
                            <rect id="Rectangle-54-Copy" x="0" y="83.2737307" width="114.98155" height="3.49889625"></rect>
                            <rect id="Rectangle-54" x="0" y="93.0706402" width="114.98155" height="3.49889625"></rect>
                            <rect id="Rectangle-54-Copy" x="0" y="102.16777" width="114.98155" height="3.49889625"></rect>
                            <rect id="Rectangle-54" x="0" y="111.264901" width="114.98155" height="3.49889625"></rect>
                            <rect id="Rectangle-54-Copy" x="0" y="120.362031" width="114.98155" height="3.49889625"></rect>
                            <rect id="Rectangle-54" x="0" y="130.15894" width="114.98155" height="3.49889625"></rect>
                            <rect id="Rectangle-54-Copy" x="0" y="139.256071" width="114.98155" height="3.49889625"></rect>
                            <rect id="Rectangle-54" x="0" y="148.353201" width="114.98155" height="3.49889625"></rect>
                            <rect id="Rectangle-54-Copy" x="0" y="157.450331" width="114.98155" height="3.49889625"></rect>
                            <rect id="Rectangle-54" x="0" y="167.247241" width="114.98155" height="3.49889625"></rect>
                            <rect id="Rectangle-54-Copy" x="0" y="176.344371" width="114.98155" height="3.49889625"></rect>
                            <rect id="Rectangle-54" x="0" y="185.441501" width="114.98155" height="3.49889625"></rect>
                            <rect id="Rectangle-54-Copy" x="0" y="194.538631" width="114.98155" height="3.49889625"></rect>
                            <rect id="Rectangle-54" x="0" y="204.335541" width="114.98155" height="3.49889625"></rect>
                            <rect id="Rectangle-54-Copy" x="0" y="213.432671" width="114.98155" height="3.49889625"></rect>
                            <rect id="Rectangle-54" x="0" y="222.529801" width="114.98155" height="3.49889625"></rect>
                            <rect id="Rectangle-54-Copy" x="0" y="231.626932" width="114.98155" height="3.49889625"></rect>
                            <rect id="Rectangle-54" x="0" y="241.423841" width="114.98155" height="3.49889625"></rect>
                            <rect id="Rectangle-54-Copy" x="0" y="250.520971" width="114.98155" height="3.49889625"></rect>
                            <rect id="Rectangle-54" x="0" y="259.618102" width="114.98155" height="3.49889625"></rect>
                            <rect id="Rectangle-54-Copy" x="0" y="268.715232" width="114.98155" height="3.49889625"></rect>
                            <rect id="Rectangle-54" x="0" y="278.512141" width="114.98155" height="3.49889625"></rect>
                            <rect id="Rectangle-54-Copy" x="0" y="287.609272" width="114.98155" height="3.49889625"></rect>
                            <rect id="Rectangle-54" x="0" y="296.706402" width="114.98155" height="3.49889625"></rect>
                            <rect id="Rectangle-54-Copy" x="0" y="305.803532" width="114.98155" height="3.49889625"></rect>
                            <rect id="Rectangle-54" x="0" y="314.900662" width="114.98155" height="3.49889625"></rect>
                            <rect id="Rectangle-54-Copy" x="0" y="323.997792" width="114.98155" height="3.49889625"></rect>
                            <rect id="Rectangle-54" x="0" y="333.794702" width="114.98155" height="3.49889625"></rect>
                            <rect id="Rectangle-54-Copy" x="0" y="342.891832" width="114.98155" height="3.49889625"></rect>
                            <rect id="Rectangle-54" x="0" y="351.988962" width="114.98155" height="3.49889625"></rect>
                            <rect id="Rectangle-54-Copy" x="0" y="361.086093" width="114.98155" height="3.49889625"></rect>
                            <rect id="Rectangle-54" x="0" y="370.883002" width="114.98155" height="3.49889625"></rect>
                            <rect id="Rectangle-54-Copy" x="0" y="379.980132" width="114.98155" height="3.49889625"></rect>
                            <rect id="Rectangle-54" x="0" y="389.077263" width="114.98155" height="3.49889625"></rect>
                            <rect id="Rectangle-54-Copy" x="0" y="398.174393" width="114.98155" height="3.49889625"></rect>
                            <rect id="Rectangle-54" x="0" y="407.971302" width="114.98155" height="3.49889625"></rect>
                            <rect id="Rectangle-54-Copy" x="0" y="417.068433" width="114.98155" height="3.49889625"></rect>
                            <rect id="Rectangle-54" x="0" y="426.165563" width="114.98155" height="3.49889625"></rect>
                            <rect id="Rectangle-54-Copy" x="0" y="435.262693" width="114.98155" height="3.49889625"></rect>
                            <rect id="Rectangle-54" x="0" y="445.059603" width="114.98155" height="3.49889625"></rect>
                            <rect id="Rectangle-54-Copy" x="0" y="454.156733" width="114.98155" height="3.49889625"></rect>
                            <rect id="Rectangle-54" x="0" y="296.706402" width="114.98155" height="3.49889625"></rect>
                            <rect id="Rectangle-54-Copy" x="0" y="305.803532" width="114.98155" height="3.49889625"></rect>
                            <rect id="Rectangle-54" x="0" y="314.900662" width="114.98155" height="3.49889625"></rect>
                            <rect id="Rectangle-54-Copy" x="0" y="323.997792" width="114.98155" height="3.49889625"></rect>
                            <rect id="Rectangle-54" x="0" y="333.794702" width="114.98155" height="3.49889625"></rect>
                            <rect id="Rectangle-54-Copy" x="0" y="342.891832" width="114.98155" height="3.49889625"></rect>
                            <rect id="Rectangle-54" x="0" y="351.988962" width="114.98155" height="3.49889625"></rect>
                            <rect id="Rectangle-54-Copy" x="0" y="361.086093" width="114.98155" height="3.49889625"></rect>
                            <rect id="Rectangle-54" x="0" y="370.883002" width="114.98155" height="3.49889625"></rect>
                            <rect id="Rectangle-54-Copy" x="0" y="379.980132" width="114.98155" height="3.49889625"></rect>
                            <rect id="Rectangle-54" x="0" y="389.077263" width="114.98155" height="3.49889625"></rect>
                            <rect id="Rectangle-54-Copy" x="0" y="398.174393" width="114.98155" height="3.49889625"></rect>
                            <rect id="Rectangle-54" x="0" y="407.971302" width="114.98155" height="3.49889625"></rect>
                            <rect id="Rectangle-54-Copy" x="0" y="417.068433" width="114.98155" height="3.49889625"></rect>
                            <rect id="Rectangle-54" x="0" y="426.165563" width="114.98155" height="3.49889625"></rect>
                            <rect id="Rectangle-54-Copy" x="0" y="435.262693" width="114.98155" height="3.49889625"></rect>
                            <rect id="Rectangle-54" x="0" y="445.059603" width="114.98155" height="3.49889625"></rect>
                            <rect id="Rectangle-54-Copy" x="0" y="454.156733" width="114.98155" height="3.49889625"></rect>
                            <rect id="Rectangle-54-Copy" x="0" y="463.253863" width="114.98155" height="3.49889625"></rect>
                            <rect id="Rectangle-54" x="0" y="473.050773" width="114.98155" height="3.49889625"></rect>
                            <rect id="Rectangle-54-Copy" x="0" y="482.147903" width="114.98155" height="3.49889625"></rect>
                            <rect id="Rectangle-54" x="0" y="491.245033" width="114.98155" height="3.49889625"></rect>
                            <rect id="Rectangle-54-Copy" x="0" y="500.342163" width="114.98155" height="3.49889625"></rect>
                            <rect id="Rectangle-54" x="0" y="510.139073" width="114.98155" height="3.49889625"></rect>
                            <rect id="Rectangle-54-Copy" x="0" y="519.236203" width="114.98155" height="3.49889625"></rect>
                            <rect id="Rectangle-54" x="0" y="528.333333" width="114.98155" height="3.49889625"></rect>
                            <rect id="Rectangle-54-Copy" x="0" y="537.430464" width="114.98155" height="3.49889625"></rect>
                            <rect id="Rectangle-54" x="0" y="547.227373" width="114.98155" height="3.49889625"></rect>
                            <rect id="Rectangle-54-Copy" x="0" y="556.324503" width="114.98155" height="3.49889625"></rect>
                            <rect id="Rectangle-54" x="0" y="565.421634" width="114.98155" height="3.49889625"></rect>
                        </g>
                        <g id="Group-29" transform="translate(140.221402, 16.794702)" fill-opacity="0.140000001" fill="#000000">
                            <polygon id="Rectangle-54" points="0 0 32.9520295 7.69757174 32.9520295 11.196468 0 3.49889625"></polygon>
                            <polygon id="Rectangle-54" points="0 9.09713024 32.9520295 16.794702 32.9520295 20.2935982 0 12.5960265"></polygon>
                            <polygon id="Rectangle-54" points="0 18.8940397 32.9520295 26.5916115 32.9520295 30.0905077 0 22.392936"></polygon>
                            <polygon id="Rectangle-54" points="0 27.99117 32.9520295 35.6887417 32.9520295 39.187638 0 31.4900662"></polygon>
                            <polygon id="Rectangle-54" points="0 37.0883002 32.9520295 44.785872 32.9520295 48.2847682 0 40.5871965"></polygon>
                            <polygon id="Rectangle-54" points="0 46.1854305 32.9520295 53.8830022 32.9520295 57.3818985 0 49.6843267"></polygon>
                            <polygon id="Rectangle-54" points="0 55.98234 32.9520295 63.6799117 32.9520295 67.1788079 0 59.4812362"></polygon>
                            <polygon id="Rectangle-54" points="0 65.0794702 32.9520295 72.7770419 32.9520295 76.2759382 0 68.5783664"></polygon>
                            <polygon id="Rectangle-54" points="0 74.1766004 32.9520295 81.8741722 32.9520295 85.3730684 0 77.6754967"></polygon>
                            <polygon id="Rectangle-54" points="0 83.2737307 32.9520295 90.9713024 32.9520295 94.4701987 0 86.7726269"></polygon>
                            <polygon id="Rectangle-54" points="0 93.0706402 32.9520295 100.768212 32.9520295 104.267108 0 96.5695364"></polygon>
                            <polygon id="Rectangle-54" points="0 102.16777 32.9520295 109.865342 32.9520295 113.364238 0 105.666667"></polygon>
                            <polygon id="Rectangle-54" points="0 111.264901 32.9520295 118.962472 32.9520295 122.461369 0 114.763797"></polygon>
                            <polygon id="Rectangle-54" points="0 120.362031 32.9520295 128.059603 32.9520295 131.558499 0 123.860927"></polygon>
                            <polygon id="Rectangle-54" points="0 130.15894 32.9520295 137.856512 32.9520295 141.355408 0 133.657837"></polygon>
                            <polygon id="Rectangle-54" points="0 139.256071 32.9520295 146.953642 32.9520295 150.452539 0 142.754967"></polygon>
                            <polygon id="Rectangle-54" points="0 148.353201 32.9520295 156.050773 32.9520295 159.549669 0 151.852097"></polygon>
                            <polygon id="Rectangle-54" points="0 157.450331 32.9520295 165.147903 32.9520295 168.646799 0 160.949227"></polygon>
                            <polygon id="Rectangle-54" points="0 167.247241 32.9520295 174.944812 32.9520295 178.443709 0 170.746137"></polygon>
                            <polygon id="Rectangle-54" points="0 176.344371 32.9520295 184.041943 32.9520295 187.540839 0 179.843267"></polygon>
                            <polygon id="Rectangle-54" points="0 185.441501 32.9520295 193.139073 32.9520295 196.637969 0 188.940397"></polygon>
                            <polygon id="Rectangle-54" points="0 194.538631 32.9520295 202.236203 32.9520295 205.735099 0 198.037528"></polygon>
                            <polygon id="Rectangle-54" points="0 204.335541 32.9520295 212.033113 32.9520295 215.532009 0 207.834437"></polygon>
                            <polygon id="Rectangle-54" points="0 213.432671 32.9520295 221.130243 32.9520295 224.629139 0 216.931567"></polygon>
                            <polygon id="Rectangle-54" points="0 222.529801 32.9520295 230.227373 32.9520295 233.726269 0 226.028698"></polygon>
                            <polygon id="Rectangle-54" points="0 231.626932 32.9520295 239.324503 32.9520295 242.8234 0 235.125828"></polygon>
                            <polygon id="Rectangle-54" points="0 241.423841 32.9520295 249.121413 32.9520295 252.620309 0 244.922737"></polygon>
                            <polygon id="Rectangle-54" points="0 250.520971 32.9520295 258.218543 32.9520295 261.717439 0 254.019868"></polygon>
                            <polygon id="Rectangle-54" points="0 259.618102 32.9520295 267.315673 32.9520295 270.81457 0 263.116998"></polygon>
                            <polygon id="Rectangle-54" points="0 268.715232 32.9520295 276.412804 32.9520295 279.9117 0 272.214128"></polygon>
                            <polygon id="Rectangle-54" points="0 278.512141 32.9520295 286.209713 32.9520295 289.708609 0 282.011038"></polygon>
                            <polygon id="Rectangle-54" points="0 287.609272 32.9520295 295.306843 32.9520295 298.80574 0 291.108168"></polygon>
                            <polygon id="Rectangle-54" points="0 296.706402 32.9520295 304.403974 32.9520295 307.90287 0 300.205298"></polygon>
                            <polygon id="Rectangle-54" points="0 305.803532 32.9520295 313.501104 32.9520295 317 0 309.302428"></polygon>
                            <polygon id="Rectangle-54" points="0 314.900662 32.9520295 322.598234 32.9520295 326.09713 0 318.399558"></polygon>
                            <polygon id="Rectangle-54" points="0 323.997792 32.9520295 331.695364 32.9520295 335.19426 0 327.496689"></polygon>
                            <polygon id="Rectangle-54" points="0 333.794702 32.9520295 341.492274 32.9520295 344.99117 0 337.293598"></polygon>
                            <polygon id="Rectangle-54" points="0 342.891832 32.9520295 350.589404 32.9520295 354.0883 0 346.390728"></polygon>
                            <polygon id="Rectangle-54" points="0 351.988962 32.9520295 359.686534 32.9520295 363.18543 0 355.487859"></polygon>
                            <polygon id="Rectangle-54" points="0 361.086093 32.9520295 368.783664 32.9520295 372.282561 0 364.584989"></polygon>
                            <polygon id="Rectangle-54" points="0 370.883002 32.9520295 378.580574 32.9520295 382.07947 0 374.381898"></polygon>
                            <polygon id="Rectangle-54" points="0 379.980132 32.9520295 387.677704 32.9520295 391.1766 0 383.479029"></polygon>
                            <polygon id="Rectangle-54" points="0 389.077263 32.9520295 396.774834 32.9520295 400.273731 0 392.576159"></polygon>
                            <polygon id="Rectangle-54" points="0 398.174393 32.9520295 405.871965 32.9520295 409.370861 0 401.673289"></polygon>
                            <polygon id="Rectangle-54" points="0 407.971302 32.9520295 415.668874 32.9520295 419.16777 0 411.470199"></polygon>
                            <polygon id="Rectangle-54" points="0 417.068433 32.9520295 424.766004 32.9520295 428.264901 0 420.567329"></polygon>
                            <polygon id="Rectangle-54" points="0 426.165563 32.9520295 433.863135 32.9520295 437.362031 0 429.664459"></polygon>
                            <polygon id="Rectangle-54" points="0 435.262693 32.9520295 442.960265 32.9520295 446.459161 0 438.761589"></polygon>
                            <polygon id="Rectangle-54" points="0 445.059603 32.9520295 452.757174 32.9520295 456.256071 0 448.558499"></polygon>
                            <polygon id="Rectangle-54" points="0 454.156733 32.9520295 461.854305 32.9520295 465.353201 0 457.655629"></polygon>
                            <polygon id="Rectangle-54" points="0 463.953642 32.9520295 471.651214 32.9520295 475.15011 0 467.452539"></polygon>
                            <polygon id="Rectangle-54" points="0 473.750552 32.9520295 481.448124 32.9520295 484.94702 0 477.249448"></polygon>
                            <polygon id="Rectangle-54" points="0 482.847682 32.9520295 490.545254 32.9520295 494.04415 0 486.346578"></polygon>
                            <polygon id="Rectangle-54" points="0 491.944812 32.9520295 499.642384 32.9520295 503.14128 0 495.443709"></polygon>
                            <polygon id="Rectangle-54" points="0 501.041943 32.9520295 508.739514 32.9520295 512.238411 0 504.540839"></polygon>
                            <polygon id="Rectangle-54" points="0 510.838852 32.9520295 518.536424 32.9520295 522.03532 0 514.337748"></polygon>
                            <polygon id="Rectangle-54" points="0 519.935982 32.9520295 527.633554 32.9520295 531.13245 0 523.434879"></polygon>
                            <polygon id="Rectangle-54" points="0 529.033113 32.9520295 536.730684 32.9520295 540.229581 0 532.532009"></polygon>
                            <polygon id="Rectangle-54" points="0 538.130243 32.9520295 545.827815 32.9520295 549.326711 0 541.629139"></polygon>
                            <polygon id="Rectangle-54" points="0 547.927152 32.9520295 555.624724 32.9520295 559.12362 0 551.426049"></polygon>
                            <polygon id="Rectangle-54" points="0 557.024283 32.9520295 564.721854 32.9520295 568.220751 0 560.523179"></polygon>
                        </g>
                    </g>
                    <g id="small-grey-building" transform="translate(354.000000, 434.000000)">
                        <polygon id="Rectangle-58" fill="#D6D6D6" points="0.702040816 0 143.216327 0 172 11.2110727 172 404.299308 0.702040816 404.299308"></polygon>
                        <polygon id="Rectangle-58" fill-opacity="0.0819180254" fill="#000000" points="143.216327 0 172 11.2110727 172 404.299308 143.216327 404.299308"></polygon>
                        <g id="Group-28" transform="translate(15.444898, 14.714533)" fill="#000000" fill-opacity="0.0799999982">
                            <rect id="Rectangle-54" x="0" y="0" width="52.6530612" height="3.50346021"></rect>
                            <rect id="Rectangle-54-Copy" x="0" y="9.10899654" width="52.6530612" height="3.50346021"></rect>
                            <rect id="Rectangle-54" x="0" y="18.9186851" width="52.6530612" height="3.50346021"></rect>
                            <rect id="Rectangle-54-Copy" x="0" y="28.0276817" width="52.6530612" height="3.50346021"></rect>
                            <rect id="Rectangle-54" x="0" y="37.1366782" width="52.6530612" height="3.50346021"></rect>
                            <rect id="Rectangle-54-Copy" x="0" y="46.2456747" width="52.6530612" height="3.50346021"></rect>
                            <rect id="Rectangle-54" x="0" y="56.0553633" width="52.6530612" height="3.50346021"></rect>
                            <rect id="Rectangle-54-Copy" x="0" y="65.1643599" width="52.6530612" height="3.50346021"></rect>
                            <rect id="Rectangle-54" x="0" y="74.2733564" width="52.6530612" height="3.50346021"></rect>
                            <rect id="Rectangle-54-Copy" x="0" y="83.3823529" width="52.6530612" height="3.50346021"></rect>
                            <rect id="Rectangle-54" x="0" y="93.1920415" width="52.6530612" height="3.50346021"></rect>
                            <rect id="Rectangle-54-Copy" x="0" y="102.301038" width="52.6530612" height="3.50346021"></rect>
                            <rect id="Rectangle-54" x="0" y="111.410035" width="52.6530612" height="3.50346021"></rect>
                            <rect id="Rectangle-54-Copy" x="0" y="120.519031" width="52.6530612" height="3.50346021"></rect>
                            <rect id="Rectangle-54" x="0" y="130.32872" width="52.6530612" height="3.50346021"></rect>
                            <rect id="Rectangle-54-Copy" x="0" y="139.437716" width="52.6530612" height="3.50346021"></rect>
                            <rect id="Rectangle-54" x="0" y="148.546713" width="52.6530612" height="3.50346021"></rect>
                            <rect id="Rectangle-54-Copy" x="0" y="157.655709" width="52.6530612" height="3.50346021"></rect>
                            <rect id="Rectangle-54" x="0" y="167.465398" width="52.6530612" height="3.50346021"></rect>
                            <rect id="Rectangle-54-Copy" x="0" y="176.574394" width="52.6530612" height="3.50346021"></rect>
                            <rect id="Rectangle-54" x="0" y="185.683391" width="52.6530612" height="3.50346021"></rect>
                            <rect id="Rectangle-54-Copy" x="0" y="194.792388" width="52.6530612" height="3.50346021"></rect>
                            <rect id="Rectangle-54" x="0" y="204.602076" width="52.6530612" height="3.50346021"></rect>
                            <rect id="Rectangle-54-Copy" x="0" y="213.711073" width="52.6530612" height="3.50346021"></rect>
                            <rect id="Rectangle-54" x="0" y="222.820069" width="52.6530612" height="3.50346021"></rect>
                            <rect id="Rectangle-54-Copy" x="0" y="231.929066" width="52.6530612" height="3.50346021"></rect>
                            <rect id="Rectangle-54" x="0" y="241.738754" width="52.6530612" height="3.50346021"></rect>
                            <rect id="Rectangle-54-Copy" x="0" y="250.847751" width="52.6530612" height="3.50346021"></rect>
                            <rect id="Rectangle-54" x="0" y="259.956747" width="52.6530612" height="3.50346021"></rect>
                            <rect id="Rectangle-54-Copy" x="0" y="269.065744" width="52.6530612" height="3.50346021"></rect>
                            <rect id="Rectangle-54" x="0" y="278.875433" width="52.6530612" height="3.50346021"></rect>
                            <rect id="Rectangle-54-Copy" x="0" y="287.984429" width="52.6530612" height="3.50346021"></rect>
                            <rect id="Rectangle-54" x="0" y="0" width="52.6530612" height="3.50346021"></rect>
                            <rect id="Rectangle-54-Copy" x="0" y="9.10899654" width="52.6530612" height="3.50346021"></rect>
                            <rect id="Rectangle-54" x="0" y="18.9186851" width="52.6530612" height="3.50346021"></rect>
                            <rect id="Rectangle-54-Copy" x="0" y="28.0276817" width="52.6530612" height="3.50346021"></rect>
                            <rect id="Rectangle-54" x="0" y="37.1366782" width="52.6530612" height="3.50346021"></rect>
                            <rect id="Rectangle-54-Copy" x="0" y="46.2456747" width="52.6530612" height="3.50346021"></rect>
                            <rect id="Rectangle-54" x="0" y="56.0553633" width="52.6530612" height="3.50346021"></rect>
                            <rect id="Rectangle-54-Copy" x="0" y="65.1643599" width="52.6530612" height="3.50346021"></rect>
                            <rect id="Rectangle-54" x="0" y="74.2733564" width="52.6530612" height="3.50346021"></rect>
                            <rect id="Rectangle-54-Copy" x="0" y="83.3823529" width="52.6530612" height="3.50346021"></rect>
                            <rect id="Rectangle-54" x="0" y="93.1920415" width="52.6530612" height="3.50346021"></rect>
                            <rect id="Rectangle-54-Copy" x="0" y="102.301038" width="52.6530612" height="3.50346021"></rect>
                            <rect id="Rectangle-54" x="0" y="111.410035" width="52.6530612" height="3.50346021"></rect>
                            <rect id="Rectangle-54-Copy" x="0" y="120.519031" width="52.6530612" height="3.50346021"></rect>
                            <rect id="Rectangle-54" x="0" y="130.32872" width="52.6530612" height="3.50346021"></rect>
                            <rect id="Rectangle-54-Copy" x="0" y="139.437716" width="52.6530612" height="3.50346021"></rect>
                            <rect id="Rectangle-54" x="0" y="148.546713" width="52.6530612" height="3.50346021"></rect>
                            <rect id="Rectangle-54-Copy" x="0" y="157.655709" width="52.6530612" height="3.50346021"></rect>
                            <rect id="Rectangle-54" x="0" y="167.465398" width="52.6530612" height="3.50346021"></rect>
                            <rect id="Rectangle-54-Copy" x="0" y="176.574394" width="52.6530612" height="3.50346021"></rect>
                            <rect id="Rectangle-54" x="0" y="185.683391" width="52.6530612" height="3.50346021"></rect>
                            <rect id="Rectangle-54-Copy" x="0" y="194.792388" width="52.6530612" height="3.50346021"></rect>
                            <rect id="Rectangle-54" x="0" y="204.602076" width="52.6530612" height="3.50346021"></rect>
                            <rect id="Rectangle-54-Copy" x="0" y="213.711073" width="52.6530612" height="3.50346021"></rect>
                            <rect id="Rectangle-54" x="0" y="222.820069" width="52.6530612" height="3.50346021"></rect>
                            <rect id="Rectangle-54-Copy" x="0" y="231.929066" width="52.6530612" height="3.50346021"></rect>
                            <rect id="Rectangle-54" x="0" y="241.738754" width="52.6530612" height="3.50346021"></rect>
                            <rect id="Rectangle-54-Copy" x="0" y="250.847751" width="52.6530612" height="3.50346021"></rect>
                            <rect id="Rectangle-54" x="0" y="259.956747" width="52.6530612" height="3.50346021"></rect>
                            <rect id="Rectangle-54-Copy" x="0" y="269.065744" width="52.6530612" height="3.50346021"></rect>
                            <rect id="Rectangle-54" x="0" y="278.875433" width="52.6530612" height="3.50346021"></rect>
                            <rect id="Rectangle-54-Copy" x="0" y="287.984429" width="52.6530612" height="3.50346021"></rect>
                            <rect id="Rectangle-54" x="0" y="297.093426" width="52.6530612" height="3.50346021"></rect>
                            <rect id="Rectangle-54-Copy" x="0" y="306.202422" width="52.6530612" height="3.50346021"></rect>
                            <rect id="Rectangle-54" x="0" y="315.311419" width="52.6530612" height="3.50346021"></rect>
                            <rect id="Rectangle-54-Copy" x="0" y="324.420415" width="52.6530612" height="3.50346021"></rect>
                            <rect id="Rectangle-54" x="62.4816327" y="0" width="52.6530612" height="3.50346021"></rect>
                            <rect id="Rectangle-54-Copy" x="62.4816327" y="9.10899654" width="52.6530612" height="3.50346021"></rect>
                            <rect id="Rectangle-54" x="62.4816327" y="18.9186851" width="52.6530612" height="3.50346021"></rect>
                            <rect id="Rectangle-54-Copy" x="62.4816327" y="28.0276817" width="52.6530612" height="3.50346021"></rect>
                            <rect id="Rectangle-54" x="62.4816327" y="37.1366782" width="52.6530612" height="3.50346021"></rect>
                            <rect id="Rectangle-54-Copy" x="62.4816327" y="46.2456747" width="52.6530612" height="3.50346021"></rect>
                            <rect id="Rectangle-54" x="62.4816327" y="56.0553633" width="52.6530612" height="3.50346021"></rect>
                            <rect id="Rectangle-54-Copy" x="62.4816327" y="65.1643599" width="52.6530612" height="3.50346021"></rect>
                            <rect id="Rectangle-54" x="62.4816327" y="74.2733564" width="52.6530612" height="3.50346021"></rect>
                            <rect id="Rectangle-54-Copy" x="62.4816327" y="83.3823529" width="52.6530612" height="3.50346021"></rect>
                            <rect id="Rectangle-54" x="62.4816327" y="93.1920415" width="52.6530612" height="3.50346021"></rect>
                            <rect id="Rectangle-54-Copy" x="62.4816327" y="102.301038" width="52.6530612" height="3.50346021"></rect>
                            <rect id="Rectangle-54" x="62.4816327" y="111.410035" width="52.6530612" height="3.50346021"></rect>
                            <rect id="Rectangle-54-Copy" x="62.4816327" y="120.519031" width="52.6530612" height="3.50346021"></rect>
                            <rect id="Rectangle-54" x="62.4816327" y="130.32872" width="52.6530612" height="3.50346021"></rect>
                            <rect id="Rectangle-54-Copy" x="62.4816327" y="139.437716" width="52.6530612" height="3.50346021"></rect>
                            <rect id="Rectangle-54" x="62.4816327" y="148.546713" width="52.6530612" height="3.50346021"></rect>
                            <rect id="Rectangle-54-Copy" x="62.4816327" y="157.655709" width="52.6530612" height="3.50346021"></rect>
                            <rect id="Rectangle-54" x="62.4816327" y="167.465398" width="52.6530612" height="3.50346021"></rect>
                            <rect id="Rectangle-54-Copy" x="62.4816327" y="176.574394" width="52.6530612" height="3.50346021"></rect>
                            <rect id="Rectangle-54" x="62.4816327" y="185.683391" width="52.6530612" height="3.50346021"></rect>
                            <rect id="Rectangle-54-Copy" x="62.4816327" y="194.792388" width="52.6530612" height="3.50346021"></rect>
                            <rect id="Rectangle-54" x="62.4816327" y="204.602076" width="52.6530612" height="3.50346021"></rect>
                            <rect id="Rectangle-54-Copy" x="62.4816327" y="213.711073" width="52.6530612" height="3.50346021"></rect>
                            <rect id="Rectangle-54" x="62.4816327" y="222.820069" width="52.6530612" height="3.50346021"></rect>
                            <rect id="Rectangle-54-Copy" x="62.4816327" y="231.929066" width="52.6530612" height="3.50346021"></rect>
                            <rect id="Rectangle-54" x="62.4816327" y="241.738754" width="52.6530612" height="3.50346021"></rect>
                            <rect id="Rectangle-54-Copy" x="62.4816327" y="250.847751" width="52.6530612" height="3.50346021"></rect>
                            <rect id="Rectangle-54" x="62.4816327" y="259.956747" width="52.6530612" height="3.50346021"></rect>
                            <rect id="Rectangle-54-Copy" x="62.4816327" y="269.065744" width="52.6530612" height="3.50346021"></rect>
                            <rect id="Rectangle-54" x="62.4816327" y="278.875433" width="52.6530612" height="3.50346021"></rect>
                            <rect id="Rectangle-54-Copy" x="62.4816327" y="287.984429" width="52.6530612" height="3.50346021"></rect>
                            <rect id="Rectangle-54" x="62.4816327" y="0" width="52.6530612" height="3.50346021"></rect>
                            <rect id="Rectangle-54-Copy" x="62.4816327" y="9.10899654" width="52.6530612" height="3.50346021"></rect>
                            <rect id="Rectangle-54" x="62.4816327" y="18.9186851" width="52.6530612" height="3.50346021"></rect>
                            <rect id="Rectangle-54-Copy" x="62.4816327" y="28.0276817" width="52.6530612" height="3.50346021"></rect>
                            <rect id="Rectangle-54" x="62.4816327" y="37.1366782" width="52.6530612" height="3.50346021"></rect>
                            <rect id="Rectangle-54-Copy" x="62.4816327" y="46.2456747" width="52.6530612" height="3.50346021"></rect>
                            <rect id="Rectangle-54" x="62.4816327" y="56.0553633" width="52.6530612" height="3.50346021"></rect>
                            <rect id="Rectangle-54-Copy" x="62.4816327" y="65.1643599" width="52.6530612" height="3.50346021"></rect>
                            <rect id="Rectangle-54" x="62.4816327" y="74.2733564" width="52.6530612" height="3.50346021"></rect>
                            <rect id="Rectangle-54-Copy" x="62.4816327" y="83.3823529" width="52.6530612" height="3.50346021"></rect>
                            <rect id="Rectangle-54" x="62.4816327" y="93.1920415" width="52.6530612" height="3.50346021"></rect>
                            <rect id="Rectangle-54-Copy" x="62.4816327" y="102.301038" width="52.6530612" height="3.50346021"></rect>
                            <rect id="Rectangle-54" x="62.4816327" y="111.410035" width="52.6530612" height="3.50346021"></rect>
                            <rect id="Rectangle-54-Copy" x="62.4816327" y="120.519031" width="52.6530612" height="3.50346021"></rect>
                            <rect id="Rectangle-54" x="62.4816327" y="130.32872" width="52.6530612" height="3.50346021"></rect>
                            <rect id="Rectangle-54-Copy" x="62.4816327" y="139.437716" width="52.6530612" height="3.50346021"></rect>
                            <rect id="Rectangle-54" x="62.4816327" y="148.546713" width="52.6530612" height="3.50346021"></rect>
                            <rect id="Rectangle-54-Copy" x="62.4816327" y="157.655709" width="52.6530612" height="3.50346021"></rect>
                            <rect id="Rectangle-54" x="62.4816327" y="167.465398" width="52.6530612" height="3.50346021"></rect>
                            <rect id="Rectangle-54-Copy" x="62.4816327" y="176.574394" width="52.6530612" height="3.50346021"></rect>
                            <rect id="Rectangle-54" x="62.4816327" y="185.683391" width="52.6530612" height="3.50346021"></rect>
                            <rect id="Rectangle-54-Copy" x="62.4816327" y="194.792388" width="52.6530612" height="3.50346021"></rect>
                            <rect id="Rectangle-54" x="62.4816327" y="204.602076" width="52.6530612" height="3.50346021"></rect>
                            <rect id="Rectangle-54-Copy" x="62.4816327" y="213.711073" width="52.6530612" height="3.50346021"></rect>
                            <rect id="Rectangle-54" x="62.4816327" y="222.820069" width="52.6530612" height="3.50346021"></rect>
                            <rect id="Rectangle-54-Copy" x="62.4816327" y="231.929066" width="52.6530612" height="3.50346021"></rect>
                            <rect id="Rectangle-54" x="62.4816327" y="241.738754" width="52.6530612" height="3.50346021"></rect>
                            <rect id="Rectangle-54-Copy" x="62.4816327" y="250.847751" width="52.6530612" height="3.50346021"></rect>
                            <rect id="Rectangle-54" x="62.4816327" y="259.956747" width="52.6530612" height="3.50346021"></rect>
                            <rect id="Rectangle-54-Copy" x="62.4816327" y="269.065744" width="52.6530612" height="3.50346021"></rect>
                            <rect id="Rectangle-54" x="62.4816327" y="278.875433" width="52.6530612" height="3.50346021"></rect>
                            <rect id="Rectangle-54-Copy" x="62.4816327" y="287.984429" width="52.6530612" height="3.50346021"></rect>
                            <rect id="Rectangle-54" x="62.4816327" y="297.093426" width="52.6530612" height="3.50346021"></rect>
                            <rect id="Rectangle-54-Copy" x="62.4816327" y="306.202422" width="52.6530612" height="3.50346021"></rect>
                            <rect id="Rectangle-54" x="62.4816327" y="315.311419" width="52.6530612" height="3.50346021"></rect>
                            <rect id="Rectangle-54-Copy" x="62.4816327" y="324.420415" width="52.6530612" height="3.50346021"></rect>
                        </g>
                    </g>
                    <g id="space-needle" transform="translate(159.000000, 0.000000)">
                        <g id="space-needle-top">
                            <path d="M120.270677,47.2940882 C128.836822,46.0942382 135.246597,45.4943132 139.5,45.4943132 C143.753403,45.4943132 150.163178,46.0942382 158.729323,47.2940882 L158.729323,51.7935258 L120.270677,51.7935258 L120.270677,47.2940882 Z" id="Rectangle-60" fill="#2B3133"></path>
                            <g id="antenna" transform="translate(136.353383, 0.000000)">
                                <polygon id="Triangle-3" stroke="#E3E3E3" stroke-width="0.91" points="3.14661654 1.81340969 6.29323308 39.8950131 0 39.8950131"></polygon>
                                <path d="M3.14661654,39.4416607 L3.14661654,2.26676211" id="Line-7" stroke="#E3E3E3" stroke-width="0.91" stroke-linecap="square"></path>
                                <rect id="Rectangle-61" fill="#E74C3C" x="1.96663534" y="0" width="2.35996241" height="2.72011453" rx="1.1799812"></rect>
                                <path d="M5.89990602,35.8148413 L0.393327068,35.8148413" id="Line-8" stroke="#E3E3E3" stroke-width="0.91" stroke-linecap="square"></path>
                                <path d="M5.11325188,30.3746123 L1.1799812,30.3746123" id="Line-8" stroke="#E3E3E3" stroke-width="0.91" stroke-linecap="square"></path>
                                <path d="M4.32659774,24.9343832 L1.96663534,24.9343832" id="Line-8" stroke="#E3E3E3" stroke-width="0.91" stroke-linecap="square"></path>
                                <path d="M4.32659774,19.4941541 L1.96663534,19.4941541" id="Line-8" stroke="#E3E3E3" stroke-width="0.91" stroke-linecap="square"></path>
                            </g>
                            <path d="M134.954887,40.1283173 C135.964912,39.5061728 137.47995,39.1951006 139.5,39.1951006 C141.52005,39.1951006 143.035088,39.5061728 144.045113,40.1283173 L144.045113,47.5940507 L134.954887,47.5940507 L134.954887,40.1283173 Z" id="Rectangle-60" fill="#2B3133"></path>
                            <path d="M140.199248,100.087489 C84.3956495,100.087489 39.1578947,98.0450435 39.1578947,95.5255593 C39.1578947,93.5194425 60.5100298,84.5769279 90.2505036,80.0149981 C101.268129,78.3249903 124.566435,69.0663667 124.566435,64.5044369 C124.566435,59.9425072 113.890367,55.3805774 113.890367,52.6434196 C113.890367,49.9062617 138.074976,48.9938758 140.199248,48.9938758 L140.199248,100.087489 Z M140.199248,100.087489 L140.199248,48.9938758 C142.323521,48.9938758 166.508129,49.9062617 166.508129,52.6434196 C166.508129,55.3805774 155.832061,59.9425072 155.832061,64.5044369 C155.832061,69.0663667 179.130367,78.3249903 190.147993,80.0149981 C219.888466,84.5769279 241.240602,93.5194425 241.240602,95.5255593 C241.240602,98.0450435 196.002847,100.087489 140.199248,100.087489 Z" id="Combined-Shape" fill="#E3E3E3"></path>
                            <path d="M140.199248,100.087489 C196.002847,100.087489 241.240602,98.2549656 241.240602,95.9944334 C241.240602,93.7339012 196.002847,82.5896763 140.199248,82.5896763 C84.3956495,82.5896763 39.1578947,93.7339012 39.1578947,95.9944334 C39.1578947,98.2549656 84.3956495,100.087489 140.199248,100.087489 Z" id="Oval-19" fill-opacity="0.13000001" fill="#000000"></path>
                            <path d="M44.1549583,95.3010004 C79.7767864,91.0262594 111.675008,88.8888889 139.849624,88.8888889 C168.02424,88.8888889 199.922462,91.0262594 235.54429,95.3010004 L235.54429,95.3010004 C236.00165,95.3558852 236.345865,95.7438762 236.345865,96.204518 L236.345865,112.685914 L43.3533835,112.685914 L43.3533835,96.204518 L43.3533834,96.204518 C43.3533834,95.7438762 43.6975978,95.3558852 44.1549583,95.3010004 Z" id="Rectangle-59" fill="#2B3133"></path>
                            <path d="M139.5,129.483815 C216.543723,129.483815 279,123.756263 279,116.690969 C279,109.625676 216.543723,96.5879265 139.5,96.5879265 C62.4562774,96.5879265 0,109.625676 0,116.690969 C0,123.756263 62.4562774,129.483815 139.5,129.483815 Z" id="Oval-19" fill="#E3E3E3"></path>
                            <path d="M139.5,129.483815 C216.543723,129.483815 279,123.735252 279,116.64404 C279,109.552829 216.543723,102.887139 139.5,102.887139 C62.4562774,102.887139 0,109.552829 0,116.64404 C0,123.735252 62.4562774,129.483815 139.5,129.483815 Z" id="Oval-19" fill="#2B3133"></path>
                            <path d="M139.5,121.084864 C197.620703,121.084864 244.736842,118.995788 244.736842,116.418781 C244.736842,113.841774 197.620703,109.886264 139.5,109.886264 C81.379297,109.886264 34.2631579,113.841774 34.2631579,116.418781 C34.2631579,118.995788 81.379297,121.084864 139.5,121.084864 Z" id="Oval-19" fill="#E3E3E3"></path>
                            <path d="M40.8805457,116.203414 C84.6590039,113.858414 117.532155,112.685914 139.5,112.685914 C161.467845,112.685914 194.340996,113.858414 238.119454,116.203414 L238.119454,116.203413 C239.0854,116.255154 239.842105,117.053478 239.842105,118.020808 L239.842105,146.981627 L39.1578947,146.981627 L39.1578947,118.020808 L39.1578947,118.020808 C39.1578947,117.053478 39.9146002,116.255155 40.8805457,116.203414 Z" id="Mask" fill="#2B3133"></path>
                            <g id="Group-31" transform="translate(11.887218, 132.283465)">
                                <mask id="mask-2" fill="white">
                                    <use xlink:href="#path-1"></use>
                                </mask>
                                <use id="Mask" fill="#E3E3E3" xlink:href="#path-1"></use>
                                <g mask="url(#mask-2)">
                                    <g transform="translate(-2.984850, -7.139108)">
                                        <g id="middle" transform="translate(66.282460, -0.000000)">
                                            <rect id="Rectangle-62" fill="#2B3133" transform="translate(4.748007, 9.744353) rotate(78.000000) translate(-4.748007, -9.744353) " x="-3.97253649" y="6.97269955" width="17.4410876" height="5.54330709"></rect>
                                            <rect id="Rectangle-62" fill="#2B3133" transform="translate(12.730005, 9.566764) rotate(86.000000) translate(-12.730005, -9.566764) " x="4.00946143" y="6.79511082" width="17.4410876" height="5.54330709"></rect>
                                            <rect id="Rectangle-62" fill="#2B3133" transform="translate(21.075328, 9.566764) rotate(88.000000) translate(-21.075328, -9.566764) " x="12.3547837" y="6.79511082" width="17.4410876" height="5.54330709"></rect>
                                            <rect id="Rectangle-62" fill="#2B3133" transform="translate(29.191291, 9.489471) rotate(89.000000) translate(-29.191291, -9.489471) " x="20.4707467" y="6.71781759" width="17.4410876" height="5.54330709"></rect>
                                            <rect id="Rectangle-62" fill="#2B3133" transform="translate(37.420728, 9.445945) rotate(90.000000) translate(-37.420728, -9.445945) " x="28.7001837" y="6.6742917" width="17.4410876" height="5.54330709"></rect>
                                            <rect id="Rectangle-62" fill="#2B3133" transform="translate(46.411289, 9.399184) rotate(90.000000) translate(-46.411289, -9.399184) " x="37.6907456" y="6.6275303" width="17.4410876" height="5.54330709"></rect>
                                            <rect id="Rectangle-62" fill="#2B3133" transform="translate(54.791830, 9.399184) rotate(90.000000) translate(-54.791830, -9.399184) " x="46.0712865" y="6.6275303" width="17.4410876" height="5.54330709"></rect>
                                            <rect id="Rectangle-62" fill="#2B3133" transform="translate(63.172371, 9.399184) rotate(90.000000) translate(-63.172371, -9.399184) " x="54.4518274" y="6.6275303" width="17.4410876" height="5.54330709"></rect>
                                            <rect id="Rectangle-62" fill="#2B3133" transform="translate(71.552912, 9.399184) rotate(90.000000) translate(-71.552912, -9.399184) " x="62.8323683" y="6.6275303" width="17.4410876" height="5.54330709"></rect>
                                            <rect id="Rectangle-62" fill="#2B3133" transform="translate(80.273456, 9.399184) rotate(90.000000) translate(-80.273456, -9.399184) " x="71.5529121" y="6.6275303" width="17.4410876" height="5.54330709"></rect>
                                            <rect id="Rectangle-62" fill="#2B3133" transform="translate(88.653997, 9.399184) rotate(90.000000) translate(-88.653997, -9.399184) " x="79.933453" y="6.6275303" width="17.4410876" height="5.54330709"></rect>
                                            <rect id="Rectangle-62" fill="#2B3133" transform="translate(97.034538, 9.399184) rotate(90.000000) translate(-97.034538, -9.399184) " x="88.3139939" y="6.6275303" width="17.4410876" height="5.54330709"></rect>
                                            <rect id="Rectangle-62" fill="#2B3133" transform="translate(105.415079, 9.399184) rotate(91.000000) translate(-105.415079, -9.399184) " x="96.6945348" y="6.6275303" width="17.4410876" height="5.54330709"></rect>
                                            <rect id="Rectangle-62" fill="#2B3133" transform="translate(113.920264, 11.293714) rotate(93.000000) translate(-113.920264, -11.293714) " x="105.19972" y="8.52206073" width="17.4410876" height="5.54330709"></rect>
                                            <rect id="Rectangle-62" fill="#2B3133" transform="translate(122.266421, 11.377517) rotate(96.000000) translate(-122.266421, -11.377517) " x="113.545877" y="8.60586375" width="17.4410876" height="5.54330709"></rect>
                                        </g>
                                        <g id="right" transform="translate(191.927954, 1.847769)">
                                            <rect id="Rectangle-62" fill="#2B3133" transform="translate(5.318274, 9.630969) rotate(106.000000) translate(-5.318274, -9.630969) " x="-3.40227" y="6.85931583" width="17.4410876" height="5.54330709"></rect>
                                            <rect id="Rectangle-62" fill="#2B3133" transform="translate(14.505045, 9.291554) rotate(113.000000) translate(-14.505045, -9.291554) " x="5.78450117" y="6.98184256" width="17.4410876" height="4.61942257"></rect>
                                            <rect id="Rectangle-62" fill="#2B3133" transform="translate(21.510510, 8.717607) rotate(116.000000) translate(-21.510510, -8.717607) " x="12.7899664" y="6.86983751" width="17.4410876" height="3.69553806"></rect>
                                            <rect id="Rectangle-62" fill="#2B3133" transform="translate(27.286512, 10.986705) rotate(126.000000) translate(-27.286512, -10.986705) " x="18.565968" y="9.13893578" width="17.4410876" height="3.69553806"></rect>
                                            <rect id="Rectangle-62" fill="#2B3133" transform="translate(30.520106, 13.422304) rotate(135.000000) translate(-30.520106, -13.422304) " x="21.7995625" y="12.4984194" width="17.4410876" height="1.84776903"></rect>
                                            <polygon id="Rectangle-62" fill="#2B3133" transform="translate(33.958778, 13.917938) rotate(150.000000) translate(-33.958778, -13.917938) " points="22.8761168 13.0559416 45.4223724 13.0559416 45.4223724 13.9798261 22.4951831 14.7799336"></polygon>
                                            <polygon id="Rectangle-62" fill="#2B3133" transform="translate(37.733288, 14.986438) rotate(161.000000) translate(-37.733288, -14.986438) " points="23.7388267 14.1244416 52.208768 14.1244416 52.208768 15.0483261 23.2578085 15.8484336"></polygon>
                                            <polygon id="Rectangle-62" fill="#2B3133" transform="translate(41.982557, 16.325681) rotate(168.000000) translate(-41.982557, -16.325681) " points="24.7305761 15.463685 59.8275238 15.463685 59.8275238 16.3875695 24.1375903 17.1876769"></polygon>
                                            <polygon id="Rectangle-62" fill="#2B3133" transform="translate(45.328536, 19.765928) rotate(177.000000) translate(-45.328536, -19.765928) " points="24.3342011 18.9039318 67.0444886 18.9039318 67.0444886 19.8278163 23.612583 20.6279238"></polygon>
                                            <polygon id="Rectangle-62" fill="#2B3133" transform="translate(38.030222, 22.293046) rotate(182.000000) translate(-38.030222, -22.293046) " points="22.6219808 21.4310495 53.9680759 21.4310495 53.9680759 22.354934 22.0923681 23.1550415"></polygon>
                                            <polygon id="Rectangle-62" fill="#2B3133" transform="translate(28.748062, 23.313748) rotate(188.000000) translate(-28.748062, -23.313748) " points="19.4431871 22.4517519 38.3727654 22.4517519 38.3727654 23.3756364 19.1233595 24.1757439"></polygon>
                                            <polygon id="Rectangle-62" fill="#2B3133" transform="translate(23.880257, 23.350838) rotate(199.000000) translate(-23.880257, -23.350838) " points="17.1426038 22.4888418 30.8494971 22.4888418 30.8494971 23.4127263 16.9110169 24.2128337"></polygon>
                                            <polygon id="Rectangle-62" fill="#2B3133" transform="translate(23.709552, 25.009993) rotate(222.000000) translate(-23.709552, -25.009993) " points="18.6548648 24.1479975 28.9379791 24.1479975 28.9379791 25.071882 18.4811249 25.8719894"></polygon>
                                            <polygon id="Rectangle-62" fill="#2B3133" transform="translate(46.020469, 17.603135) rotate(173.000000) translate(-46.020469, -17.603135) " points="25.0261347 16.7411393 67.7364222 16.7411393 67.7364222 17.6650238 24.3045166 18.4651313"></polygon>
                                        </g>
                                        <g id="left" transform="translate(34.591909, 16.545932) scale(-1, 1) translate(-34.591909, -16.545932) translate(0.678375, 1.847769)">
                                            <rect id="Rectangle-62" fill="#2B3133" transform="translate(5.318274, 9.630969) rotate(106.000000) translate(-5.318274, -9.630969) " x="-3.40227" y="6.85931583" width="17.4410876" height="5.54330709"></rect>
                                            <rect id="Rectangle-62" fill="#2B3133" transform="translate(14.505045, 9.291554) rotate(113.000000) translate(-14.505045, -9.291554) " x="5.78450117" y="6.98184256" width="17.4410876" height="4.61942257"></rect>
                                            <rect id="Rectangle-62" fill="#2B3133" transform="translate(21.510510, 8.717607) rotate(116.000000) translate(-21.510510, -8.717607) " x="12.7899664" y="6.86983751" width="17.4410876" height="3.69553806"></rect>
                                            <rect id="Rectangle-62" fill="#2B3133" transform="translate(27.286512, 10.986705) rotate(126.000000) translate(-27.286512, -10.986705) " x="18.565968" y="9.13893578" width="17.4410876" height="3.69553806"></rect>
                                            <rect id="Rectangle-62" fill="#2B3133" transform="translate(30.520106, 13.422304) rotate(135.000000) translate(-30.520106, -13.422304) " x="21.7995625" y="12.4984194" width="17.4410876" height="1.84776903"></rect>
                                            <polygon id="Rectangle-62" fill="#2B3133" transform="translate(33.958778, 13.917938) rotate(150.000000) translate(-33.958778, -13.917938) " points="22.8761168 13.0559416 45.4223724 13.0559416 45.4223724 13.9798261 22.4951831 14.7799336"></polygon>
                                            <polygon id="Rectangle-62" fill="#2B3133" transform="translate(37.733288, 14.986438) rotate(161.000000) translate(-37.733288, -14.986438) " points="23.7388267 14.1244416 52.208768 14.1244416 52.208768 15.0483261 23.2578085 15.8484336"></polygon>
                                            <polygon id="Rectangle-62" fill="#2B3133" transform="translate(41.982557, 16.325681) rotate(168.000000) translate(-41.982557, -16.325681) " points="24.7305761 15.463685 59.8275238 15.463685 59.8275238 16.3875695 24.1375903 17.1876769"></polygon>
                                            <polygon id="Rectangle-62" fill="#2B3133" transform="translate(45.328536, 19.765928) rotate(177.000000) translate(-45.328536, -19.765928) " points="24.3342011 18.9039318 67.0444886 18.9039318 67.0444886 19.8278163 23.612583 20.6279238"></polygon>
                                            <polygon id="Rectangle-62" fill="#2B3133" transform="translate(38.030222, 22.293046) rotate(182.000000) translate(-38.030222, -22.293046) " points="22.6219808 21.4310495 53.9680759 21.4310495 53.9680759 22.354934 22.0923681 23.1550415"></polygon>
                                            <polygon id="Rectangle-62" fill="#2B3133" transform="translate(28.748062, 23.313748) rotate(188.000000) translate(-28.748062, -23.313748) " points="19.4431871 22.4517519 38.3727654 22.4517519 38.3727654 23.3756364 19.1233595 24.1757439"></polygon>
                                            <polygon id="Rectangle-62" fill="#2B3133" transform="translate(23.880257, 23.350838) rotate(199.000000) translate(-23.880257, -23.350838) " points="17.1426038 22.4888418 30.8494971 22.4888418 30.8494971 23.4127263 16.9110169 24.2128337"></polygon>
                                            <polygon id="Rectangle-62" fill="#2B3133" transform="translate(23.709552, 25.009993) rotate(222.000000) translate(-23.709552, -25.009993) " points="18.6548648 24.1479975 28.9379791 24.1479975 28.9379791 25.071882 18.4811249 25.8719894"></polygon>
                                            <polygon id="Rectangle-62" fill="#2B3133" transform="translate(46.020469, 17.603135) rotate(173.000000) translate(-46.020469, -17.603135) " points="25.0261347 16.7411393 67.7364222 16.7411393 67.7364222 17.6650238 24.3045166 18.4651313"></polygon>
                                        </g>
                                    </g>
                                </g>
                            </g>
                            <ellipse id="Oval-19" fill="#2B3133" cx="139.5" cy="146.981627" rx="87.056391" ry="7.69903762"></ellipse>
                        </g>
                        <path d="M147.27798,747.54896 C146.026122,735.532159 144.806588,724.157235 143.619379,713.424187 L97.7958283,713.424187 C96.6225418,724.157235 95.4177634,735.532159 94.1814931,747.54896 L147.27798,747.54896 Z M148.240602,756.853833 L148.240602,760.819705 L92.8297354,760.819705 C91.6731371,772.284876 90.4899621,784.291741 89.2802104,796.840299 L66.4285714,796.840299 C92.5338346,653.847351 105.586466,540.519402 105.586466,456.856451 C105.586466,373.1935 95.5639098,270.835109 75.518797,149.781277 L83.9097744,149.781277 C85.2420992,157.516412 96.124236,292.551989 112.578947,292.551989 C129.105733,292.551989 142.646617,206.608116 142.487749,146.724489 C142.486788,146.362488 145.569819,145.890963 151.736842,145.309913 C138.218045,312.380224 131.458647,427.393347 131.458647,490.349283 C131.458647,553.305219 145.909774,655.468891 174.81203,796.840299 L152.243203,796.840299 C150.875031,782.836897 149.54083,769.508076 148.240602,756.853833 Z M142.130724,700.153442 C140.785714,688.336671 139.484171,677.38304 138.226095,667.29255 L103.12927,667.29255 C101.884284,677.38304 100.59695,688.336671 99.2672685,700.153442 L142.130724,700.153442 Z M136.531457,654.021805 C135.005416,642.370024 133.547561,632.072256 132.157894,623.128501 L132.157895,624.952554 L108.861062,624.952554 C107.567397,633.4644 106.21594,643.154151 104.806693,654.021805 L136.531457,654.021805 Z M130.28967,611.681809 C126.514929,589.774547 123.291806,578.820917 120.620301,578.820917 C117.948795,578.820917 114.739881,589.774547 110.993558,611.681809 L130.28967,611.681809 Z" id="left-side-panel" fill="#C7C7C7"></path>
                        <rect id="middle-black" fill="#2B3133" x="122.368421" y="142.782152" width="33.5639098" height="654.418198"></rect>
                        <g id="right-side-panel" transform="translate(81.112782, 145.581802)">
                            <path d="M104.711096,567.87834 L108.296265,601.988941 L123.521785,601.988941 C121.422021,589.97713 119.399872,578.60693 117.455338,567.87834 L104.711096,567.87834 Z M94.1645997,567.87834 L71.6317878,567.87834 C71.2158256,578.60693 70.8136625,589.97713 70.4252983,601.988941 L97.7497684,601.988941 L94.1645997,567.87834 Z M99.1440006,615.254174 L70.009925,615.254174 C69.6623097,626.714584 69.3263397,638.716462 69.0020149,651.259809 L46.1503759,651.259809 C48.9562944,622.362005 51.4374198,594.568182 53.5937522,567.87834 L0,567.87834 L2.09774436,554.613106 L54.6458102,554.613106 C61.1024881,471.628617 64.3308271,399.617348 64.3308271,338.579299 C64.3308271,254.951093 52.2105263,142.091327 27.9699248,5.30985169e-14 L36.3609023,6.19106112e-13 C37.693227,7.73192274 63.2595744,147.180927 79.7142857,147.180927 C96.2410714,147.180927 112.578947,61.2727463 112.420079,1.41398806 C112.419119,1.05213754 115.50215,0.580808184 121.669173,0 C105.353383,162.789742 97.1954887,275.649508 97.1954887,338.579299 C97.1954887,401.50909 116.308271,505.735927 154.533835,651.259809 L131.965007,651.259809 C129.853551,638.716462 127.807596,626.714584 125.827142,615.254174 L109.690497,615.254174 L113.659765,653.019234 L103.228501,654.115604 L99.1440006,615.254174 Z M99.8644795,521.76586 L103.316864,554.613106 L115.030299,554.613106 C112.851497,542.801241 110.777065,531.85216 108.807004,521.76586 L99.8644795,521.76586 Z M89.3179829,521.76586 L73.7101789,521.76586 C73.1771781,531.85216 72.662733,542.801241 72.1668436,554.613106 L92.7703675,554.613106 L89.3179829,521.76586 Z M95.4162147,479.443448 L98.4702473,508.500627 L106.175982,508.500627 C103.985815,497.637485 101.93808,487.951759 100.032777,479.443448 L95.4162147,479.443448 Z M84.8697181,479.443448 L76.4544589,479.443448 C75.7613895,487.951759 75.0936424,497.637485 74.4512178,508.500627 L87.9237506,508.500627 L84.8697181,479.443448 Z M92.1232452,448.112936 L94.0219825,466.178214 L96.9466821,466.178214 C95.1953613,458.970136 93.587549,452.948377 92.1232452,448.112936 Z M80.9650606,442.293113 C79.8065044,447.756721 78.7016743,455.718422 77.6505702,466.178214 L83.4754858,466.178214 L80.9650606,442.293113 Z" id="Combined-Shape" fill="#E3E3E3"></path>
                            <path d="M32.8646617,0 C57.1052632,114.965359 70.7406015,214.98101 73.7706767,300.046954 C76.8007519,385.112897 72.4887218,502.183849 60.8345865,651.259809" id="Line-9" stroke-opacity="0.275447237" stroke="#2B3133" stroke-width="1.4" stroke-linecap="square"></path>
                            <path d="M115.201128,1.26335559 C114.377182,33.6439454 113.036957,56.8054647 111.180451,70.7479133 C94.3691531,197.001577 92.3007519,281.954541 92.3007519,332.894199 C92.3007519,392.271912 107.567669,498.288502 138.101504,650.94397" id="Line-10" stroke-opacity="0.181187726" stroke="#000000" stroke-width="1.4" stroke-linecap="square"></path>
                        </g>
                    </g>
                    <g id="skyscraper" transform="translate(66.000000, 252.000000)">
                        <polygon id="Rectangle-19" fill="#C5C5C5" points="154.779783 23.7826087 179.292419 38.471867 179.292419 67.8503836 154.779783 53.1611253"></polygon>
                        <polygon id="Rectangle-52" fill="#5289A6" points="0 53.1611253 169.487365 53.1611253 194 67.8503836 194 547 0 547"></polygon>
                        <polygon id="Rectangle-53" fill="#E1E1E1" points="18.2093863 0 154.779783 23.7826087 154.779783 53.1611253 18.2093863 53.1611253"></polygon>
                        <polygon id="Rectangle-55" fill-opacity="0.119706748" fill="#000000" points="169.487365 53.1611253 194 67.8503836 194 547 169.487365 547"></polygon>
                        <g id="Group-29" transform="translate(172.989170, 72.047315)" fill-opacity="0.6" fill="#FFFFFF">
                            <polygon id="Rectangle-54" points="0 0 16.8086643 8.39386189 16.8086643 11.8913043 0 3.49744246"></polygon>
                            <polygon id="Rectangle-54" points="0 9.09335038 16.8086643 17.4872123 16.8086643 20.9846547 0 12.5907928"></polygon>
                            <polygon id="Rectangle-54" points="0 18.8861893 16.8086643 27.2800512 16.8086643 30.7774936 0 22.3836317"></polygon>
                            <polygon id="Rectangle-54" points="0 27.9795396 16.8086643 36.3734015 16.8086643 39.870844 0 31.4769821"></polygon>
                            <polygon id="Rectangle-54" points="0 37.07289 16.8086643 45.4667519 16.8086643 48.9641944 0 40.5703325"></polygon>
                            <polygon id="Rectangle-54" points="0 46.1662404 16.8086643 54.5601023 16.8086643 58.0575448 0 49.6636829"></polygon>
                            <polygon id="Rectangle-54" points="0 55.9590793 16.8086643 64.3529412 16.8086643 67.8503836 0 59.4565217"></polygon>
                            <polygon id="Rectangle-54" points="0 65.0524297 16.8086643 73.4462916 16.8086643 76.943734 0 68.5498721"></polygon>
                            <polygon id="Rectangle-54" points="0 74.1457801 16.8086643 82.5396419 16.8086643 86.0370844 0 77.6432225"></polygon>
                            <polygon id="Rectangle-54" points="0 83.2391304 16.8086643 91.6329923 16.8086643 95.1304348 0 86.7365729"></polygon>
                            <polygon id="Rectangle-54" points="0 93.0319693 16.8086643 101.425831 16.8086643 104.923274 0 96.5294118"></polygon>
                            <polygon id="Rectangle-54" points="0 102.12532 16.8086643 110.519182 16.8086643 114.016624 0 105.622762"></polygon>
                            <polygon id="Rectangle-54" points="0 111.21867 16.8086643 119.612532 16.8086643 123.109974 0 114.716113"></polygon>
                            <polygon id="Rectangle-54" points="0 120.31202 16.8086643 128.705882 16.8086643 132.203325 0 123.809463"></polygon>
                            <polygon id="Rectangle-54" points="0 130.104859 16.8086643 138.498721 16.8086643 141.996164 0 133.602302"></polygon>
                            <polygon id="Rectangle-54" points="0 139.19821 16.8086643 147.592072 16.8086643 151.089514 0 142.695652"></polygon>
                            <polygon id="Rectangle-54" points="0 148.29156 16.8086643 156.685422 16.8086643 160.182864 0 151.789003"></polygon>
                            <polygon id="Rectangle-54" points="0 157.38491 16.8086643 165.778772 16.8086643 169.276215 0 160.882353"></polygon>
                            <polygon id="Rectangle-54" points="0 167.177749 16.8086643 175.571611 16.8086643 179.069054 0 170.675192"></polygon>
                            <polygon id="Rectangle-54" points="0 176.2711 16.8086643 184.664962 16.8086643 188.162404 0 179.768542"></polygon>
                            <polygon id="Rectangle-54" points="0 185.36445 16.8086643 193.758312 16.8086643 197.255754 0 188.861893"></polygon>
                            <polygon id="Rectangle-54" points="0 194.457801 16.8086643 202.851662 16.8086643 206.349105 0 197.955243"></polygon>
                            <polygon id="Rectangle-54" points="0 204.250639 16.8086643 212.644501 16.8086643 216.141944 0 207.748082"></polygon>
                            <polygon id="Rectangle-54" points="0 213.34399 16.8086643 221.737852 16.8086643 225.235294 0 216.841432"></polygon>
                            <polygon id="Rectangle-54" points="0 222.43734 16.8086643 230.831202 16.8086643 234.328645 0 225.934783"></polygon>
                            <polygon id="Rectangle-54" points="0 231.530691 16.8086643 239.924552 16.8086643 243.421995 0 235.028133"></polygon>
                            <polygon id="Rectangle-54" points="0 241.323529 16.8086643 249.717391 16.8086643 253.214834 0 244.820972"></polygon>
                            <polygon id="Rectangle-54" points="0 250.41688 16.8086643 258.810742 16.8086643 262.308184 0 253.914322"></polygon>
                            <polygon id="Rectangle-54" points="0 259.51023 16.8086643 267.904092 16.8086643 271.401535 0 263.007673"></polygon>
                            <polygon id="Rectangle-54" points="0 268.603581 16.8086643 276.997442 16.8086643 280.494885 0 272.101023"></polygon>
                            <polygon id="Rectangle-54" points="0 278.396419 16.8086643 286.790281 16.8086643 290.287724 0 281.893862"></polygon>
                            <polygon id="Rectangle-54" points="0 287.48977 16.8086643 295.883632 16.8086643 299.381074 0 290.987212"></polygon>
                            <polygon id="Rectangle-54" points="0 296.58312 16.8086643 304.976982 16.8086643 308.474425 0 300.080563"></polygon>
                            <polygon id="Rectangle-54" points="0 305.676471 16.8086643 314.070332 16.8086643 317.567775 0 309.173913"></polygon>
                            <polygon id="Rectangle-54" points="0 314.769821 16.8086643 323.163683 16.8086643 326.661125 0 318.267263"></polygon>
                            <polygon id="Rectangle-54" points="0 323.863171 16.8086643 332.257033 16.8086643 335.754476 0 327.360614"></polygon>
                            <polygon id="Rectangle-54" points="0 333.65601 16.8086643 342.049872 16.8086643 345.547315 0 337.153453"></polygon>
                            <polygon id="Rectangle-54" points="0 342.749361 16.8086643 351.143223 16.8086643 354.640665 0 346.246803"></polygon>
                            <polygon id="Rectangle-54" points="0 351.842711 16.8086643 360.236573 16.8086643 363.734015 0 355.340153"></polygon>
                            <polygon id="Rectangle-54" points="0 360.936061 16.8086643 369.329923 16.8086643 372.827366 0 364.433504"></polygon>
                            <polygon id="Rectangle-54" points="0 370.7289 16.8086643 379.122762 16.8086643 382.620205 0 374.226343"></polygon>
                            <polygon id="Rectangle-54" points="0 379.822251 16.8086643 388.216113 16.8086643 391.713555 0 383.319693"></polygon>
                            <polygon id="Rectangle-54" points="0 388.915601 16.8086643 397.309463 16.8086643 400.806905 0 392.413043"></polygon>
                            <polygon id="Rectangle-54" points="0 398.008951 16.8086643 406.402813 16.8086643 409.900256 0 401.506394"></polygon>
                            <polygon id="Rectangle-54" points="0 407.80179 16.8086643 416.195652 16.8086643 419.693095 0 411.299233"></polygon>
                            <polygon id="Rectangle-54" points="0 416.895141 16.8086643 425.289003 16.8086643 428.786445 0 420.392583"></polygon>
                            <polygon id="Rectangle-54" points="0 425.988491 16.8086643 434.382353 16.8086643 437.879795 0 429.485934"></polygon>
                            <polygon id="Rectangle-54" points="0 435.081841 16.8086643 443.475703 16.8086643 446.973146 0 438.579284"></polygon>
                            <polygon id="Rectangle-54" points="0 444.87468 16.8086643 453.268542 16.8086643 456.765985 0 448.372123"></polygon>
                            <polygon id="Rectangle-54" points="0 453.968031 16.8086643 462.361893 16.8086643 465.859335 0 457.465473"></polygon>
                        </g>
                        <g id="Group-28" transform="translate(9.104693, 72.047315)" fill="#FFFFFF" fill-opacity="0.6">
                            <rect id="Rectangle-54" x="0" y="0" width="154.779783" height="3.49744246"></rect>
                            <rect id="Rectangle-54-Copy" x="0" y="9.09335038" width="154.779783" height="3.49744246"></rect>
                            <rect id="Rectangle-54" x="0" y="18.8861893" width="154.779783" height="3.49744246"></rect>
                            <rect id="Rectangle-54-Copy" x="0" y="27.9795396" width="154.779783" height="3.49744246"></rect>
                            <rect id="Rectangle-54" x="0" y="37.07289" width="154.779783" height="3.49744246"></rect>
                            <rect id="Rectangle-54-Copy" x="0" y="46.1662404" width="154.779783" height="3.49744246"></rect>
                            <rect id="Rectangle-54" x="0" y="55.9590793" width="154.779783" height="3.49744246"></rect>
                            <rect id="Rectangle-54-Copy" x="0" y="65.0524297" width="154.779783" height="3.49744246"></rect>
                            <rect id="Rectangle-54" x="0" y="74.1457801" width="154.779783" height="3.49744246"></rect>
                            <rect id="Rectangle-54-Copy" x="0" y="83.2391304" width="154.779783" height="3.49744246"></rect>
                            <rect id="Rectangle-54" x="0" y="93.0319693" width="154.779783" height="3.49744246"></rect>
                            <rect id="Rectangle-54-Copy" x="0" y="102.12532" width="154.779783" height="3.49744246"></rect>
                            <rect id="Rectangle-54" x="0" y="111.21867" width="154.779783" height="3.49744246"></rect>
                            <rect id="Rectangle-54-Copy" x="0" y="120.31202" width="154.779783" height="3.49744246"></rect>
                            <rect id="Rectangle-54" x="0" y="130.104859" width="154.779783" height="3.49744246"></rect>
                            <rect id="Rectangle-54-Copy" x="0" y="139.19821" width="154.779783" height="3.49744246"></rect>
                            <rect id="Rectangle-54" x="0" y="148.29156" width="154.779783" height="3.49744246"></rect>
                            <rect id="Rectangle-54-Copy" x="0" y="157.38491" width="154.779783" height="3.49744246"></rect>
                            <rect id="Rectangle-54" x="0" y="167.177749" width="154.779783" height="3.49744246"></rect>
                            <rect id="Rectangle-54-Copy" x="0" y="176.2711" width="154.779783" height="3.49744246"></rect>
                            <rect id="Rectangle-54" x="0" y="185.36445" width="154.779783" height="3.49744246"></rect>
                            <rect id="Rectangle-54-Copy" x="0" y="194.457801" width="154.779783" height="3.49744246"></rect>
                            <rect id="Rectangle-54" x="0" y="204.250639" width="154.779783" height="3.49744246"></rect>
                            <rect id="Rectangle-54-Copy" x="0" y="213.34399" width="154.779783" height="3.49744246"></rect>
                            <rect id="Rectangle-54" x="0" y="222.43734" width="154.779783" height="3.49744246"></rect>
                            <rect id="Rectangle-54-Copy" x="0" y="231.530691" width="154.779783" height="3.49744246"></rect>
                            <rect id="Rectangle-54" x="0" y="241.323529" width="154.779783" height="3.49744246"></rect>
                            <rect id="Rectangle-54-Copy" x="0" y="250.41688" width="154.779783" height="3.49744246"></rect>
                            <rect id="Rectangle-54" x="0" y="259.51023" width="154.779783" height="3.49744246"></rect>
                            <rect id="Rectangle-54-Copy" x="0" y="268.603581" width="154.779783" height="3.49744246"></rect>
                            <rect id="Rectangle-54" x="0" y="278.396419" width="154.779783" height="3.49744246"></rect>
                            <rect id="Rectangle-54-Copy" x="0" y="287.48977" width="154.779783" height="3.49744246"></rect>
                            <rect id="Rectangle-54" x="0" y="0" width="154.779783" height="3.49744246"></rect>
                            <rect id="Rectangle-54-Copy" x="0" y="9.09335038" width="154.779783" height="3.49744246"></rect>
                            <rect id="Rectangle-54" x="0" y="18.8861893" width="154.779783" height="3.49744246"></rect>
                            <rect id="Rectangle-54-Copy" x="0" y="27.9795396" width="154.779783" height="3.49744246"></rect>
                            <rect id="Rectangle-54" x="0" y="37.07289" width="154.779783" height="3.49744246"></rect>
                            <rect id="Rectangle-54-Copy" x="0" y="46.1662404" width="154.779783" height="3.49744246"></rect>
                            <rect id="Rectangle-54" x="0" y="55.9590793" width="154.779783" height="3.49744246"></rect>
                            <rect id="Rectangle-54-Copy" x="0" y="65.0524297" width="154.779783" height="3.49744246"></rect>
                            <rect id="Rectangle-54" x="0" y="74.1457801" width="154.779783" height="3.49744246"></rect>
                            <rect id="Rectangle-54-Copy" x="0" y="83.2391304" width="154.779783" height="3.49744246"></rect>
                            <rect id="Rectangle-54" x="0" y="93.0319693" width="154.779783" height="3.49744246"></rect>
                            <rect id="Rectangle-54-Copy" x="0" y="102.12532" width="154.779783" height="3.49744246"></rect>
                            <rect id="Rectangle-54" x="0" y="111.21867" width="154.779783" height="3.49744246"></rect>
                            <rect id="Rectangle-54-Copy" x="0" y="120.31202" width="154.779783" height="3.49744246"></rect>
                            <rect id="Rectangle-54" x="0" y="130.104859" width="154.779783" height="3.49744246"></rect>
                            <rect id="Rectangle-54-Copy" x="0" y="139.19821" width="154.779783" height="3.49744246"></rect>
                            <rect id="Rectangle-54" x="0" y="148.29156" width="154.779783" height="3.49744246"></rect>
                            <rect id="Rectangle-54-Copy" x="0" y="157.38491" width="154.779783" height="3.49744246"></rect>
                            <rect id="Rectangle-54" x="0" y="167.177749" width="154.779783" height="3.49744246"></rect>
                            <rect id="Rectangle-54-Copy" x="0" y="176.2711" width="154.779783" height="3.49744246"></rect>
                            <rect id="Rectangle-54" x="0" y="185.36445" width="154.779783" height="3.49744246"></rect>
                            <rect id="Rectangle-54-Copy" x="0" y="194.457801" width="154.779783" height="3.49744246"></rect>
                            <rect id="Rectangle-54" x="0" y="204.250639" width="154.779783" height="3.49744246"></rect>
                            <rect id="Rectangle-54-Copy" x="0" y="213.34399" width="154.779783" height="3.49744246"></rect>
                            <rect id="Rectangle-54" x="0" y="222.43734" width="154.779783" height="3.49744246"></rect>
                            <rect id="Rectangle-54-Copy" x="0" y="231.530691" width="154.779783" height="3.49744246"></rect>
                            <rect id="Rectangle-54" x="0" y="241.323529" width="154.779783" height="3.49744246"></rect>
                            <rect id="Rectangle-54-Copy" x="0" y="250.41688" width="154.779783" height="3.49744246"></rect>
                            <rect id="Rectangle-54" x="0" y="259.51023" width="154.779783" height="3.49744246"></rect>
                            <rect id="Rectangle-54-Copy" x="0" y="268.603581" width="154.779783" height="3.49744246"></rect>
                            <rect id="Rectangle-54" x="0" y="278.396419" width="154.779783" height="3.49744246"></rect>
                            <rect id="Rectangle-54-Copy" x="0" y="287.48977" width="154.779783" height="3.49744246"></rect>
                            <rect id="Rectangle-54" x="0" y="296.58312" width="154.779783" height="3.49744246"></rect>
                            <rect id="Rectangle-54-Copy" x="0" y="305.676471" width="154.779783" height="3.49744246"></rect>
                            <rect id="Rectangle-54" x="0" y="314.769821" width="154.779783" height="3.49744246"></rect>
                            <rect id="Rectangle-54-Copy" x="0" y="323.863171" width="154.779783" height="3.49744246"></rect>
                            <rect id="Rectangle-54" x="0" y="333.65601" width="154.779783" height="3.49744246"></rect>
                            <rect id="Rectangle-54-Copy" x="0" y="342.749361" width="154.779783" height="3.49744246"></rect>
                            <rect id="Rectangle-54" x="0" y="351.842711" width="154.779783" height="3.49744246"></rect>
                            <rect id="Rectangle-54-Copy" x="0" y="360.936061" width="154.779783" height="3.49744246"></rect>
                            <rect id="Rectangle-54" x="0" y="370.7289" width="154.779783" height="3.49744246"></rect>
                            <rect id="Rectangle-54-Copy" x="0" y="379.822251" width="154.779783" height="3.49744246"></rect>
                            <rect id="Rectangle-54" x="0" y="388.915601" width="154.779783" height="3.49744246"></rect>
                            <rect id="Rectangle-54-Copy" x="0" y="398.008951" width="154.779783" height="3.49744246"></rect>
                            <rect id="Rectangle-54" x="0" y="407.80179" width="154.779783" height="3.49744246"></rect>
                            <rect id="Rectangle-54-Copy" x="0" y="416.895141" width="154.779783" height="3.49744246"></rect>
                            <rect id="Rectangle-54" x="0" y="425.988491" width="154.779783" height="3.49744246"></rect>
                            <rect id="Rectangle-54-Copy" x="0" y="435.081841" width="154.779783" height="3.49744246"></rect>
                            <rect id="Rectangle-54" x="0" y="444.87468" width="154.779783" height="3.49744246"></rect>
                            <rect id="Rectangle-54-Copy" x="0" y="453.968031" width="154.779783" height="3.49744246"></rect>
                            <rect id="Rectangle-54" x="0" y="296.58312" width="154.779783" height="3.49744246"></rect>
                            <rect id="Rectangle-54-Copy" x="0" y="305.676471" width="154.779783" height="3.49744246"></rect>
                            <rect id="Rectangle-54" x="0" y="314.769821" width="154.779783" height="3.49744246"></rect>
                            <rect id="Rectangle-54-Copy" x="0" y="323.863171" width="154.779783" height="3.49744246"></rect>
                            <rect id="Rectangle-54" x="0" y="333.65601" width="154.779783" height="3.49744246"></rect>
                            <rect id="Rectangle-54-Copy" x="0" y="342.749361" width="154.779783" height="3.49744246"></rect>
                            <rect id="Rectangle-54" x="0" y="351.842711" width="154.779783" height="3.49744246"></rect>
                            <rect id="Rectangle-54-Copy" x="0" y="360.936061" width="154.779783" height="3.49744246"></rect>
                            <rect id="Rectangle-54" x="0" y="370.7289" width="154.779783" height="3.49744246"></rect>
                            <rect id="Rectangle-54-Copy" x="0" y="379.822251" width="154.779783" height="3.49744246"></rect>
                            <rect id="Rectangle-54" x="0" y="388.915601" width="154.779783" height="3.49744246"></rect>
                            <rect id="Rectangle-54-Copy" x="0" y="398.008951" width="154.779783" height="3.49744246"></rect>
                            <rect id="Rectangle-54" x="0" y="407.80179" width="154.779783" height="3.49744246"></rect>
                            <rect id="Rectangle-54-Copy" x="0" y="416.895141" width="154.779783" height="3.49744246"></rect>
                            <rect id="Rectangle-54" x="0" y="425.988491" width="154.779783" height="3.49744246"></rect>
                            <rect id="Rectangle-54-Copy" x="0" y="435.081841" width="154.779783" height="3.49744246"></rect>
                            <rect id="Rectangle-54" x="0" y="444.87468" width="154.779783" height="3.49744246"></rect>
                            <rect id="Rectangle-54-Copy" x="0" y="453.968031" width="154.779783" height="3.49744246"></rect>
                        </g>
                    </g>
                    <g id="freeway" transform="translate(0.000000, 705.000000)">
                        <g id="Rectangle-29">
                            <use fill="black" fill-opacity="1" filter="url(#filter-4)" xlink:href="#path-3"></use>
                            <use fill="#7B8285" fill-rule="evenodd" xlink:href="#path-3"></use>
                            <use fill="black" fill-opacity="1" filter="url(#filter-5)" xlink:href="#path-3"></use>
                        </g>
                        <path d="M0,153 L1520,70.4106687" id="Line-6" stroke="#FFFFFF" stroke-width="3" stroke-linecap="round" stroke-dasharray="62"></path>
                    </g>
                    <g id="car1" transform="translate(1089.500000, 748.500000) rotate(-3.000000) translate(-1089.500000, -748.500000) translate(1036.000000, 717.000000)">
                        <path d="M19.5915493,27 C20.5962441,9 28.1314554,1.86222565e-15 53.5,0 C78.8685446,0 86.9061033,10 86.9061033,27 C102.981221,27.5 107,36 107,56.5 L3.52429197e-12,56.5 C3.52429197e-12,38 3.51643192,27 19.5915493,27 Z" id="Rectangle-38" fill="#F8CA23"></path>
                        <ellipse id="Oval-14" fill="#333333" cx="23.8615023" cy="52.75" rx="10.2981221" ry="10.25"></ellipse>
                        <ellipse id="Oval-14" fill="#333333" cx="84.1431925" cy="52.75" rx="10.2981221" ry="10.25"></ellipse>
                        <ellipse id="Oval-14" fill="#DCDCDC" cx="84.1431925" cy="52.75" rx="4.77230047" ry="4.75"></ellipse>
                        <ellipse id="Oval-14" fill="#DCDCDC" cx="23.8615023" cy="52.75" rx="4.77230047" ry="4.75"></ellipse>
                    </g>
                    <g id="car2" transform="translate(1265.500000, 804.500000) rotate(-3.000000) translate(-1265.500000, -804.500000) translate(1212.000000, 773.000000)" fill="#79C5B6">
                        <path d="M19.5915493,27 C20.5962441,9 28.1314554,1.86222565e-15 53.5,0 C78.8685446,0 86.9061033,10 86.9061033,27 C102.981221,27.5 107,36 107,56.5 L3.52429197e-12,56.5 C3.52429197e-12,38 3.51643192,27 19.5915493,27 Z" id="Rectangle-38"></path>
                    </g>
                    <g id="car3" transform="translate(785.500000, 765.500000) rotate(-3.000000) translate(-785.500000, -765.500000) translate(732.000000, 734.000000)">
                        <path d="M19.4650567,26.951617 C20.4632647,8.98387232 27.949825,1.85888861e-15 53.1545779,0 C78.3593308,0 86.3449951,9.98208036 86.3449951,26.951617 C102.316324,27.450721 106.309156,35.9354893 106.309156,56.398754 L-1.13686838e-13,56.398754 C-1.13686838e-13,37.9319054 3.49372813,26.951617 19.4650567,26.951617 Z" id="Rectangle-38" fill="#F75A4A"></path>
                        <circle id="Oval-14" fill="#333333" cx="23.7074409" cy="52.6554739" r="10.2316324"></circle>
                        <circle id="Oval-14" fill="#333333" cx="83.599923" cy="52.6554739" r="10.2316324"></circle>
                        <circle id="Oval-14" fill="#DCDCDC" cx="83.599923" cy="52.6554739" r="4.74148817"></circle>
                    </g>
                </g>
            </g>
        </g>
    </g>
</svg>