<?xml version="1.0" encoding="UTF-8"?>
<svg width="1440px" height="73px" viewBox="0 0 1440 73" version="1.1" xmlns="http://www.w3.org/2000/svg" xmlns:xlink="http://www.w3.org/1999/xlink">
    <!-- Generator: Sketch 45.2 (43514) - http://www.bohemiancoding.com/sketch -->
    <title>Rectangle 17</title>
    <desc>Created with Sketch.</desc>
    <defs>
        <path d="M1440,0 C1488,25.5 1536,38.25 1584,38.25 L1584,102 L1440,102 L1440,0 Z M1728,0 L1728,102 L1584,102 L1584,38.25 C1632,38.25 1680,25.5 1728,0 Z M1152,0 C1200,25.5 1248,38.25 1296,38.25 L1296,102 L1152,102 L1152,0 Z M1440,0 L1440,102 L1296,102 L1296,38.25 C1344,38.25 1392,25.5 1440,0 Z M864,0 C912,25.5 960,38.25 1008,38.25 L1008,102 L864,102 L864,0 Z M1152,0 L1152,102 L1008,102 L1008,38.25 C1056,38.25 1104,25.5 1152,0 Z M576,0 C624,25.5 672,38.25 720,38.25 L720,102 L576,102 L576,0 Z M864,0 L864,102 L720,102 L720,38.25 C768,38.25 816,25.5 864,0 Z M288,0 C336,25.5 384,38.25 432,38.25 L432,102 L288,102 L288,0 Z M576,0 L576,102 L432,102 L432,38.25 C480,38.25 528,25.5 576,0 Z M0,0 C48,25.5 96,38.25 144,38.25 L144,102 L0,102 L0,0 Z M288,73 L144,73 L144,38.25 C192,38.25 240,25.5 288,0 L288,73 L288,73 Z" id="path-1"></path>
    </defs>
    <g id="Page-1" stroke="none" stroke-width="1" fill="none" fill-rule="evenodd">
        <g id="Desktop-HD-Copy-16" transform="translate(0.000000, -3897.000000)">
            <g id="Rectangle-17" transform="translate(0.000000, 3897.000000)">
                <g>
                    <g>
                        <mask id="mask-2" fill="white">
                            <use xlink:href="#path-1"></use>
                        </mask>
                        <use id="Combined-Shape" fill="#64A3C5" xlink:href="#path-1"></use>
                    </g>
                </g>
            </g>
        </g>
    </g>
</svg>