<?xml version="1.0" encoding="UTF-8"?>
<svg width="734px" height="733px" viewBox="0 0 734 733" version="1.1" xmlns="http://www.w3.org/2000/svg" xmlns:xlink="http://www.w3.org/1999/xlink">
    <!-- Generator: Sketch 45.2 (43514) - http://www.bohemiancoding.com/sketch -->
    <title>wheel</title>
    <desc>Created with Sketch.</desc>
    <defs></defs>
    <g id="Page-1" stroke="none" stroke-width="1" fill="none" fill-rule="evenodd">
        <g id="Artboard-3" transform="translate(-1387.000000, -588.000000)">
            <g id="wheel" transform="translate(1387.000000, 588.000000)">
                <path d="M367,40 C355.954305,40 347,31.045695 347,20 C347,8.954305 355.954305,0 367,0 C378.045695,0 387,8.954305 387,20 C387,31.045695 378.045695,40 367,40 Z M451.504418,51.1252177 C440.835096,48.2663815 434.503446,37.2996424 437.362283,26.6303203 C440.221119,15.9609982 451.187858,9.62934843 461.85718,12.4881847 C472.526502,15.3470209 478.858152,26.31376 475.999316,36.9830821 C473.140479,47.6524042 462.17374,53.9840539 451.504418,51.1252177 Z M530.25,83.7427057 C520.684148,78.2198582 517.406644,65.9880501 522.929492,56.4221976 C528.452339,46.8563451 540.684148,43.578842 550.25,49.1016895 C559.815852,54.624537 563.093356,66.8563451 557.570508,76.4221976 C552.047661,85.9880501 539.815852,89.2655532 530.25,83.7427057 Z M597.870364,135.629636 C590.059878,127.81915 590.059878,115.155851 597.870364,107.345365 C605.68085,99.5348789 618.344149,99.5348789 626.154635,107.345365 C633.965121,115.155851 633.965121,127.81915 626.154635,135.629636 C618.344149,143.440122 605.68085,143.440122 597.870364,135.629636 Z M649.757294,203.25 C644.234447,193.684148 647.51195,181.452339 657.077802,175.929492 C666.643655,170.406644 678.875463,173.684148 684.39831,183.25 C689.921158,192.815852 686.643655,205.047661 677.077802,210.570508 C667.51195,216.093356 655.280142,212.815852 649.757294,203.25 Z M682.374782,281.995582 C679.515946,271.32626 685.847596,260.359521 696.516918,257.500684 C707.18624,254.641848 718.152979,260.973498 721.011815,271.64282 C723.870652,282.312142 717.539002,293.278881 706.86968,296.137717 C696.200358,298.996554 685.233619,292.664904 682.374782,281.995582 Z M693.5,366.5 C693.5,355.454305 702.454305,346.5 713.5,346.5 C724.545695,346.5 733.5,355.454305 733.5,366.5 C733.5,377.545695 724.545695,386.5 713.5,386.5 C702.454305,386.5 693.5,377.545695 693.5,366.5 Z M682.374782,451.004418 C685.233619,440.335096 696.200358,434.003446 706.86968,436.862283 C717.539002,439.721119 723.870652,450.687858 721.011815,461.35718 C718.152979,472.026502 707.18624,478.358152 696.516918,475.499316 C685.847596,472.640479 679.515946,461.67374 682.374782,451.004418 Z M649.757294,529.75 C655.280142,520.184148 667.51195,516.906644 677.077802,522.429492 C686.643655,527.952339 689.921158,540.184148 684.39831,549.75 C678.875463,559.315852 666.643655,562.593356 657.077802,557.070508 C647.51195,551.547661 644.234447,539.315852 649.757294,529.75 Z M597.870364,597.370364 C605.68085,589.559878 618.344149,589.559878 626.154635,597.370364 C633.965121,605.18085 633.965121,617.844149 626.154635,625.654635 C618.344149,633.465121 605.68085,633.465121 597.870364,625.654635 C590.059878,617.844149 590.059878,605.18085 597.870364,597.370364 Z M530.25,649.257294 C539.815852,643.734447 552.047661,647.01195 557.570508,656.577802 C563.093356,666.143655 559.815852,678.375463 550.25,683.89831 C540.684148,689.421158 528.452339,686.143655 522.929492,676.577802 C517.406644,667.01195 520.684148,654.780142 530.25,649.257294 Z M451.504418,681.874782 C462.17374,679.015946 473.140479,685.347596 475.999316,696.016918 C478.858152,706.68624 472.526502,717.652979 461.85718,720.511815 C451.187858,723.370652 440.221119,717.039002 437.362283,706.36968 C434.503446,695.700358 440.835096,684.733619 451.504418,681.874782 Z M367,693 C378.045695,693 387,701.954305 387,713 C387,724.045695 378.045695,733 367,733 C355.954305,733 347,724.045695 347,713 C347,701.954305 355.954305,693 367,693 Z M282.495582,681.874782 C293.164904,684.733619 299.496554,695.700358 296.637717,706.36968 C293.778881,717.039002 282.812142,723.370652 272.14282,720.511815 C261.473498,717.652979 255.141848,706.68624 258.000684,696.016918 C260.859521,685.347596 271.82626,679.015946 282.495582,681.874782 Z M203.75,649.257294 C213.315852,654.780142 216.593356,667.01195 211.070508,676.577802 C205.547661,686.143655 193.315852,689.421158 183.75,683.89831 C174.184148,678.375463 170.906644,666.143655 176.429492,656.577802 C181.952339,647.01195 194.184148,643.734447 203.75,649.257294 Z M136.129636,597.370364 C143.940122,605.18085 143.940122,617.844149 136.129636,625.654635 C128.31915,633.465121 115.655851,633.465121 107.845365,625.654635 C100.034879,617.844149 100.034879,605.18085 107.845365,597.370364 C115.655851,589.559878 128.31915,589.559878 136.129636,597.370364 Z M84.2427057,529.75 C89.7655532,539.315852 86.4880501,551.547661 76.9221976,557.070508 C67.3563451,562.593356 55.124537,559.315852 49.6016895,549.75 C44.078842,540.184148 47.3563451,527.952339 56.9221976,522.429492 C66.4880501,516.906644 78.7198582,520.184148 84.2427057,529.75 Z M51.6252177,451.004418 C54.4840539,461.67374 48.1524042,472.640479 37.4830821,475.499316 C26.81376,478.358152 15.8470209,472.026502 12.9881847,461.35718 C10.1293484,450.687858 16.4609982,439.721119 27.1303203,436.862283 C37.7996424,434.003446 48.7663815,440.335096 51.6252177,451.004418 Z M40.5,366.5 C40.5,377.545695 31.545695,386.5 20.5,386.5 C9.454305,386.5 0.5,377.545695 0.5,366.5 C0.5,355.454305 9.454305,346.5 20.5,346.5 C31.545695,346.5 40.5,355.454305 40.5,366.5 Z M51.6252177,281.995582 C48.7663815,292.664904 37.7996424,298.996554 27.1303203,296.137717 C16.4609982,293.278881 10.1293484,282.312142 12.9881847,271.64282 C15.8470209,260.973498 26.81376,254.641848 37.4830821,257.500684 C48.1524042,260.359521 54.4840539,271.32626 51.6252177,281.995582 Z M84.2427057,203.25 C78.7198582,212.815852 66.4880501,216.093356 56.9221976,210.570508 C47.3563451,205.047661 44.078842,192.815852 49.6016895,183.25 C55.124537,173.684148 67.3563451,170.406644 76.9221976,175.929492 C86.4880501,181.452339 89.7655532,193.684148 84.2427057,203.25 Z M136.129636,135.629636 C128.31915,143.440122 115.655851,143.440122 107.845365,135.629636 C100.034879,127.81915 100.034879,115.155851 107.845365,107.345365 C115.655851,99.5348789 128.31915,99.5348789 136.129636,107.345365 C143.940122,115.155851 143.940122,127.81915 136.129636,135.629636 Z M203.75,83.7427057 C194.184148,89.2655532 181.952339,85.9880501 176.429492,76.4221976 C170.906644,66.8563451 174.184148,54.624537 183.75,49.1016895 C193.315852,43.578842 205.547661,46.8563451 211.070508,56.4221976 C216.593356,65.9880501 213.315852,78.2198582 203.75,83.7427057 Z M282.495582,51.1252177 C271.82626,53.9840539 260.859521,47.6524042 258.000684,36.9830821 C255.141848,26.31376 261.473498,15.3470209 272.14282,12.4881847 C282.812142,9.62934843 293.778881,15.9609982 296.637717,26.6303203 C299.496554,37.2996424 293.164904,48.2663815 282.495582,51.1252177 Z" id="seats" fill="#5C5C5C"></path>
                <ellipse id="outer-ring" stroke="#DDDDDD" stroke-width="11.4" cx="368.099672" cy="366.3" rx="345.407875" ry="345.6"></ellipse>
                <path d="M363.602133,339.178798 L363.602133,20.4 L370.798195,20.4 L370.798195,339.178798 L453.303384,31.2652399 L460.254247,33.1277179 L377.744329,341.058924 L537.136844,64.9829896 L543.368817,68.5810208 L383.960479,344.68436 L609.389399,119.25544 L614.477784,124.343825 L389.023026,349.798582 L665.137159,190.384014 L668.73519,196.615986 L392.593652,356.046378 L700.581004,273.521415 L702.443482,280.472278 L394.438482,363.001969 L713.305496,363.001969 L713.305496,370.198031 L394.438482,370.198031 L702.443482,452.727722 L700.581004,459.678585 L392.593652,377.153622 L668.73519,536.584014 L665.137159,542.815986 L389.023026,383.401418 L614.477784,608.856175 L609.389399,613.94456 L383.960479,388.51564 L543.368817,664.618979 L537.136844,668.21701 L377.744329,392.141076 L460.254247,700.072282 L453.303384,701.93476 L370.798195,394.021202 L370.798195,712.8 L363.602133,712.8 L363.602133,394.021202 L281.096944,701.93476 L274.146081,700.072282 L356.655999,392.141076 L197.263484,668.21701 L191.031512,664.618979 L350.439849,388.51564 L125.010929,613.94456 L119.922544,608.856175 L345.377302,383.401418 L69.2631696,542.815986 L65.6651384,536.584014 L341.806676,377.153622 L33.819324,459.678585 L31.956846,452.727722 L339.961846,370.198031 L21.0948318,370.198031 L21.0948318,363.001969 L339.961846,363.001969 L31.956846,280.472278 L33.819324,273.521415 L341.806676,356.046378 L65.6651384,196.615986 L69.2631696,190.384014 L345.377302,349.798582 L119.922544,124.343825 L125.010929,119.25544 L350.439849,344.68436 L191.031512,68.5810208 L197.263484,64.9829896 L356.655999,341.058924 L274.146081,33.1277179 L281.096944,31.2652399 L363.602133,339.178798 Z" id="arms" fill="#DDDDDD"></path>
            </g>
        </g>
    </g>
</svg>