<svg xmlns="http://www.w3.org/2000/svg" viewBox="0 0 556.04 90.94"><defs><style>.a{fill:#c1ad6d;}.b{fill:#37246a;}.c{fill:#37246b;}.d{fill:none;stroke:#37246b;stroke-miterlimit:10;stroke-width:0.5px;}</style></defs><title>comotion</title><polyline class="a" points="177.26 79.37 169.32 89.19 163 89.19 171.03 79.37 163 69.73 169.32 69.73 177.26 79.37"/><polyline class="a" points="187.72 79.37 179.78 89.19 173.46 89.19 181.49 79.37 173.46 69.73 179.78 69.73 187.72 79.37"/><path class="b" d="M178.76,1.79c-6.46,0-13.53,3.53-14.49,10.35l-2.22,15.95c-1,6.87,5,10.35,11.41,10.35,4.79,0,9.94-1.87,12.52-5.7l-1.57-.86c-2.32,3-6.66,4.59-10.65,4.59-5.4,0-10.5-2.77-9.74-8.38l2.22-15.95c.76-5.6,6.71-8.38,12.11-8.38,4,0,7.88,1.56,9.29,4.59l1.87-.91c-1.51-3.88-6-5.65-10.75-5.65"/><path class="b" d="M232,1.39c-6.71,0-14.38,3.35-15.4,10.71l-2.22,15.8a8.38,8.38,0,0,0,1.9,6.86c2.18,2.5,6.13,4,10.57,4,6.94,0,14.47-3.7,15.45-10.76l2.22-15.81a8.31,8.31,0,0,0-1.88-6.8c-2.18-2.5-6.16-4-10.64-4m9.94,10.71-2.22,15.8c-.8,5.68-7.1,8.26-12.62,8.26-3.77,0-7-1.19-8.78-3.18A6,6,0,0,1,217,28l2.22-15.81c.82-6,7.26-8.22,12.51-8.26,4,0,7.21,1.13,8.92,3.11a6.08,6.08,0,0,1,1.32,5.07"/><path class="c" d="M304.69,1.58h2l-5.17,37h-3.21l4.46-31.81L287.37,33.14h-2.93L276.38,6.52l-4.48,32h-3.21l5.17-37h4.43l8.15,27.15L302.26,1.58h2.43M384.42,5.4h11.89l-4.74,33.77H396L400.77,5.4H412.7L413.27,1H385Zm165.93-5-4.07,28.82L532.42.35h-5.24l-5.52,39.43h5.7l4-28.25,13.56,28.25h5.65L556,.35ZM359.53,5a8.92,8.92,0,0,1,2,7.29l-2.22,15.8c-1,7.42-8.85,11.3-16.06,11.3-4.69,0-8.71-1.53-11-4.2a9,9,0,0,1-2-7.35L332.42,12c1.07-7.72,9-11.24,16-11.24,4.73,0,8.77,1.53,11.1,4.21m-3,2.46c-1.59-1.84-4.68-2.9-8.45-2.9-5,0-11.14,2.1-11.91,7.73L334,28.07a5.4,5.4,0,0,0,1.22,4.51c1.61,1.86,4.72,3,8.31,3,5.26,0,11.26-2.42,12-7.73L357.76,12a5.48,5.48,0,0,0-1.18-4.58m141.5-3a9.65,9.65,0,0,1,2.21,7.9l-2.22,15.81c-1.08,7.84-9.28,12-16.82,12-4.91,0-9.14-1.63-11.61-4.47a9.74,9.74,0,0,1-2.23-8l2.22-15.8C470.76,3.73,479.11,0,486.4,0c4.95,0,9.21,1.63,11.68,4.47M494,7.93c-1.43-1.64-4.37-2.63-7.87-2.63-4.71,0-10.44,1.92-11.15,7.07l-2.22,15.81a4.64,4.64,0,0,0,1,3.89c1.47,1.69,4.36,2.7,7.73,2.7,4.93,0,10.56-2.21,11.25-7.07L495,11.91a4.73,4.73,0,0,0-1-4m-58.8,31.54h5.08L445.68.71h-5.07Z"/><line class="c" x1="163" y1="57.73" x2="556" y2="57.73"/><line class="d" x1="163" y1="57.73" x2="556" y2="57.73"/><path class="c" d="M96.14,2.85V18.74h11.17L94.84,65.14,79.36,2.85H63.23L46.49,65.14,35,18.74H46.64V2.85H0V18.74H10.33l18.05,72.2h25l12-45.43L76.73,90.94h25l19-72.2H131V2.85H96.14"/><polyline class="b" points="205.98 82.76 199.23 70.43 201.63 70.43 206.23 78.98 206.96 80.63 207.18 80.63 207.91 78.98 212.5 70.43 214.91 70.43 208.21 82.68 208.21 88.93 205.98 88.93 205.98 82.76"/><path class="b" d="M223.87,89.18a5.89,5.89,0,0,1-4.65-1.8,7.58,7.58,0,0,1-1.6-5.2,7.57,7.57,0,0,1,1.6-5.21,6.94,6.94,0,0,1,9.3,0,7.57,7.57,0,0,1,1.6,5.21,7.57,7.57,0,0,1-1.6,5.21,5.91,5.91,0,0,1-4.65,1.79m0-1.8a3.63,3.63,0,0,0,3.06-1.24,6.48,6.48,0,0,0,1-4,6.48,6.48,0,0,0-1-4,4.39,4.39,0,0,0-6.11,0,6.42,6.42,0,0,0-1,4,6.42,6.42,0,0,0,1,4A3.64,3.64,0,0,0,223.87,87.38Z"/><path class="b" d="M239.7,89.18q-3.42,0-3.43-3.7v-10h2.2v9.35a3.1,3.1,0,0,0,.47,1.94,2,2,0,0,0,1.6.59A6.63,6.63,0,0,0,243,86.8q1.28-.51,2.48-1.11V75.43h2.2v13.5h-1.82l-.15-1.65h-.1l-1.8.86a14.23,14.23,0,0,1-1.44.59,8.79,8.79,0,0,1-1.3.34,8.08,8.08,0,0,1-1.39.11"/><path class="b" d="M254.59,75.43h1.83l.15,1.85h.1q1.4-.78,2.57-1.33a9.55,9.55,0,0,1,2.23-.75h.7v2.08h-.77a10.75,10.75,0,0,0-2.31.59,19.65,19.65,0,0,0-2.29,1V88.93h-2.2V75.43"/><rect class="b" x="278.94" y="70.43" width="2.22" height="18.5"/><path class="b" d="M288.29,75.43h1.82l.15,1.57h.13q1-.47,1.81-.82t1.5-.58a8.72,8.72,0,0,1,1.29-.32,7.11,7.11,0,0,1,1.18-.1,3.57,3.57,0,0,1,2.64.91,3.79,3.79,0,0,1,.91,2.79V88.93h-2.2V79.61a3,3,0,0,0-.53-2,2.1,2.1,0,0,0-1.65-.59,7.49,7.49,0,0,0-2.21.4,19.2,19.2,0,0,0-2.64,1.07V88.93h-2.2V75.43"/><path class="b" d="M306.55,75.43h1.82l.15,1.57h.13q1-.47,1.81-.82t1.5-.58a8.75,8.75,0,0,1,1.29-.32,7.13,7.13,0,0,1,1.18-.1,3.57,3.57,0,0,1,2.64.91,3.79,3.79,0,0,1,.91,2.79V88.93h-2.2V79.61a3,3,0,0,0-.52-2A2.1,2.1,0,0,0,313.6,77a7.49,7.49,0,0,0-2.21.4,19.16,19.16,0,0,0-2.64,1.07V88.93h-2.2V75.43"/><path class="b" d="M330.43,89.18a5.89,5.89,0,0,1-4.65-1.8,7.58,7.58,0,0,1-1.6-5.2,7.57,7.57,0,0,1,1.6-5.21,6.94,6.94,0,0,1,9.3,0,7.57,7.57,0,0,1,1.6,5.21,7.57,7.57,0,0,1-1.6,5.21,5.91,5.91,0,0,1-4.65,1.79m0-1.8a3.63,3.63,0,0,0,3.06-1.24,6.47,6.47,0,0,0,1-4,6.48,6.48,0,0,0-1-4,4.39,4.39,0,0,0-6.11,0,6.42,6.42,0,0,0-1,4,6.42,6.42,0,0,0,1,4A3.64,3.64,0,0,0,330.43,87.38Z"/><polyline class="b" points="341.18 75.73 341.18 75.43 343.46 75.43 346.96 85.13 347.56 87.18 347.81 87.18 348.41 85.13 351.93 75.43 354.18 75.43 354.18 75.73 349.08 88.93 346.23 88.93 341.18 75.73"/><path class="b" d="M362.51,89.06a3.64,3.64,0,0,1-2.67-.91,3.54,3.54,0,0,1-.93-2.64,3.66,3.66,0,0,1,1.23-3,6.91,6.91,0,0,1,3.92-1.23l3.23-.25v-1a5.64,5.64,0,0,0-.16-1.46,2,2,0,0,0-.55-1,2.19,2.19,0,0,0-1-.51,7.32,7.32,0,0,0-1.62-.15c-.57,0-1.18,0-1.84.1s-1.37.18-2.14.33l-.17-1.68q1.32-.25,2.41-.36a21.55,21.55,0,0,1,2.19-.11,5.84,5.84,0,0,1,3.88,1.07,4.18,4.18,0,0,1,1.25,3.35v9.22h-1.82l-.23-1.7h-.15a11.69,11.69,0,0,1-2.4,1.35,6.29,6.29,0,0,1-2.37.47m.8-1.7a5.12,5.12,0,0,0,1.94-.43,12.2,12.2,0,0,0,2-1.07v-3.4l-2.62.23a5.59,5.59,0,0,0-2.74.76,2.2,2.2,0,0,0-.79,1.89Q361.14,87.36,363.31,87.36Z"/><path class="b" d="M381.54,89.16a4,4,0,0,1-2.91-1,3.83,3.83,0,0,1-1-2.85v-8h-2.8V75.43h2.92l.33-3.37,1.72-.23v3.6h4v1.92h-4v7.52a2.67,2.67,0,0,0,.56,1.88,2.31,2.31,0,0,0,1.76.6,6,6,0,0,0,.82-.06,6.29,6.29,0,0,0,1-.21v1.75a10.68,10.68,0,0,1-1.2.24,8.54,8.54,0,0,1-1.2.09"/><path class="b" d="M390.66,72.63a1.34,1.34,0,1,1,0-2.67q1.4,0,1.4,1.35t-1.4,1.32m-1.07,2.8h2.17v13.5h-2.17Z"/><path class="b" d="M404.2,89.18a5.89,5.89,0,0,1-4.65-1.8,7.58,7.58,0,0,1-1.6-5.2,7.57,7.57,0,0,1,1.6-5.21,6.94,6.94,0,0,1,9.3,0,7.58,7.58,0,0,1,1.6,5.21,7.58,7.58,0,0,1-1.6,5.21,5.92,5.92,0,0,1-4.65,1.79m0-1.8a3.64,3.64,0,0,0,3.06-1.24,6.49,6.49,0,0,0,1-4,6.5,6.5,0,0,0-1-4,4.39,4.39,0,0,0-6.11,0,6.42,6.42,0,0,0-1,4,6.42,6.42,0,0,0,1,4A3.64,3.64,0,0,0,404.2,87.38Z"/><path class="b" d="M416.69,75.43h1.83l.15,1.57h.13q1-.47,1.81-.82t1.5-.58a8.79,8.79,0,0,1,1.29-.32,7.12,7.12,0,0,1,1.17-.1,3.56,3.56,0,0,1,2.64.91,3.79,3.79,0,0,1,.91,2.79V88.93h-2.2V79.61a3,3,0,0,0-.52-2,2.1,2.1,0,0,0-1.65-.59,7.48,7.48,0,0,0-2.21.4,19.21,19.21,0,0,0-2.64,1.07V88.93h-2.2V75.43"/><path class="b" d="M446.39,70.56a30.3,30.3,0,0,1,4.63-.37q4.38,0,6.4,1.54a5.71,5.71,0,0,1,2,4.86,5.77,5.77,0,0,1-2,4.89q-2,1.54-6.3,1.54L450,83l-1.34-.07v6h-2.23V70.56m5,10.63a11.92,11.92,0,0,0,2.64-.25,4.35,4.35,0,0,0,1.78-.8,3.13,3.13,0,0,0,1-1.42,6.33,6.33,0,0,0,.31-2.12,5.86,5.86,0,0,0-.32-2.06,3.23,3.23,0,0,0-1-1.41A4.49,4.49,0,0,0,454,72.3a11.57,11.57,0,0,0-2.65-.26c-.45,0-.93,0-1.44.06s-1,.09-1.34.14V81a4.15,4.15,0,0,0,.54.09l.73.06.79.05Z"/><path class="b" d="M468,89.06a3.65,3.65,0,0,1-2.68-.91,3.54,3.54,0,0,1-.93-2.64,3.65,3.65,0,0,1,1.23-3,6.91,6.91,0,0,1,3.92-1.23l3.22-.25v-1a5.51,5.51,0,0,0-.16-1.46,2,2,0,0,0-.55-1,2.21,2.21,0,0,0-1-.51A7.31,7.31,0,0,0,469.4,77q-.85,0-1.84.1c-.66.07-1.37.18-2.14.33l-.17-1.68q1.32-.25,2.41-.36a21.51,21.51,0,0,1,2.19-.11,5.85,5.85,0,0,1,3.88,1.07A4.19,4.19,0,0,1,475,79.71v9.22h-1.83l-.22-1.7h-.15a11.68,11.68,0,0,1-2.4,1.35,6.29,6.29,0,0,1-2.37.47m.8-1.7a5.12,5.12,0,0,0,1.94-.43,12.16,12.16,0,0,0,2-1.07v-3.4l-2.62.23a5.6,5.6,0,0,0-2.74.76,2.2,2.2,0,0,0-.79,1.89Q466.63,87.36,468.8,87.36Z"/><path class="b" d="M481.79,75.43h1.82l.15,1.85h.1q1.4-.78,2.57-1.33a9.51,9.51,0,0,1,2.23-.75h.7v2.08h-.77a10.75,10.75,0,0,0-2.31.59,19.73,19.73,0,0,0-2.29,1V88.93h-2.2V75.43"/><path class="b" d="M500.86,89.16a4,4,0,0,1-2.91-1,3.83,3.83,0,0,1-1-2.85v-8h-2.8V75.43h2.93l.32-3.37,1.73-.23v3.6h4v1.92h-4v7.52a2.67,2.67,0,0,0,.56,1.88,2.31,2.31,0,0,0,1.76.6,6,6,0,0,0,.83-.06,6.35,6.35,0,0,0,.95-.21v1.75a10.69,10.69,0,0,1-1.2.24,8.59,8.59,0,0,1-1.2.09"/><path class="b" d="M508.89,75.43h1.82l.15,1.57H511q1-.47,1.81-.82t1.5-.58a8.69,8.69,0,0,1,1.29-.32,7.1,7.1,0,0,1,1.18-.1,3.57,3.57,0,0,1,2.64.91,3.79,3.79,0,0,1,.91,2.79V88.93h-2.2V79.61a3,3,0,0,0-.52-2,2.1,2.1,0,0,0-1.65-.59,7.49,7.49,0,0,0-2.21.4,19.1,19.1,0,0,0-2.64,1.07V88.93h-2.2V75.43"/><path class="b" d="M532.77,89.16a6,6,0,0,1-4.67-1.71,7.28,7.28,0,0,1-1.58-5.09A8,8,0,0,1,528.09,77a5.62,5.62,0,0,1,4.54-1.84q5.17,0,5.17,6a6.71,6.71,0,0,1-.17,1.75h-8.9a5,5,0,0,0,1.16,3.38,4.33,4.33,0,0,0,3.16,1,12.58,12.58,0,0,0,2-.17,13.46,13.46,0,0,0,2.13-.53l.13,1.68a12.4,12.4,0,0,1-2.21.59,13.59,13.59,0,0,1-2.34.21m-.2-12.25q-3.6,0-3.85,4.52h7a6,6,0,0,0-.78-3.49A2.83,2.83,0,0,0,532.57,76.91Z"/><path class="b" d="M544,75.43h1.82l.15,1.85h.1q1.4-.78,2.58-1.33a9.55,9.55,0,0,1,2.22-.75h.7v2.08h-.77a10.75,10.75,0,0,0-2.31.59,19.76,19.76,0,0,0-2.29,1V88.93H544V75.43"/></svg>