<?xml version="1.0" encoding="utf-8"?>
<!-- Generator: Adobe Illustrator 21.0.0, SVG Export Plug-In . SVG Version: 6.00 Build 0)  -->
<svg version="1.1" id="Layer_1" xmlns="http://www.w3.org/2000/svg" xmlns:xlink="http://www.w3.org/1999/xlink" x="0px" y="0px"
	 viewBox="0 0 525.1 514" style="enable-background:new 0 0 525.1 514;" xml:space="preserve">
<style type="text/css">
	.st0{fill:#0075C9;}
	.st1{fill:#6A6662;}
	.st2{fill:none;}
</style>
<path class="st0" d="M525,28.5C525,12.7,512.3,0,496.6,0h-468C12.8,0,0,12.8,0,28.5v457C0,501.3,12.8,514,28.6,514h468
	c15.7,0,28.5-12.8,28.5-28.5L525,28.5L525,28.5z M251,355.8c18.8,0,38.2-6.8,45-9.2c3-1.2,4.5,1.8,4.5,1.8
	c13,27.7,30.3,40.5,34.4,46c2,3-2,5-2,5c-21,12.7-54.3,19.7-81.8,20c-96.2,0.6-171-74.6-171-163.2c0-96.7,76-167.2,167.8-164
	c37.5,0,72.5,13.3,97,29c6.3,4.2,6.2,6.2,4.8,8c-5.4,7.6-20,29.4-27.5,44.6c0,0-2,4-6,1.4c-15.7-10.3-37-20.3-72-20.3
	c-54.3,0-95.6,42.5-95.6,100.2S196.7,355.8,251,355.8z M396.8,360.8c-25.8,0-46.7-21-46.7-46.7c0-25.8,21-46.6,46.8-46.6
	c25.7,0,46.6,20.8,46.6,46.6c0,25.7-21,46.6-46.6,46.6L396.8,360.8z"/>
<path class="st1" d="M2170,346.8c0,16.2-12.6,29-29.3,29c-16.4,0-29.5-12.8-29.5-29c0-16,13-28.7,29.5-28.7
	C2157.4,318.1,2170.1,330.8,2170,346.8L2170,346.8z M2118.5,346.8c0,12.7,9.5,23,22.4,23c12.5,0,21.8-10.3,21.8-23
	c0-12.6-9.3-23-22-23c-12.8,0-22.3,10.4-22.3,23H2118.5z M2136.2,361.8h-6.7v-28.7c2.7-0.5,6.3-1,11-1c5.5,0,8,1,10,2.2
	c1.6,1.3,2.8,3.5,2.8,6.3c0,3.2-2.4,5.6-6,6.7v0.3c3,1,4.5,3.2,5.3,7c1,4.4,1.4,6.2,2,7.2h-7c-1-1-1.4-3.7-2.3-7
	c-0.5-3-2.3-4.5-6-4.5h-3v11.5H2136.2z M2136.4,345.5h3c3.8,0,6.8-1.2,6.8-4.2c0-2.6-2-4.3-6.2-4.3c-1.7,0-3,0-3.6,0.3V345.5z"/>
<path class="st2" d="M249,92.5c37.5,0,72.5,13.3,97,29c6.4,4.2,6.3,6.2,5,8c-5.5,7.7-20.2,29.5-27.7,44.8c0,0-2,4-6,1.3
	c-15.7-10.3-37-20.4-72.2-20.4c-54.2,0-95.6,42.5-95.6,100.4c0,57.8,48.3,101,102.6,100.8c18.7,0,38.2-6.7,45-9
	c3-1.3,4.5,1.7,4.5,1.7c13,27.8,30.4,40.6,34.4,46.2c2,2.8-2,4.8-2,4.8c-21,12.8-54.4,19.8-82,20c-96.2,0.7-171-74.6-171-163.3
	C81,159.8,157.2,89.3,249,92.5 M444.6,314.8c0,25.7-21,46.6-46.7,46.6c-26,0-46.8-21-46.8-46.7c0-25.8,21-46.7,46.7-46.7
	s46.6,21,46.6,46.6"/>
<path class="st2" d="M249,92.5c37.5,0,72.5,13.3,97,29c6.4,4.2,6.3,6.2,5,8c-5.5,7.7-20.2,29.5-27.7,44.8c0,0-2,4-6,1.3
	c-15.7-10.3-37-20.4-72.2-20.4c-54.2,0-95.6,42.5-95.6,100.4c0,57.8,48.3,101,102.6,100.8c18.7,0,38.2-6.7,45-9
	c3-1.3,4.5,1.7,4.5,1.7c13,27.8,30.4,40.6,34.4,46.2c2,2.8-2,4.8-2,4.8c-21,12.8-54.4,19.8-82,20c-96.2,0.7-171-74.6-171-163.3
	C81,159.8,157.2,89.3,249,92.5 M444.6,314.8c0,25.7-21,46.6-46.7,46.6c-26,0-46.8-21-46.8-46.7c0-25.8,21-46.7,46.7-46.7
	s46.6,21,46.6,46.6"/>
</svg>
