<?xml version="1.0" encoding="utf-8"?>
<!-- Generator: Adobe Illustrator 21.1.0, SVG Export Plug-In . SVG Version: 6.00 Build 0)  -->
<svg version="1.1" id="Layer_1" xmlns="http://www.w3.org/2000/svg" xmlns:xlink="http://www.w3.org/1999/xlink" x="0px" y="0px"
	 viewBox="0 0 759.9 450.6" enable-background="new 0 0 759.9 450.6" xml:space="preserve">
<path d="M189,429.5c-23.6,0-38.9-17.6-38.9-43.5c0-26.1,15.5-43.8,39.1-43.8c10,0,17.4,2.6,23.9,7l-1.7,11.7
	c-6.1-4.6-13.3-8.2-22.3-8.2c-17.1,0-27.2,12.9-27.2,33.2c0,20.2,10.2,33,27.2,33c9,0,17-3.5,23.7-8.4l1.7,10.9
	C208.1,426.1,198.7,429.5,189,429.5 M250,429.2c15.6,0,27.1-11.1,27.1-30.2c0-19.1-11.5-30.3-27.1-30.3c-15.5,0-26.7,11.2-26.7,30.3
	C223.3,418.1,234.5,429.2,250,429.2 M250,377.7c10.5,0,16.1,9.3,16.1,21.2c0,12.2-5.4,21.2-16.1,21.2c-10.2,0-15.7-9.3-15.7-21.2
	C234.3,386.7,239.5,377.7,250,377.7 M371.1,428v-42.3c0-10.5-5.4-17.1-16.4-17.1c-8.2,0-15.3,4.6-20.5,9.6c-2.2-6-6.8-9.6-15.4-9.6
	c-8.2,0-14.8,4.6-20.2,9.6l-1.3-8.4h-8.7V428h10.9v-40.2c5.2-5.6,10.7-9.4,16.4-9.4c6.3,0,8.5,4,8.5,10V428h10.8v-40.2
	c5.2-5.6,10.7-9.4,16.5-9.4c6.3,0,8.5,4,8.5,10V428H371.1z M411,428.7c14.1,0,26.3-10.2,26.3-31.5c0-19.4-10.4-28.6-22.9-28.6
	c-8.5,0-14.5,4.5-18.9,9.6l-1.3-8.4h-8.6v80.8l10.8-1.6v-22.9C400,427.6,405.3,428.7,411,428.7 M412.7,378.2
	c7.9,0,13.7,6.8,13.7,19.5c0,14.4-6.7,21.8-15.8,21.8c-6.2,0-9.8-1-14.1-3.2v-27.9C401,382.2,406.1,378.2,412.7,378.2 M492.4,428
	v-40.7c0-12.9-6.8-18.6-21-18.6c-9,0-15.6,2.1-22.5,4.9l1.5,9.4c6.3-2.8,13-5,20.1-5c6.7,0,11.1,2.6,11.1,9.9v2.4
	c-24.3,2.6-36.7,8.3-36.7,22.8c0,9.9,6.6,16.2,17.1,16.2c9.5,0,15.8-4.3,20.5-9l1.2,7.8H492.4z M481.6,412c-4.9,5-11,8.2-17.3,8.2
	c-5.5,0-8.7-3-8.7-7.8c0-6,4.5-11.8,26-13.9V412z M554.2,428v-42.3c0-10.5-5.9-17.1-16.8-17.1c-8.3,0-15.1,4.6-20.6,9.6l-1.3-8.4
	h-8.7V428h10.9v-40.2c5.2-5.6,11.1-9.4,16.8-9.4c6.3,0,8.9,4,8.9,10V428H554.2z M614.3,369.8h-11.1l-15.5,45.5l-15.9-46.3l-10.7,1.7
	l21.2,57.5l-2.2,6c-1.7,4.6-4.8,6.8-9.3,6.8c-2.1,0-4.3-0.4-6.1-0.8l1.5,9.5c1.1,0.2,2.3,0.5,3.8,0.5c9.6,0,15.9-3.5,20.8-17.1
	L614.3,369.8z M352.8,14.4L351,3.9h-64.1v10.5h26.8V88h11.5V14.4H352.8z M409.8,88V45.7c0-10.5-5.9-17.1-16.8-17.1
	c-8.3,0-15,4.6-19.8,8.9V0l-10.8,1.7V88h10.8V47.8c5.2-5.6,11.1-9.4,16.8-9.4c6.3,0,8.9,4,8.9,10V88H409.8z M448,89.2
	c9.6,0,17.1-2.9,23.3-7.8l-1.6-9.8c-6.3,5-12.4,8.3-20.8,8.3c-10.1,0-16.6-6.3-16.9-19.9h39.5v-2.3c0-16.1-7.8-29.1-24.7-29.1
	C432,28.7,421,40.1,421,58.8C421,80.1,432.8,89.2,448,89.2 M432.4,51.9c1.7-9.9,7.4-14.8,14.1-14.8c8.4,0,12.6,5.4,13.9,14.8H432.4
	 M469.8,185.7c0,0-0.4-0.8-0.7-1.5c-1.8-4.5,2.2-9.5,5.8-12.5c2.2-1.9,6.6-4.8,9.5-5.4c1.3-0.2,3.5-0.5,3.5-0.5s-1.4,1.2-2.6,2.2
	c-3.9,3.4-9.2,8.8-12,12.7C471.7,182.9,469.8,185.7,469.8,185.7 M489.8,191.1c-2.2,0.1-8.1,0.2-8.3-0.4c0-0.2,0.3-0.7,0.8-1.3
	c0.8-1,1.8-2.5,2.8-3.8c4.3-5.6,12.2-12.5,17.8-15.7c1.9-1.1,2.8-1.5,4.8-2c2.8-0.8,3.9-1,6.1,0c1.7,0.7,3,2.2,3.2,4.3
	c0.7,6.2-6.4,11.6-11.3,14.3C500.8,189,495.5,190.7,489.8,191.1 M475.3,201.7c0.1-0.1,0.5,0.1,0.8,0.4c0.3,0.2,2.7,0.8,3.4,0.9
	c1.3,0.1,2.7,0.5,4,0.6c4.3,0.4,10.3-1,14.1-2.5c8.7-3.4,15.4-8.3,22.2-15.3c4-4.1,7.5-10.7,6.2-16.8c-0.6-3-2-5.1-4.5-7.2
	c-1.2-1.1-4.3-2.7-6.5-3.1c-0.6-0.1-1.4-0.2-1.7-0.4c-0.3-0.2-0.6-0.7-0.9-1.1c-1.5-1.9-4.5-3.8-6.7-4.5c-6.7-2.3-15.6-0.6-21.6,2
	c-6.4,2.7-12.4,6.7-16.9,11.5c-4.5,4.8-7.9,10.8-7.6,17.4c0.1,2.1,1,5.3,2,7.2c0.9,1.6,2.6,3.3,2.9,4.9c0.2,1,0,2.3,0.1,3.4
	c0.1,2.7,1.2,5.4,3.2,7.2c1.4,1.3,2.7,1.2,4.2,0.1c0.4-0.3,1.1-1,1.4-1.6C474.1,203.8,474.7,202.3,475.3,201.7 M267.8,219.6
	c-0.2,0-0.2-0.1-0.2-0.3c1.3-3.7,4-6.5,7.8-6.8c1.1-0.1,3,0.3,3.6,1.4c0.9,1.8-0.9,3.3-2.5,4C273.7,219.2,271.4,219.3,267.8,219.6
	 M283.6,210.2c-2-2.3-3.5-2.9-4-3.2c-2.1-1.2-6.2-1.6-8.4-1.1c-4.8,1-9.6,4.3-12.9,7.8c-0.4,0.5-0.8,0.9-1.2,1.5
	c-0.7,1.1-1.7,2.9-1.9,3c-0.8,0.4-6.2-1.3-6.7-1.4c-3.4-1-11.8-4.3-14.3-7.3c-0.4-0.5-0.9-1.4-1.1-1.9c-0.5-1.6-0.1-4.5-1.9-4.7
	c-1.3-0.1-3.1,3.8-3.5,4.8c-1.3,3.7-1.3,6.7,0.3,10.1c0.3,0.6,2.2,3.4,2.7,4.1c1.9,2.1,3.7,3.5,6.4,5.2c1.3,0.8,4.4,2.4,5.3,2.8
	c2.4,0.9,5.1,1.9,5.2,2.1c0.1,0.2-1,3.5-1.6,5.1c-1.2,3.2-3,11.9-3.7,15.8c-1.7,9.5-3.6,28.7,2.2,38.1c2.5,4,7.4,9.1,12.4,7.7
	c1.7-0.4,2.7-1.6,3.1-3.4c0.1-0.6,0.1-1.6,0-2.5c-1.2-14.4-1.6-21.7-0.4-36.4c0.2-2.5,0.5-5.1,0.8-7.4c0.4-3,1-5.7,1.5-9.4
	c0.1-1.1,0.9-4.2,1-4.2c0.1,0,0.3,0.1,0.5,0.1c1.1,0.3,5.6,0.2,6.4,0.2c5.5-0.4,10.9-2.6,14.2-7.1c1.9-2.6,3-5.9,2.8-9.3
	C286.7,216,285.7,212.9,283.6,210.2 M232.8,251.9c-2.1-0.2-4.5,0.6-6.4,1.3c-5.1,1.9-14.3,6.1-15,6.2c-1.4,0.1-1.8-0.8-2-2.7
	c-0.5-3.6,0.9-10.6,1.5-13.9c0.5-3.1,2.9-13.9,4.6-20.8c0.9-3.9,2.1-8.8,1.7-12.5c-0.3-2.9-1.8-6.7-5-5.6c-3.3,1.2-6.8,8.3-7.6,9.9
	c-5.4,11.5-9.7,31.7-9.1,45.4c0.2,4.8,1.4,9.9,4.2,14c3,4.6,8,6.1,13.6,5c3.6-0.7,8.7-3,11.1-4.7c4.1-2.8,9.3-8.4,10.9-13.9
	c0.6-2.1,0.6-6.5-1.9-7.5C233.2,252,233,252,232.8,251.9 M164.3,245.6c0,0,0-0.4,0-0.8c0-0.5,0.3-1.1,0.5-1.5c0.9-1.8,1.5-4,2.7-7
	c1.6-3.7,4.4-9.2,4.4-9.2s0.1,0.2,0.2,0.4c0.6,0.8,1.1,3,1.3,3.8c0.5,1.7,0.8,3.1,1.1,5.2c0.5,3.3,1.2,8.4,1.2,8.4s-5.8,0.6-9.2,0.7
	C165.4,245.6,164.3,245.6,164.3,245.6 M145.8,246.2l-6.1,0.3c-0.3,0-0.4,0-0.5,0.2c-0.5,0.4-0.9,1.5-0.8,1.9
	c0.1,0.4,0.4,0.9,0.7,1.4c2.5,4,4,5,2.9,8.1c-2.5,7.3-5,12.2-4.1,18.4c0.5,3.6,1.9,7.1,4.9,8.7c1.6,0.9,3.1,0.7,5.4,0.4
	c2-0.3,2.7-1.5,3.6-3.5c0.4-1,2.1-7.3,3-10.4c0.4-1.6,1.4-4.4,2.6-7.2c0.5-1.3,1.2-2.9,1.2-2.9l6.7-0.1l12.1-0.5
	c0,0,0.7,8.1,1.2,10.9c0.6,3.2,2.4,5.9,5.2,8.5c1,1,3.3,2.5,4.4,2.6c0.8,0,1.7-0.5,2.1-1.2c1.2-1.8,1.3-5.3,1.2-7.4
	c-0.1-3-0.9-16.6-1.2-19.2c-1.1-9.9-4.3-29.2-7.3-39.4c-0.5-1.9-3.1-9.6-4.6-12.3c-0.8-1.4-2.6-2.7-4.3-2.6
	c-1.6,0.1-3.2,0.5-3.8,1.5c-0.8,1.3-1,2.9-1.2,3.8c0,0.2-6,8.4-9.2,12.8c-2.8,3.9-9.7,17.7-11,20.6
	C147.5,242.5,145.8,246.2,145.8,246.2 M76.9,206.4c0,0,0.1,0,0.1,0c0.1,0,0,5-0.1,5.7c-1.1,6-0.8,8-2.6,13.4
	c-0.8,2.3-1.7,5.3-2.4,7.2c-0.3,1-2.3,5.3-2.6,5.7c-0.2,0.4-1.5,2.6-1.9,3.5c-0.2,0.4-3,4.6-3.6,5.2c-1.3,1.5-3.2,3.5-3.2,3.5
	s-0.4-2.2-0.6-3.8c-1.2-8.9-0.1-22,1.1-29.7c0.7-4.7,1.3-7.3,2.6-11.4c0.9-2.9,2.5-7.5,4-10c1.2-1.8,2.2-3.1,4.1-2.8
	c1.5,0.2,2.3,1.2,3.2,2.7c0.9,1.4,1.3,2.8,1.5,4.6C76.7,202.5,76.9,206.4,76.9,206.4 M63.7,263.5c0,0,6.8-5.1,10.3-8
	c9.8-8.4,16.6-20.6,18.6-33.8c1.3-8.7,1.1-21.8-3.8-30.2c-2.8-4.8-8.2-7.1-13.5-6.9c-6.3,0.2-13.5,3.5-18,7.4
	c-4.7,4-8.4,8.8-11.2,13.7c-3.5,6.1-5.2,12.1-6.1,19.8c-1.1,9.4,0.1,23.1,3,31.7c1,3.1,2.6,7.2,2.6,7.2s-2.1,0.9-3.5,1.5
	c-5.5,2.2-9.8,2.4-14.4-0.9c-4.3-3.1-7.3-9.7-8.4-14.6c-0.9-3.6-1.4-9.2-1.6-13c-0.7-18.7,6.3-42.8,15.1-58.1
	c0.9-1.6,7.9-12,9.4-14.1c1.4-1.9,8.3-10.4,9.5-11.7c1.4-1.5,3.9-4,4.9-5.8c0.6-1.2,0.7-1.9-0.2-2.8c-1.6-1.7-4.4-0.8-6.5,0.2
	c-1.2,0.5-6.8,3.9-7.9,4.6c-9.3,6.6-17.1,15.9-23.1,25.3C9.4,189.8,3,206.6,0.8,224.4C-0.6,234.8-0.3,245,3,254.8
	c2.2,6.6,7.3,13.9,13.2,17.8c8.2,5.3,18.2,6.1,27.1,2.8c1.4-0.5,3.9-1.7,4.5-2.1c0.7-0.5,1.3-0.9,1.5-0.9c0.1,0,1.3,2.1,2.3,3.8
	c1.5,2.7,5.2,6.5,7.4,8.2c5.7,4.7,11.6,7,18.7,7.9c13,1.6,24.8-4.2,35.8-13c2.2-1.8,6.9-5.8,8.8-7.8c0.7-0.7,6.2-8.2,7.1-9.6
	c3.8-5.9,7.4-13,9.8-19.9c5.4-15.6,6.7-33.3,4.7-48.9c-1.6-12.2-4.6-21.9-10.5-33c-1-1.8-6.2-10.4-7.5-12.4
	c-5.2-7.6-10.9-12.9-19.6-18.2c-1.8-1.1-5.4-3-7-2.1c-1.5,0.9-1.3,2-0.3,3.4c1,1.3,4.4,4.5,6.6,6.8c7.5,7.9,13.5,21,16.7,31.6
	c5.3,18.1,5.1,37.9,0.7,56.6c-3.8,16-10.8,32.6-24.1,41.9c-4.7,3.2-12.8,6.9-19.2,6.6c-6.2-0.3-11.3-3.4-14.5-8.7
	C64.4,264.8,63.7,263.5,63.7,263.5 M483.1,215.1c-1.9-0.4-3,2.3-3.5,3.6c-1.5,3.9-2.6,13.1-2.9,16c-0.9,8.7-1.6,29.4-0.1,40
	c0.7,4.4,2.1,7.3,6.6,8.2c1.8,0.4,5.1,0.3,6.6-0.6c1.3-0.8,2.1-2.3,2.4-3.6c0.8-3.7,0.5-8.9,0.3-12.8c-0.2-4.6-0.3-9.2-0.5-13.9
	c-0.3-6.2-1-22.2-2.8-29.4c-0.7-3.1-2-5.9-5-7.1C483.8,215.3,483.3,215.2,483.1,215.1 M345.5,230.9c0,0-0.1,6.7-0.2,13.3
	c-0.1,12.7,0.3,25.6,0.3,25.6s-4.5-1.6-7.2-2.8c-8-3.3-18.8-10.2-24.1-14.6c-1.3-1.1-5.8-5.4-6.6-6.4c-1.4-1.6-2.6-3.2-2.3-5.2
	c0.3-1.9,4.2-3.5,6-4.2c6.3-2.2,17.1-4.1,22.9-4.7C338.9,231.4,345.5,230.9,345.5,230.9 M466.7,236.1c0.1-1.5-0.7-5.2-0.8-5.9
	c-0.1-0.1-0.5-1.9-0.8-3.2c-0.3-1.3-2-5.6-2.5-6.4c-1.2-2.1-1.9-4-2.8-5.8c-3.9-7.7-11.8-17.4-18.2-23.8c-3.3-3.3-7.9-7.4-11.4-10.2
	c-1.7-1.4-12.5-9.3-14.3-10.5c-5.8-3.8-16.2-9.7-22.8-12.9c-9.2-4.4-21.8-9.3-31.3-12.2c-16.8-5.1-33.1-8.1-50.5-7.5
	c-7.6,0.3-17.9,1.9-26,4.1c-5.7,1.6-9.6,4-12.3,8.8c-1.3,2.4-2.6,5-1.9,7.6c0.6,2.2,3.8,3,6.4,3.4c2.5,0.4,8.1,0.7,9.6-1.1
	c0.6-0.8,0.6-1.5,0-2.5c-0.6-1-2-1.7-3.3-2c-1.5-0.3-4.4-0.5-5.1-0.8c-0.4-0.2-0.8-0.4-0.8-0.4s0.2-0.2,0.3-0.3
	c0.3-0.2,1.4-0.7,2.1-0.9c0.9-0.2,1.8-0.5,2.8-0.8c6.6-1.8,19.6-2.1,25.6-1.9c23.2,0.9,44.8,6,66.6,15c21.4,8.8,45.7,23.8,59.9,42
	c5.4,6.9,12.1,18.2,12.9,27.8c0.7,8.8-2,17.1-7.4,23.2c-4,4.6-9.4,8-15.2,10.8c-13.3,6.3-29.4,7.6-43.9,7.2c-1.9-0.1-9-0.7-10.7-1
	c-2.9-0.5-6.7-1.2-6.7-1.2l-1-44.8c0,0,4.5,0.1,7.7,0.3c8.1,0.5,24.9,3.3,33.3,6.6c1.8,0.7,3.7,1.8,3.8,3.6c0.1,1.4-1,2.5-2.1,3.6
	c-0.6,0.5-1.2,0.9-1.9,1.3c-1.5,0.8-3.9,2.1-4.1,2.3c-0.4,0.6-0.5,1.5,0.2,2c1.6,1.3,6.9,2,8.3,1.9c4.7-0.3,9.3-3.4,11.8-7.7
	c2.2-3.8,2.4-6.7,1-10.9c-1.5-4.6-6.3-8.9-11.4-11.5c-6.1-3.1-16.9-5.5-22.4-6.3c-4.3-0.7-8.9-1.3-13-1.5
	c-4.3-0.1-11.2,0.1-11.2,0.1s-0.1-6.1-0.4-10.1c-0.4-6.6-2.3-19.7-8.3-23.4c-1.1-0.7-2.5-0.8-3.2,0.2c-1.2,1.5-2.3,7.4-2.6,8.9
	c-0.5,2.8-2,16-2,18.1c0,2-0.2,7.7-0.3,7.8c-0.1,0.1-0.1,0.2-0.2,0.2c-0.2,0.2-4.1,0.8-6.6,1.2c-5.3,0.8-17.9,4.9-22,6.7
	c-5.6,2.4-13.7,6.7-15.9,12.4c-1.6,4.1-1,7.5,1.2,11.3c2.8,4.9,6.4,8.8,10.4,12.6c1.5,1.4,8,6.8,9.5,8c5.5,4.1,11.8,8,18.4,11.3
	c2.1,1.1,4.7,2.3,4.7,2.3s0.5,5.2,1,8.2c0.6,3.7,1.8,6.9,5.3,8.4c2.1,0.9,4.5,0.8,6.8,0.3c1.9-0.4,3.2-1.2,4-2.8
	c0.3-0.6,0.8-2.5,0.9-3.2c0.2-1.6,0.2-3.8,0.2-3.8s5.6,1.3,9.3,2c10.9,2,22.6,2.2,32.9,1c15.1-1.8,32.7-7.4,44.1-17.3
	c3.1-2.6,8.2-8.8,10.4-12.7c1.3-2.3,2.5-4.5,3.7-7.3c0.2-0.6,1.8-5.1,2-7.1C466.2,246.1,467.1,239.5,466.7,236.1 M541.2,239.3
	l-24.4-2.9c-0.3,0-0.4-0.1-0.7-0.1c-1.1-0.2-6-0.8-4.3-2.7c0.5-0.5,2-0.9,2.9-1.2c11.1-3,25.1-2.7,36.7-3.3
	c2.6-0.1,8.5-0.5,11.3-1.4c2.7-0.8,5-2.8,5.6-5.8c0.3-1.6-0.4-2.3-1.9-3.1c-9.6-5.1-25.5-5.1-35.3-3.9c-10.1,1.2-23.7,4.4-29.5,12.7
	c-2.2,3.2-3.5,8.1-2.5,12c0.6,2.2,2.5,4.2,4.5,5.1c2,0.9,4.4,1.4,6.7,1.7c2.2,0.3,11.4,1.1,17.2,1.6c5.6,0.5,16.3,1.6,22.2,4.1
	c0.5,0.2,3,1.3,3.6,2c0.3,0.3,0.6,0.9,0.8,1c0.1,0,0.1,0,0.2,0c0.6,0.2,0.8,1.9,0.8,2.1c0,1.6-1.2,2.8-2.4,3.6
	c-8.6,6.1-20.5,7.9-31.1,7.7c-3.6-0.1-6.6-0.6-10.2-2.2c-1.6-0.7-3.6-2.3-3.3-4c0.6-3.4,4.3-4.2,7.4-3.9c1.7,0.2,4,0.9,5.7,1.6
	c6.8,2.7,9.9,4.9,15.9,4c2.2-0.3,9.9-2,11-5.2c0.3-0.8-0.1-1.6-0.7-2.2c-0.8-0.8-5.5-2.6-6.7-3.1c-4.5-1.6-13.2-3.1-18-3.3
	c-6.3-0.2-14.6,1-18.5,6.3c-2.4,3.4-2.5,7.9-0.5,11.4c2.7,4.8,8.1,8.5,12.6,10.7c7.5,3.6,16.5,5.4,24.8,4.4
	c4.8-0.5,8.9-1.5,13.1-3.5c4.1-2,8.5-5.6,10.5-10c2.7-5.9,2.5-13.7-0.5-19.3c-2-3.7-4.1-5.7-7.8-7.4c-4-1.8-9.2-2.7-14.5-3.4
	C541.6,239.4,541.6,239.4,541.2,239.3 M577.4,282.7c1.8,0.7,3,1,4.5,0.3c2.1-1,2.7-2.9,3.2-5.2c0.8-3.5,1-10.7,1.1-13.6
	c0-0.5,0.4-17.9,1.1-21.6c0.1-0.5,0.3-1.3,0.6-1.2c0.5,0.2,0.8,0.5,1,0.8c1,1.4,7.4,14.2,11.2,20.7c1.1,1.9,7.5,13.1,11.5,15.3
	c3.6,2,8.8,0.1,11.4-2.3c1.7-1.5,3.6-4.6,4.6-6.9c2.7-6.2,3.1-15.3,2.6-21.6c-0.6-6.5-1.8-12.1-3.7-18c-0.6-1.7-3-7.9-3.7-9.1
	c-1.8-3.6-8.2-13.9-12.9-15.6c-2.4-0.9-3.9,0.4-3.9,2.7c0,1.6,0.4,3.3,0.8,5c1.3,5.2,3,10.8,4.3,16.1c1.3,4.8,2.8,11.9,3.5,16.9
	c0.2,1.7,0.3,3.4,0.6,5.4c0.2,1.3,0.4,7.6,0.3,7.7c-0.2,0.4-0.8,0.4-1.4-0.1c-0.5-0.4-0.9-1-1.3-1.6c-3.4-5-6.8-10.5-10.4-16
	c-3.2-4.9-8-11.9-11.7-17.1c-1.4-2-3.3-4-5.8-4.2c-3.7-0.3-5.5,5.1-6.6,8.5c-4.2,11.7-7.5,29-6.7,41.5
	C571.7,273.4,572.7,281,577.4,282.7 M642,281.6c0.4,0.3,1.7,1.2,1.7,1.2c0,0.1,2.3,1.2,3,1.4c3.4,0.9,4.3,1.3,8.1,0.9
	c8.3-0.9,19.4-6.3,26-11.3c2.1-1.6,3.7-3,3.6-5.2c-0.1-2.3-0.9-4-2.4-5.9c-1.7-2.2-3.4-2-6.7-1.4c-6.2,1-13.7,2.1-18.7,3
	c-0.9,0.2-2.1,0.3-3.3,0.3c-0.7,0-1.5-0.1-1.5-0.1s0.9-3.3,1.9-6.6c1-3.2,2.2-6.3,2.2-6.3s1.5-0.2,2.9-0.4
	c2.3-0.3,18.8-0.4,20.3-0.6c2.9-0.5,3.5-2.1,3.4-5.7c-0.1-3.1-1.1-5.2-3.9-5.8c-0.7-0.2-2-0.2-3.4-0.2c-5.4,0-15,0.1-15,0.1l2.7-9.2
	c0,0,5.4,0.1,9.3,0c2.5,0,15.9-0.2,20.1-2.7c2.7-1.6,1.5-4.7-0.3-7.3c-3.3-4.8-7-7.2-12.7-7.3c-3.8-0.1-15.5,1.3-18.1,1.6
	c-2.9,0.3-5.9,0.8-8.9,1.2c-2.5,0.4-10.3,1.9-11.3,2.2c-2.7,0.9-3.6,2.3-2.3,4.9c1.1,2.2,2.9,3.4,5.3,4.3c2.1,0.8,6.2,1.7,6.2,1.7
	s-1.5,4.2-2.5,6.9c-0.7,2-1.5,4.4-2.8,4.7c-0.2,0.1-0.4,0.1-0.7,0.1c-3.2,0.3-5.1,2.1-5,4.5c0.1,1.6,1.3,6.7,1.2,7.4
	c0,0.3-0.1,0.6-0.2,0.9c-2,5.5-2.8,5.6-3.6,9.6c-0.8,4.2-0.9,8.2,0.6,12.1c0.2,0.6,0.4,1,0.7,1.7c0.3,0.8,2,3.3,2.1,3.4
	C640.7,280.4,641.5,281.2,642,281.6 M746.7,235.6c0.8-0.7,1.8-0.3,2.2,0.3c2,2.7,1.7,8.8,1,11.7c-1.6,6.4-5.1,11.9-10.1,15.9
	c-3.3,2.6-9.4,5.8-13.9,6.5c-2.1,0.4-4.2,0.4-4.3,0.2c-0.1-0.1,2-3.7,2.7-4.7c3.2-4.5,6.5-10.2,10-15.2
	C736.9,246.5,742.4,239.2,746.7,235.6 M712.8,288c0,0,1.3,0.1,2.5,0.1c8.4,0.2,16.9-3.1,24.2-7.9c7.1-4.7,12.4-10.1,16.2-17.6
	c3.2-6.3,4.7-14.5,4-21.9c-0.6-6.1-3-13.7-8.4-17.3c-3.4-2.3-6.6-1.8-10.1,0c-4.4,2.3-6.3,3.9-10.4,7.9c-2,1.9-8.8,8.9-10.5,10.9
	c-1.7,2-3.2,3.8-5.3,6.5c-3.8,5-9.6,13.1-9.6,13.1s-0.3-1.9-0.4-3.5c0-0.5,0.7-4.7,1-5.6c1.7-5.7,2.5-8.2,6.1-14.5
	c3.2-5.6,7.8-12.3,8.8-18.9c0.3-2,0-4.4-2.1-4.5c-2.1-0.1-6.6,5.3-7.3,6.2c-9.2,11.3-17.4,25.5-17.4,39.7c0,4.5,1.2,10.1,3.3,14.7
	c0.1,0.3,0.2,0.3,0,0.7c-7,18.2-9.5,26.3-12,44.5c-0.7,5.3-1.6,14.2,2.1,18.9c1.8,2.4,4,3.7,6.4,5c1.9,1,2.5,1.3,4,0.4
	c0.6-0.4,0.8-0.6,1.1-1.1c0.2-0.4,3.9-17.8,5.2-24.5c0.9-4.5,4.6-19,6.4-24.3C711.4,291.9,712.8,288,712.8,288"/>
</svg>
