<svg xmlns="http://www.w3.org/2000/svg" viewBox="0 0 136.8 38.73"><defs><style>.a{fill:#00355f;}</style></defs><title>expedia</title><path class="a" d="M66.06,30.3H61.82l0,0-3.66-4.47-3.66,4.47a0,0,0,0,1,0,0H51a.06.06,0,0,1-.05,0,.05.05,0,0,1,0-.05l5.39-6.62L51,17A.06.06,0,0,1,51,17a.07.07,0,0,1,0,0h4.25a0,0,0,0,1,0,0l3.21,4,3.27-4a0,0,0,0,1,0,0h3.46a.07.07,0,0,1,.05,0,.06.06,0,0,1,0,.06l-5.06,6.08,5.78,7.11s0,0,0,.05a.05.05,0,0,1,0,0Z" transform="translate(-0.3 0)"/><path class="a" d="M95.23,24.46l0,0H85.46A3.67,3.67,0,0,0,89.51,28a11.19,11.19,0,0,0,5.22-1.67.06.06,0,0,1,.08.05v3a0,0,0,0,1,0,0,15.92,15.92,0,0,1-5.71,1.45h0a7,7,0,0,1-7.22-7.26,7,7,0,0,1,7.22-7.25,5.89,5.89,0,0,1,6.27,6.11C95.34,23.08,95.23,24.41,95.23,24.46Zm-6.17-5.16a3.44,3.44,0,0,0-3.53,3.13h6.4v-.13a2.9,2.9,0,0,0-2.87-3Z" transform="translate(-0.3 0)"/><path class="a" d="M113.24,30.3a.05.05,0,0,1-.06-.05V17a.06.06,0,0,1,0-.06h3.51a.05.05,0,0,1,0,.06V30.25a0,0,0,0,1-.05.05ZM115,14.18A2.15,2.15,0,0,1,112.82,12a2.16,2.16,0,1,1,4.33,0A2.15,2.15,0,0,1,115,14.18Z" transform="translate(-0.3 0)"/><path class="a" d="M73.44,16.4a9.25,9.25,0,0,0-3,.54h-3.5a.05.05,0,0,0,0,.06V38.73a8.07,8.07,0,0,0,3.61-1.41V30.7a16.19,16.19,0,0,0,2.26.2c4.78,0,7.88-2.87,7.88-7.31A6.87,6.87,0,0,0,73.44,16.4Zm-1,11.91a7.75,7.75,0,0,1-2-.29v-8.5a7.77,7.77,0,0,1,2.38-.41c2.43,0,4.07,1.8,4.07,4.46C76.92,26.45,75.18,28.3,72.49,28.3Z" transform="translate(-0.3 0)"/><path class="a" d="M106.84,9.92v6.94a10.15,10.15,0,0,0-2.84-.43,7.15,7.15,0,0,0-7.31,7.31c0,4.15,2.77,7.16,6.59,7.16a8.47,8.47,0,0,0,4-1.08V31a8,8,0,0,0,3.15-1.34V8.5A7.76,7.76,0,0,0,106.84,9.92Zm0,17.28a6.45,6.45,0,0,1-3,.85c-2.17,0-3.47-1.53-3.47-4.1,0-3,1.66-4.89,4.22-4.89a5.28,5.28,0,0,1,2.23.55Z" transform="translate(-0.3 0)"/><path class="a" d="M132.56,16.78a.15.15,0,0,0-.15-.15h-2.84a.16.16,0,0,0-.16.15v.49h-.07a8.64,8.64,0,0,0-3.53-.84,7.15,7.15,0,0,0-7,7.43c0,4.22,2.76,7,6.86,7a4.51,4.51,0,0,0,3.82-1.59V31a8.18,8.18,0,0,0,3.07-1.34ZM129,27.18a5.68,5.68,0,0,1-2.78.91c-2.32,0-3.71-1.53-3.71-4.1,0-2.92,1.64-4.89,4.07-4.89a5.42,5.42,0,0,1,2.42.76Z" transform="translate(-0.3 0)"/><path class="a" d="M41.29,27H50.1a8,8,0,0,1-1.23,3.31H39.7a2.18,2.18,0,0,1-2.16-2V10.89a.1.1,0,0,1,0,0,2.18,2.18,0,0,1,2.16-2H50.08a8.08,8.08,0,0,1-1.23,3.34H41.29v4.74h7.49a.05.05,0,0,1,.05.05v3.28a.05.05,0,0,1-.05.05H41.29V27Z" transform="translate(-0.3 0)"/><path class="a" d="M30.25,27.37a1.68,1.68,0,1,0,1.65,1.69A1.63,1.63,0,0,0,30.25,27.37Zm0,3.2a1.52,1.52,0,1,1,1.4-1.51A1.41,1.41,0,0,1,30.25,30.57Z" transform="translate(-0.3 0)"/><path class="a" d="M31,28.63c0-.4-.25-.57-.73-.57h-.76v2h.33V29.2h.31l.52.85h.37l-.56-.87A.51.51,0,0,0,31,28.63Zm-1.18.29V28.3h.41c.21,0,.46,0,.46.29s-.23.33-.49.33h-.38Z" transform="translate(-0.3 0)"/><path class="a" d="M135.46,15.94a1.68,1.68,0,1,0,1.65,1.69A1.63,1.63,0,0,0,135.46,15.94Zm0,3.2A1.41,1.41,0,0,1,134,17.63a1.41,1.41,0,1,1,2.81,0A1.42,1.42,0,0,1,135.46,19.14Z" transform="translate(-0.3 0)"/><path class="a" d="M136.24,17.2c0-.4-.25-.57-.73-.57h-.76v2h.33v-.85h.31l.52.85h.37l-.56-.87a.51.51,0,0,0,.52-.54Zm-1.18.29v-.61h.41c.21,0,.46,0,.46.28s-.23.33-.49.33h-.38Z" transform="translate(-0.3 0)"/><path class="a" d="M31.16,10.63a8.5,8.5,0,0,1-1.9,1l-5.51,1.57L20.07,25l-1,.31.78-9-.43-1.87-5.17,1.47L.63,19.08a15.87,15.87,0,1,0,30.53-8.44Z" transform="translate(-0.3 0)"/><path class="a" d="M18.87,12.2l-.64-1.81L12.81,3.14l1-.24L23.14,11l5.5-1.57a8,8,0,0,1,1.94-.2A15.87,15.87,0,0,0,.48,18.26l13.18-4.58Z" transform="translate(-0.3 0)"/></svg>