<svg xmlns="http://www.w3.org/2000/svg" viewBox="0 0 298 298"><defs><style>.a{fill:#3b5998;}</style></defs><title>facebook</title><path class="a" d="M282.55,1H17.45A16.45,16.45,0,0,0,1,17.45V282.56A16.45,16.45,0,0,0,17.45,299H282.55A16.45,16.45,0,0,0,299,282.56V17.45A16.45,16.45,0,0,0,282.55,1ZM252.72,88H228.9c-18.67,0-22.29,8.87-22.29,21.89v28.71h44.54l-5.8,45H206.61V299H160.17V183.6H121.34v-45h38.83V105.46C160.17,67,183.68,46,218,46a318.73,318.73,0,0,1,34.7,1.77Z" transform="translate(-1 -1)"/></svg>