<svg xmlns="http://www.w3.org/2000/svg" xmlns:xlink="http://www.w3.org/1999/xlink" viewBox="0 0 885.83 421.04"><defs><style>.a{fill:none;}.b{clip-path:url(#a);}.c{fill:#003e7e;}.d{fill:#78787a;}</style><clipPath id="a" transform="translate(0)"><polygon class="a" points="0 421.04 885.83 421.04 885.83 0 0 0 0 421.04 0 421.04"/></clipPath></defs><title>libertymutual-contrast</title><g class="b"><path class="c" d="M210.58,172.13a15.53,15.53,0,0,1,3.23,1.83l29.49-32.7a94,94,0,0,0-31.85-22.91A66.4,66.4,0,0,0,200,114L207,170.71s2.31.81,3.54,1.42" transform="translate(0)"/><path class="c" d="M112.29,119.18l52.81,51.47s2-1,2.84-1.35a28.78,28.78,0,0,1,3.39-1l5.12-58.68a137.79,137.79,0,0,0-14.34-1.11c-13.09-.45-31.36,2.17-43.38,7.5a36.68,36.68,0,0,0-6.44,3.2" transform="translate(0)"/><path class="c" d="M81,352.62c-.21-21.92-4.58-53.84-8.33-67.15-2.3-8.19-20.27-62.83-20.78-64.88-.35-1.38-1-15.79-1.45-28.58-8.56,23.85-12.82,51.49-12.82,81.16v0c0,48,12.36,91.2,36,121.62,6.92-17.84,7-31.64,7.36-41.89,0-.1,0-.19,0-.31" transform="translate(0)"/><path class="c" d="M145,357.1c20.49-17.62,32.86-23.66,54.68-34.92-32.25,6.68-69.08,28.53-89,54a333.65,333.65,0,0,0-22.77,33,62.08,62.08,0,0,0,9.48,5.27c14.11-26.78,34.66-46.34,47.58-57.41" transform="translate(0)"/><path class="c" d="M97.17,127.41a15,15,0,0,0-3.37,3c9.32,24.06,22.08,56,25.24,64.9.41,1.15.83,2.41,1.21,3.67l21.12,10.79.34-.23s-.22-3-.24-3.9a31.06,31.06,0,0,1,.59-3.81l-41.52-76.34a20.33,20.33,0,0,0-3.37,1.89" transform="translate(0)"/><path class="c" d="M150.75,365.63c-22,21.11-36.77,47-41.15,53.37,2.25.68,4.59,1.37,7.06,2,47.91-85.43,124.1-104.65,167-106.42.55-2.4,0,.56.51-3.57-29.47-.58-85.69,9.78-133.42,54.58" transform="translate(0)"/><path class="c" d="M246,197.27a3.86,3.86,0,0,1,.74.95L273,187a160.23,160.23,0,0,0-11.36-23L244.78,196.2a7.82,7.82,0,0,1,1.27,1.07" transform="translate(0)"/><path class="c" d="M258.54,238.87a32.24,32.24,0,0,1-2.73,5.88l1.67,19.93L278.83,300l6.38,1.07a273.18,273.18,0,0,0,1.47-27.92c0-21.41-.67-40-5.11-58.64l-21.77,18.26s-.59,3.77-1.25,6.08" transform="translate(0)"/><path class="c" d="M312.07,180.69l-53.53,41.26c-.88-6.69-3.1-12.63-6.55-17.09l59.79-24.67s.4-.17.5,0-.2.49-.2.49" transform="translate(0)"/><path class="c" d="M110.69,129a.26.26,0,0,1,.08-.38.27.27,0,0,1,.38.07l45.5,46.67c-4.33,2.44-8.91,8.38-10.8,13.76" transform="translate(0)"/><path class="c" d="M137.17,216.31a16.39,16.39,0,0,0-1.3,5.53,19.06,19.06,0,0,0,.93,6.17l-13.75-9.48a40.06,40.06,0,0,0-.32-6.8c0-.28-.4-3.68-.47-4.09" transform="translate(0)"/><path class="c" d="M115.56,320.26c-1.76,16.35-5.75,30.55-11.74,40.7-3.84,6.54-14.64,19.76-18.42,24.77,4.09-8.17,7.26-27.89,7-43.25-.17-10-3.19-31.94-.57-46.51,2.85-15.63,7.27-24.43,17.72-34,5.33-4.92,16.23-11.2,31.8-7l12.57,23.74c-6.73-1.29-15.64-.14-21.58,4.43-11.17,8.61-14.92,20.18-16.79,37.12" transform="translate(0)"/><path class="c" d="M116.79,352.51c3.08-6.9,7.1-26.58,8.24-33.17,1.44-8.46,2.8-20.8,12.85-29.09,4.94-4.09,13-4.62,16.27-3.67l14.25,29.06c1.28,3.1,5.46,4.16,8.26,4-13.35,4.37-47,20.38-59.86,32.89" transform="translate(0)"/><path class="c" d="M238,259.72a9,9,0,0,0-.19,9.42c1.44,2.7,9,16.66,9,16.66a88.45,88.45,0,0,0,6.49,13.6c4.09,0,8.51-.1,13.18,0-5-11.19-16.35-32.78-16.35-32.78l-1.6-17.05A38.83,38.83,0,0,0,238,259.72" transform="translate(0)"/><path class="c" d="M187.34,81.15,180,166.81c4.93-.88,15.9.63,18.59,1.85L187.8,81.15s0-.3-.24-.3-.22.3-.22.3" transform="translate(0)"/><path class="c" d="M68.84,99.22c-.34-1-1-3.73-2.22-4.24s-4-2.09-5.64-2.74c-1.41-.56-3.92-3.23-5.1-3.23-5.62,0-12.08-1.88-14.29-3.42-2.38,4.6-.74,7.21,1.39,9.35,1.71,1.7,6.26,3.1,10.69,3.44l1.19,25.39c1.2,1.89,4.94,3.07,8.17,3.24v.85l-4.42,3.25c.16,2.89,4.08,85.71,4.93,87.23S84.44,281.26,85,285c1.43-7.07,7.75-22.45,14.89-29.45,7.31-7.14,16.23-10.27,21.67-10.1-1.19-1.37-7.31-15.68-7.48-17s-2.55-19.25-3.23-20.44-41.64-107.7-42-108.73" transform="translate(0)"/><path class="c" d="M273.84,121.53l-52.6,56.54a142.26,142.26,0,0,1,16.09,12.44l36.9-68.71s.13-.26,0-.37-.4.1-.4.1" transform="translate(0)"/><path class="c" d="M221.73,211.63c-5.62-3.61-16.6-9-19.88-10l4.84-12.53c4.08,2.06,19.13,11.24,21.43,13.55Zm-26.52-12.05c-4.11-2.82-17.61-2.3-23.23-1l-4.09-11.77c3.06-2.29,8.93-3.82,14.28-3.82a36.53,36.53,0,0,1,15.32,3.32Zm-40.34,8.69c-2.28-7.71,3.84-15.35,6.64-18.14l4.34,10A62,62,0,0,0,154.88,208.27Zm13.28,20.19A44.8,44.8,0,0,1,179,224.11c7.78-1.67,16.41,3,22.53,7.82l-1.17,1.85-8.77,2.08c-1.71-1.53-4.93-2.2-8.43-2a16.92,16.92,0,0,0-5.59,1.29l1.71,2.81-4,1c-1.79-2.29-4.6-5.12-7.14-5.87Zm78.33-13.29c-.64-3.32-8.93-13.22-23-23.94-11-8.4-27.18-16.66-40.48-16.58-22.46.12-31.73,15.57-33.41,23.64-1,4.86-.78,10.14.24,13-3.58,3.08-4.92,5.55-5.62,9-.47,2.53,0,6.13,2.31,8.35-.27-3.33,2-7.19,3.82-9.72,2.05-2.8,5.45-3.9,8.54-5.78l.5,6.16c-2.92,1.67-6.5,5.25-6.73,7.12l.24,10.16,7.72-4.62,1.48,3.09L159.23,253l4.33-.78,7.93,3.27-7.66,6.45v2.56a4.53,4.53,0,0,1,3.85-1.45c2.69.11,9.66,3.24,9.66,3.24l-.26,1.54H163.55c-.51,1.79,1.09,3.16,2.1,3.93,1.77-.51,3.64-1.42,4.65-1.42s3.36.6,5.42.86l-2.46,3.28a4.56,4.56,0,0,1-3.57.51c-1.27-.26-2.55,1.53-2.55,3a33.7,33.7,0,0,0,1,5.38c1.24,5.75,7.12,4.59,7.87,4.52,3.73-.33,15.89-4.71,15.89-4.71l-11.68,16.41,5.09,17.52A286.25,286.25,0,0,1,241,301.64c-2.73-4.56-3.19-6.34-6.54-13.11l-12.75-29.39,1.77-4.35c2.82,1,7.15-1,10-3.32a33.21,33.21,0,0,0,7.41-9,4.22,4.22,0,0,0-4.85.26c-1.53,1-2.72,3-4.83,2-2.31-1-1.19-3.53-.93-5.84s-2.65-2.33-4.68-.55-6.38,1-9.19-1.78-16.32-14.07-21.16-16.87c-7-4-16.34-5-23.23-3.8-4,.71-6.9,2.51-8.43,1.75l-5-7.83.81-.51c1.79.78,3.48,2.22,5.76,1.44a66.13,66.13,0,0,1,16.33-2.56c10.21-.17,22.61,3.56,28.06,5.89.26,6.64,13.61,15.08,19.64,15.84a16.07,16.07,0,0,0,11.24-2.56l-13-11.46,6.88-8.74s11,10.48,12.52,12.54c.49-1.2,0-3.2-.25-4.6" transform="translate(0)"/><path class="c" d="M42.78,78.89c11.57,0,17,4.85,19.75,7.41.35-3.92-.27-7.38-3.91-10.35-3-2.45-8.34-4.62-16.5-4.62-5.44,0-10.91,1.6-14.31,4.49-3.11,2.65-3.63,5.65-3,10.1,1-3.24,8.39-7.07,17.93-7" transform="translate(0)"/><path class="c" d="M22.06,18.1c-.25,4.42.91,9,3,11.76,1.15,1.55,3.92,4.53,5.95,4.42,2.9-.16,5.61-5.72,12.41-5.46,4.42.17,7.31,6.43,11.06,6.65,2.9.17,4.43-2.72,7.34-3,2.51-.26,3.36,1,4.91,2.52,1-2.37,2.5-4,6.29-6.8,4.59-3.42,20.24-6.66,26.88-12.62,3.32-3,4.07-8.5,3-12.22-2.51,3.54-9.48,7.28-16.29,7.61C83.19,11.11,75,9.59,72.13,8.07A8.73,8.73,0,0,0,72.86,0C70.64,1.71,61.08,2.65,57.34,2.65s-11-1.53-16.71-1.21c-12.41.67-18.17,9.5-18.58,16.66" transform="translate(0)"/><path class="c" d="M26.56,108.4c-1.87.34-5.78,3.41-7.69,6.6.55,2.07,2.76,6.87,4.92,8.18a16.13,16.13,0,0,1,4.13-6.76,32.7,32.7,0,0,1,4.74-2.73,2.76,2.76,0,0,0,1.87-2.91,7.51,7.51,0,0,0-.89-3.78c1.37-.16,3.88,0,4.74-1.16a7.37,7.37,0,0,0,1.26-4.25c0-1.54-.69-1.88-2.21-2a62.56,62.56,0,0,0-8.2-.12l4.45-2.29a3.15,3.15,0,0,0,1.54-2.37,15.8,15.8,0,0,0-.36-5.1c-5.1.16-14.11,4.76-16.49,6.81l1.88,4.61-3.4-.14a13.91,13.91,0,0,0,.84,8,41.49,41.49,0,0,1,8.85-.52" transform="translate(0)"/><path class="c" d="M56.3,147.94c-.16-1.86-1.49-2.89-2.89-4.08a58.71,58.71,0,0,0,.53-12.27,18,18,0,0,0-3.42-9.72,43.62,43.62,0,0,0-9.06-9.21A3.39,3.39,0,0,1,39,116.21c-1.7.5-8,5-8,5l1.29,22.32-.11.05-.2.09c-2.36,1.2-4.85,3.57-4.43,7.14.4,3.38,3.21,6,8.46,7.17.72.16,1.49.3,2.27.42l.16-1.13a17.48,17.48,0,0,1-1.9-.41c-5.26-1.33-6.16-5.18-2.78-6.64A25.26,25.26,0,0,1,43,148.28c4.44-.17,10,2.57,12.08,3.75.68-1.53,1.37-2.2,1.19-4.09" transform="translate(0)"/><path class="c" d="M83.85,70.57c-.12-2.72-4.24-10.39-4.4-12.95s.51-4.26,1-6.64c-1.7.34-7.65,2.73-10.22.68-2.72-2.2-.84-7.67-4.41-9S56.66,45.52,53.08,45s-6.63-5.44-10.36-5.44-5.62,4.59-10.22,5.62c-3.54.79-9.42-1.9-11.74-1.72-2.55.18-4.09,2.18-5.23,4.62s-2,3.46-5,4.21c-2.39.6-5.82-1.5-7.52-1.13.81.81,1.63,3.1,1.87,5.47C4.7,63.49,0,66,0,76.36,0,87.63,12,93,12,93l1.41-1A15.79,15.79,0,0,1,4.78,78.19a14.77,14.77,0,0,1,.09-1.64,17.9,17.9,0,0,1,5.5-10.12l.11-.11c6.62-6.25,18.38-9.83,33-9.56,26.87.51,39,13,39.36,23.19,1.34-3.08,1.18-6,1-9.38" transform="translate(0)"/><path class="d" d="M377.64,218.74c0,8.61,3.59,11.3,16.48,11.3s18.8-3.95,27.22-21.35h3l-3,27.28H341.29v-3.06c12-3,13.25-5.75,13.25-17.05V148.76c0-9.32-2.33-12-13.25-14.72v-3h49.61v3c-10.39,2.71-13.25,4.84-13.25,14" transform="translate(0)"/><path class="d" d="M448,123.64a11.64,11.64,0,0,1,11.64,11.67A11.79,11.79,0,0,1,448,147.15a12,12,0,0,1-11.83-11.85A11.8,11.8,0,0,1,448,123.64Zm10,97.79c0,6.81,3.4,10.58,10.92,11.48V236H426.53v-3.06c9.13-1.8,11.28-4.31,11.28-12.91V183.94c0-8.27-2.33-10.59-12.18-12.57v-3.05l29.38-2.5h3.05" transform="translate(0)"/><path class="d" d="M502.1,123.64H499l-27.39,2v3.05c6.27,1.08,10.21,4.31,10.21,10V236c10.19,2,20.24,2.66,32.95,2.66,33,0,45.48-17.21,45.48-38,0-19.73-14-35-32.22-35-9.69,0-17.94,3.94-26,12.38Zm0,59.22c6.8-6.28,10.38-8.08,15.76-8.08,12,0,20,11.47,20,28,0,22.08-10,31-25.05,31-8.07,0-10.75-3.58-10.75-11.31" transform="translate(0)"/><path class="d" d="M641.24,196.12c-2.5-18.65-16.29-30.49-35.46-30.49-21.31,0-37.6,16-37.6,37,0,20.64,15.75,36.05,36.89,36.05,16.3,0,30.08-9,36.17-23.49h-3c-6.45,9.86-14.33,14.71-24.18,14.71-12.54,0-25.07-11.49-24-33.74ZM590,192c.54-12.92,6.07-21.53,14.33-21.53s14.31,9,15,21.53" transform="translate(0)"/><path class="d" d="M706.06,191.82c-5.91-5.73-10.57-8.79-15.22-8.79-6.08,0-9.85,2.51-15,9.69v27.64c0,8.08,1.61,10.56,11.44,12.55V236h-43v-3.06c9-2.17,11.28-4.85,11.28-12.55V184.63c0-8.6-3.74-12.55-12.33-13.27v-3.05l29.52-2.68h3.05v21.53h.36c6.62-14.71,14-21.53,22.38-21.53a15.75,15.75,0,0,1,12,5.74" transform="translate(0)"/><path class="d" d="M820.12,168.31v3.05c8.61,1.8,10.56,7.17,4.46,21.53l-9.31,21.71L801,185c-4.13-8.62-4.13-12.56,3.56-13.64v-3.05H744.7V142.13h-3.4c-9.51,12.2-20.6,23-29,28.16v3.41h12.17v43.42c0,15.42,10.21,21.51,22.92,21.51,10,0,16.67-3.58,21.67-12l-2.14-2c-3.23,3.78-6.29,5.38-9.85,5.38-9.49,0-12.36-6.45-12.36-17.4V173.7h18.11c9.85,0,12.73,3.6,17,12.74l24.7,52.2c-8.23,22.25-15.39,31.23-27.91,31.23a24.88,24.88,0,0,1-9.15-1.61l-4.11,20.45a34,34,0,0,0,5.72.37c14,0,21.68-5.93,28.84-22.43l34-77.87c5.56-12.55,7.7-15.07,16.3-17.4v-3.05" transform="translate(0)"/><path class="d" d="M473.58,357.68c1.24,9.14,5.73,14.35,15.94,16.31v3H437.75v-3c11.45-2.87,13.43-9.49,11.45-23.12l-8.58-59.95h-.36l-34,86.1h-3.76l-33.68-86.1h-.35l-9.14,61.73c-1.8,12.2.54,20.45,12.35,21.34v3H333.71v-3c11.27-.51,16.11-7,18.61-23.12l10.41-68.56a23,23,0,0,0-15.23-7.19v-3h37.78l27.4,69.25,27.75-69.25H475.9v3c-10.75,2-13.25,7.37-11.82,17.06" transform="translate(0)"/><path class="d" d="M497.72,324.14c0-7.55-2.5-10.25-10.56-11.68v-3.06l27.76-2.69h3V356.6c0,8.08,5.19,11.83,12.55,11.83,6.79,0,10.92-2.85,16.82-12.2V322.51c0-5.57-3.59-8.79-10.56-10v-3.06l27.74-2.69h3.06v53.83c0,9,1.8,11.13,10.76,13.45v3l-31,2.7V363.25H547c-7.51,11.46-15.94,16.48-26.86,16.48-14,0-22.4-7.7-22.4-20.62" transform="translate(0)"/><path class="d" d="M593.91,314.78H581.72v-3.39c8.41-5.21,19.52-16,29-28.17h3.42v26.19h22.19v5.37H614.15v38.95c0,11,2.85,17.4,12.34,17.4,3.57,0,6.63-1.63,9.85-5.39l2.15,2c-5,8.44-11.64,12-21.68,12-12.7,0-22.9-6.08-22.9-21.53" transform="translate(0)"/><path class="d" d="M649.41,324.14c0-7.55-2.52-10.25-10.57-11.68v-3.06l27.76-2.69h3.05V356.6c0,8.08,5.18,11.83,12.5,11.83,6.82,0,10.94-2.85,16.85-12.2V322.51c0-5.57-3.58-8.79-10.57-10v-3.06l27.76-2.69h3v53.83c0,9,1.8,11.13,10.74,13.45v3l-31,2.7V363.25h-.35c-7.53,11.46-15.94,16.48-26.88,16.48-14,0-22.37-7.7-22.37-20.62" transform="translate(0)"/><path class="d" d="M796.61,332c0-18.67-15.23-25.3-29.74-25.3-15.76,0-26.68,8.44-30.26,23h2.7c4.28-7.53,11.08-11.3,20.23-11.3,12.18,0,16.84,5.75,16.84,17.77C759.89,342.24,733,343.69,733,362c0,9.88,9.12,17.76,20.24,17.76,8.22,0,14.48-2,21.29-8.06l1.62-1.43c3.39,6.79,8.06,9.5,16.28,9.5,9.86,0,15.78-4.67,16.48-13.08H806.1c-.72,4.12-2.51,6.28-5.38,6.28-3,0-4.11-2.69-4.11-9ZM776.2,365.39c-4.66,4.68-8.59,7-12.71,7-5.56,0-9.32-4.86-9.32-12.19,0-9.16,5.19-13.28,22-20.47" transform="translate(0)"/><path class="d" d="M822.93,283.22c0-9.5-3.05-12.91-12.72-13.47v-3l29.9-2h3.06v95.81c0,9,2,11.13,12,13.45v3H810.22v-3c9.85-1.6,12.72-4.83,12.72-13.45" transform="translate(0)"/><path class="d" d="M871.92,364.46h2.27c1.53,0,2.79-.19,2.79-2,0-1.55-1.48-1.8-2.75-1.8h-2.31Zm-2.44-5.62h5c3.22,0,4.94,1.09,4.94,3.85a3.28,3.28,0,0,1-3.3,3.53l3.53,5.75H877l-3.3-5.65h-1.79V372h-2.44Zm4.58,15.83c4.9,0,8.93-3.91,8.93-9.47s-4-9.48-8.93-9.48-9,3.93-9,9.48S869.09,374.68,874.07,374.68Zm0-21.59a12.12,12.12,0,1,1-11.78,12.12,11.79,11.79,0,0,1,11.78-12.12" transform="translate(0)"/></g></svg>