<svg height="56" width="191.89999" xml:space="preserve" viewBox="0 0 191.89999 56" y="0px" x="0px" xmlns="http://www.w3.org/2000/svg">
  <g transform="translate(-1,-1.1)">
    <path d="m69.1 19.3 0-8.5 1.7 0 0 7.1 3.9 0 0 1.5-5.6 0z"/>
    <path d="m81 19.3-0.5-1.5-3 0-0.5 1.5-1.7 0 3.1-8.5 1.3 0 3.1 8.5-1.8 0zm-2-6-1.1 3.1 2.1 0-1-3.1z"/>
    <path d="m87.5 19.3-3.6 0 0-8.5 3.4 0c1.7 0 2.6 0.9 2.6 2.4 0 0.9-0.6 1.6-1.1 1.8 0.5 0.2 1.2 0.8 1.2 1.9 0.1 1.6-1 2.4-2.5 2.4zm-0.3-7-1.6 0 0 2 1.6 0c0.7 0 1.1-0.4 1.1-1 0-0.6-0.4-1-1.1-1zm0.1 3.4-1.7 0 0 2.1 1.7 0c0.8 0 1.1-0.5 1.1-1.1 0-0.6-0.3-1-1.1-1z"/>
    <path d="m97.1 18.5c-0.6 0.6-1.3 0.9-2.3 0.9-1 0-1.7-0.3-2.3-0.9-0.9-0.9-0.9-1.8-0.9-3.4 0-1.6 0-2.6 0.9-3.4 0.6-0.6 1.3-0.9 2.3-0.9 1 0 1.7 0.3 2.3 0.9 0.9 0.9 0.9 1.8 0.9 3.4-0.1 1.6-0.1 2.5-0.9 3.4zm-1.2-5.9c-0.2-0.3-0.6-0.5-1.1-0.5-0.5 0-0.8 0.2-1.1 0.5-0.3 0.4-0.4 0.8-0.4 2.4 0 1.6 0.1 2 0.4 2.4 0.3 0.3 0.6 0.5 1.1 0.5 0.5 0 0.8-0.2 1.1-0.5 0.3-0.4 0.4-0.8 0.4-2.4 0-1.6-0.1-2-0.4-2.4z"/>
    <path d="m104.3 19.3-1.7-3.4-1.2 0 0 3.4-1.7 0 0-8.5 3.3 0c1.7 0 2.8 1.2 2.8 2.6 0 1.2-0.7 1.9-1.6 2.2l1.9 3.7-1.8 0zm-1.3-7-1.6 0 0 2.3 1.6 0c0.7 0 1.2-0.5 1.2-1.1 0-0.6-0.5-1.2-1.2-1.2z"/>
    <path d="m112.6 19.3-0.5-1.5-3 0-0.5 1.5-1.7 0 3.1-8.5 1.3 0 3.1 8.5-1.8 0zm-2-6-1.1 3.1 2.1 0-1-3.1z"/>
    <path d="m117.9 12.3 0 7.1-1.7 0 0-7.1-2.2 0 0-1.5 6.1 0 0 1.5-2.2 0z"/>
    <path d="m126.6 18.5c-0.6 0.6-1.3 0.9-2.3 0.9-1 0-1.7-0.3-2.3-0.9-0.9-0.9-0.9-1.8-0.9-3.4 0-1.6 0-2.6 0.9-3.4 0.6-0.6 1.3-0.9 2.3-0.9 1 0 1.7 0.3 2.3 0.9 0.9 0.9 0.9 1.8 0.9 3.4-0.1 1.6-0.1 2.5-0.9 3.4zm-1.3-5.9c-0.2-0.3-0.6-0.5-1.1-0.5-0.5 0-0.8 0.2-1.1 0.5-0.3 0.4-0.4 0.8-0.4 2.4 0 1.6 0.1 2 0.4 2.4 0.3 0.3 0.6 0.5 1.1 0.5 0.5 0 0.8-0.2 1.1-0.5 0.3-0.4 0.4-0.8 0.4-2.4 0.1-1.6 0-2-0.4-2.4z"/>
    <path d="m133.8 19.3-1.7-3.4-1.2 0 0 3.4-1.7 0 0-8.5 3.3 0c1.7 0 2.8 1.2 2.8 2.6 0 1.2-0.7 1.9-1.6 2.2l1.9 3.7-1.8 0zm-1.3-7-1.6 0 0 2.3 1.6 0c0.7 0 1.2-0.5 1.2-1.1 0-0.6-0.5-1.2-1.2-1.2z"/>
    <path d="m140.4 15.8 0 3.5-1.7 0 0-3.5-2.6-5 1.8 0 1.6 3.4 1.6-3.4 1.8 0-2.5 5z"/>
    <path d="m148.6 12.3 0 2.1 3.4 0 0 1.5-3.4 0 0 3.5-1.7 0 0-8.5 5.6 0 0 1.5-3.9 0z"/>
    <path d="m159 18.5c-0.6 0.6-1.3 0.9-2.3 0.9-1 0-1.7-0.3-2.3-0.9-0.9-0.9-0.9-1.8-0.9-3.4 0-1.6 0-2.6 0.9-3.4 0.6-0.6 1.3-0.9 2.3-0.9 1 0 1.7 0.3 2.3 0.9 0.9 0.9 0.9 1.8 0.9 3.4 0 1.6 0 2.5-0.9 3.4zm-1.2-5.9c-0.2-0.3-0.6-0.5-1.1-0.5-0.5 0-0.8 0.2-1.1 0.5-0.3 0.4-0.4 0.8-0.4 2.4 0 1.6 0.1 2 0.4 2.4 0.3 0.3 0.6 0.5 1.1 0.5 0.5 0 0.8-0.2 1.1-0.5 0.3-0.4 0.4-0.8 0.4-2.4 0-1.6-0.1-2-0.4-2.4z"/>
    <path d="m166.3 19.3-1.7-3.4-1.2 0 0 3.4-1.7 0 0-8.5 3.3 0c1.7 0 2.8 1.2 2.8 2.6 0 1.2-0.7 1.9-1.6 2.2l1.9 3.7-1.8 0zm-1.3-7-1.6 0 0 2.3 1.6 0c0.7 0 1.2-0.5 1.2-1.1 0-0.6-0.5-1.2-1.2-1.2z"/>
  </g>
  <g transform="translate(-1,-1.1)">
    <path d="m72.4 26.7 0 7.1-1.7 0 0-7.1-2.2 0 0-1.5 6.1 0 0 1.5-2.2 0z"/>
    <path d="m76.1 33.7 0-8.5 5.6 0 0 1.5-4 0 0 2 3.4 0 0 1.5-3.4 0 0 2.1 4 0 0 1.5-5.6 0z"/>
    <path d="m83.5 33.7 0-8.5 1.7 0 0 7.1 3.8 0 0 1.5-5.5 0z"/>
    <path d="m90.5 33.7 0-8.5 5.6 0 0 1.5-4 0 0 2 3.4 0 0 1.5-3.4 0 0 2.1 4 0 0 1.5-5.6 0z"/>
    <path d="m100.7 33.8c-1 0-1.7-0.3-2.3-0.9-0.9-0.9-0.9-1.8-0.9-3.4 0-1.6 0-2.6 0.9-3.4 0.6-0.6 1.3-0.9 2.3-0.9 1.6 0 2.8 0.9 3.1 2.7l-1.7 0c-0.2-0.7-0.6-1.2-1.4-1.2-0.5 0-0.8 0.2-1.1 0.4-0.3 0.4-0.4 0.8-0.4 2.4 0 1.6 0.1 2.1 0.4 2.4 0.2 0.3 0.6 0.4 1.1 0.4 0.8 0 1.3-0.5 1.4-1.2l1.7 0c-0.3 1.8-1.5 2.7-3.1 2.7z"/>
    <path d="m110.4 32.9c-0.6 0.6-1.3 0.9-2.3 0.9-1 0-1.7-0.3-2.3-0.9-0.9-0.9-0.9-1.8-0.9-3.4 0-1.6 0-2.6 0.9-3.4 0.6-0.6 1.3-0.9 2.3-0.9 1 0 1.7 0.3 2.3 0.9 0.9 0.9 0.9 1.8 0.9 3.4 0 1.6 0 2.5-0.9 3.4zM109.2 27c-0.2-0.3-0.6-0.5-1.1-0.5-0.5 0-0.8 0.2-1.1 0.5-0.3 0.4-0.4 0.8-0.4 2.4 0 1.6 0.1 2 0.4 2.4 0.3 0.3 0.6 0.5 1.1 0.5 0.5 0 0.8-0.2 1.1-0.5 0.3-0.4 0.4-0.8 0.4-2.4 0-1.6-0.1-2-0.4-2.4z"/>
    <path d="m119.2 33.7 0-5-1.6 3.2-1.1 0-1.6-3.2 0 5-1.7 0 0-8.5 1.6 0 2.2 4.6 2.2-4.6 1.6 0 0 8.5-1.6 0z"/>
    <path d="m129 33.7 0-5-1.6 3.2-1.1 0-1.6-3.2 0 5-1.7 0 0-8.5 1.6 0 2.2 4.6 2.2-4.6 1.6 0 0 8.5-1.6 0z"/>
    <path d="m135.8 33.8c-1.8 0-3.1-1.2-3.1-3l0-5.6 1.7 0 0 5.6c0 1 0.6 1.6 1.5 1.6 0.9 0 1.5-0.6 1.5-1.6l0-5.6 1.7 0 0 5.6c-0.1 1.8-1.5 3-3.3 3z"/>
    <path d="m146 33.7-3.4-5.2 0 5.2-1.6 0 0-8.5 1.5 0 3.4 5.2 0-5.2 1.7 0 0 8.5-1.6 0z"/>
    <path d="m149.6 33.7 0-8.5 1.7 0 0 8.5-1.7 0z"/>
    <path d="m156.2 33.8c-1 0-1.7-0.3-2.3-0.9C153 32 153 31.1 153 29.5c0-1.6 0-2.6 0.9-3.4 0.6-0.6 1.3-0.9 2.3-0.9 1.6 0 2.8 0.9 3.1 2.7l-1.7 0c-0.2-0.7-0.6-1.2-1.4-1.2-0.5 0-0.8 0.2-1.1 0.4-0.3 0.4-0.4 0.8-0.4 2.4 0 1.6 0.1 2.1 0.4 2.4 0.2 0.3 0.6 0.4 1.1 0.4 0.8 0 1.3-0.5 1.4-1.2l1.7 0c-0.2 1.8-1.5 2.7-3.1 2.7z"/>
    <path d="m165.7 33.7-0.5-1.5-3 0-0.5 1.5-1.7 0 3.1-8.5 1.3 0 3.1 8.5-1.8 0zm-2-6-1.1 3.1 2.1 0-1-3.1z"/>
    <path d="m171 26.7 0 7.1-1.7 0 0-7.1-2.2 0 0-1.5 6.1 0 0 1.5-2.2 0z"/>
    <path d="m174.7 33.7 0-8.5 1.7 0 0 8.5-1.7 0z"/>
    <path d="m183.6 32.9c-0.6 0.6-1.3 0.9-2.3 0.9-1 0-1.7-0.3-2.3-0.9-0.9-0.9-0.9-1.8-0.9-3.4 0-1.6 0-2.6 0.9-3.4 0.6-0.6 1.3-0.9 2.3-0.9 1 0 1.7 0.3 2.3 0.9 0.9 0.9 0.9 1.8 0.9 3.4 0 1.6 0 2.5-0.9 3.4zM182.4 27c-0.2-0.3-0.6-0.5-1.1-0.5-0.5 0-0.8 0.2-1.1 0.5-0.3 0.4-0.4 0.8-0.4 2.4 0 1.6 0.1 2 0.4 2.4 0.3 0.3 0.6 0.5 1.1 0.5 0.5 0 0.8-0.2 1.1-0.5 0.3-0.4 0.4-0.8 0.4-2.4 0-1.6-0.1-2-0.4-2.4z"/>
    <path d="m191.4 33.7-3.4-5.2 0 5.2-1.7 0 0-8.5 1.5 0 3.4 5.2 0-5.2 1.7 0 0 8.5-1.5 0z"/>
  </g>
  <g transform="translate(-1,-1.1)">
    <path d="m71.5 48.2c-1.3 0-2.3-0.3-3.1-1.1L69.5 46c0.5 0.5 1.3 0.7 2.1 0.7 1 0 1.5-0.4 1.5-1.1 0-0.3-0.1-0.5-0.3-0.7-0.2-0.2-0.3-0.2-0.8-0.3l-1-0.2c-0.8-0.1-1.3-0.3-1.7-0.7-0.4-0.4-0.6-1-0.6-1.7 0-1.5 1.1-2.6 3-2.6 1.2 0 2 0.3 2.8 1l-1.1 1C72.8 41 72.2 41 71.6 41c-0.9 0-1.3 0.5-1.3 1.1 0 0.2 0.1 0.4 0.2 0.6 0.2 0.2 0.4 0.3 0.8 0.3l1 0.2c0.8 0.1 1.3 0.3 1.6 0.7 0.5 0.4 0.7 1 0.7 1.8 0 1.6-1.3 2.5-3.1 2.5z"/>
    <path d="m79.2 48.2c-1 0-1.7-0.3-2.3-0.9C76 46.4 76 45.5 76 43.9c0-1.6 0-2.6 0.9-3.4 0.6-0.6 1.3-0.9 2.3-0.9 1.6 0 2.8 0.9 3.1 2.7l-1.7 0C80.5 41.5 80 41 79.2 41c-0.5 0-0.8 0.2-1.1 0.4-0.3 0.4-0.4 0.8-0.4 2.4 0 1.6 0.1 2.1 0.4 2.4 0.2 0.3 0.6 0.4 1.1 0.4 0.8 0 1.3-0.5 1.4-1.2l1.7 0c-0.3 1.9-1.5 2.8-3.1 2.8z"/>
    <path d="m83.9 48.1 0-8.5 1.7 0 0 8.5-1.7 0z"/>
    <path d="m87.7 48.1 0-8.5 5.6 0 0 1.5-4 0 0 2 3.4 0 0 1.5-3.4 0 0 2.1 4 0 0 1.5-5.6 0z"/>
    <path d="m100.1 48.1-3.4-5.2 0 5.2-1.7 0 0-8.5 1.5 0 3.4 5.2 0-5.2 1.7 0 0 8.5-1.5 0z"/>
    <path d="m106.5 48.2c-1 0-1.7-0.3-2.3-0.9-0.9-0.9-0.9-1.8-0.9-3.4 0-1.6 0-2.6 0.9-3.4 0.6-0.6 1.3-0.9 2.3-0.9 1.6 0 2.8 0.9 3.1 2.7l-1.6 0c-0.2-0.7-0.6-1.2-1.4-1.2-0.5 0-0.8 0.2-1.1 0.4-0.3 0.4-0.4 0.8-0.4 2.4 0 1.6 0.1 2.1 0.4 2.4 0.2 0.3 0.6 0.4 1.1 0.4 0.8 0 1.3-0.5 1.4-1.2l1.7 0c-0.3 1.8-1.6 2.7-3.2 2.7z"/>
    <path d="m111.2 48.1 0-8.5 5.6 0 0 1.5-4 0 0 2 3.4 0 0 1.5-3.4 0 0 2.1 4 0 0 1.5-5.6 0z" class="st0"/>
    <path d="m121 48.2c-1.3 0-2.3-0.3-3.1-1.1L119 46c0.5 0.5 1.3 0.7 2.1 0.7 1 0 1.5-0.4 1.5-1.1 0-0.3-0.1-0.5-0.3-0.7-0.2-0.2-0.3-0.2-0.8-0.3l-1-0.2c-0.8-0.1-1.3-0.3-1.7-0.7-0.4-0.4-0.6-1-0.6-1.7 0-1.5 1.1-2.6 3-2.6 1.2 0 2 0.3 2.8 1l-1.1 1c-0.5-0.5-1.2-0.6-1.8-0.6-0.9 0-1.3 0.5-1.3 1.1 0 0.2 0.1 0.4 0.2 0.6 0.2 0.2 0.4 0.3 0.8 0.3l1 0.2c0.8 0.1 1.3 0.3 1.6 0.7 0.5 0.4 0.7 1 0.7 1.8 0 1.8-1.3 2.7-3.1 2.7z"/>
  </g>
  <g transform="translate(-1,-1.1)">
    <path d="m29 1.1c-15.4 0-28 12.6-28 28 0 15.4 12.6 28 28 28 15.4 0 28-12.6 28-28 0-15.4-12.6-28-28-28zm0 55C14.1 56.1 2 44 2 29.1 2 14.2 14.1 2.1 29 2.1c14.9 0 27 12.1 27 27 0 14.9-12.1 27-27 27z"/>
    <path d="m29 10.2c-10.5 0-19 8.5-19 19 0 10.5 8.5 19 19 19 10.5 0 19-8.5 19-19 0-10.5-8.5-19-19-19zm17.6 15.5c-1.4-1-3-2.1-4.9-3 0.1-2.7-0.3-5.1-0.7-6.8 2.9 2.5 4.9 5.9 5.6 9.8zm-8.7 7c0-2.6-0.4-5.3-1.4-7.8-0.6-1.4-1.3-2.6-2-3.8 2.2 0.4 4.4 1.2 6.3 2.1-0.2 3-1 6.3-2.9 9.5zM24.2 13.5c2.7 1.4 5.6 3.5 8 6.4-2.1-0.1-4.2 0.1-6.4 0.8-3.9 1.3-6.9 3.9-9.3 6.9 0.5-5.9 4-10.7 7.7-14.1zm2 8.1c2.3-0.8 4.6-0.9 6.9-0.7 1 1.3 1.8 2.8 2.5 4.4 1.2 3 1.5 6.1 1.3 9-0.4 0.5-0.8 1-1.2 1.4-4.7 5.3-10.4 7.1-14.6 7.8-2.3-4-4.5-9-4.6-14.2 2.4-3.4 5.6-6.3 9.7-7.7zm13.6-6.8c0.5 1.6 1 4.3 1 7.4-2.2-1-4.6-1.9-7.2-2.2-2.5-3.3-5.7-5.6-8.6-7.2 0.5-0.4 1-0.8 1.4-1.2 0 0 0.1-0.1 0.2-0.2 0.8-0.1 1.6-0.2 2.4-0.2 4 0 7.8 1.3 10.8 3.6zM24 12.2C23.8 12.1 23.7 12 23.5 12c0.4-0.1 0.7-0.2 1.1-0.3-0.2 0.2-0.4 0.4-0.6 0.5zm-1.8 0.3c0.3 0.2 0.7 0.3 1 0.5-4 3.8-7.7 9.2-7.7 15.7 0 0.1 0 0.2 0 0.3-1.4 2-2.6 4.1-3.5 6.1-0.6-1.9-1-3.8-1-5.9 0-7.6 4.7-14 11.2-16.7zm-9.7 23.9 0 0c0.8-1.9 1.8-3.9 3.1-5.8 0.4 4.8 2.4 9.3 4.5 13-0.6 0.1-1.1 0.1-1.5 0.1-2.7-1.8-4.7-4.4-6.1-7.3zm8.1 8.1c0.1 0.2 0.3 0.5 0.4 0.7-0.4-0.2-0.8-0.4-1.2-0.6 0.3 0 0.6 0 0.8-0.1zm2.1 1.5c-0.3-0.5-0.7-1-1-1.6 4.3-0.7 10-2.7 14.7-7.9 0.1-0.1 0.1-0.2 0.2-0.2-0.7 4.2-2.2 7.9-3.5 10.5-1.3 0.3-2.6 0.5-4 0.5-2.3-0.2-4.4-0.6-6.4-1.3zm11.6 0.3c1.4-2.9 3-7.1 3.4-11.6 2.6-3.6 3.7-7.5 3.9-10.9 2 1.1 3.8 2.3 5.1 3.3 0.1 0.7 0.1 1.4 0.1 2C47 37.2 41.6 44 34.3 46.3Z"/>
  </g>
</svg>
