<?xml version="1.0" encoding="UTF-8" standalone="no"?>
<svg width="343px" height="198px" viewBox="0 0 343 198" version="1.1" xmlns="http://www.w3.org/2000/svg" xmlns:xlink="http://www.w3.org/1999/xlink">
    <!-- Generator: Sketch 39.1 (31720) - http://www.bohemiancoding.com/sketch -->
    <title>color-mlh-logo</title>
    <desc>Created with Sketch.</desc>
    <defs></defs>
    <g id="Page-3" stroke="none" stroke-width="1" fill="none" fill-rule="evenodd">
        <g id="Artboard-2" transform="translate(-1866.000000, -1718.000000)">
            <g id="color-mlh-logo" transform="translate(1866.000000, 1718.000000)">
                <g id="Group">
                    <g transform="translate(135.000000, 161.000000)">
                        <path d="M18.053,2.884 C13.619,2.884 9.607,4.681 6.701,7.586 C3.796,10.492 1.999,14.506 1.999,18.938 C1.999,23.371 3.796,27.383 6.701,30.29 C9.607,33.195 13.619,34.992 18.053,34.992 C22.485,34.992 26.498,33.195 29.404,30.29 C32.309,27.384 34.107,23.371 34.107,18.938 C34.107,14.506 32.309,10.493 29.404,7.586 C26.498,4.681 22.484,2.884 18.053,2.884 M18.053,0.938 C27.991,0.938 36.052,8.998 36.052,18.938 C36.052,28.876 27.991,36.938 18.053,36.938 C8.113,36.938 0.052,28.876 0.052,18.938 C0.051,8.997 8.112,0.938 18.053,0.938" id="Shape" fill="#0086CB"></path>
                        <path d="M9.537,18.797 C9.537,17.742 8.842,17.15 7.858,17.15 L7.255,17.15 L7.255,20.443 L7.842,20.443 C8.755,20.442 9.537,19.943 9.537,18.797 L9.537,18.797 Z M20.269,19.978 L15.824,23.474 L11.759,20.279 C11.175,21.686 9.762,22.668 8.127,22.668 L4.654,22.668 L4.654,14.927 L8.127,14.927 C9.953,14.927 11.265,16.08 11.758,17.318 L15.824,14.123 L17.33,15.307 L13.607,18.236 L14.32,18.796 L18.043,15.869 L19.55,17.053 L15.826,19.981 L16.541,20.543 L20.269,17.616 L20.269,14.929 L22.971,14.929 L22.971,20.407 L25.661,20.407 L25.661,22.673 L20.269,22.673 L20.269,19.978 L20.269,19.978 Z M29.083,20.404 L31.773,20.404 L31.773,22.669 L26.38,22.669 L26.38,14.926 L29.083,14.926 L29.083,20.404 L29.083,20.404 Z" id="Shape" fill="#0086CB"></path>
                        <rect id="Rectangle-path" fill="#ADB2B7" x="44.744" y="0.938" width="0.913" height="36.017"></rect>
                    </g>
                    <g transform="translate(187.000000, 165.000000)" id="Shape" fill="#00AEEF">
                        <g>
                            <polygon points="13.36 14.567 29.095 14.567 29.095 0.76 13.36 2.943"></polygon>
                            <polygon points="12.889 14.567 12.889 3.009 0.841 4.682 0.841 14.567"></polygon>
                            <polygon points="12.889 15.035 0.841 15.035 0.841 24.911 12.889 26.582"></polygon>
                            <polygon points="13.36 15.035 13.36 26.647 29.095 28.829 29.095 15.035"></polygon>
                        </g>
                        <path d="M63.012,7.502 C63.012,7.856 62.888,8.151 62.64,8.387 C62.391,8.622 62.096,8.74 61.755,8.74 C61.406,8.74 61.111,8.627 60.871,8.399 C60.63,8.171 60.51,7.873 60.51,7.503 C60.51,7.172 60.628,6.885 60.865,6.643 C61.101,6.4 61.398,6.279 61.755,6.279 C62.112,6.279 62.41,6.398 62.651,6.637 C62.892,6.874 63.012,7.163 63.012,7.502 L63.012,7.502 Z"></path>
                        <g transform="translate(37.000000, 5.000000)">
                            <polygon points="22.248 1.631 17.53 18.226 15.236 18.226 11.508 5.08 11.461 5.08 7.723 18.226 5.452 18.226 0.571 1.631 2.715 1.631 6.581 15.484 6.628 15.484 10.658 1.631 12.545 1.631 16.366 15.529 16.412 15.529 20.128 1.631"></polygon>
                            <polygon points="25.741 18.226 23.832 18.226 23.832 6.376 25.741 6.376"></polygon>
                            <path d="M38.511,18.226 L36.6,18.226 L36.6,11.468 C36.6,8.961 35.676,7.707 33.829,7.707 C32.89,7.707 32.103,8.06 31.471,8.766 C30.837,9.472 30.521,10.372 30.521,11.468 L30.521,18.226 L28.611,18.226 L28.611,6.376 L30.521,6.376 L30.521,8.343 L30.568,8.343 C31.462,6.839 32.766,6.087 34.482,6.087 C35.794,6.087 36.794,6.511 37.481,7.359 C38.169,8.209 38.512,9.412 38.512,10.969 L38.512,18.226 L38.511,18.226 Z"></path>
                            <path d="M51.675,18.226 L49.765,18.226 L49.765,16.213 L49.718,16.213 C48.833,17.748 47.466,18.516 45.618,18.516 C44.111,18.516 42.911,17.978 42.018,16.902 C41.124,15.825 40.678,14.388 40.678,12.59 C40.678,10.631 41.173,9.057 42.163,7.869 C43.153,6.681 44.479,6.087 46.141,6.087 C47.772,6.087 48.964,6.728 49.717,8.008 L49.764,8.008 L49.764,0.683 L51.674,0.683 L51.674,18.226 L51.675,18.226 Z M49.765,12.868 L49.765,11.12 C49.765,10.141 49.437,9.327 48.781,8.679 C48.125,8.032 47.327,7.707 46.387,7.707 C45.238,7.707 44.325,8.129 43.65,8.974 C42.975,9.819 42.636,10.99 42.636,12.487 C42.636,13.844 42.954,14.919 43.591,15.71 C44.228,16.501 45.086,16.897 46.165,16.897 C47.214,16.897 48.075,16.519 48.751,15.762 C49.427,15.005 49.765,14.041 49.765,12.868 L49.765,12.868 Z"></path>
                            <path d="M65.853,12.255 C65.853,14.138 65.315,15.651 64.24,16.797 C63.164,17.943 61.721,18.516 59.913,18.516 C58.15,18.516 56.742,17.958 55.69,16.843 C54.637,15.729 54.112,14.261 54.112,12.44 C54.112,10.481 54.651,8.932 55.731,7.794 C56.81,6.656 58.297,6.087 60.192,6.087 C61.963,6.087 63.348,6.637 64.35,7.735 C65.352,8.835 65.853,10.342 65.853,12.255 L65.853,12.255 Z M63.896,12.324 C63.896,10.835 63.564,9.693 62.9,8.898 C62.236,8.104 61.287,7.707 60.052,7.707 C58.825,7.707 57.855,8.114 57.14,8.928 C56.425,9.742 56.069,10.89 56.069,12.37 C56.069,13.79 56.427,14.898 57.146,15.697 C57.864,16.496 58.834,16.895 60.052,16.895 C61.294,16.895 62.245,16.501 62.906,15.714 C63.567,14.927 63.896,13.798 63.896,12.324 L63.896,12.324 Z"></path>
                            <polygon points="83.195 6.376 79.619 18.226 77.64 18.226 74.972 9.027 74.926 9.027 72.036 18.226 70.127 18.226 66.527 6.376 68.53 6.376 71.163 15.935 71.256 15.935 74.203 6.376 75.95 6.376 78.606 15.935 78.699 15.935 81.308 6.376"></polygon>
                            <path d="M91.29,15.056 C91.29,16.081 90.893,16.915 90.096,17.555 C89.3,18.196 88.242,18.516 86.922,18.516 C85.796,18.516 84.81,18.277 83.964,17.798 L83.964,15.761 C84.903,16.518 85.936,16.896 87.062,16.896 C88.577,16.896 89.333,16.344 89.333,15.241 C89.333,14.794 89.186,14.429 88.891,14.147 C88.596,13.866 87.924,13.486 86.875,13.007 C85.819,12.56 85.074,12.079 84.639,11.567 C84.204,11.053 83.987,10.373 83.987,9.524 C83.987,8.545 84.383,7.727 85.175,7.071 C85.967,6.416 86.973,6.088 88.192,6.088 C89.131,6.088 89.982,6.273 90.743,6.643 L90.743,8.553 C89.967,7.99 89.066,7.708 88.041,7.708 C87.412,7.708 86.905,7.862 86.521,8.171 C86.136,8.48 85.944,8.877 85.944,9.362 C85.944,9.887 86.091,10.29 86.387,10.572 C86.682,10.853 87.29,11.187 88.215,11.573 C89.349,12.052 90.145,12.552 90.603,13.077 C91.061,13.602 91.29,14.261 91.29,15.056 L91.29,15.056 Z"></path>
                        </g>
                    </g>
                    <g transform="translate(27.000000, 173.000000)" id="Shape" fill="#353535">
                        <path d="M7.559,4.4 C7.559,5.54 7.172,6.413 6.397,7.02 C5.623,7.628 4.527,7.932 3.107,7.932 L1.285,7.932 L1.285,12.802 L0.462,12.802 L0.462,1.013 L3.349,1.013 C6.156,1.014 7.559,2.142 7.559,4.4 L7.559,4.4 Z M1.285,7.223 L2.906,7.223 C4.234,7.223 5.193,7.004 5.785,6.566 C6.376,6.128 6.672,5.417 6.672,4.433 C6.672,3.524 6.392,2.851 5.833,2.412 C5.274,1.974 4.408,1.756 3.236,1.756 L1.285,1.756 L1.285,7.223 L1.285,7.223 Z"></path>
                        <path d="M20.033,6.892 C20.033,8.763 19.566,10.244 18.63,11.331 C17.695,12.42 16.405,12.964 14.76,12.964 C13.12,12.964 11.832,12.42 10.897,11.331 C9.962,10.243 9.494,8.758 9.494,6.876 C9.494,5 9.966,3.522 10.909,2.444 C11.853,1.367 13.142,0.828 14.776,0.828 C16.421,0.828 17.708,1.37 18.638,2.453 C19.568,3.536 20.033,5.016 20.033,6.892 M10.389,6.892 C10.389,8.58 10.765,9.885 11.518,10.807 C12.27,11.729 13.351,12.19 14.76,12.19 C16.179,12.19 17.263,11.733 18.013,10.819 C18.764,9.906 19.138,8.596 19.138,6.892 C19.138,5.193 18.764,3.891 18.013,2.985 C17.263,2.08 16.184,1.627 14.776,1.627 C13.373,1.627 12.291,2.084 11.53,2.998 C10.769,3.911 10.389,5.21 10.389,6.892"></path>
                        <path d="M32.138,12.803 L31.461,12.803 L28.872,3.707 C28.657,2.96 28.496,2.347 28.388,1.868 C28.302,2.336 28.18,2.874 28.021,3.48 C27.863,4.088 26.996,7.195 25.421,12.802 L24.727,12.802 L21.485,1.012 L22.348,1.012 L24.413,8.609 C24.493,8.916 24.568,9.199 24.639,9.461 C24.708,9.722 24.772,9.966 24.828,10.193 C24.884,10.422 24.935,10.642 24.981,10.855 C25.027,11.067 25.069,11.281 25.106,11.497 C25.235,10.765 25.509,9.654 25.929,8.166 L27.945,1.013 L28.856,1.013 L31.219,9.223 C31.493,10.169 31.689,10.932 31.807,11.513 C31.877,11.126 31.967,10.715 32.077,10.279 C32.188,9.844 33.017,6.756 34.565,1.013 L35.396,1.013 L32.138,12.803 L32.138,12.803 Z"></path>
                        <polygon points="43.919 12.803 37.476 12.803 37.476 1.013 43.919 1.013 43.919 1.771 38.299 1.771 38.299 6.23 43.605 6.23 43.605 6.988 38.299 6.988 38.299 12.045 43.919 12.045"></polygon>
                        <path d="M47.411,7.666 L47.411,12.803 L46.588,12.803 L46.588,1.014 L49.395,1.014 C50.857,1.014 51.938,1.284 52.636,1.824 C53.335,2.365 53.685,3.178 53.685,4.264 C53.685,5.054 53.476,5.721 53.06,6.264 C52.643,6.807 52.01,7.196 51.161,7.433 L54.362,12.803 L53.378,12.803 L50.338,7.666 L47.411,7.666 L47.411,7.666 Z M47.411,6.956 L49.661,6.956 C50.655,6.956 51.427,6.734 51.975,6.291 C52.523,5.848 52.798,5.193 52.798,4.327 C52.798,3.43 52.529,2.776 51.991,2.368 C51.454,1.959 50.577,1.755 49.362,1.755 L47.411,1.755 L47.411,6.956 L47.411,6.956 Z"></path>
                        <polygon points="62.845 12.803 56.402 12.803 56.402 1.013 62.845 1.013 62.845 1.771 57.225 1.771 57.225 6.23 62.531 6.23 62.531 6.988 57.225 6.988 57.225 12.045 62.845 12.045"></polygon>
                        <path d="M74.465,6.795 C74.465,8.774 73.946,10.27 72.909,11.282 C71.871,12.296 70.347,12.802 68.336,12.802 L65.514,12.802 L65.514,1.014 L68.699,1.014 C70.581,1.014 72.012,1.505 72.993,2.49 C73.975,3.474 74.465,4.908 74.465,6.795 M73.57,6.827 C73.57,5.139 73.141,3.869 72.284,3.017 C71.426,2.164 70.167,1.739 68.506,1.739 L66.337,1.739 L66.337,12.077 L68.288,12.077 C71.809,12.077 73.57,10.327 73.57,6.827"></path>
                        <path d="M81.464,1.014 L84.698,1.014 C86.155,1.014 87.225,1.261 87.908,1.755 C88.591,2.25 88.932,2.998 88.932,3.997 C88.932,4.68 88.723,5.249 88.307,5.702 C87.89,6.156 87.281,6.448 86.481,6.577 L86.481,6.626 C87.421,6.766 88.114,7.063 88.557,7.517 C89.001,7.971 89.222,8.605 89.222,9.416 C89.222,10.502 88.862,11.338 88.142,11.924 C87.421,12.51 86.4,12.803 85.077,12.803 L81.464,12.803 L81.464,1.014 L81.464,1.014 Z M82.288,6.263 L84.885,6.263 C85.992,6.263 86.797,6.078 87.3,5.711 C87.802,5.343 88.054,4.766 88.054,3.981 C88.054,3.196 87.77,2.627 87.203,2.271 C86.636,1.917 85.79,1.74 84.667,1.74 L82.288,1.74 L82.288,6.263 L82.288,6.263 Z M82.288,6.988 L82.288,12.077 L85.062,12.077 C87.245,12.077 88.336,11.19 88.336,9.416 C88.336,7.798 87.186,6.988 84.885,6.988 L82.288,6.988 L82.288,6.988 Z"></path>
                        <polygon points="94.529 7.465 97.98 1.014 98.867 1.014 94.94 8.246 94.94 12.803 94.093 12.803 94.093 8.312 90.15 1.014 91.094 1.014"></polygon>
                    </g>
                    <g transform="translate(0.000000, 125.000000)" id="Shape" fill="#353535">
                        <path d="M17.229,1.175 C17.599,1.339 17.918,1.554 18.185,1.821 C18.452,2.089 18.666,2.406 18.83,2.776 C18.993,3.145 19.075,3.537 19.075,3.95 L19.075,18.509 C19.075,18.647 19.027,18.763 18.933,18.858 C18.838,18.952 18.723,18.999 18.584,18.999 L14.996,18.999 C14.86,18.999 14.748,18.952 14.662,18.858 C14.576,18.763 14.532,18.647 14.532,18.509 L14.532,5.319 L11.641,5.319 L11.641,18.509 C11.641,18.647 11.597,18.763 11.511,18.858 C11.425,18.952 11.314,18.999 11.177,18.999 L7.923,18.999 C7.787,18.999 7.669,18.952 7.577,18.858 C7.48,18.763 7.434,18.647 7.434,18.509 L7.434,5.319 L4.544,5.319 L4.544,18.509 C4.544,18.835 4.38,18.998 4.052,18.998 L0.492,18.998 C0.164,18.998 8.52651283e-14,18.835 8.52651283e-14,18.509 L8.52651283e-14,1.42 C8.52651283e-14,1.094 0.164,0.93 0.492,0.93 L16.055,0.93 C16.469,0.93 16.859,1.012 17.229,1.175"></path>
                        <path d="M35.284,0.93 C35.697,0.93 36.088,1.012 36.46,1.174 C36.83,1.338 37.147,1.554 37.413,1.82 C37.68,2.087 37.895,2.405 38.058,2.775 C38.222,3.144 38.304,3.536 38.304,3.949 L38.304,18.507 C38.304,18.645 38.256,18.762 38.163,18.857 C38.067,18.952 37.951,18.999 37.815,18.999 L34.227,18.999 C34.088,18.999 33.973,18.952 33.878,18.857 C33.784,18.762 33.735,18.645 33.735,18.507 L33.735,13.887 C33.735,13.75 33.693,13.633 33.607,13.538 C33.521,13.444 33.408,13.397 33.271,13.397 L28.16,13.397 C28.022,13.397 27.906,13.444 27.812,13.538 C27.717,13.633 27.669,13.75 27.669,13.887 L27.669,18.507 C27.669,18.834 27.505,18.998 27.179,18.998 L23.617,18.998 C23.291,18.998 23.127,18.834 23.127,18.507 L23.127,3.949 C23.127,3.536 23.205,3.144 23.358,2.775 C23.514,2.405 23.728,2.087 24.005,1.82 C24.279,1.553 24.602,1.338 24.972,1.174 C25.341,1.012 25.734,0.93 26.146,0.93 L35.284,0.93 L35.284,0.93 Z M33.735,4.982 L27.669,4.982 L27.669,9.526 L33.735,9.526 L33.735,4.982 L33.735,4.982 Z"></path>
                        <path d="M54.554,1.071 C54.649,1.166 54.695,1.282 54.695,1.421 L54.695,15.979 C54.695,16.392 54.613,16.783 54.451,17.153 C54.287,17.523 54.071,17.846 53.804,18.12 C53.537,18.397 53.22,18.611 52.85,18.766 C52.481,18.921 52.088,18.997 51.676,18.997 L43.906,18.997 C43.492,18.997 43.102,18.921 42.732,18.766 C42.362,18.611 42.039,18.397 41.764,18.12 C41.488,17.847 41.274,17.523 41.119,17.153 C40.963,16.783 40.886,16.392 40.886,15.979 L40.886,10.454 C40.886,10.128 41.049,9.965 41.377,9.965 L44.94,9.965 C45.265,9.965 45.429,10.128 45.429,10.454 L45.429,14.146 C45.429,14.284 45.475,14.395 45.572,14.481 C45.666,14.567 45.782,14.61 45.919,14.61 L49.662,14.61 C49.8,14.61 49.916,14.567 50.01,14.481 C50.105,14.395 50.153,14.284 50.153,14.146 L50.153,1.421 C50.153,1.282 50.195,1.166 50.281,1.071 C50.368,0.976 50.479,0.929 50.618,0.929 L54.205,0.929 C54.342,0.93 54.459,0.977 54.554,1.071"></path>
                        <path d="M70.88,0.93 C71.294,0.93 71.685,1.012 72.054,1.174 C72.424,1.338 72.743,1.554 73.01,1.82 C73.277,2.087 73.491,2.405 73.655,2.775 C73.819,3.144 73.901,3.536 73.901,3.949 L73.901,15.977 C73.901,16.39 73.819,16.783 73.655,17.152 C73.491,17.522 73.277,17.845 73.01,18.12 C72.743,18.396 72.424,18.61 72.054,18.766 C71.685,18.92 71.294,18.998 70.88,18.998 L61.742,18.998 C61.331,18.998 60.938,18.92 60.568,18.766 C60.199,18.611 59.875,18.397 59.6,18.12 C59.325,17.846 59.11,17.522 58.955,17.152 C58.8,16.783 58.722,16.39 58.722,15.977 L58.722,3.949 C58.722,3.536 58.8,3.144 58.955,2.775 C59.11,2.405 59.325,2.087 59.6,1.82 C59.875,1.553 60.199,1.338 60.568,1.174 C60.938,1.012 61.331,0.93 61.742,0.93 L70.88,0.93 L70.88,0.93 Z M69.332,5.318 L63.266,5.318 L63.266,14.61 L69.332,14.61 L69.332,5.318 L69.332,5.318 Z"></path>
                        <path d="M93.697,18.585 C93.764,18.706 93.774,18.805 93.722,18.881 C93.669,18.959 93.575,18.998 93.438,18.998 L89.334,18.998 C89.195,18.998 89.058,18.959 88.92,18.881 C88.783,18.805 88.68,18.706 88.611,18.585 L85.874,13.68 C85.84,13.613 85.779,13.577 85.693,13.577 L82.622,13.577 C82.536,13.577 82.494,13.62 82.494,13.706 L82.494,18.507 C82.494,18.834 82.33,18.998 82.003,18.998 L78.442,18.998 C78.114,18.998 77.951,18.834 77.951,18.507 L77.951,1.42 C77.951,1.094 78.114,0.93 78.442,0.93 L90.109,0.93 C90.52,0.93 90.913,1.012 91.283,1.174 C91.653,1.338 91.97,1.554 92.237,1.82 C92.503,2.087 92.72,2.405 92.884,2.775 C93.045,3.144 93.127,3.536 93.127,3.949 L93.127,10.738 C93.127,11.392 92.934,11.982 92.548,12.506 C92.161,13.031 91.665,13.388 91.062,13.577 L90.985,13.603 C90.865,13.637 90.84,13.69 90.909,13.757 L90.934,13.808 L93.697,18.585 L93.697,18.585 Z M88.559,5.137 L82.339,5.137 L82.339,9.526 L88.559,9.526 L88.559,5.137 L88.559,5.137 Z"></path>
                        <path d="M118.038,14.609 C118.175,14.609 118.288,14.656 118.374,14.752 C118.46,14.846 118.502,14.963 118.502,15.1 L118.502,18.508 C118.502,18.645 118.46,18.762 118.374,18.856 C118.288,18.952 118.175,18.999 118.038,18.999 L106.888,18.999 C106.56,18.999 106.397,18.835 106.397,18.509 L106.397,1.42 C106.397,1.094 106.56,0.93 106.888,0.93 L110.449,0.93 C110.776,0.93 110.94,1.094 110.94,1.42 L110.94,14.146 C110.94,14.284 110.986,14.395 111.081,14.481 C111.175,14.567 111.293,14.61 111.43,14.61 L118.038,14.61 L118.038,14.609 Z"></path>
                        <path d="M134.7,1.071 C134.792,1.166 134.841,1.282 134.841,1.421 L134.841,2.892 L134.841,3.665 L134.841,4.672 C134.841,4.811 134.792,4.922 134.7,5.008 C134.603,5.095 134.488,5.138 134.351,5.138 L132.517,5.138 L127.148,5.138 L125.703,5.138 C125.617,5.138 125.575,5.181 125.575,5.267 L125.575,8.079 C125.575,8.148 125.617,8.183 125.703,8.183 L133.087,8.183 C133.223,8.183 133.335,8.23 133.421,8.324 C133.507,8.42 133.551,8.535 133.551,8.674 L133.551,11.255 C133.551,11.393 133.507,11.509 133.421,11.603 C133.335,11.698 133.223,11.745 133.087,11.745 L125.703,11.745 C125.617,11.745 125.575,11.788 125.575,11.874 L125.575,13.14 L125.575,13.165 L125.575,14.662 C125.575,14.748 125.617,14.791 125.703,14.791 L126.787,14.791 L132.62,14.791 L134.351,14.791 C134.488,14.791 134.603,14.839 134.7,14.934 C134.792,15.029 134.841,15.145 134.841,15.282 L134.841,16.315 L134.841,17.657 L134.841,18.51 C134.841,18.647 134.792,18.764 134.7,18.859 C134.603,18.953 134.488,19 134.351,19 L132.879,19 L123.071,19 L121.523,19 C121.195,19 121.031,18.837 121.031,18.511 L121.031,17.633 L121.031,2.661 L121.031,1.424 C121.031,1.285 121.08,1.169 121.174,1.074 C121.269,0.979 121.384,0.932 121.523,0.932 L123.407,0.932 L133.524,0.932 L134.351,0.932 C134.488,0.93 134.603,0.977 134.7,1.071"></path>
                        <path d="M151.076,0.93 C151.49,0.93 151.881,1.012 152.252,1.174 C152.622,1.338 152.939,1.554 153.206,1.82 C153.473,2.086 153.687,2.405 153.851,2.775 C154.015,3.144 154.097,3.536 154.097,3.949 L154.097,18.507 C154.097,18.645 154.048,18.762 153.956,18.857 C153.859,18.952 153.744,18.999 153.607,18.999 L150.02,18.999 C149.881,18.999 149.765,18.952 149.671,18.857 C149.576,18.762 149.528,18.645 149.528,18.507 L149.528,13.887 C149.528,13.75 149.486,13.633 149.4,13.538 C149.314,13.444 149.2,13.397 149.064,13.397 L143.953,13.397 C143.814,13.397 143.699,13.444 143.604,13.538 C143.51,13.633 143.461,13.75 143.461,13.887 L143.461,18.507 C143.461,18.834 143.298,18.998 142.972,18.998 L139.409,18.998 C139.084,18.998 138.92,18.834 138.92,18.507 L138.92,3.949 C138.92,3.536 138.998,3.144 139.151,2.775 C139.307,2.405 139.521,2.087 139.798,1.82 C140.071,1.553 140.395,1.338 140.764,1.174 C141.134,1.012 141.527,0.93 141.939,0.93 L151.076,0.93 L151.076,0.93 Z M149.528,4.982 L143.462,4.982 L143.462,9.526 L149.528,9.526 L149.528,4.982 L149.528,4.982 Z"></path>
                        <path d="M173.157,9.279 C173.252,9.375 173.3,9.49 173.3,9.629 L173.3,15.979 C173.3,16.392 173.218,16.783 173.054,17.153 C172.89,17.523 172.676,17.846 172.409,18.12 C172.142,18.397 171.823,18.611 171.453,18.766 C171.084,18.921 170.693,18.997 170.279,18.997 L161.142,18.997 C160.73,18.997 160.337,18.921 159.967,18.766 C159.598,18.611 159.274,18.397 158.999,18.12 C158.724,17.847 158.51,17.523 158.354,17.153 C158.199,16.783 158.121,16.392 158.121,15.979 L158.121,3.95 C158.121,3.537 158.199,3.145 158.354,2.776 C158.51,2.406 158.724,2.088 158.999,1.821 C159.274,1.554 159.598,1.34 159.967,1.175 C160.337,1.012 160.73,0.93 161.142,0.93 L171.802,0.93 C171.941,0.93 172.056,0.977 172.151,1.072 C172.245,1.168 172.294,1.283 172.294,1.422 L172.294,4.828 C172.294,4.966 172.245,5.082 172.151,5.178 C172.056,5.272 171.941,5.319 171.802,5.319 L163.156,5.319 C163.017,5.319 162.902,5.362 162.807,5.448 C162.713,5.535 162.665,5.646 162.665,5.784 L162.665,14.147 C162.665,14.285 162.713,14.396 162.807,14.482 C162.902,14.568 163.017,14.611 163.156,14.611 L168.267,14.611 C168.403,14.611 168.515,14.568 168.601,14.482 C168.687,14.396 168.731,14.285 168.731,14.147 L168.731,9.63 C168.731,9.491 168.777,9.376 168.872,9.28 C168.966,9.185 169.084,9.138 169.221,9.138 L172.808,9.138 C172.947,9.138 173.062,9.185 173.157,9.279"></path>
                        <path d="M192.208,1.071 C192.3,1.166 192.349,1.282 192.349,1.421 L192.349,15.979 C192.349,16.392 192.267,16.783 192.103,17.153 C191.939,17.523 191.725,17.846 191.458,18.12 C191.19,18.397 190.874,18.611 190.504,18.766 C190.133,18.921 189.741,18.997 189.327,18.997 L180.19,18.997 C179.778,18.997 179.385,18.921 179.015,18.766 C178.646,18.611 178.322,18.397 178.049,18.12 C177.772,17.847 177.558,17.523 177.402,17.153 C177.249,16.783 177.171,16.392 177.171,15.979 L177.171,1.421 C177.171,1.094 177.335,0.93 177.66,0.93 L181.223,0.93 C181.549,0.93 181.712,1.094 181.712,1.421 L181.712,14.146 C181.712,14.284 181.761,14.395 181.855,14.481 C181.95,14.567 182.065,14.61 182.204,14.61 L187.315,14.61 C187.451,14.61 187.565,14.567 187.651,14.481 C187.737,14.395 187.779,14.284 187.779,14.146 L187.779,1.421 C187.779,1.282 187.827,1.166 187.923,1.071 C188.017,0.976 188.133,0.929 188.272,0.929 L191.859,0.929 C191.996,0.93 192.11,0.977 192.208,1.071"></path>
                        <path d="M210.096,1.071 C210.189,1.166 210.238,1.282 210.238,1.421 L210.238,2.892 L210.238,3.665 L210.238,4.672 C210.238,4.811 210.189,4.922 210.096,5.008 C209.999,5.095 209.884,5.138 209.747,5.138 L207.914,5.138 L202.544,5.138 L201.1,5.138 C201.014,5.138 200.971,5.181 200.971,5.267 L200.971,8.079 C200.971,8.148 201.014,8.183 201.1,8.183 L208.484,8.183 C208.62,8.183 208.732,8.23 208.818,8.324 C208.904,8.42 208.948,8.535 208.948,8.674 L208.948,11.255 C208.948,11.393 208.904,11.509 208.818,11.603 C208.732,11.698 208.62,11.745 208.484,11.745 L201.1,11.745 C201.014,11.745 200.971,11.788 200.971,11.874 L200.971,13.14 L200.971,13.165 L200.971,14.662 C200.971,14.748 201.014,14.791 201.1,14.791 L202.184,14.791 L208.017,14.791 L209.747,14.791 C209.884,14.791 209.999,14.839 210.096,14.934 C210.189,15.029 210.238,15.145 210.238,15.282 L210.238,16.315 L210.238,17.657 L210.238,18.51 C210.238,18.647 210.189,18.764 210.096,18.859 C209.999,18.953 209.884,19 209.747,19 L208.275,19 L198.466,19 L196.918,19 C196.59,19 196.427,18.837 196.427,18.511 L196.427,17.633 L196.427,2.661 L196.427,1.424 C196.427,1.285 196.476,1.169 196.57,1.074 C196.665,0.979 196.78,0.932 196.919,0.932 L198.803,0.932 L208.92,0.932 L209.747,0.932 C209.884,0.93 209.999,0.977 210.096,1.071"></path>
                        <path d="M237.803,0.93 C237.94,0.93 238.057,0.977 238.153,1.072 C238.247,1.167 238.293,1.284 238.293,1.421 L238.293,18.509 C238.293,18.646 238.247,18.763 238.153,18.857 C238.057,18.953 237.94,19 237.803,19 L234.215,19 C234.077,19 233.961,18.953 233.867,18.857 C233.771,18.763 233.723,18.646 233.723,18.509 L233.723,12.546 C233.723,12.409 233.681,12.297 233.595,12.211 C233.508,12.125 233.397,12.082 233.258,12.082 L228.148,12.082 C228.011,12.082 227.894,12.125 227.799,12.211 C227.704,12.297 227.658,12.409 227.658,12.546 L227.658,18.509 C227.658,18.835 227.494,18.999 227.167,18.999 L223.605,18.999 C223.279,18.999 223.115,18.835 223.115,18.509 L223.115,1.42 C223.115,1.094 223.279,0.93 223.605,0.93 L227.167,0.93 C227.494,0.93 227.658,1.094 227.658,1.42 L227.658,7.202 C227.658,7.528 227.82,7.692 228.147,7.692 L233.257,7.692 C233.396,7.692 233.507,7.645 233.594,7.55 C233.68,7.456 233.722,7.339 233.722,7.201 L233.722,1.419 C233.722,1.282 233.77,1.165 233.866,1.07 C233.96,0.975 234.076,0.928 234.214,0.928 L237.803,0.928 L237.803,0.93 Z"></path>
                        <path d="M254.528,0.93 C254.942,0.93 255.332,1.012 255.704,1.174 C256.074,1.338 256.391,1.554 256.658,1.82 C256.924,2.087 257.138,2.405 257.303,2.775 C257.466,3.144 257.548,3.536 257.548,3.949 L257.548,18.507 C257.548,18.645 257.5,18.762 257.408,18.857 C257.31,18.952 257.195,18.999 257.058,18.999 L253.47,18.999 C253.332,18.999 253.216,18.952 253.121,18.857 C253.027,18.762 252.979,18.645 252.979,18.507 L252.979,13.887 C252.979,13.75 252.936,13.633 252.849,13.538 C252.763,13.444 252.651,13.397 252.513,13.397 L247.404,13.397 C247.264,13.397 247.149,13.444 247.054,13.538 C246.959,13.633 246.911,13.75 246.911,13.887 L246.911,18.507 C246.911,18.834 246.747,18.998 246.422,18.998 L242.86,18.998 C242.535,18.998 242.371,18.834 242.371,18.507 L242.371,3.949 C242.371,3.536 242.448,3.144 242.601,2.775 C242.756,2.405 242.97,2.087 243.248,1.82 C243.521,1.553 243.844,1.338 244.214,1.174 C244.584,1.012 244.976,0.93 245.388,0.93 L254.528,0.93 L254.528,0.93 Z M252.98,4.982 L246.914,4.982 L246.914,9.526 L252.98,9.526 L252.98,4.982 L252.98,4.982 Z"></path>
                        <path d="M266.234,5.447 C266.139,5.533 266.093,5.643 266.093,5.782 L266.093,14.146 C266.093,14.283 266.139,14.393 266.234,14.481 C266.329,14.567 266.446,14.61 266.583,14.61 L274.869,14.61 C275.006,14.61 275.124,14.657 275.219,14.752 C275.314,14.846 275.36,14.963 275.36,15.1 L275.36,18.507 C275.36,18.645 275.314,18.762 275.219,18.857 C275.124,18.952 275.006,18.999 274.869,18.999 L269.475,18.999 L265.035,18.999 L264.57,18.999 C264.157,18.999 263.766,18.921 263.396,18.767 C263.026,18.612 262.703,18.398 262.428,18.121 C262.153,17.847 261.936,17.523 261.782,17.154 C261.626,16.784 261.55,16.391 261.55,15.978 L261.55,15.513 L261.55,13.629 L261.55,7.615 L261.55,5.937 L261.55,3.949 C261.55,3.537 261.626,3.144 261.782,2.775 C261.935,2.405 262.152,2.087 262.428,1.82 C262.702,1.553 263.026,1.338 263.396,1.174 C263.766,1.012 264.157,0.93 264.57,0.93 L265.035,0.93 L274.869,0.93 C275.006,0.93 275.124,0.977 275.219,1.072 C275.314,1.167 275.36,1.284 275.36,1.421 L275.36,4.828 C275.36,4.966 275.314,5.082 275.219,5.177 C275.124,5.273 275.006,5.32 274.869,5.32 L266.583,5.32 C266.446,5.318 266.329,5.361 266.234,5.447"></path>
                        <path d="M289.737,8.544 C289.684,8.596 289.676,8.655 289.711,8.726 L295.752,18.585 C295.818,18.706 295.83,18.805 295.776,18.881 C295.724,18.959 295.63,18.998 295.494,18.998 L291.208,18.998 C291.069,18.998 290.933,18.959 290.795,18.881 C290.657,18.805 290.555,18.706 290.485,18.585 L286.589,11.538 C286.537,11.452 286.492,11.444 286.459,11.513 L284.315,13.862 C284.229,13.949 284.156,14.073 284.097,14.237 C284.036,14.4 284.007,14.551 284.007,14.688 L284.007,18.508 C284.007,18.834 283.843,18.998 283.515,18.998 L279.955,18.998 C279.627,18.998 279.463,18.834 279.463,18.508 L279.463,1.42 C279.463,1.094 279.627,0.93 279.955,0.93 L283.515,0.93 C283.843,0.93 284.007,1.094 284.007,1.42 L284.007,9.086 L290.665,1.291 C290.752,1.188 290.871,1.103 291.026,1.032 C291.181,0.964 291.327,0.929 291.465,0.929 L295.75,0.929 C295.887,0.929 295.968,0.963 295.996,1.032 C296.02,1.102 295.988,1.188 295.902,1.291 L289.737,8.544 L289.737,8.544 Z"></path>
                        <path d="M303.65,18.508 C303.65,18.834 303.486,18.997 303.158,18.997 L299.597,18.997 C299.269,18.997 299.105,18.834 299.105,18.508 L299.105,1.42 C299.105,1.094 299.269,0.93 299.597,0.93 L303.158,0.93 C303.486,0.93 303.65,1.094 303.65,1.42 L303.65,18.508 L303.65,18.508 Z"></path>
                        <path d="M321.034,1.175 C321.404,1.339 321.722,1.554 321.988,1.821 C322.254,2.089 322.471,2.406 322.634,2.776 C322.795,3.145 322.877,3.537 322.877,3.95 L322.877,18.509 C322.877,18.647 322.831,18.763 322.737,18.858 C322.642,18.952 322.524,18.999 322.388,18.999 L318.799,18.999 C318.66,18.999 318.549,18.952 318.463,18.858 C318.377,18.763 318.335,18.647 318.335,18.509 L318.335,5.783 C318.335,5.645 318.287,5.534 318.192,5.448 C318.097,5.361 317.982,5.318 317.843,5.318 L312.733,5.318 C312.596,5.318 312.478,5.361 312.384,5.448 C312.288,5.534 312.242,5.645 312.242,5.783 L312.242,18.509 C312.242,18.835 312.078,18.998 311.751,18.998 L308.19,18.998 C307.862,18.998 307.699,18.835 307.699,18.509 L307.699,1.42 C307.699,1.094 307.862,0.93 308.19,0.93 L319.857,0.93 C320.271,0.93 320.664,1.012 321.034,1.175"></path>
                        <path d="M341.939,9.279 C342.034,9.375 342.082,9.49 342.082,9.629 L342.082,15.979 C342.082,16.392 342,16.783 341.836,17.153 C341.672,17.523 341.458,17.846 341.191,18.12 C340.923,18.397 340.605,18.611 340.235,18.766 C339.866,18.921 339.475,18.997 339.061,18.997 L329.923,18.997 C329.512,18.997 329.118,18.921 328.748,18.766 C328.379,18.611 328.056,18.397 327.78,18.12 C327.505,17.847 327.291,17.523 327.135,17.153 C326.979,16.783 326.902,16.392 326.902,15.979 L326.902,3.95 C326.902,3.537 326.98,3.145 327.135,2.776 C327.29,2.406 327.504,2.088 327.78,1.821 C328.055,1.554 328.379,1.34 328.748,1.175 C329.118,1.012 329.512,0.93 329.923,0.93 L340.583,0.93 C340.723,0.93 340.837,0.977 340.933,1.072 C341.027,1.168 341.076,1.283 341.076,1.422 L341.076,4.828 C341.076,4.966 341.027,5.082 340.933,5.178 C340.837,5.272 340.723,5.319 340.583,5.319 L331.937,5.319 C331.797,5.319 331.683,5.362 331.587,5.448 C331.493,5.535 331.445,5.646 331.445,5.784 L331.445,14.147 C331.445,14.285 331.493,14.396 331.587,14.482 C331.683,14.568 331.797,14.611 331.937,14.611 L337.047,14.611 C337.184,14.611 337.295,14.568 337.381,14.482 C337.467,14.396 337.512,14.285 337.512,14.147 L337.512,9.63 C337.512,9.491 337.558,9.376 337.653,9.28 C337.747,9.185 337.865,9.138 338.002,9.138 L341.589,9.138 C341.729,9.138 341.844,9.185 341.939,9.279"></path>
                    </g>
                    <g id="Shape">
                        <path d="M108.886,1.546 C111.223,2.579 113.234,3.934 114.922,5.615 C116.606,7.299 117.965,9.305 119,11.637 C120.032,13.972 120.549,16.439 120.549,19.043 L120.549,113.839 C120.549,114.709 120.249,115.442 119.652,116.036 C119.053,116.634 118.319,116.932 117.45,116.932 L94.776,116.932 C93.904,116.932 93.198,116.633 92.655,116.036 C92.11,115.441 91.839,114.709 91.839,113.839 L91.839,27.67 L73.569,27.67 L73.569,113.839 C73.569,114.709 73.297,115.442 72.754,116.036 C72.208,116.634 71.502,116.932 70.633,116.932 L50.079,116.932 C49.208,116.932 48.474,116.633 47.877,116.036 C47.278,115.441 46.98,114.709 46.98,113.839 L46.98,27.67 L28.71,27.67 L28.71,113.839 C28.71,115.902 27.675,116.933 25.611,116.933 L3.099,116.933 C1.032,116.933 1.42108547e-13,115.903 1.42108547e-13,113.839 L1.42108547e-13,3.092 C1.42108547e-13,1.032 1.032,0 3.099,0 L101.464,0 C104.074,0 106.546,0.516 108.886,1.546" fill="#C53C02"></path>
                        <path d="M108.886,1.546 C111.223,2.579 113.234,3.934 114.922,5.615 C116.606,7.299 117.965,9.305 119,11.637 C120.032,13.972 120.549,16.439 120.549,19.043 L120.549,27.492 L91.839,27.669 L73.569,27.669 L46.98,27.669 L28.71,27.669 L0,27.492 L0,3.092 C0,1.032 1.032,-2.84217094e-14 3.099,-2.84217094e-14 L101.464,-2.84217094e-14 C104.074,-3.15544362e-30 106.546,0.516 108.886,1.546" fill="#751B00"></path>
                        <path d="M219.416,88.544 C220.337,88.544 221.085,88.852 221.663,89.463 C222.238,90.076 222.527,90.828 222.527,91.718 L222.527,113.771 C222.527,114.665 222.238,115.416 221.663,116.026 C221.085,116.64 220.337,116.945 219.416,116.945 L141.755,116.945 C139.566,116.945 138.472,115.888 138.472,113.771 L138.472,3.175 C138.472,1.06 139.566,0 141.755,0 L165.603,0 C167.79,0 168.886,1.06 168.886,3.175 L168.886,85.538 C168.886,86.431 169.202,87.154 169.837,87.71 C170.469,88.268 171.246,88.545 172.17,88.545 L219.416,88.545 L219.416,88.544 Z" fill="#265A8F"></path>
                        <path d="M168.637,116.945 L141.748,116.945 C139.563,116.945 138.472,115.888 138.472,113.771 L138.472,3.174 C138.472,1.06 139.563,0 141.748,0 L165.54,0 C167.722,0 168.816,1.06 168.816,3.174 L168.816,85.538 C168.816,86.43 168.637,116.945 168.637,116.945" fill="#162F51"></path>
                        <path d="M338.78,0 C339.706,0 340.488,0.309 341.126,0.921 C341.762,1.537 342.082,2.291 342.082,3.183 L342.082,114.094 C342.082,114.989 341.762,115.742 341.126,116.355 C340.488,116.97 339.706,117.277 338.78,117.277 L314.625,117.277 C313.696,117.277 312.914,116.97 312.279,116.355 C311.641,115.743 311.323,114.989 311.323,114.094 L311.323,75.392 C311.323,74.5 311.032,73.774 310.454,73.214 C309.873,72.657 309.121,72.377 308.195,72.377 L274.312,72.377 C273.383,72.377 272.601,72.657 271.966,73.214 C271.327,73.774 271.01,74.5 271.01,75.392 L271.01,114.094 C271.01,116.217 269.907,117.277 267.707,117.277 L243.727,117.277 C241.525,117.277 240.425,116.217 240.425,114.094 L240.425,3.184 C240.425,1.064 241.525,0.001 243.727,0.001 L267.707,0.001 C269.907,0.001 271.01,1.064 271.01,3.184 L271.01,40.713 C271.01,42.836 272.11,43.896 274.312,43.896 L308.195,43.896 C309.121,43.896 309.873,43.59 310.454,42.975 C311.032,42.362 311.323,41.608 311.323,40.713 L311.323,3.184 C311.323,2.292 311.641,1.538 312.279,0.922 C312.914,0.31 313.696,0.001 314.625,0.001 L338.78,0.001 L338.78,0 Z" fill="#FDEE00"></path>
                        <path d="M271.011,75.392 L271.011,114.093 C271.011,116.216 269.908,117.278 267.709,117.278 L243.728,117.278 C241.526,117.278 240.426,116.216 240.426,114.093 L240.426,3.183 C240.426,1.063 241.526,2.84217094e-14 243.728,2.84217094e-14 L267.709,2.84217094e-14 C269.908,2.84217094e-14 271.011,1.063 271.011,3.183 L271.011,40.712 L271.011,75.392 L271.011,75.392 Z" fill="#ECC700"></path>
                        <path d="M338.78,0 C339.706,0 340.488,0.309 341.126,0.921 C341.762,1.537 342.082,2.29 342.082,3.183 L342.082,114.093 C342.082,114.989 341.762,115.742 341.126,116.356 C340.488,116.971 339.706,117.277 338.78,117.277 L314.625,117.277 C313.696,117.277 312.914,116.971 312.279,116.356 C311.641,115.743 311.323,114.989 311.323,114.093 L311.323,75.392 L311.323,40.712 L311.323,3.183 C311.323,2.29 311.641,1.537 312.279,0.921 C312.914,0.309 313.696,-5.68434189e-14 314.625,-5.68434189e-14 L338.78,-5.68434189e-14 L338.78,0 Z" fill="#ECC700"></path>
                    </g>
                </g>
            </g>
        </g>
    </g>
</svg>