<?xml version="1.0" encoding="utf-8"?>
<!-- Generator: Adobe Illustrator 21.0.0, SVG Export Plug-In . SVG Version: 6.00 Build 0)  -->
<svg version="1.1" id="Layer_1" xmlns="http://www.w3.org/2000/svg" xmlns:xlink="http://www.w3.org/1999/xlink" x="0px" y="0px"
	 viewBox="0 0 233.3 233.3" style="enable-background:new 0 0 233.3 233.3;" xml:space="preserve">
<path d="M116.6,0C52.2,0,0,52.2,0,116.6c0,64.4,52.2,116.6,116.6,116.6c64.4,0,116.6-52.2,116.6-116.7C233.3,52.2,181.1,0,116.6,0z
	 M116.6,3.4c62.5,0,113.2,50.7,113.2,113.2c0,62.5-50.7,113.2-113.2,113.2c-62.5,0-113.2-50.7-113.2-113.2
	C3.4,54,54.1,3.4,116.6,3.4L116.6,3.4z M116.9,7.4l-0.6,9.7c-0.1,1,0,2,0.2,2.9c0.7,3.1,3.7,4.2,6.6,4.4c1.6,0.1,3.2-0.1,4.6-1
	c2.6-1.5,2.7-4,2.9-6.7l0.5-8.4c-0.6,0.1-1.3,0-1.9-0.1l-0.4,7.2c-0.1,1.2-0.2,3.9-0.7,4.9c-1,2-2.2,2.7-4.4,2.6
	c-1-0.1-1.9-0.4-2.6-1.2c-0.8-0.9-0.9-1.6-1.1-2.8c-0.1-1.2,0-3.2,0.1-4.5l0.4-6.7c-0.6,0-1.2,0-1.8,0C118,7.6,117.5,7.5,116.9,7.4
	L116.9,7.4z M108.1,7.6c-0.4,0-0.8,0-1.2,0.1c-5.2,0.6-9.1,3.8-8.4,10c0.5,4.8,4.7,7.5,9.7,7c1.6-0.2,3.2-0.6,4.6-1.5l0.3-2.1
	l-0.3-0.1c-1,1.1-2.6,2.1-4,2.2c-3.6,0.4-5.9-2.2-6.4-6.2c-0.4-3.5,0.8-7.4,4.7-7.8c1.5-0.2,3.1,0.6,4.2,1.7l0.3,0
	c0.1-0.9,0.2-1.7,0.3-2.5C110.8,7.8,109.4,7.6,108.1,7.6L108.1,7.6z M136.8,9.3l-3.7,15.8c0.6,0.1,1.2,0.2,1.8,0.3
	c0.6,0.1,1.1,0.3,1.7,0.5l1.8-7.4l0.2,0c0.3,1,0.7,2.2,0.9,2.9L141,27c0.7,0.1,1.4,0.2,2.1,0.4c0.7,0.2,1.4,0.4,2.1,0.6l-0.6-1.6
	c-0.9-2.5-1.8-4.9-2.6-7.4c2.3,0,4.1-1,4.6-3.3c0.4-1.6-0.1-2.8-1.2-3.8c-0.9-0.7-2.5-1.1-3.6-1.4L136.8,9.3z M94.4,9.9l-8.8,2.3
	l4,15.6l8.8-2.3c-0.1-0.3-0.3-0.6-0.4-1c0-0.3-0.1-0.7-0.1-1c-1.4,0.5-2.9,1.1-5.2,1.7l-1.5-5.8l2.4-0.6c1-0.3,2-0.4,2.9-0.5
	c-0.1-0.3-0.3-0.6-0.4-1C96,17,96,16.6,96,16.3c-0.8,0.3-1.7,0.7-2.8,0.9l-2.4,0.6l-1.3-4.9c2.3-0.6,4-0.9,5.4-1
	c-0.1-0.3-0.3-0.6-0.4-1C94.6,10.6,94.4,10.2,94.4,9.9L94.4,9.9z M140,11.4c1.4,0.3,3.2,0.6,3.1,2.6c0,0.5-0.1,0.9-0.1,1.2
	c-0.6,2.4-2.1,3.2-4.4,2.4L140,11.4z M152.5,13.6l-5.6,15.3c0.6,0.2,1.2,0.3,1.7,0.5c0.6,0.2,1.1,0.5,1.6,0.7l5.6-15.3
	c-0.6-0.2-1.2-0.3-1.7-0.5C153.5,14.1,153,13.8,152.5,13.6L152.5,13.6z M80.3,14.1c-0.8,0-1.8,0.1-2.8,0.5c-3.4,1.3-4.3,4.1-3.3,6.6
	c2.1,5.3,8.2,1.5,9.6,5c0.6,1.5-0.3,2.8-1.7,3.3c-1.5,0.6-3.1,0.2-4-1.2l-0.4,0.2c0.2,1,0.4,2,0.5,3.1c1.3,0.3,2.7,0,3.9-0.4
	c3.4-1.3,5.1-4.3,3.9-7.2c-2-5.1-8.5-1.9-9.7-4.9c-0.5-1.3-0.2-2.4,1.6-3.1c1.3-0.5,2.4-0.1,3.3,0.9l0.3-0.1
	c-0.1-0.8-0.1-1.7-0.2-2.5C81.1,14.1,80.7,14.1,80.3,14.1L80.3,14.1z M159.5,16.1c-0.1,0.3-0.2,0.6-0.3,0.9
	c-0.1,0.3-0.4,0.6-0.6,0.9c1.2,0.4,2.6,0.9,4.1,1.6l-6.4,13.1c0.6,0.2,1.1,0.4,1.7,0.7c0.5,0.3,1,0.6,1.5,0.9l6.4-13.1
	c1.3,0.6,2.5,1.4,3.7,2.2c0.1-0.3,0.2-0.6,0.3-1c0.1-0.3,0.4-0.6,0.6-0.8L159.5,16.1z M172.7,22.7c-0.3,3.6-0.8,7.1-1.1,10.7
	l-3.9,5.7c0.5,0.3,1.1,0.6,1.5,0.9c0.5,0.3,0.9,0.7,1.4,1.1l4.1-6.1c2.9-1.7,6.1-3,9.2-4.6c-0.3-0.2-0.7-0.4-1-0.6
	c-0.3-0.2-0.6-0.4-0.9-0.7c-1.9,1.2-5.6,3.4-6.9,3.8c-0.1-0.4,0.1-1.7,0.4-3.2c0.2-1.5,0.5-3.2,0.7-4.6c-0.6-0.4-1.2-0.7-1.8-1.1
	C173.8,23.6,173.3,23.2,172.7,22.7L172.7,22.7z M58.2,24.8c-0.5,0.4-0.9,0.7-1.4,1c-0.5,0.3-1,0.6-1.6,0.9l8.6,13.6l7.6-4.8
	c-0.2-0.2-0.5-0.5-0.6-0.8c-0.2-0.3-0.3-0.6-0.4-0.9c-1.3,1-2.7,2.1-4.4,3.2L58.2,24.8z M116.6,26.9C67.1,26.9,27,67.1,27,116.6
	c0,49.5,40.1,89.6,89.6,89.6c49.5,0,89.6-40.1,89.6-89.6C206.3,67.1,166.1,26.9,116.6,26.9z M116.6,29.1c48.3,0,87.4,39.1,87.4,87.4
	c0,48.3-39.1,87.4-87.4,87.4c-48.3,0-87.4-39.1-87.4-87.4C29.2,68.3,68.4,29.1,116.6,29.1z M46.8,32.9c-0.2,0.2-0.4,0.4-0.6,0.6
	c-0.2,0.2-0.5,0.4-0.7,0.5l5.5,16.9c0.3-0.3,0.5-0.5,0.8-0.8c0.3-0.2,0.6-0.4,0.9-0.7c-0.7-1.5-1.2-3-1.9-4.8l4.2-3.6
	c1.5,0.8,2.9,1.7,4.5,2.7c0.5-0.5,0.9-1,1.5-1.4c0.5-0.4,1.1-0.8,1.6-1.2L46.8,32.9z M48.4,37.5l5.2,2.8l-3.3,2.8L48.4,37.5z
	 M196.3,41.6l-16.6,6.2c0.3,0.3,0.6,0.5,0.8,0.8c0.3,0.3,0.5,0.6,0.7,0.9c1.5-0.8,3-1.4,4.7-2.1l3.8,4c-0.7,1.6-1.6,3-2.5,4.6
	c0.5,0.5,1,0.9,1.5,1.4c0.5,0.5,0.9,1,1.3,1.6l7.5-16.1c-0.2-0.2-0.5-0.4-0.7-0.6C196.7,42.1,196.5,41.9,196.3,41.6L196.3,41.6z
	 M37.4,41.7c-0.2,0.3-0.4,0.5-0.5,0.8c-0.2,0.2-0.4,0.5-0.7,0.7l8.6,7.1c-5.1,0.1-10.1,0.6-15.1,0.8l-1.5,1.8l12.5,10.3
	c0.2-0.3,0.3-0.5,0.6-0.8c0.2-0.2,0.4-0.5,0.7-0.7L33,54.4l3.7-0.3c3.9-0.3,7.8-0.4,11.9-0.5l1.3-1.5L37.4,41.7z M193,44.7l-2.6,5.3
	l-2.9-3.2L193,44.7z M152.3,51.8v0.1c-2.3,0.1-4.7,0.6-6.7,1l-0.1,0c-2,0.8-4.4,2-6.4,3.6c-1.9,1.6-3.5,3.8-3.4,6.6
	c-0.2,4.4,2.2,7.7,2.6,11.6c-0.1,2.2-1.4,4.2-3.3,5.9c-1.9,1.7-4.1,3-5.8,4l-0.7,0.4h-1.9V85c-0.2-1.3-0.8-3.2-1.2-4.4
	c0.1-1.1-0.2-2.1-0.4-2.9c-0.3-0.9-0.4-1.4-0.2-1.8l0.2-0.4l-0.2-0.4c-1.1-3.1-1.4-6.1-1.5-9.6v-0.2c-0.4-1.7-0.6-3.8-1.3-5.8h0.1
	l-0.4-0.9c-0.6-1.5-1.9-2.4-3.2-3c-1.3-0.6-2.6-0.9-3.5-1.1c-1-0.2-2.2-0.4-3.2-0.4c-0.5,0-0.9-0.1-1.2-0.1c-0.3,0-0.5,0-0.4,0h-0.1
	c0,0-0.1,0-0.1,0c-0.6,0-1.2,0.1-1.8,0.3c-0.3,0.1-0.7,0.3-0.9,0.6c-0.1,0.1-0.2,0.3-0.3,0.4l-2.2-0.2c-0.4,0-0.8,0-1.2,0h-0.2
	c-0.2,0-0.4,0-0.6,0c-0.6,0-1.1,0.1-1.6,0.2c-0.6,0.2-1.1,0.4-1.6,0.8l-0.2,0.2v0l-0.6,1.1c-0.1,0.1-0.1,0.2-0.2,0.4
	c-0.7,2-0.2,4,0,5.9l0.1,0.9l0.3,2.8l1-3.2l0.2-0.2c0.4,0.1,1.7,0.7,4.6,2.1c0,0.1,0.1,0.2,0.1,0.2v0.3l0.3,0.2
	c0.3,0.3,0.4,0.5,0.5,0.7c0.1,0.2,0.1,0.5,0.1,1l-0.9,2.4l-0.7,2.7v0.2c0,0.2-0.2,0.7-0.6,1.3c-0.3,0.6-0.7,1.3-0.7,2.2
	c-0.4,0.8-0.9,1.9-0.8,3.1l-2,4.9h-4.7l0.1-0.2c-2.3-1.1-4.9-2.4-6.4-4.5c-0.5-2.8,0.4-5.5,1.1-8.3c0.8-2.8,1.4-5.7,0.1-8.8l0,0v0
	c-2.2-3.9-5.8-5.9-9.8-6.6c-1.2-0.2-2.5-0.3-3.7-0.3c-0.8,0-1.5,0.1-2.3,0.1h0c-2,0.2-3.9,0.7-5.7,1.3h0l0,0
	c-6,3.5-9.2,8.9-11.1,14.8c-1.9,5.9-2.6,12.5-3.6,18.5v0l-1.9,27.6c-0.5,6.8,0.4,13.6-0.3,20.1l-0.1,0.8l0.7-0.2
	c1.4-0.5,2.7-1.3,3.8-2.4c0.7,4.2,0.3,8.9-0.1,13.2l-0.1,0.6h0.6c2.1,0,3.8-1.4,5-3C61.6,152,61,156,60,159.9l-0.1,0.2l0.4,1
	l0.2,0.1c1.2,0.4,2.4,0.1,3.4-0.3c0.9-0.4,1.6-0.9,2.4-1.4c-0.3,1.5-0.5,3.1-0.7,4.6h-2c-2.2,0-4,1.7-4.1,3.9v0.1
	c0.1,2.1,1.8,3.7,3.9,3.8v3.4h2.2v1.4h-2.1v5.9h10.7v-5.9h-1.6v-1.4H76v1.4h-1.6v5.9h10.8v-5.9H83v-1.4h2.2v-3.4h11.2l-0.1,0.3
	c0,0,0,0.1,0,0.2l1.7,2.3c0,0.1,0.1,0.1,0.2,0.1l2.8-1.1c0,0,0.1,0.1,0.1,0.1h-0.1l1.9,2.4c0,0.1,0.1,0.1,0.2,0.1l2.7-1.1
	c0,0,0.1,0,0.1,0h-0.1l2,1.6c0,0,0.1,0,0.2,0l2.7-1c0,0,0.1,0,0.1,0l3.7,2c0,0,0.1,0,0.2,0l3.8-2l2.6,1c0.1,0,0.1,0,0.2,0l2-1.6
	h-0.1c0.1,0,0.1,0,0.1-0.1l2.7,1.2c0.1,0,0.2,0,0.2-0.1l1.9-2.4h-0.1c0.1,0,0.1,0,0.1-0.1l2.6,1c0,0,0.1,0,0.1,0h0.1
	c0.1,0,0.2,0,0.2-0.1l1.7-2.3c0,0,0-0.1,0-0.2l-0.1-0.3h0.4v0.1l0.5,0.1c0,0,0.5,0.1,1.1-0.1h7.8l-0.1,0.2l0.5-0.2h6.5
	c0.1,0.8,0.7,1.4,1.5,1.4c0.8,0,1.4-0.6,1.5-1.4h1.4c0.1,0,0.3,0.1,0.3,0c0.1,0.1,0.4,0.6,0.4,0.6v-0.1c1,2.2,2.7,4.5,4.8,6.4
	c2.1,1.9,4.6,3.2,7.1,3.2c2.4,0,4.4-1.1,5.9-2.7c1.5-1.6,2.6-3.6,3.6-5.7c0,0,0.3-0.7,0.8-1.6c0.4-0.9,1-1.8,1.2-2.1
	c0.9-0.9,2.7-1.2,2.7-1.2l6-0.8l-6-0.8c0,0-1.8-0.3-2.7-1.2c-0.2-0.2-0.8-1.2-1.3-2.1s-0.7-1.6-0.7-1.6c-0.7-1.5-1.5-3-2.4-4.4
	l0.2-0.2l-0.1-0.3c-1.2-3.7-1.8-7.8-2.4-11.8v-0.1c1.3,0.6,2.4,0.9,3.1,0.7c0.9-0.2,1.3-0.7,1.3-0.7l0.2-0.2l-0.1-0.2
	c-0.9-3.8-1.6-8.5-1.9-13c0.3,0.7,0.7,1.4,1.2,1.9c0.8,0.8,1.8,1.4,3,1.2l2.2-0.5l-0.1-0.5c-4.9-15.3-2.5-32.7-5.6-49l0.3-1.2v-0.1
	c-1-6.1-3.9-11.3-5.9-16.9v-0.1c-2.2-4.6-4.5-10.2-9.9-13.1c-1.6-1.4-3.6-1.8-5.6-1.9L152.3,51.8z M152.1,52.8L152.1,52.8l0.1,0.1
	c2.2-0.1,4.2,0.3,5.9,1.7v0.1c5.1,2.7,7.2,8,9.5,12.7c1.9,5.5,4.7,10.6,5.7,16.2c-1.3,1.1-3,2-4.6,1.4l-1.4-1.6
	c-2.9-5.1-5.2-10.5-7.5-15.9c0.7,0.3,2,0.2,2.9-0.4c1-0.9,1.8-1.9,2.3-3.1c-1.5,1.2-3.8,2.3-5.8,1.5l-0.3-0.3
	c-2.5,1.9-5.9,3.6-9.2,2.3c-0.6,1.6-1.1,3.6-2.9,4.1l-1.5,0.1c0.4,0.9,1.3,1.9,1.8,2.9c0.3,1.6,0.6,3.8-0.3,5.2
	c-0.5,1.5-3.4,0.6-2.3,2.9c0.2,1.6,0.3,3.4-0.6,4.6c-1.4,1.5-3.2,2.8-4.9,2.6c-0.2,1.1-1.5,3-2,3.8c-0.2-5.1-1.1-8.6-1.1-8.6
	l-0.1-0.4H131c1.4-0.9,3-1.9,4.5-3.2c1.9-1.8,3.5-4,3.6-6.6v-0.1c-0.4-4.2-2.7-7.4-2.6-11.5v-0.1c-0.1-2.4,1.2-4.3,3.1-5.9
	c1.8-1.5,4.1-2.7,6.1-3.5C147.6,53.5,149.9,52.9,152.1,52.8L152.1,52.8z M201.9,53.6c-1.6,0-3.3,0.5-5,1.6c-4.7,3-4.4,8.1-1.6,12.3
	c1.1,1.7,2.7,3.3,4.4,4.7l5.5-3.6c-0.4-0.5-0.7-0.9-1.1-1.4c-0.3-0.5-0.6-1-0.9-1.6l-4.6,3c-0.6-0.3-1.3-0.8-2-1.8
	c-2-3-1.1-6.1,2.4-8.4c3.3-2.2,7.4-2.5,9.6,0.8c1,1.6,1.2,3.4,0.5,5.2l0.2,0.3c0.8-0.4,1.6-0.6,2.4-0.7c-0.1-2.1-0.8-3.9-1.9-5.6
	C207.8,55.5,205,53.6,201.9,53.6L201.9,53.6z M109.6,54.9h0.4c0,0,3,0.1,4.8,0.5c0.2,0,0.5,0.1,0.7,0.2c0.1,0,0.1,0,0.2,0
	c0.2,0.1,0.4,0.1,0.6,0.2c0.1,0,0.2,0.1,0.3,0.1c0.2,0.1,0.3,0.1,0.5,0.2c0.2,0.1,0.4,0.2,0.6,0.2c0.1,0,0.1,0.1,0.2,0.1
	c0.2,0.1,0.3,0.1,0.4,0.2c0.1,0.1,0.3,0.1,0.4,0.2v0c0.1,0.1,0.2,0.2,0.4,0.2c0,0,0.1,0,0.1,0.1c0.1,0.1,0.2,0.2,0.3,0.2
	c0,0,0.1,0.1,0.1,0.1c0.1,0.1,0.2,0.2,0.3,0.2c0,0,0.1,0.1,0.1,0.1c0.1,0.1,0.1,0.2,0.2,0.3c0,0,0.1,0.1,0.1,0.1
	c0.1,0.1,0.1,0.2,0.2,0.3c0,0,0,0.1,0.1,0.1c0.1,0.1,0.2,0.3,0.2,0.4c0.9,2,1,4.3,1.5,6.5c0.1,3.5,0.4,6.7,1.6,10
	c-0.7,1.7,1.1,3.5,0.6,5.4c0.3,1.1,0.9,2.8,1.1,3.9c0,0.2,0.1,0.3,0.1,0.4h-0.5l-1.8-4.4l0.6-0.1l-1.4-4.3l0.6,0.1l-1.7-3.6l0.7,0.1
	l-0.7-3.6h0.4l-0.7-2.7l0.7-0.1l-1.1-3.4l0.7,3.2l-0.8-0.1l0.9,2.8l-0.7-0.1l1,3.7l-0.9-0.1l1.6,3.6c0,0-1.1-0.5-0.8-0.1
	c0.3,0.4,1.7,4.4,1.7,4.4l-0.8,0.1l1.9,4.7h-0.8c-1.1-0.7-1.1-1.2-1.7-1.6c-0.2,0.2,0.3,0.6,0.4,0.8l0.5,0.7H117
	c0.3-0.5,0.9-1,0.3-1.2c0,0-0.1,0-0.1,0c-0.7,0-1.3,1-1.8,1.2h-6.1c-0.2-0.5,0.9-1,0.5-1.3c-0.8,0-1.6,1.1-2.2,1.3h-4.2
	c-0.3-0.3,1.1-0.6,0.8-0.9c-0.6,0.2-1.2,0.8-1.8,0.9h-0.9l1.8-4.4c-0.3-1,0.4-2.2,0.9-3.2c-0.2-1.4,1.3-2.6,1.3-3.9l0.7-2.5l0.9-2.6
	v-0.8v-0.3v-0.2v-0.2v-0.1c-0.1-0.2-0.2-0.4-0.2-0.6c-0.2-0.2-0.3-0.5-0.5-0.7c-4.4-2.2-6-2.7-6.1-2.7c0,0,0.2-0.3,0.4-0.6
	c0,0,0.1-0.2,0.3-0.4v0c-0.1,0.1-0.2,0.2-0.3,0.4c2.4,0.9,2.7,1,4.9,2.7l-1.2-1.1c0,0-1-0.9-3.5-1.9c0.2-0.2,0.3-0.4,0.5-0.4
	c2-0.6,3.1,0.1,3.1,0.1l1.2,0.6l3,1.4c0,0,0.6,0,0-0.2c-2-0.9-3.8-3-6.1-3v0c-0.4,0-0.8,0.1-1.3,0.3c-0.9,0.5-1.4,1.9-1.8,2.8
	l-0.1,0.1c-0.2-2.6-0.9-5,0.5-7.1c0.1-0.1,0.3-0.2,0.4-0.3c0,0,0.1-0.1,0.1-0.1c0.1,0,0.1-0.1,0.2-0.1c0.1,0,0.1-0.1,0.2-0.1
	c0.1,0,0.2-0.1,0.2-0.1c0.1,0,0.2-0.1,0.3-0.1c0,0,0.1,0,0.1,0c0.1,0,0.2-0.1,0.3-0.1l0.2,0c0.1,0,0.2,0,0.3-0.1c0,0,0.1,0,0.1,0
	c0.3,0,0.7-0.1,1-0.1c1.1,0,2.3,0.1,3.3,0.3c0.3,0.1,0.7,0.1,1,0.1c-0.1-0.4,0.5-0.8,1.1-1c0.1,0,0.2-0.1,0.3-0.1h0.1
	c0.1,0,0.2,0,0.3,0L109.6,54.9z M107.7,56.1l0.5,1.3c0.5,1.5,0.1,1.7,0.2,2.1l0.2,0.5C109.7,58.8,109.1,57.4,107.7,56.1L107.7,56.1z
	 M101.4,56.6c-1.6,0.1-2.1,2.1-1.9,3.9c0.6-1.7,0.7-2.8,2.2-3.9C101.6,56.6,101.5,56.6,101.4,56.6L101.4,56.6z M76.7,57.4
	c1.2,0,2.4,0.1,3.6,0.3c3.7,0.7,7,2.5,9.1,5.9c1.2,2.7,0.6,5.4-0.2,8.1c-0.8,2.8-1.8,5.7-1.2,8.8l0,0.1l0.1,0.1c1.3,1.9,3.2,3,5.1,4
	h-0.4l-0.1,0.4c0,0-0.6,4.1-0.8,8.7l-0.6,1.6c-1.4,0.9-2.6,0.2-3.9-0.4c-0.7-1-1.8-2-1.2-3.3c0.4-0.7,1-1.1,1.4-1.6
	c-1.2,0.4-2.9,2.2-4.4,0.8c-0.6-1.6-2-3-1.3-4.9c0.4-0.6,0.6-1.3,1.3-1.8c-0.7-0.2-1.6,0.4-2.2-0.2c-1-1.5-0.8-3.1-0.6-5
	c0.6-0.6,0.9-1.3,1.7-1.7c-0.9-0.4-2.1-1.2-1.9-2.4c0.2-2.7,0.9-5.2,2.9-7.1l-0.1-0.2c-2.3,2-5.1,3.7-8.2,2.6
	c-1-0.4-1.1-1.6-1.4-2.4c-1.4,2.4-4.4,3-7.1,3.2c-1.5-0.1-2.4-1.8-3.8-2.2c0.6,1.1,1.8,2.5,3,3.2c-0.5,5.8-2.7,10.8-5.2,15.8
	c-1.2,1.5-3.3,1.3-5,1.6c0.9-5.5,1.6-11.2,3.2-16.3c1.8-5.8,4.9-10.8,10.6-14.3c1.8-0.6,3.6-1.1,5.5-1.3
	C75.3,57.4,76,57.4,76.7,57.4L76.7,57.4z M110.7,58.8c-0.8,0-1.2,0.6-1.6,1.5l-0.4,0.3c1.1-0.2,1.2,1.8,2.6,1.7
	c1.1,0.1,2.2-0.7,2.7-1.8c0.9,0.1,1.7,0.2,2.5-0.2l0.1-0.2c-0.8,0.3-1.7,0.1-2.6-0.2c-1.1-0.4-2.2-1.2-3.2-1.2L110.7,58.8
	L110.7,58.8z M28,59.6c-2.6-0.1-5.3,1.1-7.4,4.9c-2.8,5.2-1.1,10,3.1,12.3c4.7,2.6,9.1,0.9,11.6-3.7c2.8-5.1,1-10.1-3.1-12.3
	C31,60.1,29.5,59.6,28,59.6L28,59.6z M110.4,59.7c0.1,0,0.1,0,0.1,0c-0.1,0.6-0.2,1.2,0.6,1.5c1,0.2,1.1-0.4,1.3-1.1
	c0.1-0.1,0.8,0.2,0.8,0.3c-0.1,0.4-0.4,1.2-1.1,1.5c-0.5,0.1-0.8,0.2-1.3,0c-0.7-0.2-1.2-1.1-1.2-1.7
	C109.6,59.9,110.1,59.7,110.4,59.7L110.4,59.7z M107.1,60.3c-0.7,0-1.6,0.7-1.9,0.8c0.6,0.2,1.9,0.2,2.4,0c0.2-0.1-0.2-0.5-0.1-0.6
	C107.4,60.3,107.2,60.3,107.1,60.3L107.1,60.3z M138.2,60.3c-3.4,5.8,3.1,10.7,1.3,16.5C142.9,71,136.3,66.2,138.2,60.3L138.2,60.3z
	 M106.9,61.4c0.9,0.8,2.8,1.7,2.3,3.3c-0.8,0.8-1.3,0.5-1.7,0.1l-3.4-2.1c0,0,2.5,1.8,3.7,2.9c1,0.2,2.1-0.2,2.4-1.3
	c0-0.5-0.8-1.5-1.8-2.2C107.9,62,107.4,61.6,106.9,61.4z M152.2,62.5c-0.2,0.4,0.2,1.1,0.6,1.4l0.1-0.1
	C152.9,63.2,152.5,62.8,152.2,62.5L152.2,62.5z M26.1,62.9c1.3,0,2.7,0.5,3.9,1.1c3.5,1.9,5.9,5.1,4.2,8.3c-1.7,3.1-5.2,2.8-8,1.3
	c-4.7-2.5-5.9-5.4-4.4-8.4C22.8,63.5,24.4,62.9,26.1,62.9z M88.8,63.6c1.2,2.8-0.5,5.6-1.2,8.1c-0.5,3.7-2.1,7.9,1.3,10.8
	c-1.2-1.6-1.6-3.7-1.2-5.7C87.8,72.3,91.6,67.9,88.8,63.6L88.8,63.6z M79.3,64.9c-0.9,0.8-1,1.8-1.5,2.8
	C78.6,66.8,79.5,66,79.3,64.9z M107.7,66.6c-0.4,0.2-0.4,1.5-0.6,2.2l-1.1,2.5c0.9-1.2,1.6-2.3,2.1-4.2C108,67,108,66.7,107.7,66.6z
	 M158.4,66.8c2.4,5.2,4.4,10.7,7.1,15.8c0.1,1.2-0.6,2.2-1.3,3.1c-0.9,0.6-1.9,1-3,0.6c-4.3-5.1-7.3-10.6-10.1-16.3
	C154,70.4,156.3,68.8,158.4,66.8z M144.6,67.7h-0.2l-0.3,0.5c1,0.6,2.2,1.4,3.1,1.4C146.6,69,145.8,67.7,144.6,67.7L144.6,67.7z
	 M165.5,68c1.2,4.2,3,8.5,4.8,12.7C168.6,76.5,167.4,72.1,165.5,68L165.5,68z M214.9,68.6l-14.7,6.6l3.7,8.3
	c0.3-0.2,0.6-0.4,0.9-0.5c0.3-0.1,0.7-0.2,1-0.3c-0.8-1.2-1.5-2.7-2.5-4.9l5.5-2.5l1,2.3c0.4,1,0.8,1.9,1,2.8
	c0.3-0.2,0.6-0.4,0.9-0.5c0.3-0.1,0.6-0.2,1-0.3c-0.5-0.8-0.9-1.6-1.4-2.6l-1-2.3l4.7-2.1c1,2.2,1.5,3.7,1.9,5.1
	c0.3-0.2,0.6-0.4,0.9-0.5c0.3-0.1,0.6-0.2,1-0.3L214.9,68.6z M62.4,69.7c-0.3,1.2-0.5,2.3-0.8,3.5C61.9,72.1,62.1,70.9,62.4,69.7
	L62.4,69.7z M61.6,73.2c-1.2,4.9-2.8,9.7-5.1,14.2C59.3,83.2,60.5,78.2,61.6,73.2z M72.8,69.8c0.4,0.9,1.3,1.5,1.9,2.2
	c-1.1,6.6-4.4,12.2-8.4,17.6c-0.8,0.7-2,0.8-3,0.4c-0.7-0.3-1.3-1.1-1.8-1.7c1.9-5.1,3.9-10.2,4.7-15.8
	C68.9,72.8,70.9,71.2,72.8,69.8z M155.4,70.5c0.8,3.8,2.9,7,4.6,10.3c0.9,1.3,1.5,3.3,3,3.8C160.8,79.7,157.1,75.5,155.4,70.5z
	 M80.4,70.6c-0.6,2.1-2.4,5.3,0,7.1c-1,1.8-1.9,3.9-1.3,6.1c-2.6,3.8-4.5,8.2-8.4,11.1c-1.4,0.6-2.4-0.7-2.9-1.7
	c-1.7-3.6,2.8-5.9,3.6-9.1c1.9-3.8,3.5-7.7,4.4-11.9C77.6,72.5,79.1,71.7,80.4,70.6L80.4,70.6z M83.7,70.6c-0.5,1-1.6,1.2-1.6,2.2
	C82.6,72.1,83.6,71.3,83.7,70.6z M149.8,70.6c3.4,5.4,5.4,11.7,10,16.8c0.4,1.9-0.1,3.8-1,5.3c-0.8,1-1.9,1.8-3.1,1.5
	c-3-3.7-5.9-7.5-7.9-11.6c-0.3-1,0.6-1.9,0.8-2.9c0.3-2-0.4-3.7-0.9-5.4C148.7,73.3,149.4,72,149.8,70.6L149.8,70.6z M71.3,72.7
	c-0.4,1.7-0.8,3.4-1.6,4.9c-0.2,0.6-0.7,1.4-0.2,1.8l1.8-6.4L71.3,72.7z M115.7,74.8l-1.5,0.8c-0.4,0.2-2.1-0.4-1.8-0.3
	C113.8,76.5,114.5,76.9,115.7,74.8L115.7,74.8z M110.5,75.2c-0.2,0-0.4,0.2-0.6,0.3c-0.9,0.5-1.6,0.2-2.5,0v0.3
	c0.4,0.2,0.7,0.5,1.2,0.4c0.8-0.1,1.5-0.3,2.1-0.9C110.6,75.2,110.5,75.2,110.5,75.2L110.5,75.2z M143,75.9c-0.1,0-0.1,0-0.2,0
	c0.8,1.2,2.1,1.9,3.2,2.8c-0.1-0.5-0.3-1-0.6-1.5C144.7,76.7,144,75.9,143,75.9L143,75.9z M78,76.9c-2.1,5-4.4,9.8-7.3,14.2
	c-0.5,0.6-2,0.4-1.7,1.5c1.5,0.5,2-1,3-1.7C74.2,86.4,76.4,81.8,78,76.9L78,76.9z M148.9,76.9c1.6,5.2,4.5,9.7,7.2,14.4
	c0.3,0.4,1.1,1.5,1.6,0.8C154.3,87.3,151.9,82,148.9,76.9L148.9,76.9z M15.1,77.4c-0.2,0.6-0.3,1.2-0.5,1.7
	c-0.2,0.6-0.5,1.1-0.7,1.6l15.3,5.6c0.2-0.6,0.3-1.2,0.5-1.7c0.2-0.6,0.5-1.1,0.7-1.6L15.1,77.4z M120.2,78c0,1.6-1.4,2-2.2,3.2
	c-0.8,0.4-1.7,0.3-2.5-0.3c-0.1,0.7,0.3,1.2,0.8,1.7c0.9,0.8,1.5-0.4,2.3-0.5C119.5,81,120.6,79.5,120.2,78L120.2,78z M114.2,78.5
	c-0.5,1.2-1.9,2.3-2.8,3.2c-1,0.2-1.7-0.1-2.6-1c0.3,0.7,0.2,1.6,0.9,2c0.7,0.4,1.5-0.2,2.1,0C112.8,81.5,113.7,80.1,114.2,78.5
	L114.2,78.5z M107.6,79.7c-1.1,0.4-1.2,2.2-2.7,2.1c-1-0.3-0.7-1.3-1.1-1.9c-0.3,1,0,2,0.3,2.9c0.5,0.4,1-0.3,1.4,0.1
	C106.1,81.7,107.5,80.9,107.6,79.7z M84.1,80.1L82,81.4C82.8,81.2,83.9,81,84.1,80.1L84.1,80.1z M68.8,80.2
	c-1.1,3.1-2.3,6.4-4.2,8.8c1.7-0.7,1.9-2.8,2.9-3.9C67.7,83.1,69.2,82.1,68.8,80.2L68.8,80.2z M220.4,81.3l-15.7,4.2
	c0.1,0.3,0.2,0.6,0.3,0.9c0.1,0.3,0.1,0.6,0.2,0.9l11.1-3l-1.9,3.2c-2,3.3-4.2,6.6-6.4,10l0.5,2l15.7-4.2c-0.1-0.3-0.2-0.6-0.3-0.9
	c-0.1-0.3-0.2-0.6-0.2-0.9L213,96.3c2.8-4.2,5.4-8.6,8-12.8L220.4,81.3z M138.3,82c0.6,1.6,1.7,3.2,3.2,4.3
	C141.2,84.6,140.2,82.5,138.3,82z M146.1,83h0.5c2.2,4.5,4.9,8.8,8.3,12.8c0.4,1.7-0.6,2.8-1.6,4c-0.9,0.8-2.1,1.1-3.3,0.9
	c-2.7-2.9-4.4-6.3-6.4-9.4C145.6,89.1,145.7,85.9,146.1,83z M12.5,84.4l-3,11.9c0.3,0,0.7,0,1,0.1c0.3,0.1,0.7,0.2,1,0.4
	c0.1-1.2,0.3-2.7,0.8-4.4l14.2,3.5c0.1-0.6,0.2-1.2,0.3-1.8c0.1-0.6,0.4-1.1,0.5-1.7l-14.2-3.5c0.4-1.4,0.9-2.7,1.4-4
	c-0.3,0-0.7-0.1-1-0.1C13.1,84.7,12.8,84.5,12.5,84.4z M166.1,85c0.7,1.7,2.8,2,4.4,1.9c1.7,13.6,1.7,27.8,5,40.8
	c-1.8-13.5-2.8-27.6-4.2-41.4c0.6-0.3,1.3-0.6,1.8-1.2v0.1c3.1,15.9,0.8,33.2,5.6,48.7l-1.2,0.3c-0.7,0.2-1.5-0.2-2.1-0.9
	c-0.6-0.7-1.1-1.5-1.4-2.4l-0.2-0.4l-0.3,0.1c-1.8-4.7-1-10.6-6.3-13.6c-0.6-10.1-1.3-20.2-1.9-30.3C165.6,86.2,165.7,85.5,166.1,85
	L166.1,85z M79.6,85.1c2.4,1,0.3,4,1.8,5.7c0.4,0.8,2,0.8,1.6,1.9c-2.2,3.1-3.7,6.7-6.9,9.1c-1.6,0.7-2.8-1.2-3.7-2.2
	c-0.5-0.9-0.7-1.8-0.8-2.8C75.3,93.5,77,89.1,79.6,85.1L79.6,85.1z M86.7,86.2l-2,2.7C85.7,88.2,86.2,87.2,86.7,86.2z M163.8,88.2
	l0.2,1.7l1.4,28.1l1.3,0.9c0.8,6.5,0.8,13.5,3.4,19.3c-1.6-5.4-1.7-12-1.9-18c3.6,2.6,2.9,7.2,4.7,10.6l-0.4,0.1v0.4
	c0.3,4.6,0.9,9.4,1.9,13.5c-0.2,0-0.5,0-0.8-0.1c-8.9-3.3-4.4-14.7-11.2-19.9l-2.4-26.1l-0.5-3.7c1-1.8,1.3-3.8,1.7-5.8L163.8,88.2z
	 M146.1,89.2c1.2,3.1,3.1,5.9,4.9,8.7c0.6,0.2,1.3,0.8,2,0.4c0.2-1.2-1.2-0.8-1.8-1.4C149.4,94.3,147.6,91.9,146.1,89.2z M55.2,89.5
	c0.7,0.8,2.1,0.6,2.7,1.5c-0.6,8.5-1.5,17-2.2,25.4c-0.5,5.9-0.9,11.8-1.1,17.8c1.4-5.6,1.8-11.7,2.1-17.8c0.2-4.3,0.4-8.5,0.9-12.6
	l0.6-12.8l2.6-1.4l2.3,2.4c-0.8,8.2-1.4,16-1.5,24.4c0,0.7,0,1.4,0,2.1c-0.4,1.7-1.8,3-2.5,4.5c-2.3,4.9-1.3,11.2-6.3,14.8
	c0.1,0.1,0.1,0.1,0.2,0.2c-0.1,0.1-0.2,0.1-0.4,0.2c0.5-6.4-0.2-12.9,0.3-19.3l1.9-27.5C55,90.8,55.1,90.2,55.2,89.5L55.2,89.5z
	 M90.7,91.3l-0.8,1.8l0.6-0.7L90.7,91.3z M142.2,91.5c1.6,3.7,3.8,7.2,6.6,10.5c0.2,1.6-1.1,2.8-2.3,3.6c-1.2,0.4-2.6-0.3-3-1.6
	c-1.1-4.1-6.6-7.4-3.6-12.2C140.6,91.7,141.4,91.6,142.2,91.5L142.2,91.5z M65.3,92.7c0.5,0,0.9,0.1,1.2,0c0.6,1.6,1.4,3.2,2.7,4.4
	c-0.5,6.2-0.7,12.8-1.1,19.3c-0.2,3.9-0.5,7.8-1,11.5c-2,2.3-2.5,5.2-3,8c-1.9,4.5-1.5,10.4-6.7,13.2l-0.2,0.4h0.1h-0.2
	c0.4-4.4,0.9-9.3-0.1-13.7l-0.2-1l-0.2,0.2c1.2-2.2,1.3-5.1,2.5-7.2c0.2,4.9,0.1,10.1,0.6,14.6c1.5-5.4,0.5-11.6,0.4-17.3
	c0.5-1.9,1.6-3.7,2.8-5.3c0.1-1.1,0.1-2.3,0.1-3.4c0.2-7.8,0.4-15.4,0.8-23.5C64.3,92.7,64.8,92.7,65.3,92.7L65.3,92.7z M83.8,93.1
	c0.6,1.3,1.6,3.3,3.5,3.1h0.4v0.7l-5.8,9.1c-0.5,0.5-1.5,0.7-2.2,0.4c-1.1-0.8-2.6-1.9-2.6-3.3C80.6,100.5,81.7,96.5,83.8,93.1
	L83.8,93.1z M78.8,93.7c-1.1,1.8-2.3,3.5-3.8,5.2c-0.4,0.5-1.7,0.2-1.4,1h1.1C76.4,98.4,77.8,95.9,78.8,93.7z M140.9,94.6l3.2,8.2
	c0.4,0.9,1.4,1.7,2.4,1.6c0.7-1.3-1.1-1.2-1.5-2.1L140.9,94.6z M137.9,96.2l5,9.8c-0.8,1.8-2.8,2.4-4.5,2.6
	c-0.9-0.1-2.3-0.4-2.9-0.8c0.5-2.1,0.9-4.1,1.1-6.1c1.2,1.9,1.3,5.3,4,5.4c0.4-0.2,0.2-0.6,0.3-0.9c-2.2-0.9-3-3.8-4.1-5.8
	c0.1-1.1,0.1-2.2,0.2-3.2v-0.5C137.2,96.5,137.5,96.3,137.9,96.2L137.9,96.2z M157.8,96.2c1.8,9.8,1.8,20.3,3,30.3
	c1.1,0.4,2.1,1.1,2.9,2.2c0.6,8.1,1.6,16.1,4.7,23.2c-0.4-2.8-1.4-5.6-1.7-8.4l-1-10c1.2,3.8,1.9,8.5,4.3,10.7v1.4
	c0.6,3.9,1.3,7.9,2.4,11.7l-0.3,0.2c-1.3-0.5-2.8-0.8-3.9-2c-5.3-5.7-4.3-14-9.7-19.7c-2-11.1-2.8-22.8-4.4-34.1
	C155.7,100.1,155.1,96.9,157.8,96.2L157.8,96.2z M98.3,97.2h3.5V122l-0.1-0.1c0,0-1.4-1.7-1.9-2.4c-0.4-0.5-1.2-1.9-1.5-2.3
	L98.3,97.2z M105.3,97.2h3.7v32.7l-0.5-0.4h-0.4h0.4c-0.2-0.1-0.3-0.3-0.5-0.4c-0.4-1.6-1.3-3-2.7-4.2L105.3,97.2z M92.8,97.2h2.1
	v13.2c-0.8-2.3-1.5-5.2-1.9-8.5C92.8,100.5,92.7,98.8,92.8,97.2z M112.8,97.2h3.4v35.4c-1.1,0.6-1.7,0.9-1.7,0.9s-0.6-0.2-1.7-0.9
	L112.8,97.2z M120,97.2h3.7v27.2c-0.8,1.1-1.4,2.4-1.6,3.7c-0.1,0.1-0.1,0.1-0.2,0.1h0.1v-0.1c0,0.1,0,0.2-0.1,0.2v-0.1h-0.2
	c-0.1,0.1-0.3,0.2-0.4,0.3h0.6v0.1h-0.6c-0.1,0.1-0.3,0.2-0.4,0.3h0.9v0.1h-0.9c-0.1,0.1-0.2,0.2-0.4,0.3c-1.8,1.5-3.2,2.4-4.2,3.1
	c2-1.3,3.6-2.6,3.6-2.6L120,97.2z M127.2,97.2h3.5v20.4c0,0.1-0.6,0.8-1.5,2c-0.4,0.5-0.9,1.1-1.4,1.7c-0.2,0.1-0.4,0.1-0.6,0.2
	L127.2,97.2z M134.1,97.2h2c-0.1,4.1-0.6,8.4-2,12.8V97.2z M88.5,97.4c0.6,0.5,1.3,0,2,0c-0.2,1.2,0.8,1.9,1.3,2.8
	c0,0.5,0.1,1.1,0.1,1.5v0.2c-1.9,2.3-2.6,5.4-4.8,7.8c-1.5,1.2-2.8-0.6-4-1.2c-0.3-0.4-0.5-0.9-0.6-1.4
	C85.4,104.3,86.8,100.8,88.5,97.4L88.5,97.4z M70.5,97.5h0.2c0.8,2.2,1.2,5.4,4,5.8c0.1,4.3,0.1,8.7,0,13.2
	c-0.2,6.9-0.7,13.8-1.4,20.5c-3.4,5.4-4.9,11.5-6.2,17.8c-0.5,2.5-3,4.3-5.2,5.3h-1.1l0-0.1c1.1-4.1,1.7-8.4,1.8-12.9v-0.2l-0.8-0.8
	c0.2-0.3,0.4-0.6,0.6-0.9c1-2.8,2-5.6,3-8.4c0.3,5.6-0.4,11.4-0.9,16.7c2.3-6.1,2.2-13.6,1.9-20.4c0.3-1.6,0.8-3.1,2.2-4
	c0,0,0.2-5.8,0.5-12.5L70,97.7C70.1,97.5,70.3,97.5,70.5,97.5L70.5,97.5z M84,98.8c-1.3,2.2-2.8,4.8-4.8,6.4
	c0.6,0.1,1.1-0.3,1.6-0.6L84,98.8z M25.2,100.2l-17,5c0,0.3,0,0.6,0,0.9c0,0.3-0.1,0.6-0.2,0.9l15.7,8.3c0-0.4,0-0.8,0-1.1
	c0-0.4,0.1-0.7,0.2-1.1c-1.6-0.6-3-1.3-4.7-2.1l0.5-5.5c1.6-0.5,3.3-0.8,5.1-1.2c0-0.7,0-1.4,0.1-2.1
	C24.9,101.6,25.1,100.9,25.2,100.2z M217.6,100.5c-0.4,0-0.7,0-1.1,0.1c-4.9,0.4-7.6,4.5-7.2,9.6c0.1,1.6,0.6,3.2,1.4,4.6l2.1,0.3
	l0.1-0.3c-1.1-1-2-2.6-2.1-4.1c-0.3-3.6,2.3-5.9,6.4-6.2c3.5-0.3,7.4,0.9,7.7,4.9c0.1,1.5-0.6,3.1-1.8,4.1v0.3
	c0.8,0.1,1.7,0.2,2.5,0.3c0.6-1.4,0.9-3.4,0.7-4.9C225.8,104.4,223,100.6,217.6,100.5L217.6,100.5z M149.8,102.7h2.7
	c1,11.5,3.1,22.6,4.1,34.2c1.7,0.8,2.6,2.6,3.4,4.1c0.5,5.2,0.8,10.5,2.9,15h0.2c-0.5-3.3-1.6-6.7-1.2-10.4
	c1.4,4.1,2.8,8.2,5.8,11.6l1,6.1l-3.2-1.6c-7.4-5.3-6.5-14.5-11.6-21c-2.5-11.2-3.9-22.9-5.3-34.6L149.8,102.7z M92.2,102.9
	c0.3,1.9,0.6,3.6,1,5.1c-0.4,0.7-1,1.3-1.7,1.7c-0.4-0.1-0.8,0.1-1.1,0.4c-0.1,0.2,0.1,0.4,0.3,0.5c0.9,0,1.6-0.4,2.3-0.9
	c0.1-0.2,0.3-0.4,0.5-0.7c0.2,0.7,0.4,1.3,0.6,1.9c-0.3,0.2-0.6,0.3-0.8,0.4c-1.6,1.2-3.3,0-4.7-0.8l-0.4-0.4L92.2,102.9z
	 M76.3,104.4c0.8,1.2,1.7,3.2,3.5,3.1h0.4c-0.1,2.9-0.1,5.9-0.2,9c-0.3,9.6-0.9,19.5-1.5,29c-4.4,4.6-3,11.6-6.3,16.6
	c-0.1,0.7-0.4,1.3-0.8,1.9h-4.8c0.2-1.7,0.4-3.4,0.8-4.9l0.1-0.2l-0.5-0.8h0.1c-0.3-2.1,1.6-3.2,1.9-5c0.9-2.5,1.1-5.2,2.5-7.6
	c-0.5,5-1,10.2-1.7,14.9c1.5-2.5,1.5-5.8,2.1-8.6c0.5-3.9,1.1-7.6,1.4-11.5l1.8-1.8c0,0,0.5-12.1,0.9-21.9L76.3,104.4L76.3,104.4z
	 M18.2,105.9l-0.4,4.3l-5.3-2.7L18.2,105.9z M144.2,107.1c0.3,0,0.6,0.2,1.1,0.6l1.6-0.3l0.5,1.4c1,11.4,3.1,22.4,5,33.3
	c3.4,3,4,7.3,5.8,11.1c-5-3.2-7.7-8.7-9.5-13.9c-1.7-4.2-2.7-8.6-4.3-12.8c0,0-2-11.4-2.4-16.8C142.9,109,143.2,107.1,144.2,107.1
	L144.2,107.1z M81.2,108.8c1.5,0.8,2.6,2.6,4.7,2l0.3,0.4c0.1,1.7,0.1,3.5-0.1,5.3c-0.2,3.4-0.6,6.8-0.2,10c0,0-0.2,0.1-0.2,0.1
	l-0.3,0.1l0,0.3c-0.1,1.8-0.2,3.6-0.4,5.4c0.1-1.9,0.1-3.8,0.1-5.8c-0.7,8.9-2.2,17.6-5.7,25.3c-1,2.5-3.1,4.8-3.8,7.1
	c1-0.6,1.6-1.6,2.3-2.6c-1,1.6-2.1,3.1-3.7,4.3c1.4-3.8,2.6-8,3.7-11.9l2.2-2.6c0.4-10.4,0.9-20.1,1-29.8
	C81.2,114,81.2,111.4,81.2,108.8L81.2,108.8z M135.2,109.2c0.1,0.1,0.3,0.2,0.4,0.2c0.7,4.1,0.2,9.6,2.2,13.1
	c-0.2,0.7-0.9,1.7-1.8,1.8c-0.7-0.1-1.6-0.1-2.2-0.4c-0.3-0.1-0.5-0.3-0.6-0.6c-0.1-0.1-0.1-0.3-0.2-0.5l-1-6
	c0.7-1.3,1.4-2.6,1.9-3.8c0.9,2.4,0.2,5.5,1.1,8c0.5-2.9-0.3-5.9-0.8-8.6C134.5,111.3,134.9,110.2,135.2,109.2z M136.7,109.7
	l1.5,0.7c0.4,3.7,1.2,7.2,2.2,10.7c0.4-1.6-0.6-3-0.6-4.7c-0.2-1.9-0.4-3.8-0.9-5.7c0.4-0.3,0.9-0.4,1.5-0.4c0.7,4.5,1.6,9,2.7,13.4
	c-0.1-0.2-0.2-0.3-0.3-0.4l-0.3-0.5l-0.3,0.4c-0.5,0-1,0.1-1.4-0.1c-4.9-2.5-2.4-8.7-4.1-12.8L136.7,109.7z M87.5,111.5
	c0.4,0.2,1.1,0.6,1.4,1.2c0,1.3,0,2.5-0.1,3.8c-0.2,2.7-0.5,5.3-0.8,7.9c0,0,0.4,0.2,0.4,0c0.7-2.4,0.8-5.3,0.9-8
	c0-1.2,0.1-2.4,0.1-3.4l1.9,0.4c0.1,0.8,0.1,1.9,0,3.1c-0.1,3.2-0.5,7-1.4,9l-0.5-0.1l-0.2,0.3c0,0-0.2,0.2-0.4,0.3
	c-0.2,0.1-0.5,0.2-0.8,0.3c-0.3,0.1-0.6,0.1-0.8,0.1h-0.2c-0.1-0.1-0.3-0.1-0.4-0.1h-0.2c0.4-3,0.5-6.5,0.6-9.8
	C87.3,114.7,87.4,113,87.5,111.5L87.5,111.5z M94.3,112.5c0.1,1.3,0.1,2.6,0,4c-0.2,2.6-0.5,5.1-0.6,7.6c0.8-2,1.1-4.8,1.3-7.6
	c0.1-1,0.1-2,0.2-3c0.7,1.6,1.4,2.9,1.9,3.7c-0.3,1.6-0.5,4.4-0.8,5.9h-0.5l-0.1,0.4c-0.3,1.1-0.7,1.8-2.1,2.2l-2,0.1
	c0.5-3.1,0.7-6.1,0.8-9.4c0-0.8,0-1.7,0.1-2.5L94.3,112.5z M23.7,116.9l-16.2,1.2c0.1,0.3,0.1,0.6,0.1,0.9c0,0.3,0,0.6,0,0.9
	l11.1-0.8c-3.6,3.6-6.9,7.4-10.3,11.1l0.2,2.4l16.2-1.2c0-0.3-0.1-0.6-0.1-0.9c0-0.3,0-0.7,0-1l-11.4,0.9l2.5-2.8
	c2.6-2.9,5.3-5.7,8.2-8.6L23.7,116.9z M226.3,117.2c-3.3,1.6-6.6,2.9-9.7,4.5l-6.8-0.4v1.8c-0.1,0.6-0.1,1.2-0.2,1.8l7.3,0.5
	c2.9,1.7,5.7,3.6,8.6,5.6v-1.2c0-0.4,0.1-0.8,0.1-1.2c-2-1-5.8-3-6.8-4c0.4-0.3,1.6-0.8,2.9-1.3c1.4-0.6,3-1.2,4.3-1.7
	c0-0.7-0.1-1.4,0-2.1C226.1,118.6,226.2,117.9,226.3,117.2L226.3,117.2z M131.1,118.2l0.8,4.1c0,0-0.6-1.1-1.6-1.2
	c-0.6-0.1-1-0.1-1.3-0.1c0.2-0.3,0.5-0.6,0.7-0.9C130.5,119.1,131,118.4,131.1,118.2z M101.8,122.7c0,0,0.3,0.3,0.3,0.4H102
	L101.8,122.7L101.8,122.7z M139.1,124.1l0.4,0.1l0.4,0.3h0.1c0.3,0.1,0.9,0.2,1.4,0.2c0.3,0,0.7-0.1,1-0.2l0.7,1.2l0.6,2.8
	c1.7,4.4,2.6,9.4,4.3,14c1.6,4.6,4,9,8.6,12.1l0.8,0.4l1.4,0.6l0.7,1.1c-0.1,0.1-0.2,0.2-0.3,0.2c-2.1,1.9-3.9,4.2-4.8,6.4
	c0,0-0.4,0.5-0.4,0.6c0.1,0-0.1,0-0.2,0.1h-1.4v-1.6c0-0.9-0.7-1.5-1.5-1.5c-0.8,0-1.5,0.7-1.5,1.5v1.6h-3.1v-0.1
	c-0.1-0.6-0.2-1.1-0.5-1.4c-0.1-0.1-0.3-0.3-0.5-0.4c-0.2-0.2-0.5-0.4-0.8-0.5c-0.6-0.4-1.4-0.7-2.1-0.9c-0.2-0.1-0.4-0.1-0.7-0.2
	c-1.5-7.7-3.5-15.1-4.9-22.8c-0.9-3.7-1.1-7.7-2.1-11.6h1.2l1.4-0.1h0.1C138,125.6,138.7,124.9,139.1,124.1L139.1,124.1z
	 M96.5,124.6c-0.3,0.5-0.6,1.1-0.9,1.3l-0.1,0.1v0.1c-3.2,11-3.7,23.3-6.6,34.4c-0.4,0-1.2,0.2-2,0.5c-0.9,0.3-1.8,0.7-2.2,1.5
	c-0.3,0.6-0.6,1-0.7,1.4c0,0,0,0.1-0.1,0.1H73.6l1-2.2c3.1-2.3,4.7-5.6,6.3-8.6c3.2-8,5-16.7,5.4-25.7h0.3l0.1,0.1
	c0.2,0.1,0.2,0,0.3,0h0.3c0.3,0,0.6-0.1,0.9-0.2c0.3-0.1,0.7-0.2,1-0.3c0.2-0.1,0.3-0.2,0.4-0.4l1.5,0.4l2.3-0.1
	c1.3-0.3,2-1.1,2.4-2.1L96.5,124.6z M125.4,124.7l7.1,2.5l0.2-0.8l0.2,0.1l-0.1-0.6l0.1-0.4c0,0,0.1,0.1,0.1,0.1
	c0.1,0.1,0.2,0.1,0.3,0.1c1.1,3.8,1.3,7.9,2.2,11.9c1.4,7.6,3.3,14.9,4.8,22.4c-0.5-0.1-1.1-0.1-1.7,0c-1,0.2-1.5,0.2-1.9,0.2
	c-0.1-0.1-0.2-0.2-0.2-0.4c-0.5-0.6-0.8-1-1.3-1.3c-0.2-0.1-0.4-0.2-0.6-0.3c-4.3-5.2-3.6-12.6-5.7-18.7c-0.4-1.9-0.8-3.9-1.3-5.8
	c0.3,6.2,2.3,12,3.3,18c1,1.5,0.8,3.6,1.2,5.3c-0.2,0.6-0.4,1.2-0.7,1.8c-0.3,0.2-0.5,0.4-0.7,0.7c-0.2,0.2-0.3,0.4-0.4,0.6h-0.2
	l-0.1,0.1c-0.1,0-0.2,0.1-0.3,0.1c-0.6,0.1-1.3,0.1-1.9,0.1c-0.4,0-0.8,0.1-1.1,0.2c-0.4,0.1-0.7,0.2-0.9,0.4v0.1l-0.3-6.4l-0.4-0.4
	l-0.8-9.5v-0.5c1.9-2,3.1-4.4,3.2-7l-0.1-0.1c-0.8,2.4-2.4,4.4-3.4,6.7l-0.1-0.2c0.5-3.4-0.3-6.7-0.8-9.8c-0.4-2.7-0.5-5.2,0.6-7.5
	C124.3,125.9,124.9,125.3,125.4,124.7L125.4,124.7z M101,124.7c1.4,0,2.7,0.1,2.8,0.1h0.1c0.5,0.5,0.9,1,1.5,1.6v-0.3
	c1.9,2,2.3,4.6,2.1,7.5c-0.2,3.3-1,6.8-1,9.9l-0.4,0.9l-0.4,12.8c-0.6,1.2-0.4,2.4-0.4,3.6c-0.1-0.1-0.1-0.1-0.2-0.1
	c-0.3-0.2-0.8-0.4-1.6-0.4c-0.7-0.2-1.4-0.2-2.1,0c-0.2,0.1-0.4,0.1-0.5,0.2h-0.5l-2-5.1c0.4-2.5,0.8-5.1,0.7-7.6
	c-0.9,4.4-2.4,9.7-6.7,13h-0.9c-0.5-0.1-0.9-0.2-1.3-0.3h-0.1c2.9-11.2,3.4-23.4,6.5-34.2c0.3-0.3,0.5-0.7,0.7-1l-0.2,0.6l1.1-0.7
	l0.3,0.2C98.3,124.8,99.6,124.6,101,124.7L101,124.7z M126.9,125.6c-1.2,1.4-3,2.1-3.9,3.2c1.5-0.2,2.9-0.9,4.1-1.7
	c1.3,0.6,2.8,1,4.3,0.6C129.7,127.5,128.2,126.9,126.9,125.6z M101.8,126.1c-1.7,1.1-3.6,1.7-5.4,2.4v0.2c1.8,0.1,3.9,0,5.4-0.9
	c1.1,1.1,2.9,1.4,4.2,1.8v-0.1C104.9,128.5,103,127.4,101.8,126.1z M101.7,128.4c-0.8,6.4-2.2,12.6-2.8,19.1l2.2-12.7
	c1.7,2.6,1.9,6.4,4.9,8.3c-1-3-2.8-5.6-4.2-8.4l-0.8-0.1C101.3,132.5,101.9,130.7,101.7,128.4z M129.9,129.3c1.7,6,4.1,12.1,7,17.8
	c-2.5-5.5-4.1-11.9-6.7-17.8H129.9z M120.5,129.4l1.3,0.1v0.1L120.5,129.4z M120.7,129.8l1.1,0.1v0.1L120.7,129.8z M109,129.9
	c0.1,0.1,1.6,1.3,3.6,2.5C111.7,131.9,110.5,131.1,109,129.9z M108.7,130.1l-0.4,0.1L108.7,130.1z M120.5,130.1l1.2,0.1v0.1
	L120.5,130.1z M100.5,130.2l-2.7,8.6l-5.2,10.8l0.2,0.3c4.9-5.1,5.3-12.1,7.7-18.2V130.2z M109.3,130.4l-1,0.2v-0.1L109.3,130.4z
	 M119.7,130.4l1.8,0.2h0.3v0.1L119.7,130.4z M127.3,130.6l-0.2,0.1l0.2,2.1h0.1v-0.4L127.3,130.6z M119.3,131l2.4,0.6v0.2L119.3,131
	z M121.1,131l0.6,0.1L121.1,131z M109.5,131l-1.1,0.3v-0.1L109.5,131z M120.9,131.7l0.9,0.2v0.1L120.9,131.7z M119,131.8l2.8,1.1
	v0.2L119,131.8z M109.8,131.9l-1.4,0.6v-0.1L109.8,131.9z M110.7,131.9l-2.3,1.1v-0.2L110.7,131.9z M118.8,132.2l3.1,1.3
	c0,0.2,0,0.3,0.1,0.5c0,0.1,0,0.3,0.1,0.4l-3.1-1.8l3,1.5V134v-0.2L118.8,132.2z M121.3,132.3l0.5,0.2L121.3,132.3z M111,132.5
	l-2.7,1.8V134L111,132.5z M118.4,132.8l3.7,2.1c0,0.1,0,0.3,0.1,0.4L118.4,132.8z M109.2,133.1l-0.8,0.5v-0.1L109.2,133.1z
	 M111.2,133.3l-2.9,2.4v-0.4L111.2,133.3z M118.6,133.4l3.6,2.4c0.1,0.3,0.1,0.6,0.1,0.8c0.1,0.3,0.1,0.5,0.1,0.8
	c0-0.1,0-0.2-0.1-0.3l-4.3-3.5l4,2.8l0.2,0.2c0-0.1,0-0.3-0.1-0.4L118.6,133.4z M109.8,133.7l-1.5,1.1v-0.1L109.8,133.7z
	 M111.6,133.8l-3.7,3.8c0-0.2,0.1-0.4,0.1-0.6L111.6,133.8z M118.2,134l4.3,3.6c0,0.2,0.1,0.4,0.1,0.6l-0.4-0.4L118.2,134z
	 M117.6,134.1l4.4,3.9l0.7,0.6c0,0.3,0.1,0.5,0.1,0.8L117.6,134.1z M110.5,134.2l-2.3,2.2v-0.3L110.5,134.2z M112.2,134.7l-4.8,7.4
	c0-0.4,0.1-0.8,0.1-1.3L112.2,134.7z M117.7,134.7l5.1,5.3c0,0.3,0,0.5,0.1,0.8l-0.4-0.5L117.7,134.7z M116.9,134.9l5.9,7.8
	c0,0.4-0.1,0.8-0.1,1.2L116.9,134.9z M111,134.9l-3.2,3.8c0-0.2,0.1-0.4,0.1-0.6L111,134.9z M116.4,135.1l6.7,9.9l0.1,0.2l0.2,2.6
	L116.4,135.1z M117.5,135.1l4.6,5.3l0.8,0.9v0.9L117.5,135.1z M112.8,135.2l-6,13.4l0.1-2.7L112.8,135.2z M112.4,135.3l-5.5,9.9
	v-0.5l0.4-0.9v-1L112.4,135.3z M116.2,135.4l7.3,13.2l0.4,3.9L116.2,135.4z M111.2,135.4l-3.6,4.7c0-0.2,0.1-0.5,0.1-0.7
	L111.2,135.4z M114.3,136.7v27.1h-2.4L114.3,136.7z M114.7,136.7l1.2,12.6l1.3,14.5h-2.5L114.7,136.7z M215.7,137l-0.9,1.3l-2.8,4.3
	l-6.4-1.8l4.2,5.2l-3.7,5.6l6.3-2.3l4.2,5.2l-0.3-6.7l6.3-2.4l-6.4-1.8l-0.2-5.1L215.7,137z M113,137.5l-6.5,24.6
	c-0.1-0.1-0.2-0.2-0.3-0.3c0.1-1.6-0.2-3.3,0.3-4.4l0.1-0.1v-0.4L113,137.5z M116,137.6l8.1,24.8c-0.5,0.4-0.9,0.8-1.3,1.3
	L116,137.6z M112.5,137.7l-5.9,18l0.1-3.1L112.5,137.7z M116.4,137.7l8.2,21.1l-0.1-1l-7.8-20l7.1,15.7l-0.1-0.9l0.2,2.1l0.4,0.4
	l0.2,3.7l0.2,3.1c-0.1,0.1-0.2,0.2-0.4,0.3L116.4,137.7z M112.1,137.8l-5.4,13.8l0.1-2.1L112.1,137.8z M113.1,138.3l-5.2,25.6h-0.3
	c-0.2-0.1-0.3-0.2-0.5-0.4c0-0.3-0.2-0.6-0.3-0.9c0-0.1-0.1-0.1-0.1-0.2L113.1,138.3z M115.8,138.3l6.8,25.6h-1.5L115.8,138.3z
	 M215.3,138.6l-0.3,1.2l-1.7,6.1l-0.8-2.1l-0.2-0.6L215.3,138.6z M113.8,138.7l-2.3,25.2h-1.4L113.8,138.7z M115.5,138.7l5.2,25.2
	h-1.5L115.5,138.7z M113.5,138.8l-3.7,25.1h-1.5L113.5,138.8z M115.2,139l3.7,24.9h-1.4l-2.3-24.3L115.2,139z M18.4,139.9l0,1.6
	l-0.1,5.1l-6.4,2l6.3,2.1l-0.1,6.7l4-5.4l6.3,2.2l-3.9-5.5l4-5.4l-6.4,2l-3-4.2L18.4,139.9z M18.9,141.4l0.4,1.2l1.9,6.1l0.4-1.2
	l0.5-1.6l5.3-1.6l-6.2,4.4H24l3.2,4.5l-1.3-0.9l-4.8-3.6l0.9,2.8l-3.3,4.4l0.5-1.5l1.9-5.7l-1.8-1.4l-0.5-0.4L18.9,141.4z
	 M207,141.8l1.3,0.9l5,3.3l-2.2,0.1l-0.6,0.1L207,141.8z M215.7,144.2l5.3,1.5l-7.6,0.4l0.9-0.8L215.7,144.2z M100.8,145.4
	c0.1,4.1,1.9,8,4.5,11.1c-1.4-3.7-3-7.3-4.3-11.1H100.8z M128.3,145.9l-2.6,6.9c1.3-1.2,1.7-2.8,2.3-4.3
	C128.6,147.8,128.8,146.4,128.3,145.9z M213.3,146l-0.7,2.8l-5.2,2l1.2-1L213.3,146z M213.4,146l2.4,1.5l0.3,5.5l-0.6-1.5L213.4,146
	z M13.5,148.6h1.6l6,0.1l-1.9,1.3l-0.5,0.3L13.5,148.6z M80.8,150.9c-0.2,0.6-0.4,1.1-0.7,1.7c-0.4,0.8-0.8,1.5-1.2,2.3
	C79.6,153.7,80.2,152.3,80.8,150.9z M160.1,157.3l0.4,0.5l-0.4,0.3c-2,1.8-3.7,4.1-4.5,5.9c0,0-0.1,0.2-0.5,0.6c0,0-0.1,0.1-0.2,0.1
	c-0.1,0-0.2,0.1-0.3,0.1c-0.2,0.1-0.4,0.1-0.4,0.1h-1.7v-0.3h1.1c0,0,0.7,0.1,1.1-0.2c0.4-0.3,0.7-0.9,0.7-0.9
	C156.2,161.5,158,159.1,160.1,157.3L160.1,157.3z M97.4,157.5c0.4,0.6,0.9,1.4,1.3,2.2c0.4,0.9,0.7,1.4,0.8,1.6
	c-0.1,0.1-0.2,0.2-0.3,0.2c-0.3,0.4-0.6,0.7-0.8,1.1c-0.1,0.1-0.2,0.3-0.2,0.4c-0.2-0.2-0.5-0.5-0.8-0.6c-0.5-0.2-1.3-0.2-1.3-0.2
	s-0.7,0.3-0.7,0.6c0,0.3,0,0.6,0.1,0.7c0.1,0.1,0.4,0.3,1.1,0.5c0.4,0.1,0.8,0.2,1.1,0.3c-0.1,0.3-0.2,0.5-0.2,0.6
	c0,0-0.1,0.2-0.2,0.4c0,0.1-0.1,0.2-0.1,0.2c0,0.1-0.1,0,0,0h-0.4c-0.2,0-0.5-0.1-0.6-0.2c-0.3-0.2-0.7-0.5-1.4-0.6h-0.2h-0.1
	c-0.3-0.1-0.4-0.1-0.5-0.1c0.1-0.2,0.3-0.3,0.4-0.5v-0.1h-0.1c0.1-0.4,0.6-1.7,0.7-2.2h0.1c0-0.1,0.1-0.4,0.1-0.4v-0.4
	c0.2-0.3,0.4-0.7,0.5-0.9c0.2-0.4,0.7-1.2,1.2-1.8C97.2,157.8,97.3,157.7,97.4,157.5L97.4,157.5z M160.5,158l1.6,2.4
	c-0.5,0.8-0.7,1.7-0.7,2.6v0.3h-0.2c-2.5,0-4.5,2-4.5,4.5s2,4.5,4.5,4.5h0.6c0,0.2-0.1,0.4-0.1,0.6c0,2.5,2,4.5,4.5,4.5
	c2.5,0,4.5-2,4.5-4.5c0-0.2-0.1-0.5-0.1-0.7h0.8c2.5-0.1,4.4-2.2,4.3-4.7c-0.1-2.5-2.2-4.4-4.7-4.3c0,0,0,0,0,0
	c-0.2,0-0.4,0.1-0.6,0.1v0.1c0.2-0.1,0.4-0.1,0.6-0.1c2.4-0.1,4.4,1.7,4.6,4.1c0.1,2.4-1.7,4.4-4.1,4.6h-0.9v0.1
	c0,0.2,0.1,0.6,0.1,0.8c0,2.4-1.9,4.3-4.4,4.3c-2.4,0-4.4-1.9-4.4-4.3c0-0.2,0-0.5,0.1-0.7v-0.1h-0.9c-2.4,0-4.4-1.9-4.4-4.3
	c0-2.4,1.9-4.4,4.3-4.4c0,0,0,0,0,0h0.4V163c0-0.9,0.2-1.7,0.6-2.4l0.2,0.3l-0.1,0.1c-0.3,0.6-0.5,1.3-0.4,2c0,0.4,0.1,0.7,0.2,1
	c-0.3-0.1-0.6-0.2-1-0.2c-2.2,0-3.9,1.8-3.9,3.9c0,2.2,1.8,3.9,3.9,3.9c0.6,0,1.1-0.2,1.6-0.5c-0.2,0.5-0.5,1.1-0.5,1.6
	c0,2.2,1.8,3.9,3.9,3.9c2.2,0,3.9-1.8,3.9-3.9c0-0.6-0.2-1.1-0.5-1.7c0.5,0.2,1.1,0.4,1.7,0.4c2.2-0.1,3.9-2,3.8-4.1
	c-0.1-2.2-2-3.9-4.1-3.8c0,0,0,0,0,0c-0.2,0-0.4,0-0.6,0.1l-1-5.3c0.8,0.2,1.5,0.3,2,0.4l0.3,0.1l0.9-0.7c0.2,0.3,1.9,2.9,2.4,4.1
	c0,0,1.3,3,2.2,3.9c1.2,1.2,3.2,1.5,3.2,1.5s-2,0.3-3.2,1.5c-0.9,0.9-2.2,3.9-2.2,3.9c-1.8,4.1-4.4,7.9-8.7,7.9
	c-4.4,0-9.4-5.1-11.2-9.1c0,0-0.3-0.6-0.7-0.9c-0.4-0.3-1.1-0.2-1.1-0.2h-1.1v-0.2h1.7c0,0,0.2,0,0.4,0.1c0.1,0,0.2,0.1,0.3,0.1
	c0.1,0,0.2,0.1,0.2,0.1c0.4,0.3,0.5,0.6,0.5,0.6c0.1,0.1,0.3,0,0.2-0.1c0,0-0.1-0.3-0.5-0.6c-0.1-0.1-0.2-0.1-0.3-0.1
	c-0.1,0-0.2-0.1-0.4-0.1c-0.2-0.1-0.5-0.1-0.5-0.1h-1.7v-0.6h0.3c0,0,1.5-0.1,2.2,0.2c0.1,0.1,0.3,0.2,0.4,0.3l0.6,0.9
	c0.8,1.8,2.4,4.1,4.3,6c1.9,1.9,4.1,3.3,6.2,3.3s3.7-0.9,5-2.3s2.3-3.2,3.1-5c0,0,1-2.6,1.9-3.9c0.2-0.3,0.3-0.3,0.5-0.5h0.1
	c0,0,0.9-0.5,2-0.9v-0.2h-0.8c0,0-1.2,0.2-2,1.5c-0.9,1.4-1.9,3.9-1.9,3.9c-0.8,1.8-1.8,3.6-3.1,4.9c-1.3,1.3-2.9,2.2-4.9,2.2
	c-1.9,0-4.1-1.4-6-3.3s-3.5-4.2-4.3-6l-0.3-0.4c-0.2-0.5-0.5-1-0.8-1.2c-0.5-0.4-2.4-0.3-2.4-0.3h-0.3v-4.1h1.7c0,0,0.2,0,0.4-0.1
	c0.1,0,0.2-0.1,0.4-0.1s0.2-0.1,0.3-0.1c0.4-0.3,0.5-0.6,0.5-0.6c0.8-1.8,2.5-4,4.5-5.8C160.2,158.2,160.3,158.1,160.5,158
	L160.5,158z M133.5,158.9c0.8,0,1.2,0.1,1.6,0.3c0.4,0.2,0.7,0.6,1.1,1.2H136l0.1,0.4l0.6,1.9c-0.2,0.1-0.5,0.2-0.6,0.2
	c-0.9,0-3-0.8-3-0.8s0.4,0.9,1,1.4c0.6,0.6,1.6,0.7,2.1,0.8c0.2,0,0.6-0.1,0.9-0.3l0.5,1.5h0.2c0,0.1-0.1,0.2-0.2,0.2
	c0,0-0.1,0.1-0.1,0.1v-0.1l-0.4,0.1c0,0-0.6,0.2-1.3,0.3H135c-0.1,0-0.2-0.1-0.4-0.1c-0.1-0.1-0.3-0.1-0.3-0.1l-0.1,0.1
	c-0.6-0.2-1.3-0.6-1.7-1c0,0,0-0.1-0.1-0.1l-1.1-2.8V162v0.1l-0.5-1.1l0.1-0.7c0-0.1,0.1-0.2,0.2-0.3c0.5-0.6,1.4-1.1,2.2-1.2
	L133.5,158.9z M173.2,159.6v0.3c0.5,0.8,0.9,1.6,1.2,2.4c0,0,0.5,1.2,1.1,2.4c0.1,0.1,0.3,0,0.2-0.1c-0.6-1.2-1.1-2.4-1.1-2.4
	C174.2,161.4,173.7,160.5,173.2,159.6L173.2,159.6z M139.8,160.7c0.3,0,0.5,0,0.8,0.1v-0.1c0.5,0.1,0.9,0.2,1.4,0.3
	c0.7,0.2,1.4,0.5,2,0.9c0.1,0.1,0.3,0.2,0.4,0.2l-0.8-0.4c-1-0.2-2-0.3-3-0.3c-1,0-2,0.1-2.8,0.3c1.5,1.2,3.9-0.2,5.6,0.8
	c1.3,0.1,1,1.5,1.6,2.2c0.2,0,0.3,0.1,0.4-0.1c0.1-0.1,0.1-0.3,0.1-0.4v0.3c0,0.1-0.1,0.2-0.2,0.3c-0.2,0.1-0.9,0.4-1.1,0.5
	c-0.1,0-0.1,0-0.2,0.1c-0.3,0.1-0.6,0.1-0.8,0.1c-0.4-0.1-1.1-0.2-1.8-0.3c-0.7-0.1-1.5-0.1-1.9-0.2c-0.5-0.1-0.8-0.1-1-0.1
	c-0.1-0.8-0.3-1.6-0.5-2.3c-0.1-0.5-0.3-1-0.6-1.5c0.4,0,0.8-0.1,1.6-0.2C139.3,160.7,139.6,160.7,139.8,160.7L139.8,160.7z
	 M102.1,160.9v0.1c1.6,0,2.3,0.2,2.6,0.4c0.2,0.1,0.3,0.2,0.4,0.4c0.1,0.1,0.2,0.3,0.4,0.5c0.2,0.2,0.4,0.4,0.5,0.6
	c0.1,0.1,0.2,0.2,0.2,0.3c0.2,0.3,0.2,0.5,0.2,0.6l-0.1,0.1c-0.1,0.1-0.2,0.2-0.1,0.1l-0.1,0.1c-0.1-0.1-0.1-0.2-0.1-0.2
	s-2.4-1.9-3.6-2.1h-0.3c-0.8,0-1.9,0.4-2.3,1.1c-0.2,0.5-0.7,0.5-0.8,0.6c-0.5,0.5-0.4,1-0.3,1.2c-0.1,0-0.2-0.1-0.4-0.1h-0.2
	c0.1-0.3,0.2-0.8,0.7-1.6c0.2-0.2,0.3-0.5,0.5-0.7c0.6-0.7,1.4-1.3,2.5-1.3L102.1,160.9z M170,161l0.1,0.4c0.1,0.4,0.2,0.8,0.2,1.1
	l0.1,0.5v-0.4C170.4,162.1,170.3,161.5,170,161L170,161z M130.3,161.1c0,0.5,0.1,1.1,0.2,1.5c0,0.1,0.1,0.2,0.1,0.3l-2,0.6l-1.6,0.7
	l-1.5,1c0,0-0.8,0.9-0.9,1c0,0-0.1,0.1-0.1,0.2c-0.1,0-0.3-0.1-0.4-0.1c-0.2,0-0.4-0.1-0.5-0.1c-0.4-0.1-0.6-0.1-0.7-0.1
	c-0.1,0-0.1,0-0.2-0.1v-0.3c0.1-0.3,0.2-0.8,0.5-1.4c0.3-0.5,0.8-1,1.4-1.4c0.6-0.4,1.2-0.8,1.5-1.1c0.1-0.1,0.3-0.2,0.6-0.2
	c0.3-0.1,0.7-0.1,1.1-0.1C128.7,161.1,129.6,161.1,130.3,161.1L130.3,161.1z M89.1,161.3c0.3,0,0.4,0,0.6,0.1c0.2,0,0.4,0.1,0.8,0.2
	c0.2,0.1,0.6,0.1,1,0.1h2.5c0,0.1-0.1,0.1-0.1,0.1c-0.2,0.4-0.4,0.7-0.5,1c-0.3,0-1-0.1-1.8,0h-0.9c-1,0.1-1.5,0.3-1.7,0.4
	c-0.2,0.1-1.6,0.4-1.6,0.4l-1.5,1.5c-0.1,0-0.2,0-0.2-0.1c-0.3-0.1-0.6-0.2-0.9-0.2c-0.1,0-0.2-0.1-0.3-0.1c0-0.1,0.1-0.2,0.2-0.4
	c0.1-0.1,0.2-0.3,0.2-0.4h-0.1c0.2-0.3,0.3-0.6,0.6-1.1c0.2-0.4,1-0.9,1.8-1.1c0.6-0.2,1.2-0.3,1.6-0.4l0,0.1L89.1,161.3L89.1,161.3
	z M150.8,161.4c0.5,0,0.9,0.4,0.9,0.9v9.3c0,0.5-0.4,0.9-0.9,0.8c-0.5,0-0.8-0.4-0.8-0.8v-9.3C150,161.8,150.3,161.4,150.8,161.4
	L150.8,161.4z M162.7,161.7l0.1,0.1c1.3,1.6,2.9,2.5,4.3,3.4l0.1,0.1v-0.3c0.1,0.1,0.2,0.1,0.3,0.2v0.1l-0.1,0.1c0,0,0.1,0,0.1,0.1
	c0.1,0.1,0.3,0.3,0.5,0.5c0.2,0.2,0.4,0.4,0.7,0.6c0.1,0.1,0.3,0.2,0.6,0.2c0.3,0,0.6-0.1,0.7-0.4l0.1-0.1l0.8-2
	c0.1,0,0.2-0.1,0.4-0.1c1.9-0.1,3.5,1.4,3.6,3.3c0,0,0,0,0,0c0.1,1.9-1.4,3.6-3.3,3.6c-0.7,0-1.3-0.1-1.9-0.4l-0.8-0.4l0.5,0.8
	c0.3,0.5,0.5,1.2,0.5,1.9c0,1.9-1.5,3.5-3.4,3.5c0,0,0,0,0,0c-1.9,0-3.5-1.6-3.5-3.5c0-0.7,0.2-1.3,0.5-1.9l-0.3-0.3
	c-0.5,0.4-1.1,0.5-1.8,0.5c-1.9,0-3.5-1.6-3.5-3.5c0-1.9,1.6-3.5,3.5-3.5c0.4,0,0.8,0.1,1.2,0.2l0.5,0.2l-0.2-0.5
	c-0.1-0.4-0.3-0.8-0.3-1.2C162.5,162.6,162.6,162.2,162.7,161.7L162.7,161.7z M144.6,162.4c0,0,0.1,0.1,0.1,0.1
	c0.2,0.1,0.3,0.3,0.4,0.3c0.1,0.1,0.2,0.4,0.3,0.8C145.3,163.2,144.9,162.8,144.6,162.4L144.6,162.4z M201.4,163.2
	c-0.1,0.2-0.2,0.4-0.3,0.6c-0.1,0.2-0.2,0.4-0.4,0.5l7.8,9.8c0.1-0.2,0.2-0.5,0.4-0.7c0.1-0.2,0.3-0.4,0.4-0.7
	c-0.9-0.8-1.6-1.7-2.4-2.7l1.9-3.4c1.2,0.1,2.4,0.4,3.6,0.7c0.2-0.4,0.4-0.9,0.6-1.3c0.2-0.4,0.5-0.8,0.8-1.2L201.4,163.2z
	 M93.1,163.5v0.5H93v0.3c0,0.1,0,0.2-0.1,0.3v0.2c0,0-0.1,0.1-0.2,0.1c-0.2,0.1-0.3,0.1-0.5,0.2c-0.4,0.1-0.9,0.3-1.3,0.3l0.1,0.4
	h0.3c0.4-0.1,0.8-0.2,1.2-0.3c0.2-0.1,0.4-0.2,0.6-0.2c0,0,0.1,0,0.1-0.1c-0.1,0.6-0.2,1.7-0.2,2.7c0,0.4,0.1,0.9,0.3,1.3h-5.5
	c0,0,0-0.1-0.1-0.1c-0.4-0.7-0.3-1.9-0.3-2.4c0.1-0.4,0.2-0.8,0.2-0.9c0.9,0.2,1.9,0.2,2.6,0.1c0.3,0,0.4-0.1,0.6-0.1h-0.1l-0.1-0.1
	l-0.1-0.1v-0.1l0-0.1c-0.1,0-0.3,0.1-0.6,0.1c-0.6,0.1-1.6,0.1-2.4-0.1c-0.1,0-0.3,0-0.5-0.1c0.7-0.3,0.3-0.8,2.2-0.9
	C90.4,164.2,92.2,163.8,93.1,163.5L93.1,163.5z M100.1,163.6c0.4,0,1.1,0.6,1.8,0.9c0.8,0.2,2-0.6,2.7-0.8c0.6-0.1,0.9,0.2,1.3,0.5
	c-0.1,0.1-0.2,0.1-0.4,0.2c-0.2,0.1-0.4,0.2-0.6,0.3c-0.2,0.1-0.3,0.1-0.3,0.1c-0.8,0.2-2.5,0.3-3.5,0.4c-0.6,0-1.1-0.1-1.6-0.2
	c-0.2-0.1-0.3-0.1-0.5-0.2C99.3,164.5,99.8,163.7,100.1,163.6L100.1,163.6L100.1,163.6z M106.8,163.8c0.7,0.4,1.2,0.9,1.8,1.7
	c0.5,0.8,0.5,2.6,0,3.8c-0.4,0.9-2.7,2-2.7,2s1.2-2.5,1.1-3.4c-0.1-0.9-0.6-1.3-1.1-1.8c-0.4-0.4-1.2-0.9-1.2-0.9s0.8-0.8,1.3-1
	h-0.1c0,0,0.6,0.8,1,1.2c0.8,0.9,1,1.8,0.8,2.4c-0.3,1.3-0.8,2.3-0.8,2.3s0.6-0.6,0.9-1.4c0.6-1.3,0.3-2.1,0.2-2.5
	c-0.4-1.1-1.7-2.1-1.7-2.1V164c0.4-0.1,0.6-0.3,0.6-0.4L106.8,163.8z M131,163.9c0.2,0.3,0.4,0.7,0.6,1c-0.8,0.2-2,0.6-2.8,0.9
	c-0.8,0.4-1.3,1.2-2.8,0.9c-0.1,0-0.2,0-0.3-0.1c0-0.1,0.1-0.1,0.2-0.2c0.3-0.2,0.6-0.5,0.8-0.6c0.4-0.3,1.2-0.7,1.6-0.8
	c0.4-0.1,1.5-0.7,1.6-0.8C130.2,164,130.6,164.1,131,163.9L131,163.9z M63.6,164.7h1.9c0,0.1,0,0.2,0,0.3h-1.7c-0.4,0-1.2,0-1.8,0.6
	c-0.1,0.1,0.1,0.2,0.1,0.1c0.5-0.5,1.3-0.5,1.7-0.5h1.7c-0.2,1-0.4,1.9-0.7,2.8l-0.2,0.6l2.4,0.3l0.2-0.8c1-0.6,2.1-1.3,3-2.2
	c0,0,0.8-0.3,1.6-0.7c0.1,0,0.1-0.1,0.2-0.1h12c-0.1,0.5-0.2,1.9,0.2,3.4c0.1,0.2,0.1,0.4,0.2,0.7H62.9c-1.1-0.1-1.8-1.2-1.8-1.2
	c0,1,1.2,1.7,1.8,1.7h21.8c0.1,0.2,0.3,0.4,0.4,0.6H63.8c-0.4,0-1.2,0-1.7-0.5H62c-0.1,0-0.1,0.1-0.1,0.2c0.6,0.6,1.4,0.6,1.8,0.6
	h21.5c0.1,0.1,0.2,0.1,0.2,0.2h-22c-1.7,0-3.2-1.4-3.3-3.1C60.4,166.1,61.8,164.7,63.6,164.7L63.6,164.7z M66.5,164.7h4.2
	c-0.3,0.1-0.5,0.2-0.6,0.3h-3.6C66.4,164.9,66.5,164.8,66.5,164.7L66.5,164.7z M73,164.7h10.8c0,0.1,0.1,0.2,0.1,0.2H72.4
	c0.2-0.1,0.3-0.1,0.5-0.2C72.9,164.7,72.9,164.7,73,164.7L73,164.7z M108.4,164.7h14.2c0,0.1-0.1,0.2-0.1,0.3h-13.8
	C108.5,164.9,108.5,164.8,108.4,164.7L108.4,164.7z M146.1,164.7h3.2v0.3h-3.4C145.9,164.9,146,164.9,146.1,164.7L146.1,164.7
	L146.1,164.7z M93.5,164.9c0,0,1.1,0.1,1.7,0.3c0.5,0.2,1.4,0.7,1.4,0.7s-0.3,0.3-0.4,1c-0.1,0.7-0.5,1.1-0.4,2.1
	c0.1,1,1.4,2,1.9,2.4c0,0-0.8,0.1-2.1-0.1c-1.1-0.2-2.2-1.8-2.3-3.2C93.2,166.6,93.5,164.9,93.5,164.9L93.5,164.9z M33.1,164.9
	l-5.7,3.7c-0.6,0.4-1.1,0.8-1.6,1.3c-1.5,1.7-0.8,3.9,0.3,5.6c0.6,0.9,1.4,1.8,2.5,2.2c2,0.8,3.4-0.2,5-1.1l5-3.2
	c-0.1-0.2-0.3-0.4-0.4-0.5c-0.1-0.2-0.2-0.4-0.3-0.6l-4.3,2.7c-0.7,0.4-2.3,1.5-3.1,1.6c-1.5,0.3-2.5-0.1-3.3-1.4
	c-0.4-0.6-0.6-1.3-0.4-2c0.2-0.8,0.5-1.2,1.1-1.8c0.7-0.6,1.8-1.3,2.6-1.8l4-2.6c-0.3-0.3-0.5-0.6-0.8-1
	C33.5,165.7,33.3,165.3,33.1,164.9L33.1,164.9z M84.4,164.9l1.1,0.3h0c0,0-0.1,1.4,0,2.2c0.1,0.8,0.7,1.6,0.7,1.6s-0.3-1.1-0.3-1.6
	c0-0.6,0.1-1.9,0.1-2c0.4,0.1,1.5,0.3,1.5,0.3s-0.2,0.5-0.3,1.1c-0.1,0.6-0.1,1.8,0.3,2.6c0.9,1.7,2.6,1.9,2.6,1.9s-2.5,0.3-3.4-0.1
	c-0.9-0.4-1.7-1.5-2.1-2.7C84,166.5,84.4,164.8,84.4,164.9L84.4,164.9z M94.9,165.1c0,0-0.5,1-0.5,1.9c0,1.5,0.1,2,0.4,2.6
	c0.2,0.5,1.6,1.2,1.6,1.2s-1-0.8-1.2-2c-0.2-1.2,0.1-2.7,0.4-3.4L94.9,165.1z M66.4,165.2h3.3c-1,0.9-2.2,1.7-3.2,2.2l-0.2,0.1
	l-0.1,0.3l-0.5-0.1C66.1,166.9,66.3,166.1,66.4,165.2L66.4,165.2z M108.7,165.2h13.6c0,0.1-0.1,0.3-0.1,0.4
	c-0.1,0.2-0.1,0.4-0.1,0.5c0,0.2,0.1,0.3,0.2,0.4c0.1,0.1,0.3,0.2,0.4,0.2c0,0.2,0,0.4,0.1,0.9c0.1,0.5,0.2,1.1,0.4,1.6h-14.5
	c0.2-0.6,0.4-1.4,0.4-2.1c0-0.7-0.1-1.4-0.4-1.9C108.8,165.3,108.7,165.2,108.7,165.2L108.7,165.2z M145.9,165.2h3.4v4.1h-3.4
	c0.2-0.6,0.4-1.4,0.4-2.2C146.2,166.2,146,165.5,145.9,165.2z M98.5,165.3c0,0,0.1,0,0.3,0.1c0.2,0.1,0.4,0.1,0.6,0.2
	c0.5,0.2,1.1,0.3,1.8,0.3c0.9-0.1,2.3-0.1,3.3-0.3c0.1,0.1,0.7,0.4,1,0.7c0.5,0.5,0.9,0.9,1,1.6c0,0.2-0.1,0.8-0.3,1.4h-10
	c-0.1-0.1-0.1-0.3-0.1-0.4c-0.1-0.4,0-0.7,0.1-1c0.1-0.3,0.2-0.6,0.3-1c0-0.3,0.1-0.5,0.2-0.6c0.2,0,0.4,0,0.5-0.1
	c0.2,0,0.3-0.2,0.4-0.3c0.1-0.1,0.2-0.2,0.2-0.4c0.1-0.1,0.1-0.2,0.1-0.3C98.1,165.3,98.3,165.2,98.5,165.3L98.5,165.3z M132,165.4
	c0.1,0.1,0.1,0.1,0.2,0.2c0.5,0.5,1.2,0.9,2,1.2c0.1,0.1,0.1,0.1,0.2,0.2c0.2,0.3,0.3,0.6,0.3,0.9c0,0.5-0.1,1-0.2,1.4h-8.1
	c-0.3-0.7-0.3-1.6-0.3-2c1.6,0.2,2.6-0.8,3.1-1C129.8,166,131.4,165.6,132,165.4L132,165.4z M145.3,165.5c0.1,0.2,0.2,0.7,0.3,1.5
	c0,1-0.2,1.8-0.6,2.5c-0.1,0.3-0.6,0.7-1.1,0.9h-0.1c0.2-0.4,0.4-0.6,0.6-1.2c0.3-1,0-2.2-0.1-2.6c-0.1-0.4-0.2-0.5-0.4-0.7h0.3
	c0,0,0.1,0,0.1-0.1c0.1-0.1,0.3-0.1,0.4-0.2c0.1,0.2,0.2,0.4,0.3,0.9c0.2,0.8,0.1,1.9,0.1,1.9s0.4-1.2,0.3-1.9
	c-0.1-0.4-0.2-0.8-0.3-1.1C145.2,165.6,145.2,165.5,145.3,165.5L145.3,165.5z M138.5,165.6c0.2,0,0.5,0,0.9,0.1
	c0.5,0.1,1.2,0.1,1.9,0.2c0.7,0.1,1.4,0.2,1.6,0.3h0.4c0,0.1,0.4,0.5,0.4,0.8c0.1,0.4,0.4,1.6,0.1,2.2v0.1h-6.5
	c0-0.1,0.1-0.2,0.1-0.2c0.2-0.8,0.2-2,0.2-2.5c0.2-0.1,0.3-0.1,0.5-0.2C138.3,166.3,138.5,166,138.5,165.6L138.5,165.6z M90.8,166
	L90.8,166L90.8,166z M203.6,166l4.1,0.6l-1.5,2.7L203.6,166z M136.9,166.8c0,0.4,0.1,1.4-0.1,2.1c-0.3,0.9-1.1,1.7-1.9,2.1
	c-0.4,0.2-0.4,0.1-0.6,0.2c0.2-0.4,0.4-0.8,0.6-1.1c0.4-0.6,0.4-1.4,0.4-2.2c0-0.4-0.2-0.7-0.4-1h0.4
	C135.8,167,136.4,166.9,136.9,166.8L136.9,166.8z M123.6,166.9h0.3c0.1,0,0.1,0,0.2,0.1c0.1,0,0.3,0.1,0.5,0.1c0,0.5,0,1.4,0.1,1.8
	c0.2,0.6,0.8,1.1,0.8,1.1s-0.4-1.2-0.4-1.8c0-0.3,0.1-0.7,0.1-1c0.1,0.1,0.3,0.1,0.4,0.1c0,0.4-0.1,1.5,0.5,2.5
	c0.3,0.6,0.6,0.9,0.9,1.1c0.3,0.2,0.6,0.2,0.9,0.3c0.3,0.1,0.4,0.1,0.7,0.1c-0.4,0.2-0.8,0.5-1.3,0.4c-0.5-0.1-1.1-0.4-1.7-0.9
	c-0.6-0.4-1.1-1-1.3-1.3c-0.3-0.5-0.5-1.2-0.6-1.9C123.5,167.3,123.5,167.2,123.6,166.9L123.6,166.9z M136,167.2l-0.3,0.1
	c0,0,0,1.3-0.1,1.7c-0.1,0.4-0.4,1.2-0.4,1.2s0.7-1,0.8-1.6C136.1,168,136,167.2,136,167.2L136,167.2z M178.3,167.9h0.3
	c-0.6,0.3-1.1,0.5-1.2,0.6C177.9,168.2,178.3,167.9,178.3,167.9L178.3,167.9z M198.9,169.1c-1,0.5-2,1.4-2.6,2.3
	c-2.1,3-2.2,6.6,1.3,9.1c2.8,2,6.1,1.1,8.2-1.9c0.6-0.9,1.2-2,1.3-3.1l-1-1.1l-0.2,0.1c0.1,1-0.1,2.3-0.7,3.2
	c-1.5,2.1-3.9,2.1-6.3,0.4c-2-1.4-3.5-3.9-1.9-6.1c0.6-0.9,1.8-1.4,2.9-1.4l0.1-0.2C199.7,169.9,199.3,169.5,198.9,169.1
	L198.9,169.1z M108.5,169.9h15.1c0.1,0.2,0.3,0.4,0.5,0.6h-16.4C108.1,170.3,108.3,170.1,108.5,169.9L108.5,169.9z M88.1,169.9h5.4
	c0.1,0.1,0.2,0.3,0.3,0.4c0.1,0.1,0.1,0.2,0.2,0.2h-5.1C88.6,170.3,88.4,170.1,88.1,169.9z M96.6,169.9h9.4
	c-0.1,0.2-0.2,0.4-0.3,0.6h-8.6c-0.1-0.1-0.2-0.2-0.3-0.3C96.8,170.1,96.7,170,96.6,169.9z M126.7,169.9h7.6l-0.4,0.6h-6.2
	c-0.2-0.1-0.4-0.1-0.5-0.2C127,170.2,126.9,170.1,126.7,169.9z M137.1,169.9h6.6c-0.1,0.2-0.2,0.4-0.3,0.6h-6.7
	C136.8,170.3,136.9,170.1,137.1,169.9L137.1,169.9z M145.7,169.9h3.6v0.6h-4.1C145.4,170.3,145.6,170.1,145.7,169.9L145.7,169.9z
	 M89.2,170.7h4.9l0.2,0.2h-4.5C89.7,170.9,89.5,170.8,89.2,170.7L89.2,170.7z M97.5,170.7h8.3c-0.1,0.1-0.1,0.2-0.1,0.2h-7.9
	C97.6,170.8,97.6,170.8,97.5,170.7L97.5,170.7z M107.5,170.7h16.9c0.1,0.1,0.2,0.2,0.3,0.2h-17.5l0.1-0.1
	C107.3,170.7,107.4,170.7,107.5,170.7L107.5,170.7z M130,170.7h3.8c-0.1,0.1-0.1,0.1-0.1,0.2h-3.8L130,170.7z M136.4,170.7h6.8
	c0,0.1-0.1,0.2-0.1,0.2h-6.9C136.2,170.8,136.3,170.8,136.4,170.7z M145,170.7h4.3v0.2h-4.7C144.8,170.9,144.9,170.8,145,170.7
	L145,170.7z M64.3,171.5h19.4v2.3h-2.2v3.5h0.1v-3.5h2.2v-2.4h0.7v2.8h-2.2v3h1.4v3.8h-8.4v-3.7h1.6v-3h-5.1v3h0.8v3.7h-8.4v-3.7
	h2.2v-3h0v-0.5h-2.1v0.1h2.1v0.4h-2.1L64.3,171.5z M96.8,171.8h2.2l-0.5,1.4l0.3,0.1l0.6-1.5h2.2l-0.5,1.4l-2.8,1.1l-1.6-2.1
	L96.8,171.8z M101.8,171.8h2.2l-0.8,3l0.3,0.1l0.8-3.1h0.8l-0.1,0.1l0.3-0.1h0.9l-0.6,2.9l-2.7,1.1l-1.8-2.4L101.8,171.8z
	 M106.7,171.8h1.9l-0.6,3.9h0.3l0.6-3.9h1.9l-0.3,3.6l-2.5,1l-1.9-1.5L106.7,171.8z M111.2,171.8h3.1v3.9h0.3v-3.9h3.2l0.3,3.6
	l-3.7,1.9l-3.6-1.9L111.2,171.8z M118.3,171.8h1.8l0.6,3.9h0.3l-0.6-3.9h1.9l0.6,3.1l-1.9,1.5l-2.4-0.9L118.3,171.8z M122.7,171.8
	h1.9l0.8,3.1l0.3-0.1l-0.8-3h0.9c0.4,0.2,0.8,0.4,1.1,0.5h0.4l0.4,1.2l-1.8,2.4l-2.7-1.1L122.7,171.8z M128.9,171.8h0.9l0.6,1.5
	l0.3-0.1l-0.5-1.4h2.2l0.2,0.4l-1.6,2.1l-2.8-1.1l-0.3-1C128.2,172.2,128.6,172,128.9,171.8L128.9,171.8z M71,173.8v3.5h0.1
	L71,173.8l5.8,0.1v0.4h0.1v-0.5L71,173.8z M39.8,175.1l-8.7,7.4c0.2,0.2,0.3,0.3,0.5,0.5s0.3,0.4,0.4,0.5l6.2-5.2l-0.3,2.6
	c-0.3,2.7-0.7,5.4-1.1,8.3l0.9,1.1l8.8-7.4c-0.2-0.1-0.3-0.3-0.5-0.5c-0.1-0.2-0.3-0.4-0.4-0.6l-6,5c0.5-3.5,0.9-7.1,1.3-10.6
	L39.8,175.1z M72.6,177.2h0.8v4.2h-9.2v-0.4h8.5L72.6,177.2L72.6,177.2z M83.6,177.2h0.8v4.2h-9.2v-0.4h8.5L83.6,177.2L83.6,177.2z
	 M191.7,177.8c-0.2,0.3-0.5,0.7-0.7,1c-0.3,0.3-0.6,0.6-0.9,0.9l8.8,7.4c0.2-0.3,0.5-0.7,0.7-1c0.3-0.3,0.6-0.6,0.9-0.9L191.7,177.8
	z M188.8,182.5c-0.3,0-0.6,0.1-0.8,0.2c-0.7,0.2-1.6,1.1-2.1,1.7l-2.5,2.5l8.2,8c0.3-0.3,0.5-0.6,0.8-0.9c0.3-0.3,0.6-0.6,0.9-0.8
	l-3.8-3.8l0.1-0.1c0.7,0.2,1.6,0.4,2.1,0.5l3.9,1c0.3-0.4,0.6-0.8,1-1.1c0.4-0.4,0.8-0.7,1.1-1l-1.2-0.3c-1.8-0.4-3.6-0.7-5.4-1.2
	c0.8-1.3,0.8-2.8-0.3-4c-0.5-0.5-1-0.7-1.6-0.8L188.8,182.5z M48,184.4l-8.1,8.1c0.3,0.3,0.7,0.5,0.9,0.8c0.3,0.3,0.6,0.6,0.8,0.9
	l8.1-8.1c-0.3-0.3-0.7-0.5-0.9-0.8C48.6,185,48.3,184.7,48,184.4L48,184.4z M187.6,184.6c0.2,0,0.5,0.1,0.8,0.3
	c0.3,0.2,0.5,0.4,0.7,0.5c1.2,1.2,1.2,2.4-0.1,3.5l-3.2-3.1C186.3,185.2,186.8,184.5,187.6,184.6L187.6,184.6z M50.7,187.1
	c-0.1,0.2-0.2,0.4-0.4,0.6c-0.2,0.2-0.4,0.3-0.5,0.5c0.7,0.5,1.6,1.1,2.5,1.9l-6.7,7.8c0.3,0.2,0.7,0.5,1,0.8
	c0.3,0.3,0.6,0.6,0.9,0.9l6.7-7.8c0.8,0.7,1.4,1.4,2.1,2.1c0.1-0.2,0.2-0.4,0.4-0.6c0.2-0.2,0.3-0.3,0.5-0.5L50.7,187.1z
	 M182.4,187.8l-4.9,4.1l7.4,8.7l4.8-4.1c-0.2-0.2-0.4-0.3-0.5-0.5c-0.1-0.2-0.3-0.4-0.4-0.6c-0.7,0.8-1.5,1.6-2.8,2.7l-2.8-3.2
	l1.3-1.1c0.6-0.5,1.1-0.9,1.7-1.2c-0.2-0.2-0.4-0.3-0.5-0.5c-0.1-0.2-0.3-0.4-0.4-0.6c-0.4,0.5-0.9,1-1.4,1.4l-1.3,1.1l-2.3-2.7
	c1.3-1.1,2.2-1.8,3.1-2.3c-0.2-0.2-0.4-0.3-0.5-0.5C182.6,188.3,182.5,188,182.4,187.8L182.4,187.8z M58,193.3l-6.7,9.2l5.2,3.8
	c0.1-0.2,0.2-0.4,0.4-0.6c0.1-0.2,0.3-0.4,0.5-0.5c-0.9-0.5-1.9-1.1-3.3-2.1l2.5-3.4l1.4,1c0.6,0.4,1.1,0.9,1.6,1.3
	c0.1-0.2,0.2-0.4,0.4-0.6c0.1-0.2,0.3-0.4,0.5-0.5c-0.6-0.3-1.1-0.6-1.7-1.1l-1.4-1l2.1-2.9c1.4,1,2.2,1.8,3,2.4
	c0.1-0.2,0.2-0.4,0.3-0.6c0.1-0.2,0.3-0.4,0.5-0.5L58,193.3z M175.5,193.7c-0.2,0.2-0.4,0.4-0.6,0.5c-0.2,0.1-0.4,0.2-0.6,0.3
	c0.5,3.1,0.8,6.1,1.2,8.7c-2.6-1.4-5.1-2.8-7.6-4.4c-0.2,0.2-0.4,0.4-0.5,0.5c-0.2,0.1-0.4,0.2-0.6,0.3c1.9,3.8,3.6,7.3,5,10.4
	c0.2-0.2,0.4-0.4,0.6-0.5c0.2-0.1,0.5-0.2,0.7-0.4c-1.3-2-2.4-4-3.7-6.7c2.5,1.5,5.1,2.9,7.2,4.2c0.1-0.2,0.3-0.2,0.5-0.3
	c-0.5-2.8-0.9-5.6-1.3-8.5c1.7,2,3.4,3.9,5,6.1c0.4-0.3,0.7-0.6,1.1-0.8c0.4-0.3,0.8-0.5,1.2-0.7
	C180.8,199.9,178.5,197.1,175.5,193.7L175.5,193.7z M64.4,197.9l-5.7,9.9l4,2.3c3,1.7,6.4,1.1,8.3-2.2c1.4-2.4,1.3-5.3-1.7-7.2
	L64.4,197.9z M66.1,200l1.4,0.8c2,1.2,2.7,3,1.1,5.7c-2,3.4-4.1,3.5-6.1,2.4l-1.2-0.7L66.1,200z M161,202.5
	c-0.2,0.1-0.4,0.2-0.6,0.4c-0.2,0.1-0.4,0.1-0.6,0.2l1,12.5c0.2-0.1,0.4-0.3,0.7-0.4c0.2-0.1,0.5-0.2,0.7-0.3
	c-0.2-1.2-0.3-2.3-0.5-3.6l3.5-1.8c0.9,0.8,1.7,1.6,2.6,2.6c0.4-0.2,0.8-0.5,1.2-0.7c0.4-0.2,0.9-0.4,1.3-0.6L161,202.5z
	 M161.4,205.9l3.1,2.8l-2.7,1.4L161.4,205.9z M80.3,206c-1.6-0.1-2.8,0.8-3.3,2.2c-1.6,3.8,3.5,4.8,2.4,7.3
	c-0.5,1.1-1.5,1.3-2.5,0.9c-1.1-0.4-1.7-1.4-1.5-2.6l-0.3-0.1c-0.4,0.6-0.8,1.2-1.3,1.8c0.5,0.8,1.4,1.4,2.2,1.7
	c2.4,1,4.8,0.3,5.6-1.7c1.5-3.6-3.4-5.2-2.6-7.3c0.4-0.9,1.1-1.3,2.4-0.8c0.9,0.4,1.3,1.2,1.2,2.1l0.2,0.1c0.4-0.5,0.8-0.9,1.1-1.3
	c-0.2-0.5-1-1.3-2.2-1.8C81.4,206.2,80.9,206.1,80.3,206L80.3,206z M151.8,207.2l-6.1,2.2l3.9,10.8l2.1-0.8l-1.9-5.2l4-1.4l-0.5-1.1
	l-3.9,1.4l-1.1-3.2l4.1-1.5L151.8,207.2z M85.1,208c0,0.2-0.1,0.5-0.1,0.7c-0.1,0.2-0.2,0.4-0.3,0.7c0.9,0.1,1.9,0.3,3.1,0.7l-3,9.9
	c0.4,0.1,0.8,0.1,1.2,0.3c0.4,0.1,0.8,0.3,1.2,0.4l3-9.8c1,0.3,1.9,0.7,2.8,1.1c0-0.2,0.1-0.5,0.1-0.7c0.1-0.2,0.2-0.4,0.3-0.6
	L85.1,208z M140,210.7c-0.5,0-1.1,0.1-1.6,0.2c-4.1,0.9-5.9,4.1-5.2,7.4c0.8,3.8,3.7,5.4,7.4,4.6c4-0.9,5.9-4.2,5.2-7.4
	C145.2,213.2,143.6,210.6,140,210.7L140,210.7z M97.9,211.3L91,221.8c0.3,0,0.5,0,0.8,0.1c0.3,0.1,0.5,0.1,0.8,0.2
	c0.5-1.1,1.1-2,1.8-3.2l3.8,0.8c0.2,1.2,0.3,2.4,0.5,3.7c0.5,0,1,0.1,1.4,0.2c0.5,0.1,0.9,0.2,1.4,0.4l-2.4-12.3
	c-0.2,0-0.4,0-0.6-0.1C98.3,211.4,98.1,211.4,97.9,211.3L97.9,211.3z M139.3,211.8c2,0.1,3.2,2.1,3.6,3.9c0.6,2.8,0,5.5-2.6,6.1
	c-2.5,0.5-3.9-1.5-4.4-3.7c-0.8-3.7,0.2-5.7,2.5-6.2C138.8,211.8,139.1,211.8,139.3,211.8L139.3,211.8z M103.6,212.5v0.7
	c0,0.3-0.1,0.5-0.2,0.7c0.9,0,1.9,0,3.1,0.1l-0.9,10.2h1.3c0.4,0,0.8,0.1,1.2,0.2l0.9-10.2c1,0.1,2,0.3,3,0.5V214
	c0-0.2,0-0.4,0.1-0.7L103.6,212.5z M124.8,213.1h-0.4c-2.6,0.1-3.9,1.8-3.8,3.7c0.2,4.1,5.2,2.9,5.3,5.6c0.1,1.2-0.9,1.9-1.9,1.9
	c-1.2,0.1-2.1-0.6-2.4-1.8h-0.3c-0.1,0.7-0.2,1.5-0.4,2.2c0.8,0.5,1.9,0.6,2.8,0.6c2.6-0.1,4.5-1.8,4.4-3.9
	c-0.2-3.9-5.3-3.3-5.4-5.6c-0.1-1,0.4-1.6,1.8-1.7c1,0,1.6,0.5,2,1.4h0.3c0.1-0.6,0.3-1.1,0.5-1.7
	C126.7,213.5,125.8,213.1,124.8,213.1L124.8,213.1z M113.1,213.5v11.4h6.4c0-0.2-0.1-0.5-0.1-0.7s0.1-0.5,0.1-0.7
	c-1,0.1-2.2,0.2-3.9,0.2v-4.2h1.7c0.8,0,1.4,0.1,2.1,0.2c0-0.3-0.1-0.5-0.1-0.7c0-0.2,0.1-0.5,0.1-0.7c-0.6,0.1-1.3,0.2-2.1,0.2
	h-1.7v-3.6c1.7,0,2.8,0.1,3.8,0.2c0-0.2-0.1-0.5-0.1-0.7c0-0.2,0.1-0.5,0.1-0.7L113.1,213.5z M97.3,214.5l0.7,4.1l-3-0.6L97.3,214.5
	z"/>
</svg>
