<svg xmlns="http://www.w3.org/2000/svg" viewBox="0 0 999 699.24"><defs><style>.a{fill:#00a1e0;}</style></defs><title>salesforce</title><path class="a" d="M395,297.18c-7.6,0-13,3-16.55,8.4-2.35,3.57-3.86,8.15-4.68,13.66h41.3c-.41-5.31-1.45-10.09-3.83-13.66C407.62,300.17,402.59,297.18,395,297.18Z" transform="translate(-0.5 -0.5)"/><path class="a" d="M281.2,332.14a118.76,118.76,0,0,0-15.71-1.34c-11.81-.16-16.83,4.2-16.79,4.18-3.49,2.46-5.17,6.12-5.17,11.21a14,14,0,0,0,1.72,7.53,11.73,11.73,0,0,0,3.34,3.43s5.19,4.1,17,3.39a117.64,117.64,0,0,0,15.64-2.08h0Z" transform="translate(-0.5 -0.5)"/><path class="a" d="M858.73,297.18c-7.6,0-13,3-16.55,8.4-2.35,3.57-3.87,8.15-4.68,13.66h41.3c-.41-5.31-1.45-10.09-3.84-13.66C871.35,300.17,866.33,297.18,858.73,297.18Z" transform="translate(-0.5 -0.5)"/><path class="a" d="M784.13,95.22A213,213,0,0,0,697,113.73c-30.64-54.59-88.17-91.36-154.12-91.36-49.61,0-94.46,20.82-126.68,54.39A193.79,193.79,0,0,0,261.95.5c-107.16,0-194,86.75-194,193.77a192.86,192.86,0,0,0,16,77.06A168.74,168.74,0,0,0,.5,417.26c0,93.05,74.65,168.48,166.74,168.48a164.77,164.77,0,0,0,34.27-3.57,179.62,179.62,0,0,0,333.91,8.13A157.44,157.44,0,0,0,741.71,525.5a213.81,213.81,0,0,0,42.42,4.23c118.94,0,215.37-97.27,215.37-217.26S903.07,95.22,784.13,95.22ZM214.41,347.36c0,17.55-12.72,28.45-33.21,28.45-10.06,0-19.68-1.58-29.87-7a58.44,58.44,0,0,1-5.71-3.44c-.2-.28-1.05-.63-.43-2.26l4-11.21a1.62,1.62,0,0,1,2.69-.93c1.11.67,1.95,1.28,3.39,2.12a48.46,48.46,0,0,0,26.4,7.6c8.91,0,14.43-4.72,14.43-11.07v-.34c0-6.94-8.5-9.55-18.36-12.58l-2.18-.67c-13.53-3.87-28-9.42-28-26.54v-.34c0-16.24,13.09-27.57,31.85-27.57h2a58.11,58.11,0,0,1,29.36,7.88,1.91,1.91,0,0,1,1,2.31c-.36,1-3.77,10.19-4.17,11.21-.73,1.92-2.7.64-2.7.64A59.08,59.08,0,0,0,179,297c-7.94,0-13.06,4.21-13.06,9.93v.36c0,6.69,8.77,9.53,18.93,12.84l1.75.57c13.48,4.26,27.84,10.15,27.84,26.37Zm83.91,22.8s-2.13.58-4.06,1S285.36,373,279.68,374a104.54,104.54,0,0,1-17.59,1.47,69.17,69.17,0,0,1-15.33-1.57,31.65,31.65,0,0,1-11.8-5.11,23.83,23.83,0,0,1-7.56-9.05,30.25,30.25,0,0,1-2.65-13.22,27,27,0,0,1,11.48-22.9,37.18,37.18,0,0,1,12.1-5.61,54.92,54.92,0,0,1,14.26-1.84c3.64,0,6.69.1,9,.27,0,0,4.57.41,9.55,1.12v-2.45c0-7.71-1.61-11.37-4.77-13.79s-8.05-3.74-14.32-3.74c0,0-14.09-.18-25.23,5.88a7.46,7.46,0,0,1-1,.47A1.46,1.46,0,0,1,234,303l-4.1-11a1.81,1.81,0,0,1,.51-2.31c5.21-4.07,17.86-6.52,17.86-6.52a95.27,95.27,0,0,1,15.51-1.44c11.57,0,20.52,2.69,26.6,8s9.21,13.95,9.21,25.56l0,53A1.82,1.82,0,0,1,298.32,370.16Zm38.87,1.67a1.68,1.68,0,0,1-1.66,1.75H320.17a1.67,1.67,0,0,1-1.65-1.75V248.25a1.67,1.67,0,0,1,1.65-1.75h15.35a1.68,1.68,0,0,1,1.66,1.75Zm95.88-39.76a1.71,1.71,0,0,1-1.68,1.51l-57.91-.06c.37,8.79,2.46,15,6.75,19.27s10.83,6.79,19.79,6.8c13.76,0,19.64-2.73,23.78-4.27a1.68,1.68,0,0,1,2.19,1l3.77,10.6c.77,1.79.16,2.42-.48,2.78-3.63,2-12.44,5.73-29.16,5.79a58.31,58.31,0,0,1-21-3.4,37.18,37.18,0,0,1-23-24.36,61.93,61.93,0,0,1-2.63-18.49,65.5,65.5,0,0,1,2.55-18.49,41.72,41.72,0,0,1,7.84-15,38,38,0,0,1,13.33-10.17c5.32-2.5,11.9-3.71,19.11-3.71A42.35,42.35,0,0,1,413,285.2c3.61,1.57,7.26,4.37,11,8.38a36,36,0,0,1,7.4,13.55A62,62,0,0,1,433.08,332.07Zm18.25,36.74a58.43,58.43,0,0,1-5.71-3.44c-.2-.28-1.05-.63-.43-2.26l4-11.21a1.75,1.75,0,0,1,2.7-.93c1.08.7,1.94,1.28,3.37,2.12a48.46,48.46,0,0,0,26.4,7.6c8.91,0,14.44-4.72,14.44-11.07v-.34c0-6.94-8.51-9.55-18.37-12.58l-2.18-.67c-13.53-3.87-28-9.42-28-26.54v-.34c0-16.24,13.09-27.57,31.85-27.57h2a58.11,58.11,0,0,1,29.36,7.88,1.91,1.91,0,0,1,1,2.31c-.36,1-3.77,10.19-4.17,11.21-.73,1.92-2.7.64-2.7.64A59.08,59.08,0,0,0,479,297c-7.94,0-13.06,4.21-13.06,9.93v.36c0,6.69,8.77,9.53,18.93,12.84l1.75.57c13.48,4.26,27.84,10.15,27.84,26.37v.34c0,17.55-12.72,28.45-33.21,28.45C471.14,375.8,461.52,374.22,451.33,368.82ZM584.5,285.48l-2.16,12a2,2,0,0,1-1.94,1.69H561.34l-13,73.82a110,110,0,0,1-5.09,19.44,38.2,38.2,0,0,1-7.51,13,26.84,26.84,0,0,1-10.7,7.46,42.43,42.43,0,0,1-14.22,2.21,35.13,35.13,0,0,1-8.48-.8,47.37,47.37,0,0,1-5.29-1.55,1.75,1.75,0,0,1-.9-2.32c.41-1.15,3.83-10.53,4.3-11.77a1.6,1.6,0,0,1,2.09-.92,13.72,13.72,0,0,0,3.13,1,25.58,25.58,0,0,0,4.64.51,21.54,21.54,0,0,0,6.82-1,10.77,10.77,0,0,0,5.29-4.08,29.16,29.16,0,0,0,4-8.24,89.68,89.68,0,0,0,3.47-14.27l13-72.46H530.06c-1.54,0-2-.73-1.88-1.86l2.15-12.05a2,2,0,0,1,1.94-1.68h13.15l.71-3.91c2-11.63,5.88-20.46,11.64-26.27s14-8.79,24.52-8.79a45.32,45.32,0,0,1,7.87.6,49.75,49.75,0,0,1,5.72,1.37,1.55,1.55,0,0,1,1.07,2l-4.43,12.15c-.37.91-.63,1.47-2.52.9-.47-.14-1.17-.34-3-.73a24.29,24.29,0,0,0-4.75-.47,20.14,20.14,0,0,0-6.22.88,12.15,12.15,0,0,0-4.85,3,17.09,17.09,0,0,0-4.06,6.18,80.38,80.38,0,0,0-3.06,13.06h18.51C584.16,283.62,584.65,284.33,584.5,285.48Zm82.6,61.64A41.17,41.17,0,0,1,659.32,362a36.71,36.71,0,0,1-13.14,9.9,48.67,48.67,0,0,1-36.67,0,36.71,36.71,0,0,1-13.13-9.9,41.43,41.43,0,0,1-7.8-14.86,68.74,68.74,0,0,1,0-36.77,41.85,41.85,0,0,1,7.78-14.86,37.82,37.82,0,0,1,13.15-10,47.62,47.62,0,0,1,36.67,0,37.63,37.63,0,0,1,13.14,10,41.17,41.17,0,0,1,7.78,14.86,68.36,68.36,0,0,1,0,36.77Zm71.57-60.5c-.54,1.58-3.36,9.51-4.35,12.15-.37,1-1,1.69-2.11,1.57a32.5,32.5,0,0,0-6.36-.78,27.91,27.91,0,0,0-7.77,1.1,17.78,17.78,0,0,0-7.16,4.3,21.87,21.87,0,0,0-5.07,8.52c-1.28,3.63-1.92,9.41-1.92,15.2v43.15a1.76,1.76,0,0,1-1.75,1.76H687a1.77,1.77,0,0,1-1.76-1.76V285.46a1.68,1.68,0,0,1,1.67-1.76h14.84a1.68,1.68,0,0,1,1.67,1.76v7c2.22-3,6.2-5.59,9.79-7.21s7.66-2.85,14.93-2.41a50.24,50.24,0,0,1,9.71,1.66A1.56,1.56,0,0,1,738.67,286.63Zm72.4,84.47a69.61,69.61,0,0,1-24.22,4.33c-14.83,0-26.2-4.28-33.77-12.71s-11.38-19.87-11.38-34.05a59.16,59.16,0,0,1,2.79-18.41,42.45,42.45,0,0,1,8.33-14.86,39.5,39.5,0,0,1,13.78-10,46.52,46.52,0,0,1,19.07-3.67,85.62,85.62,0,0,1,12.84.87,66.7,66.7,0,0,1,11.41,2.87,1.54,1.54,0,0,1,1.05,2c-1.59,4.57-2.7,7.54-4.2,11.7-.64,1.76-2,1.18-2,1.18a56.85,56.85,0,0,0-18.07-2.59c-8.47,0-14.81,2.83-19,8.35s-6.53,12.84-6.56,22.53c0,10.64,2.62,18.51,7.34,23.38s11.28,7.33,19.57,7.33a61.84,61.84,0,0,0,9.38-.67,39.28,39.28,0,0,0,8-2.28,1.62,1.62,0,0,1,2.18,1l4.2,11.6A1.56,1.56,0,0,1,811.07,371.1Zm85.74-39a1.71,1.71,0,0,1-1.68,1.51l-57.9-.06c.37,8.79,2.46,15,6.75,19.27s10.83,6.79,19.81,6.8c13.73,0,19.62-2.73,23.77-4.27a1.66,1.66,0,0,1,2.18,1l3.79,10.6c.77,1.79.16,2.42-.48,2.78-3.63,2-12.44,5.73-29.16,5.79a58.31,58.31,0,0,1-21-3.4,37.18,37.18,0,0,1-23-24.36,61.93,61.93,0,0,1-2.63-18.49,65,65,0,0,1,2.55-18.49,41.72,41.72,0,0,1,7.84-15A38,38,0,0,1,841,285.55c5.32-2.5,11.88-3.71,19.11-3.71a42.35,42.35,0,0,1,16.59,3.36c3.61,1.57,7.26,4.37,11,8.38a36,36,0,0,1,7.41,13.55A62.1,62.1,0,0,1,896.81,332.07Z" transform="translate(-0.5 -0.5)"/><path class="a" d="M627.85,297.53c-7.61,0-13,2.63-16.58,8s-5.41,13.26-5.41,23.17,1.82,17.75,5.41,23.25,9,8.13,16.58,8.13,13-2.66,16.65-8.13S650,338.66,650,328.74s-1.85-17.7-5.48-23.17S635.45,297.53,627.85,297.53Z" transform="translate(-0.5 -0.5)"/></svg>